M48
; DRILL file {KiCad 8.0.8} date 2025-02-27T12:07:14-0800
; FORMAT={-:-/ absolute / metric / decimal}
; #@! TF.CreationDate,2025-02-27T12:07:14-08:00
; #@! TF.GenerationSoftware,Kicad,Pcbnew,8.0.8
; #@! TF.FileFunction,Plated,1,4,PTH
FMAT,2
METRIC
; #@! TA.AperFunction,Plated,PTH,ViaDrill
T1C0.300
; #@! TA.AperFunction,Plated,PTH,ComponentDrill
T2C0.762
; #@! TA.AperFunction,Plated,PTH,ComponentDrill
T3C0.800
; #@! TA.AperFunction,Plated,PTH,ComponentDrill
T4C1.000
; #@! TA.AperFunction,Plated,PTH,ComponentDrill
T5C1.200
; #@! TA.AperFunction,Plated,PTH,ComponentDrill
T6C2.500
%
G90
G05
T1
X91.05Y-104.05
X91.06Y-104.85
X91.06Y-105.65
X91.83Y-104.05
X91.84Y-104.85
X91.84Y-105.65
X92.61Y-104.04
X92.62Y-104.84
X92.62Y-105.64
X93.37Y-104.04
X93.38Y-104.84
X93.38Y-105.64
X126.48Y-104.09
X126.49Y-104.89
X126.49Y-105.69
X127.26Y-104.09
X127.27Y-104.89
X127.27Y-105.69
X128.04Y-104.08
X128.05Y-104.88
X128.05Y-105.68
X128.8Y-104.08
X128.81Y-104.88
X128.81Y-105.68
T2
X101.78Y-160.23
X101.78Y-178.01
X109.4Y-160.23
X109.4Y-178.01
T3
X87.06Y-120.23
X87.06Y-122.73
X89.45Y-99.05
X89.45Y-101.55
X97.91Y-109.78
X97.91Y-117.4
X97.94Y-120.22
X99.16Y-99.125
X99.16Y-101.625
X100.44Y-120.22
X100.45Y-109.78
X100.45Y-117.4
X102.99Y-109.78
X102.99Y-117.4
X105.53Y-109.78
X105.53Y-117.4
X108.07Y-109.78
X108.07Y-117.4
X110.61Y-109.78
X110.61Y-117.4
X113.15Y-109.78
X113.15Y-117.4
X115.69Y-109.78
X115.69Y-117.4
X118.23Y-109.78
X118.23Y-117.4
X120.77Y-109.78
X120.77Y-117.4
X125.95Y-99.175
X125.95Y-101.675
X129.79Y-141.19
X130.0Y-99.89
X130.0Y-102.39
X132.29Y-141.19
T4
X84.48Y-125.92
X84.48Y-128.46
X84.48Y-131.0
X84.48Y-133.54
X84.48Y-136.08
X87.03Y-125.95
X87.03Y-128.49
X87.03Y-131.03
X87.03Y-133.57
X87.03Y-136.11
X126.06Y-109.14
X126.06Y-111.68
X126.06Y-114.22
X126.06Y-116.76
X126.06Y-119.3
X129.75Y-126.0
X129.75Y-128.54
X129.75Y-131.08
X129.75Y-133.62
X129.75Y-136.16
X132.29Y-126.005
X132.29Y-128.545
X132.29Y-131.085
X132.29Y-133.625
X132.29Y-136.165
T5
X91.83Y-148.58
X91.83Y-163.82
T6
X100.4Y-145.56
X101.4Y-141.56
X101.4Y-149.56
X104.9Y-139.81
X104.9Y-151.31
X109.4Y-139.81
X109.4Y-151.31
X113.9Y-139.81
X113.9Y-151.31
X117.4Y-141.56
X117.4Y-149.56
X118.4Y-145.56
M30
