%TF.GenerationSoftware,KiCad,Pcbnew,8.0.8*%
%TF.CreationDate,2025-02-27T12:07:19-08:00*%
%TF.ProjectId,proto,70726f74-6f2e-46b6-9963-61645f706362,rev?*%
%TF.SameCoordinates,Original*%
%TF.FileFunction,Copper,L3,Inr*%
%TF.FilePolarity,Positive*%
%FSLAX46Y46*%
G04 Gerber Fmt 4.6, Leading zero omitted, Abs format (unit mm)*
G04 Created by KiCad (PCBNEW 8.0.8) date 2025-02-27 12:07:19*
%MOMM*%
%LPD*%
G01*
G04 APERTURE LIST*
G04 Aperture macros list*
%AMHorizOval*
0 Thick line with rounded ends*
0 $1 width*
0 $2 $3 position (X,Y) of the first rounded end (center of the circle)*
0 $4 $5 position (X,Y) of the second rounded end (center of the circle)*
0 Add line between two ends*
20,1,$1,$2,$3,$4,$5,0*
0 Add two circle primitives to create the rounded ends*
1,1,$1,$2,$3*
1,1,$1,$4,$5*%
G04 Aperture macros list end*
%TA.AperFunction,ComponentPad*%
%ADD10C,2.524000*%
%TD*%
%TA.AperFunction,ComponentPad*%
%ADD11R,1.600000X1.600000*%
%TD*%
%TA.AperFunction,ComponentPad*%
%ADD12C,1.600000*%
%TD*%
%TA.AperFunction,ComponentPad*%
%ADD13R,1.700000X1.700000*%
%TD*%
%TA.AperFunction,ComponentPad*%
%ADD14O,1.700000X1.700000*%
%TD*%
%TA.AperFunction,ComponentPad*%
%ADD15HorizOval,3.000000X-0.447077X0.223880X0.447077X-0.223880X0*%
%TD*%
%TA.AperFunction,ComponentPad*%
%ADD16HorizOval,3.000000X-0.394005X0.307831X0.394005X-0.307831X0*%
%TD*%
%TA.AperFunction,ComponentPad*%
%ADD17O,3.000000X4.000000*%
%TD*%
%TA.AperFunction,ComponentPad*%
%ADD18HorizOval,3.000000X-0.223880X-0.447077X0.223880X0.447077X0*%
%TD*%
%TA.AperFunction,ComponentPad*%
%ADD19HorizOval,3.000000X-0.447077X-0.223880X0.447077X0.223880X0*%
%TD*%
%TA.AperFunction,ComponentPad*%
%ADD20O,4.000000X3.000000*%
%TD*%
%TA.AperFunction,ComponentPad*%
%ADD21HorizOval,3.000000X-0.447077X0.223880X0.447077X-0.223880X0*%
%TD*%
%TA.AperFunction,ComponentPad*%
%ADD22HorizOval,3.000000X-0.223880X0.447077X0.223880X-0.447077X0*%
%TD*%
%TA.AperFunction,ComponentPad*%
%ADD23HorizOval,3.000000X0.394005X0.307831X-0.394005X-0.307831X0*%
%TD*%
%TA.AperFunction,ComponentPad*%
%ADD24HorizOval,3.000000X0.447077X0.223880X-0.447077X-0.223880X0*%
%TD*%
%TA.AperFunction,ComponentPad*%
%ADD25C,2.400000*%
%TD*%
%TA.AperFunction,ComponentPad*%
%ADD26O,2.400000X2.400000*%
%TD*%
%TA.AperFunction,ComponentPad*%
%ADD27R,1.600000X2.400000*%
%TD*%
%TA.AperFunction,ComponentPad*%
%ADD28O,1.600000X2.400000*%
%TD*%
%TA.AperFunction,ViaPad*%
%ADD29C,0.600000*%
%TD*%
G04 APERTURE END LIST*
D10*
%TO.N,Net-(S1-HV_OUT)*%
%TO.C,S1*%
X101780000Y-160230000D03*
%TO.N,Net-(J5-Pin_1)*%
X101780000Y-178010000D03*
%TO.N,GND*%
X109400000Y-178010000D03*
X109400000Y-160230000D03*
%TD*%
D11*
%TO.N,Net-(J2-Pin_1)*%
%TO.C,C1*%
X125950000Y-99174888D03*
D12*
%TO.N,GND*%
X125950000Y-101674888D03*
%TD*%
D13*
%TO.N,Net-(J2-Pin_1)*%
%TO.C,J2*%
X132290000Y-126005000D03*
D14*
X132290000Y-128545000D03*
X132290000Y-131085000D03*
X132290000Y-133625000D03*
X132290000Y-136165000D03*
%TD*%
D12*
%TO.N,Net-(J2-Pin_1)*%
%TO.C,C5*%
X130000000Y-99890000D03*
%TO.N,GND*%
X130000000Y-102390000D03*
%TD*%
%TO.N,Net-(J5-Pin_1)*%
%TO.C,C6*%
X87060000Y-122730000D03*
%TO.N,GND*%
X87060000Y-120230000D03*
%TD*%
D13*
%TO.N,Net-(J1-Pin_1)*%
%TO.C,J1*%
X126060000Y-109140000D03*
D14*
%TO.N,Net-(J1-Pin_2)*%
X126060000Y-111680000D03*
%TO.N,Net-(J1-Pin_3)*%
X126060000Y-114220000D03*
%TO.N,Net-(J1-Pin_4)*%
X126060000Y-116760000D03*
%TO.N,Net-(J1-Pin_5)*%
X126060000Y-119300000D03*
%TD*%
D12*
%TO.N,Net-(J2-Pin_1)*%
%TO.C,C2*%
X132290000Y-141190000D03*
%TO.N,GND*%
X129790000Y-141190000D03*
%TD*%
D15*
%TO.N,Net-(N1-A)*%
%TO.C,N1*%
X101400000Y-141560000D03*
D16*
%TO.N,Net-(N1-D0)*%
X104900000Y-139810000D03*
D17*
%TO.N,unconnected-(N1-D9-Pad3)*%
X109400000Y-139810000D03*
D18*
%TO.N,unconnected-(N1-D8-Pad4)*%
X113900000Y-139810000D03*
D19*
%TO.N,Net-(N1-D7)*%
X117400000Y-141560000D03*
D20*
%TO.N,Net-(N1-D6)*%
X118400000Y-145560000D03*
D21*
%TO.N,Net-(N1-D5)*%
X117400000Y-149560000D03*
D22*
%TO.N,Net-(N1-D4)*%
X113900000Y-151310000D03*
D17*
%TO.N,Net-(N1-D3)*%
X109400000Y-151310000D03*
D23*
%TO.N,Net-(N1-D2)*%
X104900000Y-151310000D03*
D24*
%TO.N,Net-(N1-D1)*%
X101400000Y-149560000D03*
D20*
%TO.N,unconnected-(N1-NC-Pad12)*%
X100400000Y-145560000D03*
%TD*%
D25*
%TO.N,Net-(N1-A)*%
%TO.C,R1*%
X91830000Y-148580000D03*
D26*
%TO.N,Net-(S1-HV_OUT)*%
X91830000Y-163820000D03*
%TD*%
D13*
%TO.N,GND*%
%TO.C,J4*%
X129750000Y-126000000D03*
D14*
X129750000Y-128540000D03*
X129750000Y-131080000D03*
X129750000Y-133620000D03*
X129750000Y-136160000D03*
%TD*%
D27*
%TO.N,GND*%
%TO.C,U2*%
X97910000Y-117400000D03*
D28*
%TO.N,Net-(J5-Pin_1)*%
X100450000Y-117400000D03*
%TO.N,Net-(J1-Pin_1)*%
X102990000Y-117400000D03*
%TO.N,Net-(N1-D0)*%
X105530000Y-117400000D03*
%TO.N,Net-(N1-D1)*%
X108070000Y-117400000D03*
%TO.N,Net-(N1-D2)*%
X110610000Y-117400000D03*
%TO.N,Net-(N1-D3)*%
X113150000Y-117400000D03*
%TO.N,Net-(J1-Pin_3)*%
X115690000Y-117400000D03*
%TO.N,Net-(J1-Pin_5)*%
X118230000Y-117400000D03*
%TO.N,GND*%
X120770000Y-117400000D03*
X120770000Y-109780000D03*
%TO.N,Net-(J1-Pin_4)*%
X118230000Y-109780000D03*
%TO.N,Net-(J1-Pin_2)*%
X115690000Y-109780000D03*
%TO.N,Net-(N1-D4)*%
X113150000Y-109780000D03*
%TO.N,Net-(N1-D5)*%
X110610000Y-109780000D03*
%TO.N,Net-(N1-D6)*%
X108070000Y-109780000D03*
%TO.N,Net-(N1-D7)*%
X105530000Y-109780000D03*
%TO.N,unconnected-(U2-SER_OUT-Pad18)*%
X102990000Y-109780000D03*
%TO.N,GND*%
X100450000Y-109780000D03*
X97910000Y-109780000D03*
%TD*%
D13*
%TO.N,Net-(J5-Pin_1)*%
%TO.C,J5*%
X87030000Y-125950000D03*
D14*
X87030000Y-128490000D03*
X87030000Y-131030000D03*
X87030000Y-133570000D03*
X87030000Y-136110000D03*
%TD*%
D12*
%TO.N,Net-(J5-Pin_1)*%
%TO.C,C7*%
X100440000Y-120220000D03*
%TO.N,GND*%
X97940000Y-120220000D03*
%TD*%
D13*
%TO.N,GND*%
%TO.C,J3*%
X84480000Y-125920000D03*
D14*
X84480000Y-128460000D03*
X84480000Y-131000000D03*
X84480000Y-133540000D03*
X84480000Y-136080000D03*
%TD*%
D11*
%TO.N,Net-(J5-Pin_1)*%
%TO.C,C3*%
X99160000Y-99124888D03*
D12*
%TO.N,GND*%
X99160000Y-101624888D03*
%TD*%
%TO.N,Net-(J5-Pin_1)*%
%TO.C,C4*%
X89450000Y-99050000D03*
%TO.N,GND*%
X89450000Y-101550000D03*
%TD*%
D29*
%TO.N,GND*%
X127270000Y-104890000D03*
X91060000Y-104850000D03*
X91840000Y-105650000D03*
X126480000Y-104090000D03*
X91050000Y-104050000D03*
X127260000Y-104090000D03*
X128050000Y-105680000D03*
X92620000Y-104840000D03*
X128810000Y-105680000D03*
X128810000Y-104880000D03*
X91060000Y-105650000D03*
X93380000Y-105640000D03*
X128040000Y-104080000D03*
X128050000Y-104880000D03*
X91830000Y-104050000D03*
X126490000Y-104890000D03*
X92610000Y-104040000D03*
X92620000Y-105640000D03*
X93370000Y-104040000D03*
X93380000Y-104840000D03*
X126490000Y-105690000D03*
X91840000Y-104850000D03*
X127270000Y-105690000D03*
X128800000Y-104080000D03*
%TD*%
%TA.AperFunction,Conductor*%
%TO.N,GND*%
G36*
X130000000Y-135726988D02*
G01*
X129942993Y-135694075D01*
X129815826Y-135660000D01*
X129684174Y-135660000D01*
X129557007Y-135694075D01*
X129500000Y-135726988D01*
X129500000Y-134053012D01*
X129557007Y-134085925D01*
X129684174Y-134120000D01*
X129815826Y-134120000D01*
X129942993Y-134085925D01*
X130000000Y-134053012D01*
X130000000Y-135726988D01*
G37*
%TD.AperFunction*%
%TA.AperFunction,Conductor*%
G36*
X130000000Y-133186988D02*
G01*
X129942993Y-133154075D01*
X129815826Y-133120000D01*
X129684174Y-133120000D01*
X129557007Y-133154075D01*
X129500000Y-133186988D01*
X129500000Y-131513012D01*
X129557007Y-131545925D01*
X129684174Y-131580000D01*
X129815826Y-131580000D01*
X129942993Y-131545925D01*
X130000000Y-131513012D01*
X130000000Y-133186988D01*
G37*
%TD.AperFunction*%
%TA.AperFunction,Conductor*%
G36*
X130000000Y-130646988D02*
G01*
X129942993Y-130614075D01*
X129815826Y-130580000D01*
X129684174Y-130580000D01*
X129557007Y-130614075D01*
X129500000Y-130646988D01*
X129500000Y-128973012D01*
X129557007Y-129005925D01*
X129684174Y-129040000D01*
X129815826Y-129040000D01*
X129942993Y-129005925D01*
X130000000Y-128973012D01*
X130000000Y-130646988D01*
G37*
%TD.AperFunction*%
%TA.AperFunction,Conductor*%
G36*
X130000000Y-128106988D02*
G01*
X129942993Y-128074075D01*
X129815826Y-128040000D01*
X129684174Y-128040000D01*
X129557007Y-128074075D01*
X129500000Y-128106988D01*
X129500000Y-126433012D01*
X129557007Y-126465925D01*
X129684174Y-126500000D01*
X129815826Y-126500000D01*
X129942993Y-126465925D01*
X130000000Y-126433012D01*
X130000000Y-128106988D01*
G37*
%TD.AperFunction*%
%TA.AperFunction,Conductor*%
G36*
X84730000Y-135646988D02*
G01*
X84672993Y-135614075D01*
X84545826Y-135580000D01*
X84414174Y-135580000D01*
X84287007Y-135614075D01*
X84230000Y-135646988D01*
X84230000Y-133973012D01*
X84287007Y-134005925D01*
X84414174Y-134040000D01*
X84545826Y-134040000D01*
X84672993Y-134005925D01*
X84730000Y-133973012D01*
X84730000Y-135646988D01*
G37*
%TD.AperFunction*%
%TA.AperFunction,Conductor*%
G36*
X84730000Y-133106988D02*
G01*
X84672993Y-133074075D01*
X84545826Y-133040000D01*
X84414174Y-133040000D01*
X84287007Y-133074075D01*
X84230000Y-133106988D01*
X84230000Y-131433012D01*
X84287007Y-131465925D01*
X84414174Y-131500000D01*
X84545826Y-131500000D01*
X84672993Y-131465925D01*
X84730000Y-131433012D01*
X84730000Y-133106988D01*
G37*
%TD.AperFunction*%
%TA.AperFunction,Conductor*%
G36*
X84730000Y-130566988D02*
G01*
X84672993Y-130534075D01*
X84545826Y-130500000D01*
X84414174Y-130500000D01*
X84287007Y-130534075D01*
X84230000Y-130566988D01*
X84230000Y-128893012D01*
X84287007Y-128925925D01*
X84414174Y-128960000D01*
X84545826Y-128960000D01*
X84672993Y-128925925D01*
X84730000Y-128893012D01*
X84730000Y-130566988D01*
G37*
%TD.AperFunction*%
%TA.AperFunction,Conductor*%
G36*
X84730000Y-128026988D02*
G01*
X84672993Y-127994075D01*
X84545826Y-127960000D01*
X84414174Y-127960000D01*
X84287007Y-127994075D01*
X84230000Y-128026988D01*
X84230000Y-126353012D01*
X84287007Y-126385925D01*
X84414174Y-126420000D01*
X84545826Y-126420000D01*
X84672993Y-126385925D01*
X84730000Y-126353012D01*
X84730000Y-128026988D01*
G37*
%TD.AperFunction*%
%TA.AperFunction,Conductor*%
G36*
X100129920Y-109534394D02*
G01*
X100077259Y-109625606D01*
X100050000Y-109727339D01*
X100050000Y-109832661D01*
X100077259Y-109934394D01*
X100129920Y-110025606D01*
X100134314Y-110030000D01*
X98225686Y-110030000D01*
X98230080Y-110025606D01*
X98282741Y-109934394D01*
X98310000Y-109832661D01*
X98310000Y-109727339D01*
X98282741Y-109625606D01*
X98230080Y-109534394D01*
X98225686Y-109530000D01*
X100134314Y-109530000D01*
X100129920Y-109534394D01*
G37*
%TD.AperFunction*%
%TA.AperFunction,Conductor*%
G36*
X136662539Y-92040185D02*
G01*
X136708294Y-92092989D01*
X136719500Y-92144500D01*
X136719500Y-180919346D01*
X136699815Y-180986385D01*
X136647011Y-181032140D01*
X136595500Y-181043346D01*
X80178346Y-181043346D01*
X80111307Y-181023661D01*
X80065552Y-180970857D01*
X80054346Y-180919346D01*
X80054346Y-178009994D01*
X100312488Y-178009994D01*
X100312488Y-178010005D01*
X100332501Y-178251536D01*
X100332503Y-178251548D01*
X100392001Y-178486498D01*
X100489361Y-178708458D01*
X100621924Y-178911362D01*
X100621927Y-178911365D01*
X100786081Y-179089684D01*
X100786084Y-179089686D01*
X100786087Y-179089689D01*
X100977338Y-179238546D01*
X100977345Y-179238550D01*
X100977347Y-179238552D01*
X101190507Y-179353908D01*
X101309544Y-179394774D01*
X101419743Y-179432606D01*
X101419745Y-179432606D01*
X101419747Y-179432607D01*
X101658814Y-179472500D01*
X101658815Y-179472500D01*
X101901185Y-179472500D01*
X101901186Y-179472500D01*
X102140253Y-179432607D01*
X102369493Y-179353908D01*
X102582653Y-179238552D01*
X102773919Y-179089684D01*
X102938073Y-178911365D01*
X103070638Y-178708459D01*
X103167998Y-178486500D01*
X103227497Y-178251545D01*
X103247512Y-178010000D01*
X103247512Y-178009995D01*
X107633059Y-178009995D01*
X107633059Y-178010004D01*
X107652793Y-178273346D01*
X107711556Y-178530803D01*
X107711561Y-178530820D01*
X107808041Y-178776647D01*
X107808040Y-178776647D01*
X107940084Y-179005351D01*
X107940091Y-179005362D01*
X107989334Y-179067110D01*
X107989335Y-179067110D01*
X109019000Y-178037445D01*
X109019000Y-178060160D01*
X109044964Y-178157061D01*
X109095124Y-178243940D01*
X109166060Y-178314876D01*
X109252939Y-178365036D01*
X109349840Y-178391000D01*
X109372554Y-178391000D01*
X108342195Y-179421356D01*
X108516536Y-179540219D01*
X108516537Y-179540220D01*
X108754461Y-179654797D01*
X108754459Y-179654797D01*
X109006817Y-179732639D01*
X109006823Y-179732641D01*
X109267948Y-179771999D01*
X109267957Y-179772000D01*
X109532043Y-179772000D01*
X109532051Y-179771999D01*
X109793176Y-179732641D01*
X109793182Y-179732639D01*
X110045539Y-179654797D01*
X110283470Y-179540216D01*
X110283473Y-179540215D01*
X110457803Y-179421356D01*
X109427446Y-178391000D01*
X109450160Y-178391000D01*
X109547061Y-178365036D01*
X109633940Y-178314876D01*
X109704876Y-178243940D01*
X109755036Y-178157061D01*
X109781000Y-178060160D01*
X109781000Y-178037446D01*
X110810663Y-179067110D01*
X110810663Y-179067109D01*
X110859917Y-179005349D01*
X110991958Y-178776647D01*
X111088438Y-178530820D01*
X111088443Y-178530803D01*
X111147206Y-178273346D01*
X111166941Y-178010004D01*
X111166941Y-178009995D01*
X111147206Y-177746653D01*
X111088443Y-177489196D01*
X111088438Y-177489179D01*
X110991958Y-177243352D01*
X110991959Y-177243352D01*
X110859915Y-177014648D01*
X110859908Y-177014637D01*
X110810664Y-176952889D01*
X110810663Y-176952888D01*
X109781000Y-177982552D01*
X109781000Y-177959840D01*
X109755036Y-177862939D01*
X109704876Y-177776060D01*
X109633940Y-177705124D01*
X109547061Y-177654964D01*
X109450160Y-177629000D01*
X109427447Y-177629000D01*
X110457803Y-176598642D01*
X110283464Y-176479780D01*
X110283463Y-176479779D01*
X110045538Y-176365202D01*
X110045540Y-176365202D01*
X109793182Y-176287360D01*
X109793176Y-176287358D01*
X109532051Y-176248000D01*
X109267948Y-176248000D01*
X109006823Y-176287358D01*
X109006817Y-176287360D01*
X108754460Y-176365202D01*
X108516537Y-176479779D01*
X108516529Y-176479784D01*
X108342195Y-176598642D01*
X109372554Y-177629000D01*
X109349840Y-177629000D01*
X109252939Y-177654964D01*
X109166060Y-177705124D01*
X109095124Y-177776060D01*
X109044964Y-177862939D01*
X109019000Y-177959840D01*
X109019000Y-177982553D01*
X107989334Y-176952888D01*
X107940087Y-177014643D01*
X107808041Y-177243352D01*
X107711561Y-177489179D01*
X107711556Y-177489196D01*
X107652793Y-177746653D01*
X107633059Y-178009995D01*
X103247512Y-178009995D01*
X103235326Y-177862939D01*
X103227498Y-177768463D01*
X103227496Y-177768451D01*
X103167998Y-177533501D01*
X103148564Y-177489196D01*
X103070638Y-177311541D01*
X103026088Y-177243352D01*
X102938075Y-177108637D01*
X102919408Y-177088359D01*
X102773919Y-176930316D01*
X102773914Y-176930312D01*
X102773912Y-176930310D01*
X102582661Y-176781453D01*
X102582650Y-176781446D01*
X102369499Y-176666095D01*
X102369496Y-176666094D01*
X102369493Y-176666092D01*
X102369487Y-176666090D01*
X102369485Y-176666089D01*
X102140256Y-176587393D01*
X101960952Y-176557473D01*
X101901186Y-176547500D01*
X101658814Y-176547500D01*
X101611000Y-176555478D01*
X101419743Y-176587393D01*
X101190514Y-176666089D01*
X101190500Y-176666095D01*
X100977349Y-176781446D01*
X100977338Y-176781453D01*
X100786087Y-176930310D01*
X100786084Y-176930313D01*
X100621924Y-177108637D01*
X100489361Y-177311541D01*
X100392001Y-177533501D01*
X100332503Y-177768451D01*
X100332501Y-177768463D01*
X100312488Y-178009994D01*
X80054346Y-178009994D01*
X80054346Y-163819993D01*
X90424700Y-163819993D01*
X90424700Y-163820006D01*
X90443864Y-164051297D01*
X90443866Y-164051308D01*
X90500842Y-164276300D01*
X90594075Y-164488848D01*
X90721016Y-164683147D01*
X90721019Y-164683151D01*
X90721021Y-164683153D01*
X90878216Y-164853913D01*
X90878219Y-164853915D01*
X90878222Y-164853918D01*
X91061365Y-164996464D01*
X91061371Y-164996468D01*
X91061374Y-164996470D01*
X91265497Y-165106936D01*
X91379487Y-165146068D01*
X91485015Y-165182297D01*
X91485017Y-165182297D01*
X91485019Y-165182298D01*
X91713951Y-165220500D01*
X91713952Y-165220500D01*
X91946048Y-165220500D01*
X91946049Y-165220500D01*
X92174981Y-165182298D01*
X92394503Y-165106936D01*
X92598626Y-164996470D01*
X92781784Y-164853913D01*
X92938979Y-164683153D01*
X93065924Y-164488849D01*
X93159157Y-164276300D01*
X93216134Y-164051305D01*
X93235300Y-163820000D01*
X93235300Y-163819993D01*
X93216135Y-163588702D01*
X93216133Y-163588691D01*
X93159157Y-163363699D01*
X93065924Y-163151151D01*
X92938983Y-162956852D01*
X92938980Y-162956849D01*
X92938979Y-162956847D01*
X92781784Y-162786087D01*
X92781779Y-162786083D01*
X92781777Y-162786081D01*
X92598634Y-162643535D01*
X92598628Y-162643531D01*
X92394504Y-162533064D01*
X92394495Y-162533061D01*
X92174984Y-162457702D01*
X92003282Y-162429050D01*
X91946049Y-162419500D01*
X91713951Y-162419500D01*
X91668164Y-162427140D01*
X91485015Y-162457702D01*
X91265504Y-162533061D01*
X91265495Y-162533064D01*
X91061371Y-162643531D01*
X91061365Y-162643535D01*
X90878222Y-162786081D01*
X90878219Y-162786084D01*
X90721016Y-162956852D01*
X90594075Y-163151151D01*
X90500842Y-163363699D01*
X90443866Y-163588691D01*
X90443864Y-163588702D01*
X90424700Y-163819993D01*
X80054346Y-163819993D01*
X80054346Y-160229994D01*
X100312488Y-160229994D01*
X100312488Y-160230005D01*
X100332501Y-160471536D01*
X100332503Y-160471548D01*
X100392001Y-160706498D01*
X100489361Y-160928458D01*
X100621924Y-161131362D01*
X100621927Y-161131365D01*
X100786081Y-161309684D01*
X100786084Y-161309686D01*
X100786087Y-161309689D01*
X100977338Y-161458546D01*
X100977345Y-161458550D01*
X100977347Y-161458552D01*
X101190507Y-161573908D01*
X101309544Y-161614774D01*
X101419743Y-161652606D01*
X101419745Y-161652606D01*
X101419747Y-161652607D01*
X101658814Y-161692500D01*
X101658815Y-161692500D01*
X101901185Y-161692500D01*
X101901186Y-161692500D01*
X102140253Y-161652607D01*
X102369493Y-161573908D01*
X102582653Y-161458552D01*
X102773919Y-161309684D01*
X102938073Y-161131365D01*
X103070638Y-160928459D01*
X103167998Y-160706500D01*
X103227497Y-160471545D01*
X103247512Y-160230000D01*
X103247512Y-160229995D01*
X107633059Y-160229995D01*
X107633059Y-160230004D01*
X107652793Y-160493346D01*
X107711556Y-160750803D01*
X107711561Y-160750820D01*
X107808041Y-160996647D01*
X107808040Y-160996647D01*
X107940084Y-161225351D01*
X107940091Y-161225362D01*
X107989334Y-161287110D01*
X107989335Y-161287110D01*
X109019000Y-160257445D01*
X109019000Y-160280160D01*
X109044964Y-160377061D01*
X109095124Y-160463940D01*
X109166060Y-160534876D01*
X109252939Y-160585036D01*
X109349840Y-160611000D01*
X109372554Y-160611000D01*
X108342195Y-161641356D01*
X108516536Y-161760219D01*
X108516537Y-161760220D01*
X108754461Y-161874797D01*
X108754459Y-161874797D01*
X109006817Y-161952639D01*
X109006823Y-161952641D01*
X109267948Y-161991999D01*
X109267957Y-161992000D01*
X109532043Y-161992000D01*
X109532051Y-161991999D01*
X109793176Y-161952641D01*
X109793182Y-161952639D01*
X110045539Y-161874797D01*
X110283470Y-161760216D01*
X110283473Y-161760215D01*
X110457803Y-161641356D01*
X109427446Y-160611000D01*
X109450160Y-160611000D01*
X109547061Y-160585036D01*
X109633940Y-160534876D01*
X109704876Y-160463940D01*
X109755036Y-160377061D01*
X109781000Y-160280160D01*
X109781000Y-160257446D01*
X110810663Y-161287110D01*
X110810663Y-161287109D01*
X110859917Y-161225349D01*
X110991958Y-160996647D01*
X111088438Y-160750820D01*
X111088443Y-160750803D01*
X111147206Y-160493346D01*
X111166941Y-160230004D01*
X111166941Y-160229995D01*
X111147206Y-159966653D01*
X111088443Y-159709196D01*
X111088438Y-159709179D01*
X110991958Y-159463352D01*
X110991959Y-159463352D01*
X110859915Y-159234648D01*
X110859908Y-159234637D01*
X110810664Y-159172889D01*
X110810663Y-159172888D01*
X109781000Y-160202552D01*
X109781000Y-160179840D01*
X109755036Y-160082939D01*
X109704876Y-159996060D01*
X109633940Y-159925124D01*
X109547061Y-159874964D01*
X109450160Y-159849000D01*
X109427447Y-159849000D01*
X110457803Y-158818642D01*
X110283464Y-158699780D01*
X110283463Y-158699779D01*
X110045538Y-158585202D01*
X110045540Y-158585202D01*
X109793182Y-158507360D01*
X109793176Y-158507358D01*
X109532051Y-158468000D01*
X109267948Y-158468000D01*
X109006823Y-158507358D01*
X109006817Y-158507360D01*
X108754460Y-158585202D01*
X108516537Y-158699779D01*
X108516529Y-158699784D01*
X108342195Y-158818642D01*
X109372554Y-159849000D01*
X109349840Y-159849000D01*
X109252939Y-159874964D01*
X109166060Y-159925124D01*
X109095124Y-159996060D01*
X109044964Y-160082939D01*
X109019000Y-160179840D01*
X109019000Y-160202553D01*
X107989334Y-159172888D01*
X107940087Y-159234643D01*
X107808041Y-159463352D01*
X107711561Y-159709179D01*
X107711556Y-159709196D01*
X107652793Y-159966653D01*
X107633059Y-160229995D01*
X103247512Y-160229995D01*
X103235326Y-160082939D01*
X103227498Y-159988463D01*
X103227496Y-159988451D01*
X103167998Y-159753501D01*
X103148564Y-159709196D01*
X103070638Y-159531541D01*
X103026088Y-159463352D01*
X102938075Y-159328637D01*
X102919408Y-159308359D01*
X102773919Y-159150316D01*
X102773914Y-159150312D01*
X102773912Y-159150310D01*
X102582661Y-159001453D01*
X102582650Y-159001446D01*
X102369499Y-158886095D01*
X102369496Y-158886094D01*
X102369493Y-158886092D01*
X102369487Y-158886090D01*
X102369485Y-158886089D01*
X102140256Y-158807393D01*
X101960952Y-158777473D01*
X101901186Y-158767500D01*
X101658814Y-158767500D01*
X101611000Y-158775478D01*
X101419743Y-158807393D01*
X101190514Y-158886089D01*
X101190500Y-158886095D01*
X100977349Y-159001446D01*
X100977338Y-159001453D01*
X100786087Y-159150310D01*
X100786084Y-159150313D01*
X100621924Y-159328637D01*
X100489361Y-159531541D01*
X100392001Y-159753501D01*
X100332503Y-159988451D01*
X100332501Y-159988463D01*
X100312488Y-160229994D01*
X80054346Y-160229994D01*
X80054346Y-148579993D01*
X90424700Y-148579993D01*
X90424700Y-148580006D01*
X90443864Y-148811297D01*
X90443866Y-148811308D01*
X90500842Y-149036300D01*
X90594075Y-149248848D01*
X90721016Y-149443147D01*
X90721019Y-149443151D01*
X90721021Y-149443153D01*
X90878216Y-149613913D01*
X90878219Y-149613915D01*
X90878222Y-149613918D01*
X91061365Y-149756464D01*
X91061371Y-149756468D01*
X91061374Y-149756470D01*
X91173708Y-149817262D01*
X91258641Y-149863226D01*
X91265497Y-149866936D01*
X91368168Y-149902183D01*
X91485015Y-149942297D01*
X91485017Y-149942297D01*
X91485019Y-149942298D01*
X91713951Y-149980500D01*
X91713952Y-149980500D01*
X91946048Y-149980500D01*
X91946049Y-149980500D01*
X92174981Y-149942298D01*
X92394503Y-149866936D01*
X92528732Y-149794295D01*
X99248806Y-149794295D01*
X99250453Y-149817265D01*
X99264744Y-150016634D01*
X99264744Y-150016638D01*
X99264745Y-150016640D01*
X99264746Y-150016648D01*
X99298106Y-150179162D01*
X99309567Y-150234995D01*
X99382508Y-150445636D01*
X99382510Y-150445639D01*
X99382511Y-150445643D01*
X99482319Y-150644953D01*
X99482322Y-150644958D01*
X99595162Y-150811623D01*
X99607294Y-150829541D01*
X99755292Y-150996235D01*
X99870108Y-151095691D01*
X99923783Y-151142186D01*
X100109877Y-151264892D01*
X100109880Y-151264893D01*
X100109881Y-151264894D01*
X100310405Y-151362264D01*
X100521921Y-151432626D01*
X100740814Y-151474777D01*
X100963335Y-151487997D01*
X101185677Y-151472059D01*
X101404038Y-151427236D01*
X101614679Y-151354295D01*
X102708152Y-150806723D01*
X102730569Y-150791545D01*
X102772520Y-150763143D01*
X102839068Y-150741858D01*
X102906560Y-150759930D01*
X102953567Y-150811623D01*
X102965164Y-150880524D01*
X102957010Y-150912273D01*
X102887565Y-151084154D01*
X102831755Y-151299955D01*
X102831753Y-151299967D01*
X102804585Y-151521228D01*
X102806532Y-151744112D01*
X102806533Y-151744133D01*
X102837555Y-151964863D01*
X102837557Y-151964874D01*
X102838755Y-151969192D01*
X102897127Y-152179674D01*
X102897131Y-152179683D01*
X102897134Y-152179692D01*
X102984223Y-152384860D01*
X102984225Y-152384864D01*
X102984227Y-152384867D01*
X103097364Y-152576935D01*
X103097367Y-152576938D01*
X103097369Y-152576942D01*
X103234596Y-152752586D01*
X103234601Y-152752591D01*
X103234603Y-152752594D01*
X103393596Y-152908835D01*
X103571623Y-153042988D01*
X103571625Y-153042989D01*
X103571629Y-153042992D01*
X103765629Y-153152752D01*
X103765632Y-153152753D01*
X103765637Y-153152756D01*
X103949270Y-153226948D01*
X103972318Y-153236260D01*
X104188119Y-153292070D01*
X104188122Y-153292070D01*
X104188132Y-153292073D01*
X104409383Y-153319240D01*
X104409391Y-153319239D01*
X104409392Y-153319240D01*
X104500571Y-153318443D01*
X104632289Y-153317293D01*
X104632295Y-153317292D01*
X104632297Y-153317292D01*
X104665476Y-153312628D01*
X104853032Y-153286270D01*
X105067838Y-153226699D01*
X105273031Y-153139599D01*
X105437037Y-153042992D01*
X105465081Y-153026473D01*
X105465085Y-153026470D01*
X105465099Y-153026462D01*
X106428768Y-152273560D01*
X106585010Y-152114567D01*
X106719162Y-151936541D01*
X106828930Y-151742527D01*
X106912434Y-151535845D01*
X106968248Y-151320032D01*
X106995414Y-151098781D01*
X106993468Y-150875875D01*
X106993111Y-150873338D01*
X106974633Y-150741858D01*
X106968547Y-150698549D01*
X107699500Y-150698549D01*
X107699500Y-151921450D01*
X107699501Y-151921466D01*
X107728594Y-152142452D01*
X107728595Y-152142457D01*
X107728596Y-152142463D01*
X107763725Y-152273566D01*
X107786290Y-152357780D01*
X107786293Y-152357790D01*
X107803610Y-152399596D01*
X107871595Y-152563726D01*
X107983052Y-152756774D01*
X107983057Y-152756780D01*
X107983058Y-152756782D01*
X108118751Y-152933622D01*
X108118757Y-152933629D01*
X108276370Y-153091242D01*
X108276377Y-153091248D01*
X108402294Y-153187867D01*
X108453226Y-153226948D01*
X108646274Y-153338405D01*
X108852219Y-153423710D01*
X109067537Y-153481404D01*
X109288543Y-153510500D01*
X109288550Y-153510500D01*
X109511450Y-153510500D01*
X109511457Y-153510500D01*
X109732463Y-153481404D01*
X109947781Y-153423710D01*
X110153726Y-153338405D01*
X110346774Y-153226948D01*
X110523624Y-153091247D01*
X110681247Y-152933624D01*
X110816948Y-152756774D01*
X110928405Y-152563726D01*
X111013710Y-152357781D01*
X111071404Y-152142463D01*
X111100500Y-151921457D01*
X111100500Y-150873338D01*
X111972003Y-150873338D01*
X111972518Y-150880524D01*
X111987941Y-151095677D01*
X111987941Y-151095681D01*
X111987942Y-151095683D01*
X111987943Y-151095691D01*
X112029876Y-151299968D01*
X112032764Y-151314038D01*
X112105705Y-151524679D01*
X112105707Y-151524682D01*
X112105711Y-151524692D01*
X112653273Y-152618144D01*
X112653279Y-152618155D01*
X112744295Y-152752586D01*
X112778251Y-152802738D01*
X112926249Y-152969432D01*
X113066871Y-153091242D01*
X113094740Y-153115383D01*
X113280834Y-153238089D01*
X113280837Y-153238090D01*
X113280838Y-153238091D01*
X113481362Y-153335461D01*
X113692878Y-153405823D01*
X113911771Y-153447974D01*
X114134291Y-153461194D01*
X114356634Y-153445256D01*
X114574995Y-153400433D01*
X114785636Y-153327491D01*
X114984955Y-153227679D01*
X115169541Y-153102705D01*
X115336235Y-152954707D01*
X115482185Y-152786218D01*
X115604894Y-152600119D01*
X115702264Y-152399595D01*
X115772626Y-152188078D01*
X115814777Y-151969186D01*
X115827997Y-151746665D01*
X115812059Y-151524323D01*
X115801888Y-151474776D01*
X115767236Y-151305962D01*
X115767234Y-151305955D01*
X115740468Y-151228661D01*
X115694294Y-151095321D01*
X115688702Y-151084154D01*
X115406963Y-150521533D01*
X115394546Y-150452776D01*
X115421274Y-150388220D01*
X115478660Y-150348363D01*
X115548485Y-150345858D01*
X115608580Y-150381501D01*
X115611564Y-150384824D01*
X115740564Y-150533747D01*
X115740566Y-150533749D01*
X115740568Y-150533751D01*
X115907262Y-150681749D01*
X116091848Y-150806723D01*
X116091852Y-150806725D01*
X116091855Y-150806727D01*
X117088790Y-151305955D01*
X117185321Y-151354294D01*
X117318661Y-151400468D01*
X117395955Y-151427234D01*
X117395962Y-151427236D01*
X117614323Y-151472059D01*
X117836665Y-151487997D01*
X118059186Y-151474777D01*
X118059191Y-151474776D01*
X118059192Y-151474776D01*
X118088630Y-151469107D01*
X118278078Y-151432626D01*
X118489595Y-151362264D01*
X118690119Y-151264894D01*
X118876218Y-151142185D01*
X119044707Y-150996235D01*
X119192705Y-150829541D01*
X119317679Y-150644955D01*
X119417491Y-150445636D01*
X119490433Y-150234995D01*
X119535256Y-150016634D01*
X119551194Y-149794291D01*
X119537974Y-149571771D01*
X119495823Y-149352878D01*
X119425461Y-149141362D01*
X119328091Y-148940838D01*
X119328090Y-148940837D01*
X119328089Y-148940834D01*
X119205383Y-148754740D01*
X119188161Y-148734859D01*
X119059432Y-148586249D01*
X118892738Y-148438251D01*
X118708152Y-148313277D01*
X118662586Y-148290459D01*
X117614692Y-147765711D01*
X117614686Y-147765708D01*
X117614679Y-147765705D01*
X117404038Y-147692764D01*
X117404035Y-147692763D01*
X117404034Y-147692763D01*
X117185691Y-147647943D01*
X117185683Y-147647942D01*
X117185681Y-147647941D01*
X117185677Y-147647941D01*
X117008027Y-147635206D01*
X116963337Y-147632003D01*
X116963335Y-147632003D01*
X116852074Y-147638613D01*
X116740812Y-147645223D01*
X116740807Y-147645223D01*
X116521919Y-147687374D01*
X116433322Y-147716847D01*
X116310405Y-147757736D01*
X116310401Y-147757738D01*
X116109877Y-147855107D01*
X115923783Y-147977813D01*
X115755292Y-148123765D01*
X115607291Y-148290462D01*
X115482322Y-148475041D01*
X115482319Y-148475046D01*
X115382511Y-148674356D01*
X115382509Y-148674360D01*
X115382508Y-148674364D01*
X115335091Y-148811297D01*
X115309566Y-148885008D01*
X115264746Y-149103351D01*
X115264745Y-149103359D01*
X115264744Y-149103366D01*
X115254628Y-149244485D01*
X115251186Y-149292511D01*
X115248806Y-149325708D01*
X115257215Y-149467243D01*
X115262026Y-149548230D01*
X115262026Y-149548235D01*
X115284568Y-149665292D01*
X115302125Y-149756468D01*
X115304178Y-149767126D01*
X115325878Y-149832358D01*
X115328360Y-149902183D01*
X115292698Y-149962267D01*
X115230214Y-149993531D01*
X115160746Y-149986051D01*
X115106349Y-149942202D01*
X115105537Y-149941017D01*
X115032934Y-149833783D01*
X115021749Y-149817262D01*
X114873751Y-149650568D01*
X114705261Y-149504618D01*
X114705262Y-149504618D01*
X114705259Y-149504616D01*
X114519165Y-149381910D01*
X114407989Y-149327926D01*
X114318638Y-149284539D01*
X114159841Y-149231714D01*
X114107123Y-149214177D01*
X113888232Y-149172026D01*
X113792862Y-149166360D01*
X113665708Y-149158806D01*
X113665706Y-149158806D01*
X113665704Y-149158806D01*
X113584485Y-149164628D01*
X113443366Y-149174744D01*
X113443362Y-149174744D01*
X113443359Y-149174745D01*
X113443351Y-149174746D01*
X113225008Y-149219566D01*
X113225005Y-149219566D01*
X113225005Y-149219567D01*
X113014364Y-149292508D01*
X113014360Y-149292509D01*
X113014360Y-149292510D01*
X113014356Y-149292511D01*
X112815046Y-149392319D01*
X112815041Y-149392322D01*
X112630462Y-149517291D01*
X112463765Y-149665292D01*
X112317813Y-149833783D01*
X112195107Y-150019877D01*
X112103355Y-150208833D01*
X112097736Y-150220405D01*
X112062448Y-150326482D01*
X112027374Y-150431919D01*
X111985223Y-150650807D01*
X111985223Y-150650812D01*
X111982388Y-150698533D01*
X111975961Y-150806723D01*
X111972003Y-150873338D01*
X111100500Y-150873338D01*
X111100500Y-150698543D01*
X111071404Y-150477537D01*
X111013710Y-150262219D01*
X111002433Y-150234995D01*
X110928406Y-150056277D01*
X110928405Y-150056274D01*
X110816948Y-149863226D01*
X110735027Y-149756464D01*
X110681248Y-149686377D01*
X110681242Y-149686370D01*
X110523629Y-149528757D01*
X110523622Y-149528751D01*
X110346782Y-149393058D01*
X110346780Y-149393057D01*
X110346774Y-149393052D01*
X110153726Y-149281595D01*
X110153722Y-149281593D01*
X109947790Y-149196293D01*
X109947783Y-149196291D01*
X109947781Y-149196290D01*
X109732463Y-149138596D01*
X109732457Y-149138595D01*
X109732452Y-149138594D01*
X109511466Y-149109501D01*
X109511463Y-149109500D01*
X109511457Y-149109500D01*
X109288543Y-149109500D01*
X109288537Y-149109500D01*
X109288533Y-149109501D01*
X109067547Y-149138594D01*
X109067540Y-149138595D01*
X109067537Y-149138596D01*
X108932623Y-149174746D01*
X108852219Y-149196290D01*
X108852209Y-149196293D01*
X108646277Y-149281593D01*
X108646273Y-149281595D01*
X108453226Y-149393052D01*
X108453217Y-149393058D01*
X108276377Y-149528751D01*
X108276370Y-149528757D01*
X108118757Y-149686370D01*
X108118751Y-149686377D01*
X107983058Y-149863217D01*
X107983052Y-149863226D01*
X107871595Y-150056273D01*
X107871593Y-150056277D01*
X107786293Y-150262209D01*
X107786290Y-150262219D01*
X107737146Y-150445630D01*
X107728597Y-150477534D01*
X107728594Y-150477547D01*
X107699501Y-150698533D01*
X107699500Y-150698549D01*
X106968547Y-150698549D01*
X106962445Y-150655131D01*
X106902873Y-150440326D01*
X106902872Y-150440323D01*
X106902870Y-150440317D01*
X106827267Y-150262209D01*
X106815774Y-150235133D01*
X106702636Y-150043065D01*
X106702634Y-150043062D01*
X106565403Y-149867413D01*
X106565393Y-149867402D01*
X106514370Y-149817262D01*
X106406404Y-149711164D01*
X106228377Y-149577012D01*
X106228375Y-149577011D01*
X106228370Y-149577007D01*
X106034370Y-149467247D01*
X106034364Y-149467244D01*
X106034363Y-149467244D01*
X105827682Y-149383740D01*
X105827677Y-149383738D01*
X105827673Y-149383737D01*
X105611876Y-149327927D01*
X105611868Y-149327926D01*
X105390617Y-149300760D01*
X105390616Y-149300760D01*
X105390608Y-149300759D01*
X105167724Y-149302705D01*
X105167706Y-149302706D01*
X104946970Y-149333729D01*
X104946961Y-149333731D01*
X104766641Y-149383739D01*
X104732162Y-149393301D01*
X104732156Y-149393303D01*
X104732143Y-149393308D01*
X104526975Y-149480397D01*
X104526971Y-149480399D01*
X104334911Y-149593531D01*
X104334893Y-149593544D01*
X103592408Y-150173636D01*
X103527461Y-150199398D01*
X103458896Y-150185958D01*
X103408483Y-150137582D01*
X103392226Y-150069630D01*
X103404520Y-150021762D01*
X103425461Y-149978638D01*
X103495823Y-149767122D01*
X103537974Y-149548229D01*
X103551194Y-149325709D01*
X103535256Y-149103366D01*
X103490433Y-148885005D01*
X103417491Y-148674364D01*
X103317679Y-148475045D01*
X103192705Y-148290459D01*
X103044707Y-148123765D01*
X102945077Y-148037463D01*
X102876221Y-147977817D01*
X102876218Y-147977815D01*
X102690122Y-147855107D01*
X102595814Y-147809314D01*
X102489595Y-147757736D01*
X102278078Y-147687374D01*
X102059189Y-147645223D01*
X101963819Y-147639557D01*
X101836665Y-147632003D01*
X101836663Y-147632003D01*
X101836661Y-147632003D01*
X101755442Y-147637825D01*
X101614323Y-147647941D01*
X101614319Y-147647941D01*
X101614316Y-147647942D01*
X101614308Y-147647943D01*
X101395962Y-147692763D01*
X101395955Y-147692765D01*
X101185326Y-147765704D01*
X101185307Y-147765712D01*
X100091855Y-148313272D01*
X99907265Y-148438248D01*
X99740568Y-148586249D01*
X99594616Y-148754740D01*
X99471910Y-148940834D01*
X99392996Y-149103351D01*
X99374539Y-149141362D01*
X99363434Y-149174745D01*
X99304177Y-149352876D01*
X99262026Y-149571764D01*
X99262026Y-149571769D01*
X99248806Y-149794295D01*
X92528732Y-149794295D01*
X92598626Y-149756470D01*
X92781784Y-149613913D01*
X92938979Y-149443153D01*
X93065924Y-149248849D01*
X93159157Y-149036300D01*
X93216134Y-148811305D01*
X93227481Y-148674364D01*
X93235300Y-148580006D01*
X93235300Y-148579993D01*
X93216135Y-148348702D01*
X93216133Y-148348691D01*
X93159157Y-148123699D01*
X93065924Y-147911151D01*
X92938983Y-147716852D01*
X92938980Y-147716849D01*
X92938979Y-147716847D01*
X92781784Y-147546087D01*
X92781779Y-147546083D01*
X92781777Y-147546081D01*
X92598634Y-147403535D01*
X92598628Y-147403531D01*
X92394504Y-147293064D01*
X92394495Y-147293061D01*
X92174984Y-147217702D01*
X92003282Y-147189050D01*
X91946049Y-147179500D01*
X91713951Y-147179500D01*
X91668164Y-147187140D01*
X91485015Y-147217702D01*
X91265504Y-147293061D01*
X91265495Y-147293064D01*
X91061371Y-147403531D01*
X91061365Y-147403535D01*
X90878222Y-147546081D01*
X90878219Y-147546084D01*
X90721016Y-147716852D01*
X90594075Y-147911151D01*
X90500842Y-148123699D01*
X90443866Y-148348691D01*
X90443864Y-148348702D01*
X90424700Y-148579993D01*
X80054346Y-148579993D01*
X80054346Y-145448549D01*
X98199500Y-145448549D01*
X98199500Y-145671450D01*
X98199501Y-145671466D01*
X98228594Y-145892452D01*
X98228595Y-145892457D01*
X98228596Y-145892463D01*
X98228597Y-145892465D01*
X98286290Y-146107780D01*
X98286293Y-146107790D01*
X98371593Y-146313722D01*
X98371595Y-146313726D01*
X98483052Y-146506774D01*
X98483057Y-146506780D01*
X98483058Y-146506782D01*
X98618751Y-146683622D01*
X98618757Y-146683629D01*
X98776370Y-146841242D01*
X98776376Y-146841247D01*
X98953226Y-146976948D01*
X99146274Y-147088405D01*
X99352219Y-147173710D01*
X99567537Y-147231404D01*
X99788543Y-147260500D01*
X99788550Y-147260500D01*
X101011450Y-147260500D01*
X101011457Y-147260500D01*
X101232463Y-147231404D01*
X101447781Y-147173710D01*
X101653726Y-147088405D01*
X101846774Y-146976948D01*
X102023624Y-146841247D01*
X102181247Y-146683624D01*
X102316948Y-146506774D01*
X102428405Y-146313726D01*
X102513710Y-146107781D01*
X102571404Y-145892463D01*
X102600500Y-145671457D01*
X102600500Y-145448549D01*
X116199500Y-145448549D01*
X116199500Y-145671450D01*
X116199501Y-145671466D01*
X116228594Y-145892452D01*
X116228595Y-145892457D01*
X116228596Y-145892463D01*
X116228597Y-145892465D01*
X116286290Y-146107780D01*
X116286293Y-146107790D01*
X116371593Y-146313722D01*
X116371595Y-146313726D01*
X116483052Y-146506774D01*
X116483057Y-146506780D01*
X116483058Y-146506782D01*
X116618751Y-146683622D01*
X116618757Y-146683629D01*
X116776370Y-146841242D01*
X116776376Y-146841247D01*
X116953226Y-146976948D01*
X117146274Y-147088405D01*
X117352219Y-147173710D01*
X117567537Y-147231404D01*
X117788543Y-147260500D01*
X117788550Y-147260500D01*
X119011450Y-147260500D01*
X119011457Y-147260500D01*
X119232463Y-147231404D01*
X119447781Y-147173710D01*
X119653726Y-147088405D01*
X119846774Y-146976948D01*
X120023624Y-146841247D01*
X120181247Y-146683624D01*
X120316948Y-146506774D01*
X120428405Y-146313726D01*
X120513710Y-146107781D01*
X120571404Y-145892463D01*
X120600500Y-145671457D01*
X120600500Y-145448543D01*
X120571404Y-145227537D01*
X120513710Y-145012219D01*
X120428405Y-144806274D01*
X120316948Y-144613226D01*
X120181247Y-144436376D01*
X120181242Y-144436370D01*
X120023629Y-144278757D01*
X120023622Y-144278751D01*
X119846782Y-144143058D01*
X119846780Y-144143057D01*
X119846774Y-144143052D01*
X119653726Y-144031595D01*
X119653722Y-144031593D01*
X119447790Y-143946293D01*
X119447783Y-143946291D01*
X119447781Y-143946290D01*
X119232463Y-143888596D01*
X119232457Y-143888595D01*
X119232452Y-143888594D01*
X119011466Y-143859501D01*
X119011463Y-143859500D01*
X119011457Y-143859500D01*
X117788543Y-143859500D01*
X117788537Y-143859500D01*
X117788533Y-143859501D01*
X117567547Y-143888594D01*
X117567540Y-143888595D01*
X117567537Y-143888596D01*
X117352219Y-143946290D01*
X117352209Y-143946293D01*
X117146277Y-144031593D01*
X117146273Y-144031595D01*
X116953226Y-144143052D01*
X116953217Y-144143058D01*
X116776377Y-144278751D01*
X116776370Y-144278757D01*
X116618757Y-144436370D01*
X116618751Y-144436377D01*
X116483058Y-144613217D01*
X116483052Y-144613226D01*
X116371595Y-144806273D01*
X116371593Y-144806277D01*
X116286293Y-145012209D01*
X116286290Y-145012219D01*
X116228597Y-145227534D01*
X116228594Y-145227547D01*
X116199501Y-145448533D01*
X116199500Y-145448549D01*
X102600500Y-145448549D01*
X102600500Y-145448543D01*
X102571404Y-145227537D01*
X102513710Y-145012219D01*
X102428405Y-144806274D01*
X102316948Y-144613226D01*
X102181247Y-144436376D01*
X102181242Y-144436370D01*
X102023629Y-144278757D01*
X102023622Y-144278751D01*
X101846782Y-144143058D01*
X101846780Y-144143057D01*
X101846774Y-144143052D01*
X101653726Y-144031595D01*
X101653722Y-144031593D01*
X101447790Y-143946293D01*
X101447783Y-143946291D01*
X101447781Y-143946290D01*
X101232463Y-143888596D01*
X101232457Y-143888595D01*
X101232452Y-143888594D01*
X101011466Y-143859501D01*
X101011463Y-143859500D01*
X101011457Y-143859500D01*
X99788543Y-143859500D01*
X99788537Y-143859500D01*
X99788533Y-143859501D01*
X99567547Y-143888594D01*
X99567540Y-143888595D01*
X99567537Y-143888596D01*
X99352219Y-143946290D01*
X99352209Y-143946293D01*
X99146277Y-144031593D01*
X99146273Y-144031595D01*
X98953226Y-144143052D01*
X98953217Y-144143058D01*
X98776377Y-144278751D01*
X98776370Y-144278757D01*
X98618757Y-144436370D01*
X98618751Y-144436377D01*
X98483058Y-144613217D01*
X98483052Y-144613226D01*
X98371595Y-144806273D01*
X98371593Y-144806277D01*
X98286293Y-145012209D01*
X98286290Y-145012219D01*
X98228597Y-145227534D01*
X98228594Y-145227547D01*
X98199501Y-145448533D01*
X98199500Y-145448549D01*
X80054346Y-145448549D01*
X80054346Y-141325708D01*
X99248806Y-141325708D01*
X99254366Y-141419301D01*
X99262026Y-141548230D01*
X99262026Y-141548235D01*
X99304177Y-141767123D01*
X99312477Y-141792072D01*
X99374539Y-141978638D01*
X99397495Y-142025913D01*
X99471910Y-142179165D01*
X99594616Y-142365259D01*
X99594618Y-142365261D01*
X99740568Y-142533751D01*
X99907262Y-142681749D01*
X100091848Y-142806723D01*
X100091852Y-142806725D01*
X100091855Y-142806727D01*
X101006789Y-143264892D01*
X101185321Y-143354294D01*
X101318661Y-143400468D01*
X101395955Y-143427234D01*
X101395962Y-143427236D01*
X101614323Y-143472059D01*
X101836665Y-143487997D01*
X102059186Y-143474777D01*
X102059191Y-143474776D01*
X102059192Y-143474776D01*
X102088630Y-143469107D01*
X102278078Y-143432626D01*
X102489595Y-143362264D01*
X102690119Y-143264894D01*
X102876218Y-143142185D01*
X103044707Y-142996235D01*
X103192705Y-142829541D01*
X103317679Y-142644955D01*
X103417491Y-142445636D01*
X103490433Y-142234995D01*
X103535256Y-142016634D01*
X103551194Y-141794291D01*
X103537974Y-141571771D01*
X103532431Y-141542988D01*
X103515432Y-141454708D01*
X103495823Y-141352878D01*
X103425461Y-141141362D01*
X103404521Y-141098239D01*
X103392945Y-141029337D01*
X103420459Y-140965113D01*
X103478327Y-140925958D01*
X103548177Y-140924306D01*
X103592408Y-140946363D01*
X103690549Y-141023039D01*
X104334901Y-141526462D01*
X104334910Y-141526467D01*
X104334911Y-141526468D01*
X104362963Y-141542992D01*
X104521397Y-141636317D01*
X104526971Y-141639600D01*
X104526975Y-141639602D01*
X104732143Y-141726691D01*
X104732162Y-141726699D01*
X104946968Y-141786270D01*
X105167712Y-141817294D01*
X105284010Y-141818309D01*
X105390606Y-141819240D01*
X105390610Y-141819240D01*
X105390610Y-141819239D01*
X105390617Y-141819240D01*
X105611868Y-141792074D01*
X105827682Y-141736260D01*
X106034363Y-141652756D01*
X106228377Y-141542988D01*
X106406404Y-141408836D01*
X106565397Y-141252594D01*
X106702636Y-141076935D01*
X106815774Y-140884867D01*
X106899305Y-140688080D01*
X106902870Y-140679682D01*
X106902872Y-140679676D01*
X106904346Y-140674364D01*
X106962445Y-140464869D01*
X106993468Y-140244125D01*
X106995414Y-140021219D01*
X106968248Y-139799968D01*
X106959388Y-139765711D01*
X106940523Y-139692765D01*
X106912434Y-139584155D01*
X106828930Y-139377473D01*
X106828927Y-139377468D01*
X106828926Y-139377465D01*
X106727700Y-139198549D01*
X107699500Y-139198549D01*
X107699500Y-140421450D01*
X107699501Y-140421466D01*
X107728594Y-140642452D01*
X107728595Y-140642457D01*
X107728596Y-140642463D01*
X107786290Y-140857780D01*
X107786293Y-140857790D01*
X107866529Y-141051496D01*
X107871595Y-141063726D01*
X107983052Y-141256774D01*
X107983057Y-141256780D01*
X107983058Y-141256782D01*
X108118751Y-141433622D01*
X108118757Y-141433629D01*
X108276370Y-141591242D01*
X108276377Y-141591248D01*
X108402294Y-141687867D01*
X108453226Y-141726948D01*
X108646274Y-141838405D01*
X108776140Y-141892197D01*
X108832330Y-141915472D01*
X108852219Y-141923710D01*
X109067537Y-141981404D01*
X109288543Y-142010500D01*
X109288550Y-142010500D01*
X109511450Y-142010500D01*
X109511457Y-142010500D01*
X109732463Y-141981404D01*
X109947781Y-141923710D01*
X110153726Y-141838405D01*
X110346774Y-141726948D01*
X110523624Y-141591247D01*
X110681247Y-141433624D01*
X110816948Y-141256774D01*
X110928405Y-141063726D01*
X111013710Y-140857781D01*
X111071404Y-140642463D01*
X111100500Y-140421457D01*
X111100500Y-140246665D01*
X111972003Y-140246665D01*
X111975961Y-140313284D01*
X111985223Y-140469187D01*
X111985223Y-140469192D01*
X112018590Y-140642463D01*
X112027374Y-140688079D01*
X112097736Y-140899595D01*
X112129550Y-140965113D01*
X112195107Y-141100122D01*
X112317813Y-141286216D01*
X112332117Y-141302729D01*
X112463765Y-141454708D01*
X112630459Y-141602706D01*
X112815045Y-141727680D01*
X113014364Y-141827492D01*
X113225005Y-141900433D01*
X113443366Y-141945256D01*
X113665708Y-141961194D01*
X113888229Y-141947974D01*
X113888234Y-141947973D01*
X113888235Y-141947973D01*
X113923560Y-141941170D01*
X114107122Y-141905823D01*
X114318638Y-141835461D01*
X114519162Y-141738091D01*
X114705261Y-141615382D01*
X114873751Y-141469432D01*
X115021749Y-141302738D01*
X115105537Y-141178982D01*
X115159422Y-141134505D01*
X115228798Y-141126221D01*
X115291641Y-141156760D01*
X115327997Y-141216426D01*
X115326323Y-141286275D01*
X115325878Y-141287641D01*
X115304178Y-141352873D01*
X115262026Y-141571764D01*
X115262026Y-141571769D01*
X115262026Y-141571771D01*
X115252764Y-141727680D01*
X115248806Y-141794295D01*
X115251186Y-141827489D01*
X115264744Y-142016634D01*
X115264744Y-142016638D01*
X115264745Y-142016640D01*
X115264746Y-142016648D01*
X115301427Y-142195340D01*
X115309567Y-142234995D01*
X115382508Y-142445636D01*
X115382510Y-142445639D01*
X115382511Y-142445643D01*
X115426632Y-142533750D01*
X115482320Y-142644955D01*
X115607294Y-142829541D01*
X115755292Y-142996235D01*
X115903902Y-143124964D01*
X115923783Y-143142186D01*
X116109877Y-143264892D01*
X116109880Y-143264893D01*
X116109881Y-143264894D01*
X116310405Y-143362264D01*
X116521921Y-143432626D01*
X116740814Y-143474777D01*
X116963335Y-143487997D01*
X117185677Y-143472059D01*
X117404038Y-143427236D01*
X117614679Y-143354295D01*
X118708152Y-142806723D01*
X118892738Y-142681749D01*
X119059432Y-142533751D01*
X119205382Y-142365261D01*
X119328091Y-142179162D01*
X119425461Y-141978638D01*
X119495823Y-141767122D01*
X119537974Y-141548229D01*
X119551194Y-141325709D01*
X119541466Y-141189997D01*
X128485034Y-141189997D01*
X128485034Y-141190002D01*
X128504858Y-141416599D01*
X128504860Y-141416610D01*
X128563730Y-141636317D01*
X128563735Y-141636331D01*
X128659863Y-141842478D01*
X128710974Y-141915472D01*
X129390000Y-141236446D01*
X129390000Y-141242661D01*
X129417259Y-141344394D01*
X129469920Y-141435606D01*
X129544394Y-141510080D01*
X129635606Y-141562741D01*
X129737339Y-141590000D01*
X129743553Y-141590000D01*
X129064526Y-142269025D01*
X129137513Y-142320132D01*
X129137521Y-142320136D01*
X129343668Y-142416264D01*
X129343682Y-142416269D01*
X129563389Y-142475139D01*
X129563400Y-142475141D01*
X129789998Y-142494966D01*
X129790002Y-142494966D01*
X130016599Y-142475141D01*
X130016610Y-142475139D01*
X130236317Y-142416269D01*
X130236331Y-142416264D01*
X130442478Y-142320136D01*
X130515471Y-142269024D01*
X129836447Y-141590000D01*
X129842661Y-141590000D01*
X129944394Y-141562741D01*
X130035606Y-141510080D01*
X130110080Y-141435606D01*
X130162741Y-141344394D01*
X130190000Y-141242661D01*
X130190000Y-141236447D01*
X130869024Y-141915471D01*
X130920136Y-141842478D01*
X131016264Y-141636331D01*
X131016269Y-141636317D01*
X131074418Y-141419301D01*
X131110783Y-141359640D01*
X131173630Y-141329111D01*
X131243005Y-141337406D01*
X131296883Y-141381891D01*
X131312853Y-141415398D01*
X131361186Y-141574728D01*
X131454086Y-141748532D01*
X131454090Y-141748539D01*
X131579116Y-141900883D01*
X131731460Y-142025909D01*
X131731467Y-142025913D01*
X131905266Y-142118811D01*
X131905269Y-142118811D01*
X131905273Y-142118814D01*
X132093868Y-142176024D01*
X132290000Y-142195341D01*
X132486132Y-142176024D01*
X132674727Y-142118814D01*
X132848538Y-142025910D01*
X133000883Y-141900883D01*
X133125910Y-141748538D01*
X133197083Y-141615383D01*
X133218811Y-141574733D01*
X133218813Y-141574728D01*
X133218814Y-141574727D01*
X133276024Y-141386132D01*
X133295341Y-141190000D01*
X133276024Y-140993868D01*
X133218814Y-140805273D01*
X133218811Y-140805269D01*
X133218811Y-140805266D01*
X133125913Y-140631467D01*
X133125909Y-140631460D01*
X133000883Y-140479116D01*
X132848539Y-140354090D01*
X132848532Y-140354086D01*
X132674733Y-140261188D01*
X132674727Y-140261186D01*
X132486132Y-140203976D01*
X132486129Y-140203975D01*
X132290000Y-140184659D01*
X132093870Y-140203975D01*
X131905266Y-140261188D01*
X131731467Y-140354086D01*
X131731460Y-140354090D01*
X131579116Y-140479116D01*
X131454090Y-140631460D01*
X131454086Y-140631467D01*
X131361186Y-140805271D01*
X131312853Y-140964601D01*
X131274556Y-141023039D01*
X131210743Y-141051496D01*
X131141676Y-141040935D01*
X131089283Y-140994710D01*
X131074418Y-140960698D01*
X131016269Y-140743682D01*
X131016264Y-140743668D01*
X130920136Y-140537521D01*
X130920132Y-140537513D01*
X130869025Y-140464526D01*
X130190000Y-141143551D01*
X130190000Y-141137339D01*
X130162741Y-141035606D01*
X130110080Y-140944394D01*
X130035606Y-140869920D01*
X129944394Y-140817259D01*
X129842661Y-140790000D01*
X129836445Y-140790000D01*
X130515472Y-140110974D01*
X130442478Y-140059863D01*
X130236331Y-139963735D01*
X130236317Y-139963730D01*
X130016610Y-139904860D01*
X130016599Y-139904858D01*
X129790002Y-139885034D01*
X129789998Y-139885034D01*
X129563400Y-139904858D01*
X129563389Y-139904860D01*
X129343682Y-139963730D01*
X129343673Y-139963734D01*
X129137516Y-140059866D01*
X129137512Y-140059868D01*
X129064526Y-140110973D01*
X129064526Y-140110974D01*
X129743553Y-140790000D01*
X129737339Y-140790000D01*
X129635606Y-140817259D01*
X129544394Y-140869920D01*
X129469920Y-140944394D01*
X129417259Y-141035606D01*
X129390000Y-141137339D01*
X129390000Y-141143552D01*
X128710974Y-140464526D01*
X128710973Y-140464526D01*
X128659868Y-140537512D01*
X128659866Y-140537516D01*
X128563734Y-140743673D01*
X128563730Y-140743682D01*
X128504860Y-140963389D01*
X128504858Y-140963400D01*
X128485034Y-141189997D01*
X119541466Y-141189997D01*
X119535256Y-141103366D01*
X119534589Y-141100119D01*
X119490433Y-140885005D01*
X119490431Y-140884998D01*
X119462822Y-140805271D01*
X119417491Y-140674364D01*
X119317679Y-140475045D01*
X119192705Y-140290459D01*
X119044707Y-140123765D01*
X118929891Y-140024308D01*
X118876221Y-139977817D01*
X118876218Y-139977815D01*
X118690122Y-139855107D01*
X118588912Y-139805962D01*
X118489595Y-139757736D01*
X118278078Y-139687374D01*
X118059189Y-139645223D01*
X117963819Y-139639557D01*
X117836665Y-139632003D01*
X117836663Y-139632003D01*
X117836661Y-139632003D01*
X117755442Y-139637825D01*
X117614323Y-139647941D01*
X117614319Y-139647941D01*
X117614316Y-139647942D01*
X117614308Y-139647943D01*
X117395962Y-139692763D01*
X117395955Y-139692765D01*
X117185326Y-139765704D01*
X117185307Y-139765712D01*
X116091855Y-140313272D01*
X115907265Y-140438248D01*
X115740568Y-140586249D01*
X115652361Y-140688079D01*
X115611564Y-140735176D01*
X115552792Y-140772960D01*
X115482922Y-140772971D01*
X115424138Y-140735206D01*
X115395103Y-140671655D01*
X115405035Y-140602495D01*
X115406963Y-140598466D01*
X115575860Y-140261186D01*
X115694294Y-140024679D01*
X115767236Y-139814038D01*
X115812059Y-139595677D01*
X115827997Y-139373335D01*
X115814777Y-139150814D01*
X115772626Y-138931922D01*
X115702264Y-138720405D01*
X115604894Y-138519881D01*
X115604893Y-138519880D01*
X115604892Y-138519877D01*
X115504353Y-138367402D01*
X115482185Y-138333782D01*
X115336235Y-138165293D01*
X115169541Y-138017295D01*
X115150817Y-138004618D01*
X114984958Y-137892323D01*
X114984953Y-137892320D01*
X114785643Y-137792512D01*
X114785638Y-137792510D01*
X114785636Y-137792509D01*
X114754113Y-137781593D01*
X114575001Y-137719568D01*
X114574994Y-137719566D01*
X114356648Y-137674746D01*
X114356640Y-137674745D01*
X114356638Y-137674744D01*
X114356634Y-137674744D01*
X114178983Y-137662009D01*
X114134293Y-137658806D01*
X114134291Y-137658806D01*
X114023031Y-137665416D01*
X113911769Y-137672026D01*
X113911764Y-137672026D01*
X113692876Y-137714177D01*
X113587439Y-137749251D01*
X113481362Y-137784539D01*
X113481358Y-137784541D01*
X113280834Y-137881910D01*
X113094740Y-138004616D01*
X112926249Y-138150568D01*
X112778248Y-138317265D01*
X112653279Y-138501844D01*
X112653273Y-138501855D01*
X112105711Y-139595307D01*
X112105706Y-139595317D01*
X112105705Y-139595321D01*
X112049463Y-139757738D01*
X112032763Y-139805965D01*
X111987943Y-140024308D01*
X111987942Y-140024316D01*
X111987941Y-140024323D01*
X111985393Y-140059868D01*
X111972300Y-140242527D01*
X111972003Y-140246665D01*
X111100500Y-140246665D01*
X111100500Y-139198543D01*
X111071404Y-138977537D01*
X111013710Y-138762219D01*
X111002491Y-138735135D01*
X110928406Y-138556277D01*
X110928405Y-138556274D01*
X110816948Y-138363226D01*
X110681247Y-138186376D01*
X110681242Y-138186370D01*
X110523629Y-138028757D01*
X110523622Y-138028751D01*
X110346782Y-137893058D01*
X110346780Y-137893057D01*
X110346774Y-137893052D01*
X110153726Y-137781595D01*
X110153722Y-137781593D01*
X109947790Y-137696293D01*
X109947783Y-137696291D01*
X109947781Y-137696290D01*
X109732463Y-137638596D01*
X109732457Y-137638595D01*
X109732452Y-137638594D01*
X109511466Y-137609501D01*
X109511463Y-137609500D01*
X109511457Y-137609500D01*
X109288543Y-137609500D01*
X109288537Y-137609500D01*
X109288533Y-137609501D01*
X109067547Y-137638594D01*
X109067540Y-137638595D01*
X109067537Y-137638596D01*
X108932623Y-137674746D01*
X108852219Y-137696290D01*
X108852209Y-137696293D01*
X108646277Y-137781593D01*
X108646273Y-137781595D01*
X108453226Y-137893052D01*
X108453217Y-137893058D01*
X108276377Y-138028751D01*
X108276370Y-138028757D01*
X108118757Y-138186370D01*
X108118751Y-138186377D01*
X107983058Y-138363217D01*
X107983052Y-138363226D01*
X107871595Y-138556273D01*
X107871593Y-138556277D01*
X107786293Y-138762209D01*
X107786290Y-138762219D01*
X107740819Y-138931922D01*
X107728597Y-138977534D01*
X107728594Y-138977547D01*
X107699501Y-139198533D01*
X107699500Y-139198549D01*
X106727700Y-139198549D01*
X106719166Y-139183465D01*
X106719160Y-139183457D01*
X106697810Y-139155125D01*
X106585010Y-139005433D01*
X106428768Y-138846440D01*
X106428765Y-138846438D01*
X106428760Y-138846433D01*
X105465100Y-138093539D01*
X105465081Y-138093526D01*
X105273035Y-137980403D01*
X105273024Y-137980397D01*
X105067856Y-137893308D01*
X105067847Y-137893305D01*
X105067838Y-137893301D01*
X104988785Y-137871377D01*
X104853038Y-137833731D01*
X104853027Y-137833729D01*
X104632297Y-137802707D01*
X104632276Y-137802706D01*
X104409392Y-137800759D01*
X104409383Y-137800760D01*
X104307351Y-137813288D01*
X104188131Y-137827927D01*
X104188119Y-137827929D01*
X103972318Y-137883739D01*
X103765639Y-137967243D01*
X103765629Y-137967247D01*
X103571629Y-138077007D01*
X103571621Y-138077013D01*
X103393599Y-138211162D01*
X103234606Y-138367402D01*
X103234596Y-138367413D01*
X103097369Y-138543057D01*
X103097364Y-138543065D01*
X102984225Y-138735135D01*
X102984223Y-138735139D01*
X102897134Y-138940307D01*
X102897126Y-138940330D01*
X102837557Y-139155125D01*
X102837555Y-139155136D01*
X102806533Y-139375866D01*
X102806532Y-139375887D01*
X102804585Y-139598771D01*
X102804586Y-139598779D01*
X102804586Y-139598781D01*
X102810623Y-139647943D01*
X102831753Y-139820032D01*
X102831755Y-139820044D01*
X102887565Y-140035845D01*
X102897271Y-140059868D01*
X102955494Y-140203976D01*
X102957010Y-140207726D01*
X102963872Y-140277258D01*
X102932053Y-140339461D01*
X102871655Y-140374588D01*
X102801855Y-140371485D01*
X102772521Y-140356857D01*
X102708162Y-140313284D01*
X102708152Y-140313277D01*
X102489882Y-140203975D01*
X101614692Y-139765711D01*
X101614686Y-139765708D01*
X101614679Y-139765705D01*
X101404038Y-139692764D01*
X101404035Y-139692763D01*
X101404034Y-139692763D01*
X101185691Y-139647943D01*
X101185683Y-139647942D01*
X101185681Y-139647941D01*
X101185677Y-139647941D01*
X101008027Y-139635206D01*
X100963337Y-139632003D01*
X100963335Y-139632003D01*
X100852074Y-139638613D01*
X100740812Y-139645223D01*
X100740807Y-139645223D01*
X100521919Y-139687374D01*
X100416482Y-139722448D01*
X100310405Y-139757736D01*
X100310401Y-139757738D01*
X100109877Y-139855107D01*
X99923783Y-139977813D01*
X99755292Y-140123765D01*
X99607291Y-140290462D01*
X99482322Y-140475041D01*
X99482319Y-140475046D01*
X99382511Y-140674356D01*
X99382509Y-140674360D01*
X99382508Y-140674364D01*
X99337177Y-140805273D01*
X99309566Y-140885008D01*
X99264746Y-141103351D01*
X99264745Y-141103359D01*
X99264744Y-141103366D01*
X99260917Y-141156760D01*
X99250453Y-141302738D01*
X99248806Y-141325708D01*
X80054346Y-141325708D01*
X80054346Y-125022155D01*
X83130000Y-125022155D01*
X83130000Y-125670000D01*
X84046988Y-125670000D01*
X84014075Y-125727007D01*
X83980000Y-125854174D01*
X83980000Y-125985826D01*
X84014075Y-126112993D01*
X84046988Y-126170000D01*
X83130000Y-126170000D01*
X83130000Y-126817844D01*
X83136401Y-126877372D01*
X83136403Y-126877379D01*
X83186645Y-127012086D01*
X83186649Y-127012093D01*
X83272809Y-127127187D01*
X83272812Y-127127190D01*
X83387906Y-127213350D01*
X83387913Y-127213354D01*
X83519986Y-127262614D01*
X83575920Y-127304485D01*
X83600337Y-127369949D01*
X83585486Y-127438222D01*
X83564335Y-127466477D01*
X83441886Y-127588926D01*
X83306400Y-127782420D01*
X83306399Y-127782422D01*
X83206570Y-127996507D01*
X83206567Y-127996513D01*
X83149364Y-128209999D01*
X83149364Y-128210000D01*
X84046988Y-128210000D01*
X84014075Y-128267007D01*
X83980000Y-128394174D01*
X83980000Y-128525826D01*
X84014075Y-128652993D01*
X84046988Y-128710000D01*
X83149364Y-128710000D01*
X83206567Y-128923486D01*
X83206570Y-128923492D01*
X83306399Y-129137578D01*
X83441894Y-129331082D01*
X83608917Y-129498105D01*
X83795031Y-129628425D01*
X83838656Y-129683003D01*
X83845848Y-129752501D01*
X83814326Y-129814856D01*
X83795031Y-129831575D01*
X83608922Y-129961890D01*
X83608920Y-129961891D01*
X83441891Y-130128920D01*
X83441886Y-130128926D01*
X83306400Y-130322420D01*
X83306399Y-130322422D01*
X83206570Y-130536507D01*
X83206567Y-130536513D01*
X83149364Y-130749999D01*
X83149364Y-130750000D01*
X84046988Y-130750000D01*
X84014075Y-130807007D01*
X83980000Y-130934174D01*
X83980000Y-131065826D01*
X84014075Y-131192993D01*
X84046988Y-131250000D01*
X83149364Y-131250000D01*
X83206567Y-131463486D01*
X83206570Y-131463492D01*
X83306399Y-131677578D01*
X83441894Y-131871082D01*
X83608917Y-132038105D01*
X83795031Y-132168425D01*
X83838656Y-132223003D01*
X83845848Y-132292501D01*
X83814326Y-132354856D01*
X83795031Y-132371575D01*
X83608922Y-132501890D01*
X83608920Y-132501891D01*
X83441891Y-132668920D01*
X83441886Y-132668926D01*
X83306400Y-132862420D01*
X83306399Y-132862422D01*
X83206570Y-133076507D01*
X83206567Y-133076513D01*
X83149364Y-133289999D01*
X83149364Y-133290000D01*
X84046988Y-133290000D01*
X84014075Y-133347007D01*
X83980000Y-133474174D01*
X83980000Y-133605826D01*
X84014075Y-133732993D01*
X84046988Y-133790000D01*
X83149364Y-133790000D01*
X83206567Y-134003486D01*
X83206570Y-134003492D01*
X83306399Y-134217578D01*
X83441894Y-134411082D01*
X83608917Y-134578105D01*
X83795031Y-134708425D01*
X83838656Y-134763003D01*
X83845848Y-134832501D01*
X83814326Y-134894856D01*
X83795031Y-134911575D01*
X83608922Y-135041890D01*
X83608920Y-135041891D01*
X83441891Y-135208920D01*
X83441886Y-135208926D01*
X83306400Y-135402420D01*
X83306399Y-135402422D01*
X83206570Y-135616507D01*
X83206567Y-135616513D01*
X83149364Y-135829999D01*
X83149364Y-135830000D01*
X84046988Y-135830000D01*
X84014075Y-135887007D01*
X83980000Y-136014174D01*
X83980000Y-136145826D01*
X84014075Y-136272993D01*
X84046988Y-136330000D01*
X83149364Y-136330000D01*
X83206567Y-136543486D01*
X83206570Y-136543492D01*
X83306399Y-136757578D01*
X83441894Y-136951082D01*
X83608917Y-137118105D01*
X83802421Y-137253600D01*
X84016507Y-137353429D01*
X84016516Y-137353433D01*
X84230000Y-137410634D01*
X84230000Y-136513012D01*
X84287007Y-136545925D01*
X84414174Y-136580000D01*
X84545826Y-136580000D01*
X84672993Y-136545925D01*
X84730000Y-136513012D01*
X84730000Y-137410633D01*
X84943483Y-137353433D01*
X84943492Y-137353429D01*
X85157578Y-137253600D01*
X85351082Y-137118105D01*
X85518105Y-136951082D01*
X85653600Y-136757578D01*
X85753429Y-136543492D01*
X85753433Y-136543483D01*
X85786580Y-136419776D01*
X85822945Y-136360115D01*
X85885791Y-136329586D01*
X85955167Y-136337880D01*
X86009045Y-136382366D01*
X86025016Y-136415873D01*
X86054769Y-136513957D01*
X86071857Y-136545925D01*
X86152315Y-136696450D01*
X86152317Y-136696452D01*
X86283589Y-136856410D01*
X86350608Y-136911410D01*
X86443550Y-136987685D01*
X86626046Y-137085232D01*
X86824066Y-137145300D01*
X86824065Y-137145300D01*
X86842529Y-137147118D01*
X87030000Y-137165583D01*
X87235934Y-137145300D01*
X87433954Y-137085232D01*
X87616450Y-136987685D01*
X87776410Y-136856410D01*
X87907685Y-136696450D01*
X88005232Y-136513954D01*
X88065300Y-136315934D01*
X88085583Y-136110000D01*
X88065300Y-135904066D01*
X88005232Y-135706046D01*
X87907685Y-135523550D01*
X87821547Y-135418590D01*
X87776410Y-135363589D01*
X87616452Y-135232317D01*
X87616453Y-135232317D01*
X87616450Y-135232315D01*
X87433954Y-135134768D01*
X87235934Y-135074700D01*
X87235932Y-135074699D01*
X87235934Y-135074699D01*
X87030000Y-135054417D01*
X86824067Y-135074699D01*
X86668496Y-135121891D01*
X86642757Y-135129699D01*
X86626043Y-135134769D01*
X86523149Y-135189768D01*
X86443550Y-135232315D01*
X86443548Y-135232316D01*
X86443547Y-135232317D01*
X86283589Y-135363589D01*
X86152317Y-135523547D01*
X86054768Y-135706045D01*
X86033551Y-135775986D01*
X85995253Y-135834424D01*
X85931440Y-135862880D01*
X85862374Y-135852318D01*
X85809981Y-135806093D01*
X85795116Y-135772082D01*
X85753433Y-135616516D01*
X85753429Y-135616507D01*
X85653600Y-135402422D01*
X85653599Y-135402420D01*
X85518113Y-135208926D01*
X85518108Y-135208920D01*
X85351082Y-135041894D01*
X85164968Y-134911575D01*
X85121344Y-134856998D01*
X85114151Y-134787499D01*
X85145673Y-134725145D01*
X85164968Y-134708425D01*
X85351082Y-134578105D01*
X85518105Y-134411082D01*
X85653600Y-134217578D01*
X85753429Y-134003492D01*
X85753433Y-134003483D01*
X85786580Y-133879776D01*
X85822945Y-133820115D01*
X85885791Y-133789586D01*
X85955167Y-133797880D01*
X86009045Y-133842366D01*
X86025016Y-133875873D01*
X86054769Y-133973957D01*
X86071857Y-134005925D01*
X86152315Y-134156450D01*
X86152317Y-134156452D01*
X86283589Y-134316410D01*
X86350608Y-134371410D01*
X86443550Y-134447685D01*
X86626046Y-134545232D01*
X86824066Y-134605300D01*
X86824065Y-134605300D01*
X86842529Y-134607118D01*
X87030000Y-134625583D01*
X87235934Y-134605300D01*
X87433954Y-134545232D01*
X87616450Y-134447685D01*
X87776410Y-134316410D01*
X87907685Y-134156450D01*
X88005232Y-133973954D01*
X88065300Y-133775934D01*
X88085583Y-133570000D01*
X88065300Y-133364066D01*
X88005232Y-133166046D01*
X87907685Y-132983550D01*
X87821547Y-132878590D01*
X87776410Y-132823589D01*
X87616452Y-132692317D01*
X87616453Y-132692317D01*
X87616450Y-132692315D01*
X87433954Y-132594768D01*
X87235934Y-132534700D01*
X87235932Y-132534699D01*
X87235934Y-132534699D01*
X87030000Y-132514417D01*
X86824067Y-132534699D01*
X86668496Y-132581891D01*
X86642757Y-132589699D01*
X86626043Y-132594769D01*
X86523149Y-132649768D01*
X86443550Y-132692315D01*
X86443548Y-132692316D01*
X86443547Y-132692317D01*
X86283589Y-132823589D01*
X86152317Y-132983547D01*
X86054768Y-133166045D01*
X86033551Y-133235986D01*
X85995253Y-133294424D01*
X85931440Y-133322880D01*
X85862374Y-133312318D01*
X85809981Y-133266093D01*
X85795116Y-133232082D01*
X85753433Y-133076516D01*
X85753429Y-133076507D01*
X85653600Y-132862422D01*
X85653599Y-132862420D01*
X85518113Y-132668926D01*
X85518108Y-132668920D01*
X85351082Y-132501894D01*
X85164968Y-132371575D01*
X85121344Y-132316998D01*
X85114151Y-132247499D01*
X85145673Y-132185145D01*
X85164968Y-132168425D01*
X85351082Y-132038105D01*
X85518105Y-131871082D01*
X85653600Y-131677578D01*
X85753429Y-131463492D01*
X85753433Y-131463483D01*
X85786580Y-131339776D01*
X85822945Y-131280115D01*
X85885791Y-131249586D01*
X85955167Y-131257880D01*
X86009045Y-131302366D01*
X86025016Y-131335873D01*
X86054769Y-131433957D01*
X86071857Y-131465925D01*
X86152315Y-131616450D01*
X86152317Y-131616452D01*
X86283589Y-131776410D01*
X86350608Y-131831410D01*
X86443550Y-131907685D01*
X86626046Y-132005232D01*
X86824066Y-132065300D01*
X86824065Y-132065300D01*
X86842529Y-132067118D01*
X87030000Y-132085583D01*
X87235934Y-132065300D01*
X87433954Y-132005232D01*
X87616450Y-131907685D01*
X87776410Y-131776410D01*
X87907685Y-131616450D01*
X88005232Y-131433954D01*
X88065300Y-131235934D01*
X88085583Y-131030000D01*
X88065300Y-130824066D01*
X88005232Y-130626046D01*
X87907685Y-130443550D01*
X87821547Y-130338590D01*
X87776410Y-130283589D01*
X87616452Y-130152317D01*
X87616453Y-130152317D01*
X87616450Y-130152315D01*
X87433954Y-130054768D01*
X87235934Y-129994700D01*
X87235932Y-129994699D01*
X87235934Y-129994699D01*
X87030000Y-129974417D01*
X86824067Y-129994699D01*
X86668496Y-130041891D01*
X86642757Y-130049699D01*
X86626043Y-130054769D01*
X86523149Y-130109768D01*
X86443550Y-130152315D01*
X86443548Y-130152316D01*
X86443547Y-130152317D01*
X86283589Y-130283589D01*
X86152317Y-130443547D01*
X86054768Y-130626045D01*
X86033551Y-130695986D01*
X85995253Y-130754424D01*
X85931440Y-130782880D01*
X85862374Y-130772318D01*
X85809981Y-130726093D01*
X85795116Y-130692082D01*
X85753433Y-130536516D01*
X85753429Y-130536507D01*
X85653600Y-130322422D01*
X85653599Y-130322420D01*
X85518113Y-130128926D01*
X85518108Y-130128920D01*
X85351082Y-129961894D01*
X85164968Y-129831575D01*
X85121344Y-129776998D01*
X85114151Y-129707499D01*
X85145673Y-129645145D01*
X85164968Y-129628425D01*
X85351082Y-129498105D01*
X85518105Y-129331082D01*
X85653600Y-129137578D01*
X85753429Y-128923492D01*
X85753433Y-128923483D01*
X85786580Y-128799776D01*
X85822945Y-128740115D01*
X85885791Y-128709586D01*
X85955167Y-128717880D01*
X86009045Y-128762366D01*
X86025016Y-128795873D01*
X86054769Y-128893957D01*
X86071857Y-128925925D01*
X86152315Y-129076450D01*
X86152317Y-129076452D01*
X86283589Y-129236410D01*
X86350608Y-129291410D01*
X86443550Y-129367685D01*
X86626046Y-129465232D01*
X86824066Y-129525300D01*
X86824065Y-129525300D01*
X86842529Y-129527118D01*
X87030000Y-129545583D01*
X87235934Y-129525300D01*
X87433954Y-129465232D01*
X87616450Y-129367685D01*
X87776410Y-129236410D01*
X87907685Y-129076450D01*
X88005232Y-128893954D01*
X88065300Y-128695934D01*
X88085583Y-128490000D01*
X88065300Y-128284066D01*
X88005232Y-128086046D01*
X87907685Y-127903550D01*
X87821547Y-127798590D01*
X87776410Y-127743589D01*
X87616452Y-127612317D01*
X87616453Y-127612317D01*
X87616450Y-127612315D01*
X87433954Y-127514768D01*
X87235934Y-127454700D01*
X87235932Y-127454699D01*
X87235934Y-127454699D01*
X87030000Y-127434417D01*
X86824067Y-127454699D01*
X86648692Y-127507898D01*
X86642757Y-127509699D01*
X86626043Y-127514769D01*
X86566723Y-127546477D01*
X86443550Y-127612315D01*
X86443548Y-127612316D01*
X86443547Y-127612317D01*
X86283589Y-127743589D01*
X86152317Y-127903547D01*
X86054768Y-128086045D01*
X86033551Y-128155986D01*
X85995253Y-128214424D01*
X85931440Y-128242880D01*
X85862374Y-128232318D01*
X85809981Y-128186093D01*
X85795116Y-128152082D01*
X85753433Y-127996516D01*
X85753429Y-127996507D01*
X85653600Y-127782422D01*
X85653599Y-127782420D01*
X85518113Y-127588926D01*
X85518108Y-127588920D01*
X85395665Y-127466477D01*
X85362180Y-127405154D01*
X85367164Y-127335462D01*
X85409036Y-127279529D01*
X85440013Y-127262614D01*
X85572086Y-127213354D01*
X85572093Y-127213350D01*
X85687187Y-127127190D01*
X85687190Y-127127187D01*
X85773350Y-127012093D01*
X85773355Y-127012084D01*
X85798737Y-126944031D01*
X85840607Y-126888097D01*
X85906071Y-126863679D01*
X85974344Y-126878530D01*
X86018021Y-126918471D01*
X86035448Y-126944552D01*
X86101769Y-126988867D01*
X86101770Y-126988868D01*
X86160247Y-127000499D01*
X86160250Y-127000500D01*
X86160252Y-127000500D01*
X87899750Y-127000500D01*
X87899751Y-127000499D01*
X87914568Y-126997552D01*
X87958229Y-126988868D01*
X87958229Y-126988867D01*
X87958231Y-126988867D01*
X88024552Y-126944552D01*
X88068867Y-126878231D01*
X88068867Y-126878229D01*
X88068868Y-126878229D01*
X88080499Y-126819752D01*
X88080500Y-126819750D01*
X88080500Y-125102155D01*
X128400000Y-125102155D01*
X128400000Y-125750000D01*
X129316988Y-125750000D01*
X129284075Y-125807007D01*
X129250000Y-125934174D01*
X129250000Y-126065826D01*
X129284075Y-126192993D01*
X129316988Y-126250000D01*
X128400000Y-126250000D01*
X128400000Y-126897844D01*
X128406401Y-126957372D01*
X128406403Y-126957379D01*
X128456645Y-127092086D01*
X128456649Y-127092093D01*
X128542809Y-127207187D01*
X128542812Y-127207190D01*
X128657906Y-127293350D01*
X128657913Y-127293354D01*
X128789986Y-127342614D01*
X128845920Y-127384485D01*
X128870337Y-127449949D01*
X128855486Y-127518222D01*
X128834335Y-127546477D01*
X128711886Y-127668926D01*
X128576400Y-127862420D01*
X128576399Y-127862422D01*
X128476570Y-128076507D01*
X128476567Y-128076513D01*
X128419364Y-128289999D01*
X128419364Y-128290000D01*
X129316988Y-128290000D01*
X129284075Y-128347007D01*
X129250000Y-128474174D01*
X129250000Y-128605826D01*
X129284075Y-128732993D01*
X129316988Y-128790000D01*
X128419364Y-128790000D01*
X128476567Y-129003486D01*
X128476570Y-129003492D01*
X128576399Y-129217578D01*
X128711894Y-129411082D01*
X128878917Y-129578105D01*
X129065031Y-129708425D01*
X129108656Y-129763003D01*
X129115848Y-129832501D01*
X129084326Y-129894856D01*
X129065031Y-129911575D01*
X128878922Y-130041890D01*
X128878920Y-130041891D01*
X128711891Y-130208920D01*
X128711886Y-130208926D01*
X128576400Y-130402420D01*
X128576399Y-130402422D01*
X128476570Y-130616507D01*
X128476567Y-130616513D01*
X128419364Y-130829999D01*
X128419364Y-130830000D01*
X129316988Y-130830000D01*
X129284075Y-130887007D01*
X129250000Y-131014174D01*
X129250000Y-131145826D01*
X129284075Y-131272993D01*
X129316988Y-131330000D01*
X128419364Y-131330000D01*
X128476567Y-131543486D01*
X128476570Y-131543492D01*
X128576399Y-131757578D01*
X128711894Y-131951082D01*
X128878917Y-132118105D01*
X129065031Y-132248425D01*
X129108656Y-132303003D01*
X129115848Y-132372501D01*
X129084326Y-132434856D01*
X129065031Y-132451575D01*
X128878922Y-132581890D01*
X128878920Y-132581891D01*
X128711891Y-132748920D01*
X128711886Y-132748926D01*
X128576400Y-132942420D01*
X128576399Y-132942422D01*
X128476570Y-133156507D01*
X128476567Y-133156513D01*
X128419364Y-133369999D01*
X128419364Y-133370000D01*
X129316988Y-133370000D01*
X129284075Y-133427007D01*
X129250000Y-133554174D01*
X129250000Y-133685826D01*
X129284075Y-133812993D01*
X129316988Y-133870000D01*
X128419364Y-133870000D01*
X128476567Y-134083486D01*
X128476570Y-134083492D01*
X128576399Y-134297578D01*
X128711894Y-134491082D01*
X128878917Y-134658105D01*
X129065031Y-134788425D01*
X129108656Y-134843003D01*
X129115848Y-134912501D01*
X129084326Y-134974856D01*
X129065031Y-134991575D01*
X128878922Y-135121890D01*
X128878920Y-135121891D01*
X128711891Y-135288920D01*
X128711886Y-135288926D01*
X128576400Y-135482420D01*
X128576399Y-135482422D01*
X128476570Y-135696507D01*
X128476567Y-135696513D01*
X128419364Y-135909999D01*
X128419364Y-135910000D01*
X129316988Y-135910000D01*
X129284075Y-135967007D01*
X129250000Y-136094174D01*
X129250000Y-136225826D01*
X129284075Y-136352993D01*
X129316988Y-136410000D01*
X128419364Y-136410000D01*
X128476567Y-136623486D01*
X128476570Y-136623492D01*
X128576399Y-136837578D01*
X128711894Y-137031082D01*
X128878917Y-137198105D01*
X129072421Y-137333600D01*
X129286507Y-137433429D01*
X129286516Y-137433433D01*
X129500000Y-137490634D01*
X129500000Y-136593012D01*
X129557007Y-136625925D01*
X129684174Y-136660000D01*
X129815826Y-136660000D01*
X129942993Y-136625925D01*
X130000000Y-136593012D01*
X130000000Y-137490633D01*
X130213483Y-137433433D01*
X130213492Y-137433429D01*
X130427578Y-137333600D01*
X130621082Y-137198105D01*
X130788105Y-137031082D01*
X130923600Y-136837578D01*
X131023429Y-136623492D01*
X131023433Y-136623483D01*
X131055447Y-136504005D01*
X131091812Y-136444344D01*
X131154659Y-136413815D01*
X131224034Y-136422110D01*
X131277912Y-136466595D01*
X131293881Y-136500100D01*
X131314768Y-136568954D01*
X131412315Y-136751450D01*
X131412317Y-136751452D01*
X131543589Y-136911410D01*
X131636528Y-136987682D01*
X131703550Y-137042685D01*
X131886046Y-137140232D01*
X132084066Y-137200300D01*
X132084065Y-137200300D01*
X132102529Y-137202118D01*
X132290000Y-137220583D01*
X132495934Y-137200300D01*
X132693954Y-137140232D01*
X132876450Y-137042685D01*
X133036410Y-136911410D01*
X133167685Y-136751450D01*
X133265232Y-136568954D01*
X133325300Y-136370934D01*
X133345583Y-136165000D01*
X133325300Y-135959066D01*
X133265232Y-135761046D01*
X133167685Y-135578550D01*
X133115702Y-135515209D01*
X133036410Y-135418589D01*
X132878413Y-135288926D01*
X132876450Y-135287315D01*
X132693954Y-135189768D01*
X132495934Y-135129700D01*
X132495932Y-135129699D01*
X132495934Y-135129699D01*
X132290000Y-135109417D01*
X132084067Y-135129699D01*
X131886043Y-135189769D01*
X131806447Y-135232315D01*
X131703550Y-135287315D01*
X131703548Y-135287316D01*
X131703547Y-135287317D01*
X131543589Y-135418589D01*
X131412317Y-135578547D01*
X131412315Y-135578550D01*
X131392023Y-135616513D01*
X131314767Y-135761047D01*
X131295304Y-135825207D01*
X131257006Y-135883646D01*
X131193194Y-135912102D01*
X131124127Y-135901541D01*
X131071734Y-135855316D01*
X131056869Y-135821304D01*
X131023433Y-135696516D01*
X131023429Y-135696507D01*
X130923600Y-135482422D01*
X130923599Y-135482420D01*
X130788113Y-135288926D01*
X130788108Y-135288920D01*
X130621082Y-135121894D01*
X130434968Y-134991575D01*
X130391344Y-134936998D01*
X130384151Y-134867499D01*
X130415673Y-134805145D01*
X130434968Y-134788425D01*
X130621082Y-134658105D01*
X130788105Y-134491082D01*
X130923600Y-134297578D01*
X131023429Y-134083492D01*
X131023433Y-134083483D01*
X131055447Y-133964005D01*
X131091812Y-133904344D01*
X131154659Y-133873815D01*
X131224034Y-133882110D01*
X131277912Y-133926595D01*
X131293881Y-133960100D01*
X131314768Y-134028954D01*
X131412315Y-134211450D01*
X131412317Y-134211452D01*
X131543589Y-134371410D01*
X131636528Y-134447682D01*
X131703550Y-134502685D01*
X131886046Y-134600232D01*
X132084066Y-134660300D01*
X132084065Y-134660300D01*
X132102529Y-134662118D01*
X132290000Y-134680583D01*
X132495934Y-134660300D01*
X132693954Y-134600232D01*
X132876450Y-134502685D01*
X133036410Y-134371410D01*
X133167685Y-134211450D01*
X133265232Y-134028954D01*
X133325300Y-133830934D01*
X133345583Y-133625000D01*
X133325300Y-133419066D01*
X133265232Y-133221046D01*
X133167685Y-133038550D01*
X133115702Y-132975209D01*
X133036410Y-132878589D01*
X132878413Y-132748926D01*
X132876450Y-132747315D01*
X132693954Y-132649768D01*
X132495934Y-132589700D01*
X132495932Y-132589699D01*
X132495934Y-132589699D01*
X132290000Y-132569417D01*
X132084067Y-132589699D01*
X131886043Y-132649769D01*
X131806447Y-132692315D01*
X131703550Y-132747315D01*
X131703548Y-132747316D01*
X131703547Y-132747317D01*
X131543589Y-132878589D01*
X131412317Y-133038547D01*
X131412315Y-133038550D01*
X131392023Y-133076513D01*
X131314767Y-133221047D01*
X131295304Y-133285207D01*
X131257006Y-133343646D01*
X131193194Y-133372102D01*
X131124127Y-133361541D01*
X131071734Y-133315316D01*
X131056869Y-133281304D01*
X131023433Y-133156516D01*
X131023429Y-133156507D01*
X130923600Y-132942422D01*
X130923599Y-132942420D01*
X130788113Y-132748926D01*
X130788108Y-132748920D01*
X130621082Y-132581894D01*
X130434968Y-132451575D01*
X130391344Y-132396998D01*
X130384151Y-132327499D01*
X130415673Y-132265145D01*
X130434968Y-132248425D01*
X130621082Y-132118105D01*
X130788105Y-131951082D01*
X130923600Y-131757578D01*
X131023429Y-131543492D01*
X131023433Y-131543483D01*
X131055447Y-131424005D01*
X131091812Y-131364344D01*
X131154659Y-131333815D01*
X131224034Y-131342110D01*
X131277912Y-131386595D01*
X131293881Y-131420100D01*
X131314768Y-131488954D01*
X131412315Y-131671450D01*
X131412317Y-131671452D01*
X131543589Y-131831410D01*
X131636528Y-131907682D01*
X131703550Y-131962685D01*
X131886046Y-132060232D01*
X132084066Y-132120300D01*
X132084065Y-132120300D01*
X132102529Y-132122118D01*
X132290000Y-132140583D01*
X132495934Y-132120300D01*
X132693954Y-132060232D01*
X132876450Y-131962685D01*
X133036410Y-131831410D01*
X133167685Y-131671450D01*
X133265232Y-131488954D01*
X133325300Y-131290934D01*
X133345583Y-131085000D01*
X133325300Y-130879066D01*
X133265232Y-130681046D01*
X133167685Y-130498550D01*
X133115702Y-130435209D01*
X133036410Y-130338589D01*
X132878413Y-130208926D01*
X132876450Y-130207315D01*
X132693954Y-130109768D01*
X132495934Y-130049700D01*
X132495932Y-130049699D01*
X132495934Y-130049699D01*
X132290000Y-130029417D01*
X132084067Y-130049699D01*
X131886043Y-130109769D01*
X131806447Y-130152315D01*
X131703550Y-130207315D01*
X131703548Y-130207316D01*
X131703547Y-130207317D01*
X131543589Y-130338589D01*
X131412317Y-130498547D01*
X131412315Y-130498550D01*
X131392023Y-130536513D01*
X131314767Y-130681047D01*
X131295304Y-130745207D01*
X131257006Y-130803646D01*
X131193194Y-130832102D01*
X131124127Y-130821541D01*
X131071734Y-130775316D01*
X131056869Y-130741304D01*
X131023433Y-130616516D01*
X131023429Y-130616507D01*
X130923600Y-130402422D01*
X130923599Y-130402420D01*
X130788113Y-130208926D01*
X130788108Y-130208920D01*
X130621082Y-130041894D01*
X130434968Y-129911575D01*
X130391344Y-129856998D01*
X130384151Y-129787499D01*
X130415673Y-129725145D01*
X130434968Y-129708425D01*
X130621082Y-129578105D01*
X130788105Y-129411082D01*
X130923600Y-129217578D01*
X131023429Y-129003492D01*
X131023433Y-129003483D01*
X131055447Y-128884005D01*
X131091812Y-128824344D01*
X131154659Y-128793815D01*
X131224034Y-128802110D01*
X131277912Y-128846595D01*
X131293881Y-128880100D01*
X131314768Y-128948954D01*
X131412315Y-129131450D01*
X131412317Y-129131452D01*
X131543589Y-129291410D01*
X131636528Y-129367682D01*
X131703550Y-129422685D01*
X131886046Y-129520232D01*
X132084066Y-129580300D01*
X132084065Y-129580300D01*
X132102529Y-129582118D01*
X132290000Y-129600583D01*
X132495934Y-129580300D01*
X132693954Y-129520232D01*
X132876450Y-129422685D01*
X133036410Y-129291410D01*
X133167685Y-129131450D01*
X133265232Y-128948954D01*
X133325300Y-128750934D01*
X133345583Y-128545000D01*
X133325300Y-128339066D01*
X133265232Y-128141046D01*
X133167685Y-127958550D01*
X133115702Y-127895209D01*
X133036410Y-127798589D01*
X132878413Y-127668926D01*
X132876450Y-127667315D01*
X132693954Y-127569768D01*
X132495934Y-127509700D01*
X132495932Y-127509699D01*
X132495934Y-127509699D01*
X132290000Y-127489417D01*
X132084067Y-127509699D01*
X131886043Y-127569769D01*
X131806447Y-127612315D01*
X131703550Y-127667315D01*
X131703548Y-127667316D01*
X131703547Y-127667317D01*
X131543589Y-127798589D01*
X131412317Y-127958547D01*
X131412315Y-127958550D01*
X131392023Y-127996513D01*
X131314767Y-128141047D01*
X131295304Y-128205207D01*
X131257006Y-128263646D01*
X131193194Y-128292102D01*
X131124127Y-128281541D01*
X131071734Y-128235316D01*
X131056869Y-128201304D01*
X131023433Y-128076516D01*
X131023429Y-128076507D01*
X130923600Y-127862422D01*
X130923599Y-127862420D01*
X130788113Y-127668926D01*
X130788108Y-127668920D01*
X130665665Y-127546477D01*
X130632180Y-127485154D01*
X130637164Y-127415462D01*
X130679036Y-127359529D01*
X130710013Y-127342614D01*
X130842086Y-127293354D01*
X130842093Y-127293350D01*
X130957187Y-127207190D01*
X130957190Y-127207187D01*
X131043350Y-127092093D01*
X131043355Y-127092084D01*
X131071139Y-127017591D01*
X131113009Y-126961657D01*
X131178473Y-126937239D01*
X131246747Y-126952090D01*
X131290423Y-126992033D01*
X131295446Y-126999551D01*
X131361769Y-127043867D01*
X131361770Y-127043868D01*
X131420247Y-127055499D01*
X131420250Y-127055500D01*
X131420252Y-127055500D01*
X133159750Y-127055500D01*
X133159751Y-127055499D01*
X133174568Y-127052552D01*
X133218229Y-127043868D01*
X133218229Y-127043867D01*
X133218231Y-127043867D01*
X133284552Y-126999552D01*
X133328867Y-126933231D01*
X133328867Y-126933229D01*
X133328868Y-126933229D01*
X133339807Y-126878230D01*
X133340500Y-126874748D01*
X133340500Y-125135252D01*
X133340500Y-125135249D01*
X133340499Y-125135247D01*
X133328868Y-125076770D01*
X133328867Y-125076769D01*
X133284552Y-125010447D01*
X133218230Y-124966132D01*
X133218229Y-124966131D01*
X133159752Y-124954500D01*
X133159748Y-124954500D01*
X131420252Y-124954500D01*
X131420247Y-124954500D01*
X131361770Y-124966131D01*
X131361769Y-124966132D01*
X131295446Y-125010448D01*
X131292815Y-125014387D01*
X131239201Y-125059191D01*
X131169876Y-125067896D01*
X131106849Y-125037739D01*
X131073533Y-124988826D01*
X131043354Y-124907913D01*
X131043350Y-124907906D01*
X130957190Y-124792812D01*
X130957187Y-124792809D01*
X130842093Y-124706649D01*
X130842086Y-124706645D01*
X130707379Y-124656403D01*
X130707372Y-124656401D01*
X130647844Y-124650000D01*
X130000000Y-124650000D01*
X130000000Y-125566988D01*
X129942993Y-125534075D01*
X129815826Y-125500000D01*
X129684174Y-125500000D01*
X129557007Y-125534075D01*
X129500000Y-125566988D01*
X129500000Y-124650000D01*
X128852155Y-124650000D01*
X128792627Y-124656401D01*
X128792620Y-124656403D01*
X128657913Y-124706645D01*
X128657906Y-124706649D01*
X128542812Y-124792809D01*
X128542809Y-124792812D01*
X128456649Y-124907906D01*
X128456645Y-124907913D01*
X128406403Y-125042620D01*
X128406401Y-125042627D01*
X128400000Y-125102155D01*
X88080500Y-125102155D01*
X88080500Y-125080249D01*
X88080499Y-125080247D01*
X88068868Y-125021770D01*
X88068867Y-125021769D01*
X88024552Y-124955447D01*
X87958230Y-124911132D01*
X87958229Y-124911131D01*
X87899752Y-124899500D01*
X87899748Y-124899500D01*
X86160252Y-124899500D01*
X86160247Y-124899500D01*
X86101770Y-124911131D01*
X86101769Y-124911132D01*
X86035447Y-124955448D01*
X86032380Y-124960038D01*
X85978765Y-125004840D01*
X85909440Y-125013544D01*
X85846414Y-124983387D01*
X85813099Y-124934475D01*
X85773354Y-124827913D01*
X85773350Y-124827906D01*
X85687190Y-124712812D01*
X85687187Y-124712809D01*
X85572093Y-124626649D01*
X85572086Y-124626645D01*
X85437379Y-124576403D01*
X85437372Y-124576401D01*
X85377844Y-124570000D01*
X84730000Y-124570000D01*
X84730000Y-125486988D01*
X84672993Y-125454075D01*
X84545826Y-125420000D01*
X84414174Y-125420000D01*
X84287007Y-125454075D01*
X84230000Y-125486988D01*
X84230000Y-124570000D01*
X83582155Y-124570000D01*
X83522627Y-124576401D01*
X83522620Y-124576403D01*
X83387913Y-124626645D01*
X83387906Y-124626649D01*
X83272812Y-124712809D01*
X83272809Y-124712812D01*
X83186649Y-124827906D01*
X83186645Y-124827913D01*
X83136403Y-124962620D01*
X83136401Y-124962627D01*
X83130000Y-125022155D01*
X80054346Y-125022155D01*
X80054346Y-120229997D01*
X85755034Y-120229997D01*
X85755034Y-120230002D01*
X85774858Y-120456599D01*
X85774860Y-120456610D01*
X85833730Y-120676317D01*
X85833735Y-120676331D01*
X85929863Y-120882478D01*
X85980974Y-120955472D01*
X86660000Y-120276446D01*
X86660000Y-120282661D01*
X86687259Y-120384394D01*
X86739920Y-120475606D01*
X86814394Y-120550080D01*
X86905606Y-120602741D01*
X87007339Y-120630000D01*
X87013553Y-120630000D01*
X86334526Y-121309025D01*
X86407513Y-121360132D01*
X86407521Y-121360136D01*
X86613668Y-121456264D01*
X86613682Y-121456269D01*
X86830698Y-121514418D01*
X86890359Y-121550783D01*
X86920888Y-121613630D01*
X86912593Y-121683005D01*
X86868108Y-121736883D01*
X86834601Y-121752853D01*
X86675271Y-121801186D01*
X86501467Y-121894086D01*
X86501460Y-121894090D01*
X86349116Y-122019116D01*
X86224090Y-122171460D01*
X86224086Y-122171467D01*
X86131188Y-122345266D01*
X86073975Y-122533870D01*
X86054659Y-122730000D01*
X86073975Y-122926129D01*
X86131188Y-123114733D01*
X86224086Y-123288532D01*
X86224090Y-123288539D01*
X86349116Y-123440883D01*
X86501460Y-123565909D01*
X86501467Y-123565913D01*
X86675266Y-123658811D01*
X86675269Y-123658811D01*
X86675273Y-123658814D01*
X86863868Y-123716024D01*
X87060000Y-123735341D01*
X87256132Y-123716024D01*
X87444727Y-123658814D01*
X87618538Y-123565910D01*
X87770883Y-123440883D01*
X87895910Y-123288538D01*
X87988814Y-123114727D01*
X88046024Y-122926132D01*
X88065341Y-122730000D01*
X88046024Y-122533868D01*
X87988814Y-122345273D01*
X87988811Y-122345269D01*
X87988811Y-122345266D01*
X87895913Y-122171467D01*
X87895909Y-122171460D01*
X87770883Y-122019116D01*
X87618539Y-121894090D01*
X87618532Y-121894086D01*
X87444728Y-121801186D01*
X87285398Y-121752853D01*
X87226960Y-121714556D01*
X87198503Y-121650743D01*
X87209064Y-121581676D01*
X87255289Y-121529283D01*
X87289301Y-121514418D01*
X87506317Y-121456269D01*
X87506331Y-121456264D01*
X87712478Y-121360136D01*
X87785471Y-121309024D01*
X87106447Y-120630000D01*
X87112661Y-120630000D01*
X87214394Y-120602741D01*
X87305606Y-120550080D01*
X87380080Y-120475606D01*
X87432741Y-120384394D01*
X87460000Y-120282661D01*
X87460000Y-120276447D01*
X88139024Y-120955471D01*
X88190136Y-120882478D01*
X88286264Y-120676331D01*
X88286269Y-120676317D01*
X88345139Y-120456610D01*
X88345141Y-120456599D01*
X88364966Y-120230002D01*
X88364966Y-120229997D01*
X88345141Y-120003400D01*
X88345139Y-120003389D01*
X88286269Y-119783682D01*
X88286264Y-119783668D01*
X88190136Y-119577521D01*
X88190132Y-119577513D01*
X88139025Y-119504526D01*
X87460000Y-120183551D01*
X87460000Y-120177339D01*
X87432741Y-120075606D01*
X87380080Y-119984394D01*
X87305606Y-119909920D01*
X87214394Y-119857259D01*
X87112661Y-119830000D01*
X87106445Y-119830000D01*
X87785472Y-119150974D01*
X87712478Y-119099863D01*
X87506331Y-119003735D01*
X87506317Y-119003730D01*
X87286610Y-118944860D01*
X87286599Y-118944858D01*
X87060002Y-118925034D01*
X87059998Y-118925034D01*
X86833400Y-118944858D01*
X86833389Y-118944860D01*
X86613682Y-119003730D01*
X86613673Y-119003734D01*
X86407516Y-119099866D01*
X86407512Y-119099868D01*
X86334526Y-119150973D01*
X86334526Y-119150974D01*
X87013553Y-119830000D01*
X87007339Y-119830000D01*
X86905606Y-119857259D01*
X86814394Y-119909920D01*
X86739920Y-119984394D01*
X86687259Y-120075606D01*
X86660000Y-120177339D01*
X86660000Y-120183552D01*
X85980974Y-119504526D01*
X85980973Y-119504526D01*
X85929868Y-119577512D01*
X85929866Y-119577516D01*
X85833734Y-119783673D01*
X85833730Y-119783682D01*
X85774860Y-120003389D01*
X85774858Y-120003400D01*
X85755034Y-120229997D01*
X80054346Y-120229997D01*
X80054346Y-116152155D01*
X96610000Y-116152155D01*
X96610000Y-117150000D01*
X97594314Y-117150000D01*
X97589920Y-117154394D01*
X97537259Y-117245606D01*
X97510000Y-117347339D01*
X97510000Y-117452661D01*
X97537259Y-117554394D01*
X97589920Y-117645606D01*
X97594314Y-117650000D01*
X96610000Y-117650000D01*
X96610000Y-118647844D01*
X96616401Y-118707372D01*
X96616403Y-118707379D01*
X96666645Y-118842086D01*
X96666649Y-118842093D01*
X96752809Y-118957187D01*
X96752812Y-118957190D01*
X96867906Y-119043350D01*
X96867913Y-119043354D01*
X97002622Y-119093597D01*
X97002624Y-119093598D01*
X97040051Y-119097621D01*
X97063290Y-119089422D01*
X97133059Y-119085679D01*
X97192228Y-119118676D01*
X97893553Y-119820000D01*
X97887339Y-119820000D01*
X97785606Y-119847259D01*
X97694394Y-119899920D01*
X97619920Y-119974394D01*
X97567259Y-120065606D01*
X97540000Y-120167339D01*
X97540000Y-120173552D01*
X96860974Y-119494526D01*
X96860973Y-119494526D01*
X96809868Y-119567512D01*
X96809866Y-119567516D01*
X96713734Y-119773673D01*
X96713730Y-119773682D01*
X96654860Y-119993389D01*
X96654858Y-119993400D01*
X96635034Y-120219997D01*
X96635034Y-120220002D01*
X96654858Y-120446599D01*
X96654860Y-120446610D01*
X96713730Y-120666317D01*
X96713735Y-120666331D01*
X96809863Y-120872478D01*
X96860974Y-120945472D01*
X97540000Y-120266446D01*
X97540000Y-120272661D01*
X97567259Y-120374394D01*
X97619920Y-120465606D01*
X97694394Y-120540080D01*
X97785606Y-120592741D01*
X97887339Y-120620000D01*
X97893553Y-120620000D01*
X97214526Y-121299025D01*
X97287513Y-121350132D01*
X97287521Y-121350136D01*
X97493668Y-121446264D01*
X97493682Y-121446269D01*
X97713389Y-121505139D01*
X97713400Y-121505141D01*
X97939998Y-121524966D01*
X97940002Y-121524966D01*
X98166599Y-121505141D01*
X98166610Y-121505139D01*
X98386317Y-121446269D01*
X98386331Y-121446264D01*
X98592478Y-121350136D01*
X98665471Y-121299024D01*
X97986447Y-120620000D01*
X97992661Y-120620000D01*
X98094394Y-120592741D01*
X98185606Y-120540080D01*
X98260080Y-120465606D01*
X98312741Y-120374394D01*
X98340000Y-120272661D01*
X98340000Y-120266447D01*
X99019024Y-120945471D01*
X99070136Y-120872478D01*
X99166264Y-120666331D01*
X99166269Y-120666317D01*
X99224418Y-120449301D01*
X99260783Y-120389640D01*
X99323630Y-120359111D01*
X99393005Y-120367406D01*
X99446883Y-120411891D01*
X99462853Y-120445398D01*
X99511186Y-120604728D01*
X99604086Y-120778532D01*
X99604090Y-120778539D01*
X99729116Y-120930883D01*
X99881460Y-121055909D01*
X99881467Y-121055913D01*
X100055266Y-121148811D01*
X100055269Y-121148811D01*
X100055273Y-121148814D01*
X100243868Y-121206024D01*
X100440000Y-121225341D01*
X100636132Y-121206024D01*
X100824727Y-121148814D01*
X100998538Y-121055910D01*
X101150883Y-120930883D01*
X101275910Y-120778538D01*
X101355305Y-120630000D01*
X101368811Y-120604733D01*
X101368813Y-120604728D01*
X101368814Y-120604727D01*
X101426024Y-120416132D01*
X101445341Y-120220000D01*
X101426024Y-120023868D01*
X101368814Y-119835273D01*
X101368811Y-119835269D01*
X101368811Y-119835266D01*
X101275913Y-119661467D01*
X101275909Y-119661460D01*
X101150883Y-119509116D01*
X100998539Y-119384090D01*
X100998532Y-119384086D01*
X100841219Y-119300000D01*
X125004417Y-119300000D01*
X125024699Y-119505932D01*
X125043380Y-119567516D01*
X125084768Y-119703954D01*
X125182315Y-119886450D01*
X125201576Y-119909920D01*
X125313589Y-120046410D01*
X125410209Y-120125702D01*
X125473550Y-120177685D01*
X125656046Y-120275232D01*
X125854066Y-120335300D01*
X125854065Y-120335300D01*
X125872529Y-120337118D01*
X126060000Y-120355583D01*
X126265934Y-120335300D01*
X126463954Y-120275232D01*
X126646450Y-120177685D01*
X126806410Y-120046410D01*
X126937685Y-119886450D01*
X127035232Y-119703954D01*
X127095300Y-119505934D01*
X127115583Y-119300000D01*
X127095300Y-119094066D01*
X127035232Y-118896046D01*
X126937685Y-118713550D01*
X126882982Y-118646894D01*
X126806410Y-118553589D01*
X126665300Y-118437785D01*
X126646450Y-118422315D01*
X126463954Y-118324768D01*
X126265934Y-118264700D01*
X126265932Y-118264699D01*
X126265934Y-118264699D01*
X126060000Y-118244417D01*
X125854067Y-118264699D01*
X125656043Y-118324769D01*
X125545898Y-118383643D01*
X125473550Y-118422315D01*
X125473548Y-118422316D01*
X125473547Y-118422317D01*
X125313589Y-118553589D01*
X125204403Y-118686635D01*
X125182315Y-118713550D01*
X125156390Y-118762052D01*
X125084769Y-118896043D01*
X125024699Y-119094067D01*
X125004417Y-119300000D01*
X100841219Y-119300000D01*
X100824733Y-119291188D01*
X100824727Y-119291186D01*
X100636132Y-119233976D01*
X100636129Y-119233975D01*
X100440000Y-119214659D01*
X100243870Y-119233975D01*
X100055266Y-119291188D01*
X99881467Y-119384086D01*
X99881460Y-119384090D01*
X99729116Y-119509116D01*
X99604090Y-119661460D01*
X99604086Y-119661467D01*
X99511186Y-119835271D01*
X99462853Y-119994601D01*
X99424556Y-120053039D01*
X99360743Y-120081496D01*
X99291676Y-120070935D01*
X99239283Y-120024710D01*
X99224418Y-119990698D01*
X99166269Y-119773682D01*
X99166264Y-119773668D01*
X99070136Y-119567521D01*
X99070132Y-119567513D01*
X99019025Y-119494526D01*
X98340000Y-120173551D01*
X98340000Y-120167339D01*
X98312741Y-120065606D01*
X98260080Y-119974394D01*
X98185606Y-119899920D01*
X98094394Y-119847259D01*
X97992661Y-119820000D01*
X97986445Y-119820000D01*
X98689004Y-119117441D01*
X98689008Y-119117438D01*
X98690161Y-119116285D01*
X98751470Y-119082774D01*
X98761339Y-119082771D01*
X98776685Y-119081122D01*
X98776687Y-119081122D01*
X98776687Y-119082768D01*
X98804237Y-119082763D01*
X98830883Y-119088559D01*
X98952086Y-119043354D01*
X98952093Y-119043350D01*
X99067187Y-118957190D01*
X99067190Y-118957187D01*
X99153350Y-118842093D01*
X99153354Y-118842086D01*
X99203596Y-118707379D01*
X99203598Y-118707372D01*
X99209999Y-118647844D01*
X99210000Y-118647827D01*
X99210000Y-117953487D01*
X99229685Y-117886448D01*
X99282489Y-117840693D01*
X99351647Y-117830749D01*
X99415203Y-117859774D01*
X99452977Y-117918552D01*
X99455617Y-117929295D01*
X99487947Y-118091829D01*
X99487950Y-118091839D01*
X99563364Y-118273907D01*
X99563371Y-118273920D01*
X99672860Y-118437781D01*
X99672863Y-118437785D01*
X99812214Y-118577136D01*
X99812218Y-118577139D01*
X99976079Y-118686628D01*
X99976092Y-118686635D01*
X100158160Y-118762049D01*
X100158165Y-118762051D01*
X100158169Y-118762051D01*
X100158170Y-118762052D01*
X100351456Y-118800500D01*
X100351459Y-118800500D01*
X100548543Y-118800500D01*
X100678582Y-118774632D01*
X100741835Y-118762051D01*
X100923914Y-118686632D01*
X101087782Y-118577139D01*
X101227139Y-118437782D01*
X101336632Y-118273914D01*
X101412051Y-118091835D01*
X101424632Y-118028582D01*
X101450500Y-117898543D01*
X101989499Y-117898543D01*
X102027947Y-118091829D01*
X102027950Y-118091839D01*
X102103364Y-118273907D01*
X102103371Y-118273920D01*
X102212860Y-118437781D01*
X102212863Y-118437785D01*
X102352214Y-118577136D01*
X102352218Y-118577139D01*
X102516079Y-118686628D01*
X102516092Y-118686635D01*
X102698160Y-118762049D01*
X102698165Y-118762051D01*
X102698169Y-118762051D01*
X102698170Y-118762052D01*
X102891456Y-118800500D01*
X102891459Y-118800500D01*
X103088543Y-118800500D01*
X103218582Y-118774632D01*
X103281835Y-118762051D01*
X103463914Y-118686632D01*
X103627782Y-118577139D01*
X103767139Y-118437782D01*
X103876632Y-118273914D01*
X103952051Y-118091835D01*
X103964632Y-118028582D01*
X103990500Y-117898543D01*
X104529499Y-117898543D01*
X104567947Y-118091829D01*
X104567950Y-118091839D01*
X104643364Y-118273907D01*
X104643371Y-118273920D01*
X104752860Y-118437781D01*
X104752863Y-118437785D01*
X104892214Y-118577136D01*
X104892218Y-118577139D01*
X105056079Y-118686628D01*
X105056092Y-118686635D01*
X105238160Y-118762049D01*
X105238165Y-118762051D01*
X105238169Y-118762051D01*
X105238170Y-118762052D01*
X105431456Y-118800500D01*
X105431459Y-118800500D01*
X105628543Y-118800500D01*
X105758582Y-118774632D01*
X105821835Y-118762051D01*
X106003914Y-118686632D01*
X106167782Y-118577139D01*
X106307139Y-118437782D01*
X106416632Y-118273914D01*
X106492051Y-118091835D01*
X106504632Y-118028582D01*
X106530500Y-117898543D01*
X107069499Y-117898543D01*
X107107947Y-118091829D01*
X107107950Y-118091839D01*
X107183364Y-118273907D01*
X107183371Y-118273920D01*
X107292860Y-118437781D01*
X107292863Y-118437785D01*
X107432214Y-118577136D01*
X107432218Y-118577139D01*
X107596079Y-118686628D01*
X107596092Y-118686635D01*
X107778160Y-118762049D01*
X107778165Y-118762051D01*
X107778169Y-118762051D01*
X107778170Y-118762052D01*
X107971456Y-118800500D01*
X107971459Y-118800500D01*
X108168543Y-118800500D01*
X108298582Y-118774632D01*
X108361835Y-118762051D01*
X108543914Y-118686632D01*
X108707782Y-118577139D01*
X108847139Y-118437782D01*
X108956632Y-118273914D01*
X109032051Y-118091835D01*
X109044632Y-118028582D01*
X109070500Y-117898543D01*
X109609499Y-117898543D01*
X109647947Y-118091829D01*
X109647950Y-118091839D01*
X109723364Y-118273907D01*
X109723371Y-118273920D01*
X109832860Y-118437781D01*
X109832863Y-118437785D01*
X109972214Y-118577136D01*
X109972218Y-118577139D01*
X110136079Y-118686628D01*
X110136092Y-118686635D01*
X110318160Y-118762049D01*
X110318165Y-118762051D01*
X110318169Y-118762051D01*
X110318170Y-118762052D01*
X110511456Y-118800500D01*
X110511459Y-118800500D01*
X110708543Y-118800500D01*
X110838582Y-118774632D01*
X110901835Y-118762051D01*
X111083914Y-118686632D01*
X111247782Y-118577139D01*
X111387139Y-118437782D01*
X111496632Y-118273914D01*
X111572051Y-118091835D01*
X111584632Y-118028582D01*
X111610500Y-117898543D01*
X112149499Y-117898543D01*
X112187947Y-118091829D01*
X112187950Y-118091839D01*
X112263364Y-118273907D01*
X112263371Y-118273920D01*
X112372860Y-118437781D01*
X112372863Y-118437785D01*
X112512214Y-118577136D01*
X112512218Y-118577139D01*
X112676079Y-118686628D01*
X112676092Y-118686635D01*
X112858160Y-118762049D01*
X112858165Y-118762051D01*
X112858169Y-118762051D01*
X112858170Y-118762052D01*
X113051456Y-118800500D01*
X113051459Y-118800500D01*
X113248543Y-118800500D01*
X113378582Y-118774632D01*
X113441835Y-118762051D01*
X113623914Y-118686632D01*
X113787782Y-118577139D01*
X113927139Y-118437782D01*
X114036632Y-118273914D01*
X114112051Y-118091835D01*
X114124632Y-118028582D01*
X114150500Y-117898543D01*
X114689499Y-117898543D01*
X114727947Y-118091829D01*
X114727950Y-118091839D01*
X114803364Y-118273907D01*
X114803371Y-118273920D01*
X114912860Y-118437781D01*
X114912863Y-118437785D01*
X115052214Y-118577136D01*
X115052218Y-118577139D01*
X115216079Y-118686628D01*
X115216092Y-118686635D01*
X115398160Y-118762049D01*
X115398165Y-118762051D01*
X115398169Y-118762051D01*
X115398170Y-118762052D01*
X115591456Y-118800500D01*
X115591459Y-118800500D01*
X115788543Y-118800500D01*
X115918582Y-118774632D01*
X115981835Y-118762051D01*
X116163914Y-118686632D01*
X116327782Y-118577139D01*
X116467139Y-118437782D01*
X116576632Y-118273914D01*
X116652051Y-118091835D01*
X116664632Y-118028582D01*
X116690500Y-117898543D01*
X117229499Y-117898543D01*
X117267947Y-118091829D01*
X117267950Y-118091839D01*
X117343364Y-118273907D01*
X117343371Y-118273920D01*
X117452860Y-118437781D01*
X117452863Y-118437785D01*
X117592214Y-118577136D01*
X117592218Y-118577139D01*
X117756079Y-118686628D01*
X117756092Y-118686635D01*
X117938160Y-118762049D01*
X117938165Y-118762051D01*
X117938169Y-118762051D01*
X117938170Y-118762052D01*
X118131456Y-118800500D01*
X118131459Y-118800500D01*
X118328543Y-118800500D01*
X118458582Y-118774632D01*
X118521835Y-118762051D01*
X118703914Y-118686632D01*
X118867782Y-118577139D01*
X119007139Y-118437782D01*
X119116632Y-118273914D01*
X119192051Y-118091835D01*
X119228034Y-117910937D01*
X119260419Y-117849027D01*
X119321134Y-117814453D01*
X119390904Y-117818192D01*
X119447576Y-117859059D01*
X119472124Y-117915731D01*
X119502009Y-118104417D01*
X119565244Y-118299031D01*
X119658140Y-118481349D01*
X119778417Y-118646894D01*
X119778417Y-118646895D01*
X119923104Y-118791582D01*
X120088650Y-118911859D01*
X120270968Y-119004754D01*
X120465578Y-119067988D01*
X120520000Y-119076607D01*
X120520000Y-117715686D01*
X120524394Y-117720080D01*
X120615606Y-117772741D01*
X120717339Y-117800000D01*
X120822661Y-117800000D01*
X120924394Y-117772741D01*
X121015606Y-117720080D01*
X121020000Y-117715686D01*
X121020000Y-119076606D01*
X121074421Y-119067988D01*
X121269031Y-119004754D01*
X121451349Y-118911859D01*
X121616894Y-118791582D01*
X121616895Y-118791582D01*
X121761582Y-118646895D01*
X121761582Y-118646894D01*
X121881859Y-118481349D01*
X121974755Y-118299031D01*
X122037990Y-118104417D01*
X122070000Y-117902317D01*
X122070000Y-117650000D01*
X121085686Y-117650000D01*
X121090080Y-117645606D01*
X121142741Y-117554394D01*
X121170000Y-117452661D01*
X121170000Y-117347339D01*
X121142741Y-117245606D01*
X121090080Y-117154394D01*
X121085686Y-117150000D01*
X122070000Y-117150000D01*
X122070000Y-116897682D01*
X122048193Y-116760000D01*
X125004417Y-116760000D01*
X125024699Y-116965932D01*
X125054734Y-117064944D01*
X125084768Y-117163954D01*
X125182315Y-117346450D01*
X125182317Y-117346452D01*
X125313589Y-117506410D01*
X125372059Y-117554394D01*
X125473550Y-117637685D01*
X125656046Y-117735232D01*
X125854066Y-117795300D01*
X125854065Y-117795300D01*
X125872529Y-117797118D01*
X126060000Y-117815583D01*
X126265934Y-117795300D01*
X126463954Y-117735232D01*
X126646450Y-117637685D01*
X126806410Y-117506410D01*
X126937685Y-117346450D01*
X127035232Y-117163954D01*
X127095300Y-116965934D01*
X127115583Y-116760000D01*
X127095300Y-116554066D01*
X127035232Y-116356046D01*
X126937685Y-116173550D01*
X126826401Y-116037949D01*
X126806410Y-116013589D01*
X126688677Y-115916969D01*
X126646450Y-115882315D01*
X126463954Y-115784768D01*
X126265934Y-115724700D01*
X126265932Y-115724699D01*
X126265934Y-115724699D01*
X126060000Y-115704417D01*
X125854067Y-115724699D01*
X125656043Y-115784769D01*
X125547460Y-115842809D01*
X125473550Y-115882315D01*
X125473548Y-115882316D01*
X125473547Y-115882317D01*
X125313589Y-116013589D01*
X125182317Y-116173547D01*
X125182315Y-116173550D01*
X125143643Y-116245898D01*
X125084769Y-116356043D01*
X125024699Y-116554067D01*
X125004417Y-116760000D01*
X122048193Y-116760000D01*
X122037990Y-116695582D01*
X121974755Y-116500968D01*
X121881859Y-116318650D01*
X121761582Y-116153105D01*
X121761582Y-116153104D01*
X121616895Y-116008417D01*
X121451349Y-115888140D01*
X121269029Y-115795244D01*
X121074413Y-115732009D01*
X121020000Y-115723390D01*
X121020000Y-117084314D01*
X121015606Y-117079920D01*
X120924394Y-117027259D01*
X120822661Y-117000000D01*
X120717339Y-117000000D01*
X120615606Y-117027259D01*
X120524394Y-117079920D01*
X120520000Y-117084314D01*
X120520000Y-115723390D01*
X120465586Y-115732009D01*
X120270970Y-115795244D01*
X120088650Y-115888140D01*
X119923105Y-116008417D01*
X119923104Y-116008417D01*
X119778417Y-116153104D01*
X119778417Y-116153105D01*
X119658140Y-116318650D01*
X119565244Y-116500968D01*
X119502010Y-116695581D01*
X119472124Y-116884269D01*
X119442194Y-116947403D01*
X119382883Y-116984334D01*
X119313020Y-116983336D01*
X119254788Y-116944726D01*
X119228034Y-116889061D01*
X119218409Y-116840674D01*
X119192051Y-116708165D01*
X119128222Y-116554066D01*
X119116635Y-116526092D01*
X119116628Y-116526079D01*
X119007139Y-116362218D01*
X119007136Y-116362214D01*
X118867785Y-116222863D01*
X118867781Y-116222860D01*
X118703920Y-116113371D01*
X118703907Y-116113364D01*
X118521839Y-116037950D01*
X118521829Y-116037947D01*
X118328543Y-115999500D01*
X118328541Y-115999500D01*
X118131459Y-115999500D01*
X118131457Y-115999500D01*
X117938170Y-116037947D01*
X117938160Y-116037950D01*
X117756092Y-116113364D01*
X117756079Y-116113371D01*
X117592218Y-116222860D01*
X117592214Y-116222863D01*
X117452863Y-116362214D01*
X117452860Y-116362218D01*
X117343371Y-116526079D01*
X117343364Y-116526092D01*
X117267950Y-116708160D01*
X117267947Y-116708170D01*
X117229500Y-116901456D01*
X117229500Y-116901459D01*
X117229500Y-117898541D01*
X117229500Y-117898543D01*
X117229499Y-117898543D01*
X116690500Y-117898543D01*
X116690500Y-116901456D01*
X116652052Y-116708170D01*
X116652051Y-116708169D01*
X116652051Y-116708165D01*
X116588222Y-116554066D01*
X116576635Y-116526092D01*
X116576628Y-116526079D01*
X116467139Y-116362218D01*
X116467136Y-116362214D01*
X116327785Y-116222863D01*
X116327781Y-116222860D01*
X116163920Y-116113371D01*
X116163907Y-116113364D01*
X115981839Y-116037950D01*
X115981829Y-116037947D01*
X115788543Y-115999500D01*
X115788541Y-115999500D01*
X115591459Y-115999500D01*
X115591457Y-115999500D01*
X115398170Y-116037947D01*
X115398160Y-116037950D01*
X115216092Y-116113364D01*
X115216079Y-116113371D01*
X115052218Y-116222860D01*
X115052214Y-116222863D01*
X114912863Y-116362214D01*
X114912860Y-116362218D01*
X114803371Y-116526079D01*
X114803364Y-116526092D01*
X114727950Y-116708160D01*
X114727947Y-116708170D01*
X114689500Y-116901456D01*
X114689500Y-116901459D01*
X114689500Y-117898541D01*
X114689500Y-117898543D01*
X114689499Y-117898543D01*
X114150500Y-117898543D01*
X114150500Y-116901456D01*
X114112052Y-116708170D01*
X114112051Y-116708169D01*
X114112051Y-116708165D01*
X114048222Y-116554066D01*
X114036635Y-116526092D01*
X114036628Y-116526079D01*
X113927139Y-116362218D01*
X113927136Y-116362214D01*
X113787785Y-116222863D01*
X113787781Y-116222860D01*
X113623920Y-116113371D01*
X113623907Y-116113364D01*
X113441839Y-116037950D01*
X113441829Y-116037947D01*
X113248543Y-115999500D01*
X113248541Y-115999500D01*
X113051459Y-115999500D01*
X113051457Y-115999500D01*
X112858170Y-116037947D01*
X112858160Y-116037950D01*
X112676092Y-116113364D01*
X112676079Y-116113371D01*
X112512218Y-116222860D01*
X112512214Y-116222863D01*
X112372863Y-116362214D01*
X112372860Y-116362218D01*
X112263371Y-116526079D01*
X112263364Y-116526092D01*
X112187950Y-116708160D01*
X112187947Y-116708170D01*
X112149500Y-116901456D01*
X112149500Y-116901459D01*
X112149500Y-117898541D01*
X112149500Y-117898543D01*
X112149499Y-117898543D01*
X111610500Y-117898543D01*
X111610500Y-116901456D01*
X111572052Y-116708170D01*
X111572051Y-116708169D01*
X111572051Y-116708165D01*
X111508222Y-116554066D01*
X111496635Y-116526092D01*
X111496628Y-116526079D01*
X111387139Y-116362218D01*
X111387136Y-116362214D01*
X111247785Y-116222863D01*
X111247781Y-116222860D01*
X111083920Y-116113371D01*
X111083907Y-116113364D01*
X110901839Y-116037950D01*
X110901829Y-116037947D01*
X110708543Y-115999500D01*
X110708541Y-115999500D01*
X110511459Y-115999500D01*
X110511457Y-115999500D01*
X110318170Y-116037947D01*
X110318160Y-116037950D01*
X110136092Y-116113364D01*
X110136079Y-116113371D01*
X109972218Y-116222860D01*
X109972214Y-116222863D01*
X109832863Y-116362214D01*
X109832860Y-116362218D01*
X109723371Y-116526079D01*
X109723364Y-116526092D01*
X109647950Y-116708160D01*
X109647947Y-116708170D01*
X109609500Y-116901456D01*
X109609500Y-116901459D01*
X109609500Y-117898541D01*
X109609500Y-117898543D01*
X109609499Y-117898543D01*
X109070500Y-117898543D01*
X109070500Y-116901456D01*
X109032052Y-116708170D01*
X109032051Y-116708169D01*
X109032051Y-116708165D01*
X108968222Y-116554066D01*
X108956635Y-116526092D01*
X108956628Y-116526079D01*
X108847139Y-116362218D01*
X108847136Y-116362214D01*
X108707785Y-116222863D01*
X108707781Y-116222860D01*
X108543920Y-116113371D01*
X108543907Y-116113364D01*
X108361839Y-116037950D01*
X108361829Y-116037947D01*
X108168543Y-115999500D01*
X108168541Y-115999500D01*
X107971459Y-115999500D01*
X107971457Y-115999500D01*
X107778170Y-116037947D01*
X107778160Y-116037950D01*
X107596092Y-116113364D01*
X107596079Y-116113371D01*
X107432218Y-116222860D01*
X107432214Y-116222863D01*
X107292863Y-116362214D01*
X107292860Y-116362218D01*
X107183371Y-116526079D01*
X107183364Y-116526092D01*
X107107950Y-116708160D01*
X107107947Y-116708170D01*
X107069500Y-116901456D01*
X107069500Y-116901459D01*
X107069500Y-117898541D01*
X107069500Y-117898543D01*
X107069499Y-117898543D01*
X106530500Y-117898543D01*
X106530500Y-116901456D01*
X106492052Y-116708170D01*
X106492051Y-116708169D01*
X106492051Y-116708165D01*
X106428222Y-116554066D01*
X106416635Y-116526092D01*
X106416628Y-116526079D01*
X106307139Y-116362218D01*
X106307136Y-116362214D01*
X106167785Y-116222863D01*
X106167781Y-116222860D01*
X106003920Y-116113371D01*
X106003907Y-116113364D01*
X105821839Y-116037950D01*
X105821829Y-116037947D01*
X105628543Y-115999500D01*
X105628541Y-115999500D01*
X105431459Y-115999500D01*
X105431457Y-115999500D01*
X105238170Y-116037947D01*
X105238160Y-116037950D01*
X105056092Y-116113364D01*
X105056079Y-116113371D01*
X104892218Y-116222860D01*
X104892214Y-116222863D01*
X104752863Y-116362214D01*
X104752860Y-116362218D01*
X104643371Y-116526079D01*
X104643364Y-116526092D01*
X104567950Y-116708160D01*
X104567947Y-116708170D01*
X104529500Y-116901456D01*
X104529500Y-116901459D01*
X104529500Y-117898541D01*
X104529500Y-117898543D01*
X104529499Y-117898543D01*
X103990500Y-117898543D01*
X103990500Y-116901456D01*
X103952052Y-116708170D01*
X103952051Y-116708169D01*
X103952051Y-116708165D01*
X103888222Y-116554066D01*
X103876635Y-116526092D01*
X103876628Y-116526079D01*
X103767139Y-116362218D01*
X103767136Y-116362214D01*
X103627785Y-116222863D01*
X103627781Y-116222860D01*
X103463920Y-116113371D01*
X103463907Y-116113364D01*
X103281839Y-116037950D01*
X103281829Y-116037947D01*
X103088543Y-115999500D01*
X103088541Y-115999500D01*
X102891459Y-115999500D01*
X102891457Y-115999500D01*
X102698170Y-116037947D01*
X102698160Y-116037950D01*
X102516092Y-116113364D01*
X102516079Y-116113371D01*
X102352218Y-116222860D01*
X102352214Y-116222863D01*
X102212863Y-116362214D01*
X102212860Y-116362218D01*
X102103371Y-116526079D01*
X102103364Y-116526092D01*
X102027950Y-116708160D01*
X102027947Y-116708170D01*
X101989500Y-116901456D01*
X101989500Y-116901459D01*
X101989500Y-117898541D01*
X101989500Y-117898543D01*
X101989499Y-117898543D01*
X101450500Y-117898543D01*
X101450500Y-116901456D01*
X101412052Y-116708170D01*
X101412051Y-116708169D01*
X101412051Y-116708165D01*
X101348222Y-116554066D01*
X101336635Y-116526092D01*
X101336628Y-116526079D01*
X101227139Y-116362218D01*
X101227136Y-116362214D01*
X101087785Y-116222863D01*
X101087781Y-116222860D01*
X100923920Y-116113371D01*
X100923907Y-116113364D01*
X100741839Y-116037950D01*
X100741829Y-116037947D01*
X100548543Y-115999500D01*
X100548541Y-115999500D01*
X100351459Y-115999500D01*
X100351457Y-115999500D01*
X100158170Y-116037947D01*
X100158160Y-116037950D01*
X99976092Y-116113364D01*
X99976079Y-116113371D01*
X99812218Y-116222860D01*
X99812214Y-116222863D01*
X99672863Y-116362214D01*
X99672860Y-116362218D01*
X99563371Y-116526079D01*
X99563364Y-116526092D01*
X99487950Y-116708160D01*
X99487947Y-116708170D01*
X99455617Y-116870704D01*
X99423232Y-116932615D01*
X99362516Y-116967189D01*
X99292747Y-116963449D01*
X99236075Y-116922582D01*
X99210493Y-116857564D01*
X99210000Y-116846512D01*
X99210000Y-116152172D01*
X99209999Y-116152155D01*
X99203598Y-116092627D01*
X99203596Y-116092620D01*
X99153354Y-115957913D01*
X99153350Y-115957906D01*
X99067190Y-115842812D01*
X99067187Y-115842809D01*
X98952093Y-115756649D01*
X98952086Y-115756645D01*
X98817379Y-115706403D01*
X98817372Y-115706401D01*
X98757844Y-115700000D01*
X98160000Y-115700000D01*
X98160000Y-117084314D01*
X98155606Y-117079920D01*
X98064394Y-117027259D01*
X97962661Y-117000000D01*
X97857339Y-117000000D01*
X97755606Y-117027259D01*
X97664394Y-117079920D01*
X97660000Y-117084314D01*
X97660000Y-115700000D01*
X97062155Y-115700000D01*
X97002627Y-115706401D01*
X97002620Y-115706403D01*
X96867913Y-115756645D01*
X96867906Y-115756649D01*
X96752812Y-115842809D01*
X96752809Y-115842812D01*
X96666649Y-115957906D01*
X96666645Y-115957913D01*
X96616403Y-116092620D01*
X96616401Y-116092627D01*
X96610000Y-116152155D01*
X80054346Y-116152155D01*
X80054346Y-114220000D01*
X125004417Y-114220000D01*
X125024699Y-114425932D01*
X125024700Y-114425934D01*
X125084768Y-114623954D01*
X125182315Y-114806450D01*
X125182317Y-114806452D01*
X125313589Y-114966410D01*
X125410209Y-115045702D01*
X125473550Y-115097685D01*
X125656046Y-115195232D01*
X125854066Y-115255300D01*
X125854065Y-115255300D01*
X125872529Y-115257118D01*
X126060000Y-115275583D01*
X126265934Y-115255300D01*
X126463954Y-115195232D01*
X126646450Y-115097685D01*
X126806410Y-114966410D01*
X126937685Y-114806450D01*
X127035232Y-114623954D01*
X127095300Y-114425934D01*
X127115583Y-114220000D01*
X127095300Y-114014066D01*
X127035232Y-113816046D01*
X126937685Y-113633550D01*
X126885702Y-113570209D01*
X126806410Y-113473589D01*
X126646452Y-113342317D01*
X126646453Y-113342317D01*
X126646450Y-113342315D01*
X126463954Y-113244768D01*
X126265934Y-113184700D01*
X126265932Y-113184699D01*
X126265934Y-113184699D01*
X126060000Y-113164417D01*
X125854067Y-113184699D01*
X125656043Y-113244769D01*
X125545898Y-113303643D01*
X125473550Y-113342315D01*
X125473548Y-113342316D01*
X125473547Y-113342317D01*
X125313589Y-113473589D01*
X125182317Y-113633547D01*
X125084769Y-113816043D01*
X125024699Y-114014067D01*
X125004417Y-114220000D01*
X80054346Y-114220000D01*
X80054346Y-111680000D01*
X125004417Y-111680000D01*
X125024699Y-111885932D01*
X125024700Y-111885934D01*
X125084768Y-112083954D01*
X125182315Y-112266450D01*
X125182317Y-112266452D01*
X125313589Y-112426410D01*
X125410209Y-112505702D01*
X125473550Y-112557685D01*
X125656046Y-112655232D01*
X125854066Y-112715300D01*
X125854065Y-112715300D01*
X125872529Y-112717118D01*
X126060000Y-112735583D01*
X126265934Y-112715300D01*
X126463954Y-112655232D01*
X126646450Y-112557685D01*
X126806410Y-112426410D01*
X126937685Y-112266450D01*
X127035232Y-112083954D01*
X127095300Y-111885934D01*
X127115583Y-111680000D01*
X127095300Y-111474066D01*
X127035232Y-111276046D01*
X126937685Y-111093550D01*
X126882982Y-111026894D01*
X126806410Y-110933589D01*
X126665300Y-110817785D01*
X126646450Y-110802315D01*
X126463954Y-110704768D01*
X126265934Y-110644700D01*
X126265932Y-110644699D01*
X126265934Y-110644699D01*
X126060000Y-110624417D01*
X125854067Y-110644699D01*
X125656043Y-110704769D01*
X125622374Y-110722766D01*
X125473550Y-110802315D01*
X125473548Y-110802316D01*
X125473547Y-110802317D01*
X125313589Y-110933589D01*
X125204403Y-111066635D01*
X125182315Y-111093550D01*
X125156390Y-111142052D01*
X125084769Y-111276043D01*
X125024699Y-111474067D01*
X125004417Y-111680000D01*
X80054346Y-111680000D01*
X80054346Y-109277682D01*
X96610000Y-109277682D01*
X96610000Y-109530000D01*
X97594314Y-109530000D01*
X97589920Y-109534394D01*
X97537259Y-109625606D01*
X97510000Y-109727339D01*
X97510000Y-109832661D01*
X97537259Y-109934394D01*
X97589920Y-110025606D01*
X97594314Y-110030000D01*
X96610000Y-110030000D01*
X96610000Y-110282317D01*
X96642009Y-110484417D01*
X96705244Y-110679031D01*
X96798140Y-110861349D01*
X96918417Y-111026894D01*
X96918417Y-111026895D01*
X97063104Y-111171582D01*
X97228650Y-111291859D01*
X97410968Y-111384754D01*
X97605578Y-111447988D01*
X97660000Y-111456607D01*
X97660000Y-110095686D01*
X97664394Y-110100080D01*
X97755606Y-110152741D01*
X97857339Y-110180000D01*
X97962661Y-110180000D01*
X98064394Y-110152741D01*
X98155606Y-110100080D01*
X98160000Y-110095686D01*
X98160000Y-111456606D01*
X98214421Y-111447988D01*
X98409031Y-111384754D01*
X98591349Y-111291859D01*
X98756894Y-111171582D01*
X98756895Y-111171582D01*
X98901582Y-111026895D01*
X98901582Y-111026894D01*
X99021859Y-110861349D01*
X99069515Y-110767820D01*
X99117489Y-110717024D01*
X99185310Y-110700229D01*
X99251445Y-110722766D01*
X99290485Y-110767820D01*
X99338140Y-110861349D01*
X99458417Y-111026894D01*
X99458417Y-111026895D01*
X99603104Y-111171582D01*
X99768650Y-111291859D01*
X99950968Y-111384754D01*
X100145578Y-111447988D01*
X100200000Y-111456607D01*
X100200000Y-110095686D01*
X100204394Y-110100080D01*
X100295606Y-110152741D01*
X100397339Y-110180000D01*
X100502661Y-110180000D01*
X100604394Y-110152741D01*
X100695606Y-110100080D01*
X100700000Y-110095686D01*
X100700000Y-111456606D01*
X100754421Y-111447988D01*
X100949031Y-111384754D01*
X101131349Y-111291859D01*
X101296894Y-111171582D01*
X101296895Y-111171582D01*
X101441582Y-111026895D01*
X101441582Y-111026894D01*
X101561859Y-110861349D01*
X101654755Y-110679031D01*
X101717990Y-110484417D01*
X101747875Y-110295731D01*
X101777804Y-110232596D01*
X101837116Y-110195665D01*
X101906978Y-110196663D01*
X101965211Y-110235273D01*
X101991965Y-110290937D01*
X102027947Y-110471829D01*
X102027950Y-110471839D01*
X102103364Y-110653907D01*
X102103371Y-110653920D01*
X102212860Y-110817781D01*
X102212863Y-110817785D01*
X102352214Y-110957136D01*
X102352218Y-110957139D01*
X102516079Y-111066628D01*
X102516092Y-111066635D01*
X102698160Y-111142049D01*
X102698165Y-111142051D01*
X102698169Y-111142051D01*
X102698170Y-111142052D01*
X102891456Y-111180500D01*
X102891459Y-111180500D01*
X103088543Y-111180500D01*
X103218582Y-111154632D01*
X103281835Y-111142051D01*
X103463914Y-111066632D01*
X103627782Y-110957139D01*
X103767139Y-110817782D01*
X103876632Y-110653914D01*
X103952051Y-110471835D01*
X103988034Y-110290938D01*
X103990500Y-110278543D01*
X104529499Y-110278543D01*
X104567947Y-110471829D01*
X104567950Y-110471839D01*
X104643364Y-110653907D01*
X104643371Y-110653920D01*
X104752860Y-110817781D01*
X104752863Y-110817785D01*
X104892214Y-110957136D01*
X104892218Y-110957139D01*
X105056079Y-111066628D01*
X105056092Y-111066635D01*
X105238160Y-111142049D01*
X105238165Y-111142051D01*
X105238169Y-111142051D01*
X105238170Y-111142052D01*
X105431456Y-111180500D01*
X105431459Y-111180500D01*
X105628543Y-111180500D01*
X105758582Y-111154632D01*
X105821835Y-111142051D01*
X106003914Y-111066632D01*
X106167782Y-110957139D01*
X106307139Y-110817782D01*
X106416632Y-110653914D01*
X106492051Y-110471835D01*
X106528034Y-110290938D01*
X106530500Y-110278543D01*
X107069499Y-110278543D01*
X107107947Y-110471829D01*
X107107950Y-110471839D01*
X107183364Y-110653907D01*
X107183371Y-110653920D01*
X107292860Y-110817781D01*
X107292863Y-110817785D01*
X107432214Y-110957136D01*
X107432218Y-110957139D01*
X107596079Y-111066628D01*
X107596092Y-111066635D01*
X107778160Y-111142049D01*
X107778165Y-111142051D01*
X107778169Y-111142051D01*
X107778170Y-111142052D01*
X107971456Y-111180500D01*
X107971459Y-111180500D01*
X108168543Y-111180500D01*
X108298582Y-111154632D01*
X108361835Y-111142051D01*
X108543914Y-111066632D01*
X108707782Y-110957139D01*
X108847139Y-110817782D01*
X108956632Y-110653914D01*
X109032051Y-110471835D01*
X109068034Y-110290938D01*
X109070500Y-110278543D01*
X109609499Y-110278543D01*
X109647947Y-110471829D01*
X109647950Y-110471839D01*
X109723364Y-110653907D01*
X109723371Y-110653920D01*
X109832860Y-110817781D01*
X109832863Y-110817785D01*
X109972214Y-110957136D01*
X109972218Y-110957139D01*
X110136079Y-111066628D01*
X110136092Y-111066635D01*
X110318160Y-111142049D01*
X110318165Y-111142051D01*
X110318169Y-111142051D01*
X110318170Y-111142052D01*
X110511456Y-111180500D01*
X110511459Y-111180500D01*
X110708543Y-111180500D01*
X110838582Y-111154632D01*
X110901835Y-111142051D01*
X111083914Y-111066632D01*
X111247782Y-110957139D01*
X111387139Y-110817782D01*
X111496632Y-110653914D01*
X111572051Y-110471835D01*
X111608034Y-110290938D01*
X111610500Y-110278543D01*
X112149499Y-110278543D01*
X112187947Y-110471829D01*
X112187950Y-110471839D01*
X112263364Y-110653907D01*
X112263371Y-110653920D01*
X112372860Y-110817781D01*
X112372863Y-110817785D01*
X112512214Y-110957136D01*
X112512218Y-110957139D01*
X112676079Y-111066628D01*
X112676092Y-111066635D01*
X112858160Y-111142049D01*
X112858165Y-111142051D01*
X112858169Y-111142051D01*
X112858170Y-111142052D01*
X113051456Y-111180500D01*
X113051459Y-111180500D01*
X113248543Y-111180500D01*
X113378582Y-111154632D01*
X113441835Y-111142051D01*
X113623914Y-111066632D01*
X113787782Y-110957139D01*
X113927139Y-110817782D01*
X114036632Y-110653914D01*
X114112051Y-110471835D01*
X114148034Y-110290938D01*
X114150500Y-110278543D01*
X114689499Y-110278543D01*
X114727947Y-110471829D01*
X114727950Y-110471839D01*
X114803364Y-110653907D01*
X114803371Y-110653920D01*
X114912860Y-110817781D01*
X114912863Y-110817785D01*
X115052214Y-110957136D01*
X115052218Y-110957139D01*
X115216079Y-111066628D01*
X115216092Y-111066635D01*
X115398160Y-111142049D01*
X115398165Y-111142051D01*
X115398169Y-111142051D01*
X115398170Y-111142052D01*
X115591456Y-111180500D01*
X115591459Y-111180500D01*
X115788543Y-111180500D01*
X115918582Y-111154632D01*
X115981835Y-111142051D01*
X116163914Y-111066632D01*
X116327782Y-110957139D01*
X116467139Y-110817782D01*
X116576632Y-110653914D01*
X116652051Y-110471835D01*
X116688034Y-110290938D01*
X116690500Y-110278543D01*
X117229499Y-110278543D01*
X117267947Y-110471829D01*
X117267950Y-110471839D01*
X117343364Y-110653907D01*
X117343371Y-110653920D01*
X117452860Y-110817781D01*
X117452863Y-110817785D01*
X117592214Y-110957136D01*
X117592218Y-110957139D01*
X117756079Y-111066628D01*
X117756092Y-111066635D01*
X117938160Y-111142049D01*
X117938165Y-111142051D01*
X117938169Y-111142051D01*
X117938170Y-111142052D01*
X118131456Y-111180500D01*
X118131459Y-111180500D01*
X118328543Y-111180500D01*
X118458582Y-111154632D01*
X118521835Y-111142051D01*
X118703914Y-111066632D01*
X118867782Y-110957139D01*
X119007139Y-110817782D01*
X119116632Y-110653914D01*
X119192051Y-110471835D01*
X119228034Y-110290937D01*
X119260419Y-110229027D01*
X119321134Y-110194453D01*
X119390904Y-110198192D01*
X119447576Y-110239059D01*
X119472124Y-110295731D01*
X119502009Y-110484417D01*
X119565244Y-110679031D01*
X119658140Y-110861349D01*
X119778417Y-111026894D01*
X119778417Y-111026895D01*
X119923104Y-111171582D01*
X120088650Y-111291859D01*
X120270968Y-111384754D01*
X120465578Y-111447988D01*
X120520000Y-111456607D01*
X120520000Y-110095686D01*
X120524394Y-110100080D01*
X120615606Y-110152741D01*
X120717339Y-110180000D01*
X120822661Y-110180000D01*
X120924394Y-110152741D01*
X121015606Y-110100080D01*
X121020000Y-110095686D01*
X121020000Y-111456606D01*
X121074421Y-111447988D01*
X121269031Y-111384754D01*
X121451349Y-111291859D01*
X121616894Y-111171582D01*
X121616895Y-111171582D01*
X121761582Y-111026895D01*
X121761582Y-111026894D01*
X121881859Y-110861349D01*
X121974755Y-110679031D01*
X122037990Y-110484417D01*
X122070000Y-110282317D01*
X122070000Y-110030000D01*
X121085686Y-110030000D01*
X121090080Y-110025606D01*
X121142741Y-109934394D01*
X121170000Y-109832661D01*
X121170000Y-109727339D01*
X121142741Y-109625606D01*
X121090080Y-109534394D01*
X121085686Y-109530000D01*
X122070000Y-109530000D01*
X122070000Y-109277682D01*
X122037990Y-109075582D01*
X121974755Y-108880968D01*
X121881859Y-108698650D01*
X121761582Y-108533105D01*
X121761582Y-108533104D01*
X121616895Y-108388417D01*
X121454249Y-108270247D01*
X125009500Y-108270247D01*
X125009500Y-110009752D01*
X125021131Y-110068229D01*
X125021132Y-110068230D01*
X125065447Y-110134552D01*
X125131769Y-110178867D01*
X125131770Y-110178868D01*
X125190247Y-110190499D01*
X125190250Y-110190500D01*
X125190252Y-110190500D01*
X126929750Y-110190500D01*
X126929751Y-110190499D01*
X126944568Y-110187552D01*
X126988229Y-110178868D01*
X126988229Y-110178867D01*
X126988231Y-110178867D01*
X127054552Y-110134552D01*
X127098867Y-110068231D01*
X127098867Y-110068229D01*
X127098868Y-110068229D01*
X127110499Y-110009752D01*
X127110500Y-110009750D01*
X127110500Y-108270249D01*
X127110499Y-108270247D01*
X127098868Y-108211770D01*
X127098867Y-108211769D01*
X127054552Y-108145447D01*
X126988230Y-108101132D01*
X126988229Y-108101131D01*
X126929752Y-108089500D01*
X126929748Y-108089500D01*
X125190252Y-108089500D01*
X125190247Y-108089500D01*
X125131770Y-108101131D01*
X125131769Y-108101132D01*
X125065447Y-108145447D01*
X125021132Y-108211769D01*
X125021131Y-108211770D01*
X125009500Y-108270247D01*
X121454249Y-108270247D01*
X121451349Y-108268140D01*
X121269029Y-108175244D01*
X121074413Y-108112009D01*
X121020000Y-108103390D01*
X121020000Y-109464314D01*
X121015606Y-109459920D01*
X120924394Y-109407259D01*
X120822661Y-109380000D01*
X120717339Y-109380000D01*
X120615606Y-109407259D01*
X120524394Y-109459920D01*
X120520000Y-109464314D01*
X120520000Y-108103390D01*
X120465586Y-108112009D01*
X120270970Y-108175244D01*
X120088650Y-108268140D01*
X119923105Y-108388417D01*
X119923104Y-108388417D01*
X119778417Y-108533104D01*
X119778417Y-108533105D01*
X119658140Y-108698650D01*
X119565244Y-108880968D01*
X119502010Y-109075581D01*
X119472124Y-109264269D01*
X119442194Y-109327403D01*
X119382883Y-109364334D01*
X119313020Y-109363336D01*
X119254788Y-109324726D01*
X119228034Y-109269061D01*
X119192052Y-109088172D01*
X119192052Y-109088170D01*
X119192051Y-109088165D01*
X119186839Y-109075581D01*
X119116635Y-108906092D01*
X119116628Y-108906079D01*
X119007139Y-108742218D01*
X119007136Y-108742214D01*
X118867785Y-108602863D01*
X118867781Y-108602860D01*
X118703920Y-108493371D01*
X118703907Y-108493364D01*
X118521839Y-108417950D01*
X118521829Y-108417947D01*
X118328543Y-108379500D01*
X118328541Y-108379500D01*
X118131459Y-108379500D01*
X118131457Y-108379500D01*
X117938170Y-108417947D01*
X117938160Y-108417950D01*
X117756092Y-108493364D01*
X117756079Y-108493371D01*
X117592218Y-108602860D01*
X117592214Y-108602863D01*
X117452863Y-108742214D01*
X117452860Y-108742218D01*
X117343371Y-108906079D01*
X117343364Y-108906092D01*
X117267950Y-109088160D01*
X117267947Y-109088170D01*
X117229500Y-109281456D01*
X117229500Y-109281459D01*
X117229500Y-110278541D01*
X117229500Y-110278543D01*
X117229499Y-110278543D01*
X116690500Y-110278543D01*
X116690500Y-109281456D01*
X116652052Y-109088170D01*
X116652051Y-109088169D01*
X116652051Y-109088165D01*
X116646839Y-109075581D01*
X116576635Y-108906092D01*
X116576628Y-108906079D01*
X116467139Y-108742218D01*
X116467136Y-108742214D01*
X116327785Y-108602863D01*
X116327781Y-108602860D01*
X116163920Y-108493371D01*
X116163907Y-108493364D01*
X115981839Y-108417950D01*
X115981829Y-108417947D01*
X115788543Y-108379500D01*
X115788541Y-108379500D01*
X115591459Y-108379500D01*
X115591457Y-108379500D01*
X115398170Y-108417947D01*
X115398160Y-108417950D01*
X115216092Y-108493364D01*
X115216079Y-108493371D01*
X115052218Y-108602860D01*
X115052214Y-108602863D01*
X114912863Y-108742214D01*
X114912860Y-108742218D01*
X114803371Y-108906079D01*
X114803364Y-108906092D01*
X114727950Y-109088160D01*
X114727947Y-109088170D01*
X114689500Y-109281456D01*
X114689500Y-109281459D01*
X114689500Y-110278541D01*
X114689500Y-110278543D01*
X114689499Y-110278543D01*
X114150500Y-110278543D01*
X114150500Y-109281456D01*
X114112052Y-109088170D01*
X114112051Y-109088169D01*
X114112051Y-109088165D01*
X114106839Y-109075581D01*
X114036635Y-108906092D01*
X114036628Y-108906079D01*
X113927139Y-108742218D01*
X113927136Y-108742214D01*
X113787785Y-108602863D01*
X113787781Y-108602860D01*
X113623920Y-108493371D01*
X113623907Y-108493364D01*
X113441839Y-108417950D01*
X113441829Y-108417947D01*
X113248543Y-108379500D01*
X113248541Y-108379500D01*
X113051459Y-108379500D01*
X113051457Y-108379500D01*
X112858170Y-108417947D01*
X112858160Y-108417950D01*
X112676092Y-108493364D01*
X112676079Y-108493371D01*
X112512218Y-108602860D01*
X112512214Y-108602863D01*
X112372863Y-108742214D01*
X112372860Y-108742218D01*
X112263371Y-108906079D01*
X112263364Y-108906092D01*
X112187950Y-109088160D01*
X112187947Y-109088170D01*
X112149500Y-109281456D01*
X112149500Y-109281459D01*
X112149500Y-110278541D01*
X112149500Y-110278543D01*
X112149499Y-110278543D01*
X111610500Y-110278543D01*
X111610500Y-109281456D01*
X111572052Y-109088170D01*
X111572051Y-109088169D01*
X111572051Y-109088165D01*
X111566839Y-109075581D01*
X111496635Y-108906092D01*
X111496628Y-108906079D01*
X111387139Y-108742218D01*
X111387136Y-108742214D01*
X111247785Y-108602863D01*
X111247781Y-108602860D01*
X111083920Y-108493371D01*
X111083907Y-108493364D01*
X110901839Y-108417950D01*
X110901829Y-108417947D01*
X110708543Y-108379500D01*
X110708541Y-108379500D01*
X110511459Y-108379500D01*
X110511457Y-108379500D01*
X110318170Y-108417947D01*
X110318160Y-108417950D01*
X110136092Y-108493364D01*
X110136079Y-108493371D01*
X109972218Y-108602860D01*
X109972214Y-108602863D01*
X109832863Y-108742214D01*
X109832860Y-108742218D01*
X109723371Y-108906079D01*
X109723364Y-108906092D01*
X109647950Y-109088160D01*
X109647947Y-109088170D01*
X109609500Y-109281456D01*
X109609500Y-109281459D01*
X109609500Y-110278541D01*
X109609500Y-110278543D01*
X109609499Y-110278543D01*
X109070500Y-110278543D01*
X109070500Y-109281456D01*
X109032052Y-109088170D01*
X109032051Y-109088169D01*
X109032051Y-109088165D01*
X109026839Y-109075581D01*
X108956635Y-108906092D01*
X108956628Y-108906079D01*
X108847139Y-108742218D01*
X108847136Y-108742214D01*
X108707785Y-108602863D01*
X108707781Y-108602860D01*
X108543920Y-108493371D01*
X108543907Y-108493364D01*
X108361839Y-108417950D01*
X108361829Y-108417947D01*
X108168543Y-108379500D01*
X108168541Y-108379500D01*
X107971459Y-108379500D01*
X107971457Y-108379500D01*
X107778170Y-108417947D01*
X107778160Y-108417950D01*
X107596092Y-108493364D01*
X107596079Y-108493371D01*
X107432218Y-108602860D01*
X107432214Y-108602863D01*
X107292863Y-108742214D01*
X107292860Y-108742218D01*
X107183371Y-108906079D01*
X107183364Y-108906092D01*
X107107950Y-109088160D01*
X107107947Y-109088170D01*
X107069500Y-109281456D01*
X107069500Y-109281459D01*
X107069500Y-110278541D01*
X107069500Y-110278543D01*
X107069499Y-110278543D01*
X106530500Y-110278543D01*
X106530500Y-109281456D01*
X106492052Y-109088170D01*
X106492051Y-109088169D01*
X106492051Y-109088165D01*
X106486839Y-109075581D01*
X106416635Y-108906092D01*
X106416628Y-108906079D01*
X106307139Y-108742218D01*
X106307136Y-108742214D01*
X106167785Y-108602863D01*
X106167781Y-108602860D01*
X106003920Y-108493371D01*
X106003907Y-108493364D01*
X105821839Y-108417950D01*
X105821829Y-108417947D01*
X105628543Y-108379500D01*
X105628541Y-108379500D01*
X105431459Y-108379500D01*
X105431457Y-108379500D01*
X105238170Y-108417947D01*
X105238160Y-108417950D01*
X105056092Y-108493364D01*
X105056079Y-108493371D01*
X104892218Y-108602860D01*
X104892214Y-108602863D01*
X104752863Y-108742214D01*
X104752860Y-108742218D01*
X104643371Y-108906079D01*
X104643364Y-108906092D01*
X104567950Y-109088160D01*
X104567947Y-109088170D01*
X104529500Y-109281456D01*
X104529500Y-109281459D01*
X104529500Y-110278541D01*
X104529500Y-110278543D01*
X104529499Y-110278543D01*
X103990500Y-110278543D01*
X103990500Y-109281456D01*
X103952052Y-109088170D01*
X103952051Y-109088169D01*
X103952051Y-109088165D01*
X103946839Y-109075581D01*
X103876635Y-108906092D01*
X103876628Y-108906079D01*
X103767139Y-108742218D01*
X103767136Y-108742214D01*
X103627785Y-108602863D01*
X103627781Y-108602860D01*
X103463920Y-108493371D01*
X103463907Y-108493364D01*
X103281839Y-108417950D01*
X103281829Y-108417947D01*
X103088543Y-108379500D01*
X103088541Y-108379500D01*
X102891459Y-108379500D01*
X102891457Y-108379500D01*
X102698170Y-108417947D01*
X102698160Y-108417950D01*
X102516092Y-108493364D01*
X102516079Y-108493371D01*
X102352218Y-108602860D01*
X102352214Y-108602863D01*
X102212863Y-108742214D01*
X102212860Y-108742218D01*
X102103371Y-108906079D01*
X102103364Y-108906092D01*
X102027950Y-109088160D01*
X102027947Y-109088170D01*
X101991965Y-109269062D01*
X101959580Y-109330973D01*
X101898864Y-109365547D01*
X101829094Y-109361806D01*
X101772423Y-109320940D01*
X101747875Y-109264268D01*
X101717990Y-109075582D01*
X101654755Y-108880968D01*
X101561859Y-108698650D01*
X101441582Y-108533105D01*
X101441582Y-108533104D01*
X101296895Y-108388417D01*
X101131349Y-108268140D01*
X100949029Y-108175244D01*
X100754413Y-108112009D01*
X100700000Y-108103390D01*
X100700000Y-109464314D01*
X100695606Y-109459920D01*
X100604394Y-109407259D01*
X100502661Y-109380000D01*
X100397339Y-109380000D01*
X100295606Y-109407259D01*
X100204394Y-109459920D01*
X100200000Y-109464314D01*
X100200000Y-108103390D01*
X100145586Y-108112009D01*
X99950970Y-108175244D01*
X99768650Y-108268140D01*
X99603105Y-108388417D01*
X99603104Y-108388417D01*
X99458417Y-108533104D01*
X99458417Y-108533105D01*
X99338140Y-108698650D01*
X99290485Y-108792179D01*
X99242510Y-108842975D01*
X99174689Y-108859770D01*
X99108554Y-108837232D01*
X99069515Y-108792179D01*
X99021859Y-108698650D01*
X98901582Y-108533105D01*
X98901582Y-108533104D01*
X98756895Y-108388417D01*
X98591349Y-108268140D01*
X98409029Y-108175244D01*
X98214413Y-108112009D01*
X98160000Y-108103390D01*
X98160000Y-109464314D01*
X98155606Y-109459920D01*
X98064394Y-109407259D01*
X97962661Y-109380000D01*
X97857339Y-109380000D01*
X97755606Y-109407259D01*
X97664394Y-109459920D01*
X97660000Y-109464314D01*
X97660000Y-108103390D01*
X97605586Y-108112009D01*
X97410970Y-108175244D01*
X97228650Y-108268140D01*
X97063105Y-108388417D01*
X97063104Y-108388417D01*
X96918417Y-108533104D01*
X96918417Y-108533105D01*
X96798140Y-108698650D01*
X96705244Y-108880968D01*
X96642009Y-109075582D01*
X96610000Y-109277682D01*
X80054346Y-109277682D01*
X80054346Y-101549997D01*
X88145034Y-101549997D01*
X88145034Y-101550002D01*
X88164858Y-101776599D01*
X88164860Y-101776610D01*
X88223730Y-101996317D01*
X88223735Y-101996331D01*
X88319863Y-102202478D01*
X88370974Y-102275472D01*
X89050000Y-101596446D01*
X89050000Y-101602661D01*
X89077259Y-101704394D01*
X89129920Y-101795606D01*
X89204394Y-101870080D01*
X89295606Y-101922741D01*
X89397339Y-101950000D01*
X89403553Y-101950000D01*
X88724526Y-102629025D01*
X88797513Y-102680132D01*
X88797521Y-102680136D01*
X89003668Y-102776264D01*
X89003682Y-102776269D01*
X89223389Y-102835139D01*
X89223400Y-102835141D01*
X89449998Y-102854966D01*
X89450002Y-102854966D01*
X89676599Y-102835141D01*
X89676610Y-102835139D01*
X89896317Y-102776269D01*
X89896331Y-102776264D01*
X90102478Y-102680136D01*
X90175471Y-102629024D01*
X89496447Y-101950000D01*
X89502661Y-101950000D01*
X89604394Y-101922741D01*
X89695606Y-101870080D01*
X89770080Y-101795606D01*
X89822741Y-101704394D01*
X89850000Y-101602661D01*
X89850000Y-101596447D01*
X90529024Y-102275471D01*
X90580136Y-102202478D01*
X90676264Y-101996331D01*
X90676269Y-101996317D01*
X90735139Y-101776610D01*
X90735141Y-101776599D01*
X90748414Y-101624885D01*
X97855034Y-101624885D01*
X97855034Y-101624890D01*
X97874858Y-101851487D01*
X97874860Y-101851498D01*
X97933730Y-102071205D01*
X97933735Y-102071219D01*
X98029863Y-102277366D01*
X98080974Y-102350360D01*
X98760000Y-101671334D01*
X98760000Y-101677549D01*
X98787259Y-101779282D01*
X98839920Y-101870494D01*
X98914394Y-101944968D01*
X99005606Y-101997629D01*
X99107339Y-102024888D01*
X99113553Y-102024888D01*
X98434526Y-102703913D01*
X98507513Y-102755020D01*
X98507521Y-102755024D01*
X98713668Y-102851152D01*
X98713682Y-102851157D01*
X98933389Y-102910027D01*
X98933400Y-102910029D01*
X99159998Y-102929854D01*
X99160002Y-102929854D01*
X99386599Y-102910029D01*
X99386610Y-102910027D01*
X99606317Y-102851157D01*
X99606331Y-102851152D01*
X99812478Y-102755024D01*
X99885471Y-102703912D01*
X99206447Y-102024888D01*
X99212661Y-102024888D01*
X99314394Y-101997629D01*
X99405606Y-101944968D01*
X99480080Y-101870494D01*
X99532741Y-101779282D01*
X99560000Y-101677549D01*
X99560000Y-101671335D01*
X100239024Y-102350359D01*
X100290136Y-102277366D01*
X100386264Y-102071219D01*
X100386269Y-102071205D01*
X100445139Y-101851498D01*
X100445141Y-101851487D01*
X100460592Y-101674885D01*
X124645034Y-101674885D01*
X124645034Y-101674890D01*
X124664858Y-101901487D01*
X124664860Y-101901498D01*
X124723730Y-102121205D01*
X124723735Y-102121219D01*
X124819863Y-102327366D01*
X124870974Y-102400360D01*
X125550000Y-101721334D01*
X125550000Y-101727549D01*
X125577259Y-101829282D01*
X125629920Y-101920494D01*
X125704394Y-101994968D01*
X125795606Y-102047629D01*
X125897339Y-102074888D01*
X125903553Y-102074888D01*
X125224526Y-102753913D01*
X125297513Y-102805020D01*
X125297521Y-102805024D01*
X125503668Y-102901152D01*
X125503682Y-102901157D01*
X125723389Y-102960027D01*
X125723400Y-102960029D01*
X125949998Y-102979854D01*
X125950002Y-102979854D01*
X126176599Y-102960029D01*
X126176610Y-102960027D01*
X126396317Y-102901157D01*
X126396331Y-102901152D01*
X126602478Y-102805024D01*
X126675471Y-102753912D01*
X125996447Y-102074888D01*
X126002661Y-102074888D01*
X126104394Y-102047629D01*
X126195606Y-101994968D01*
X126270080Y-101920494D01*
X126322741Y-101829282D01*
X126350000Y-101727549D01*
X126350000Y-101721335D01*
X127029024Y-102400359D01*
X127036280Y-102389997D01*
X128695034Y-102389997D01*
X128695034Y-102390002D01*
X128714858Y-102616599D01*
X128714860Y-102616610D01*
X128773730Y-102836317D01*
X128773735Y-102836331D01*
X128869863Y-103042478D01*
X128920974Y-103115472D01*
X129600000Y-102436446D01*
X129600000Y-102442661D01*
X129627259Y-102544394D01*
X129679920Y-102635606D01*
X129754394Y-102710080D01*
X129845606Y-102762741D01*
X129947339Y-102790000D01*
X129953553Y-102790000D01*
X129274526Y-103469025D01*
X129347513Y-103520132D01*
X129347521Y-103520136D01*
X129553668Y-103616264D01*
X129553682Y-103616269D01*
X129773389Y-103675139D01*
X129773400Y-103675141D01*
X129999998Y-103694966D01*
X130000002Y-103694966D01*
X130226599Y-103675141D01*
X130226610Y-103675139D01*
X130446317Y-103616269D01*
X130446331Y-103616264D01*
X130652478Y-103520136D01*
X130725471Y-103469024D01*
X130046447Y-102790000D01*
X130052661Y-102790000D01*
X130154394Y-102762741D01*
X130245606Y-102710080D01*
X130320080Y-102635606D01*
X130372741Y-102544394D01*
X130400000Y-102442661D01*
X130400000Y-102436447D01*
X131079024Y-103115471D01*
X131130136Y-103042478D01*
X131226264Y-102836331D01*
X131226269Y-102836317D01*
X131285139Y-102616610D01*
X131285141Y-102616599D01*
X131304966Y-102390002D01*
X131304966Y-102389997D01*
X131285141Y-102163400D01*
X131285139Y-102163389D01*
X131226269Y-101943682D01*
X131226264Y-101943668D01*
X131130136Y-101737521D01*
X131130132Y-101737513D01*
X131079025Y-101664526D01*
X130400000Y-102343551D01*
X130400000Y-102337339D01*
X130372741Y-102235606D01*
X130320080Y-102144394D01*
X130245606Y-102069920D01*
X130154394Y-102017259D01*
X130052661Y-101990000D01*
X130046445Y-101990000D01*
X130725472Y-101310974D01*
X130652478Y-101259863D01*
X130446331Y-101163735D01*
X130446320Y-101163731D01*
X130229300Y-101105581D01*
X130169640Y-101069216D01*
X130139111Y-101006369D01*
X130147406Y-100936993D01*
X130191891Y-100883115D01*
X130225393Y-100867147D01*
X130384727Y-100818814D01*
X130558538Y-100725910D01*
X130710883Y-100600883D01*
X130835910Y-100448538D01*
X130928814Y-100274727D01*
X130986024Y-100086132D01*
X131005341Y-99890000D01*
X130986024Y-99693868D01*
X130928814Y-99505273D01*
X130928811Y-99505269D01*
X130928811Y-99505266D01*
X130835913Y-99331467D01*
X130835909Y-99331460D01*
X130710883Y-99179116D01*
X130558539Y-99054090D01*
X130558532Y-99054086D01*
X130384733Y-98961188D01*
X130384727Y-98961186D01*
X130196132Y-98903976D01*
X130196129Y-98903975D01*
X130000000Y-98884659D01*
X129803870Y-98903975D01*
X129615266Y-98961188D01*
X129441467Y-99054086D01*
X129441460Y-99054090D01*
X129289116Y-99179116D01*
X129164090Y-99331460D01*
X129164086Y-99331467D01*
X129071188Y-99505266D01*
X129013975Y-99693870D01*
X128994659Y-99890000D01*
X129013975Y-100086129D01*
X129071188Y-100274733D01*
X129164086Y-100448532D01*
X129164090Y-100448539D01*
X129289116Y-100600883D01*
X129441460Y-100725909D01*
X129441467Y-100725913D01*
X129615268Y-100818812D01*
X129615270Y-100818812D01*
X129615273Y-100818814D01*
X129774601Y-100867146D01*
X129833039Y-100905443D01*
X129861495Y-100969255D01*
X129850935Y-101038322D01*
X129804711Y-101090716D01*
X129770699Y-101105581D01*
X129553680Y-101163731D01*
X129553673Y-101163734D01*
X129347516Y-101259866D01*
X129347512Y-101259868D01*
X129274526Y-101310973D01*
X129274526Y-101310974D01*
X129953553Y-101990000D01*
X129947339Y-101990000D01*
X129845606Y-102017259D01*
X129754394Y-102069920D01*
X129679920Y-102144394D01*
X129627259Y-102235606D01*
X129600000Y-102337339D01*
X129600000Y-102343552D01*
X128920974Y-101664526D01*
X128920973Y-101664526D01*
X128869868Y-101737512D01*
X128869866Y-101737516D01*
X128773734Y-101943673D01*
X128773730Y-101943682D01*
X128714860Y-102163389D01*
X128714858Y-102163400D01*
X128695034Y-102389997D01*
X127036280Y-102389997D01*
X127080136Y-102327366D01*
X127176264Y-102121219D01*
X127176269Y-102121205D01*
X127235139Y-101901498D01*
X127235141Y-101901487D01*
X127254966Y-101674890D01*
X127254966Y-101674885D01*
X127235141Y-101448288D01*
X127235139Y-101448277D01*
X127176269Y-101228570D01*
X127176264Y-101228556D01*
X127080136Y-101022409D01*
X127080132Y-101022401D01*
X127029025Y-100949414D01*
X126350000Y-101628439D01*
X126350000Y-101622227D01*
X126322741Y-101520494D01*
X126270080Y-101429282D01*
X126195606Y-101354808D01*
X126104394Y-101302147D01*
X126002661Y-101274888D01*
X125996445Y-101274888D01*
X126675472Y-100595862D01*
X126602478Y-100544751D01*
X126396331Y-100448623D01*
X126396317Y-100448618D01*
X126286387Y-100419163D01*
X126226726Y-100382798D01*
X126196197Y-100319951D01*
X126204492Y-100250576D01*
X126248977Y-100196698D01*
X126315529Y-100175423D01*
X126318480Y-100175388D01*
X126769750Y-100175388D01*
X126769751Y-100175387D01*
X126784568Y-100172440D01*
X126828229Y-100163756D01*
X126828229Y-100163755D01*
X126828231Y-100163755D01*
X126894552Y-100119440D01*
X126938867Y-100053119D01*
X126938867Y-100053117D01*
X126938868Y-100053117D01*
X126950499Y-99994640D01*
X126950500Y-99994638D01*
X126950500Y-98355137D01*
X126950499Y-98355135D01*
X126938868Y-98296658D01*
X126938867Y-98296657D01*
X126894552Y-98230335D01*
X126828230Y-98186020D01*
X126828229Y-98186019D01*
X126769752Y-98174388D01*
X126769748Y-98174388D01*
X125130252Y-98174388D01*
X125130247Y-98174388D01*
X125071770Y-98186019D01*
X125071769Y-98186020D01*
X125005447Y-98230335D01*
X124961132Y-98296657D01*
X124961131Y-98296658D01*
X124949500Y-98355135D01*
X124949500Y-99994640D01*
X124961131Y-100053117D01*
X124961132Y-100053118D01*
X125005447Y-100119440D01*
X125071769Y-100163755D01*
X125071770Y-100163756D01*
X125130247Y-100175387D01*
X125130250Y-100175388D01*
X125581520Y-100175388D01*
X125648559Y-100195073D01*
X125694314Y-100247877D01*
X125704258Y-100317035D01*
X125675233Y-100380591D01*
X125616455Y-100418365D01*
X125613613Y-100419163D01*
X125503682Y-100448618D01*
X125503673Y-100448622D01*
X125297516Y-100544754D01*
X125297512Y-100544756D01*
X125224526Y-100595861D01*
X125224526Y-100595862D01*
X125903553Y-101274888D01*
X125897339Y-101274888D01*
X125795606Y-101302147D01*
X125704394Y-101354808D01*
X125629920Y-101429282D01*
X125577259Y-101520494D01*
X125550000Y-101622227D01*
X125550000Y-101628440D01*
X124870974Y-100949414D01*
X124870973Y-100949414D01*
X124819868Y-101022400D01*
X124819866Y-101022404D01*
X124723734Y-101228561D01*
X124723730Y-101228570D01*
X124664860Y-101448277D01*
X124664858Y-101448288D01*
X124645034Y-101674885D01*
X100460592Y-101674885D01*
X100464966Y-101624890D01*
X100464966Y-101624885D01*
X100445141Y-101398288D01*
X100445139Y-101398277D01*
X100386269Y-101178570D01*
X100386264Y-101178556D01*
X100290136Y-100972409D01*
X100290132Y-100972401D01*
X100239025Y-100899414D01*
X99560000Y-101578439D01*
X99560000Y-101572227D01*
X99532741Y-101470494D01*
X99480080Y-101379282D01*
X99405606Y-101304808D01*
X99314394Y-101252147D01*
X99212661Y-101224888D01*
X99206445Y-101224888D01*
X99885472Y-100545862D01*
X99812478Y-100494751D01*
X99606331Y-100398623D01*
X99606317Y-100398618D01*
X99496387Y-100369163D01*
X99436726Y-100332798D01*
X99406197Y-100269951D01*
X99414492Y-100200576D01*
X99458977Y-100146698D01*
X99525529Y-100125423D01*
X99528480Y-100125388D01*
X99979750Y-100125388D01*
X99979751Y-100125387D01*
X99994568Y-100122440D01*
X100038229Y-100113756D01*
X100038229Y-100113755D01*
X100038231Y-100113755D01*
X100104552Y-100069440D01*
X100148867Y-100003119D01*
X100148867Y-100003117D01*
X100148868Y-100003117D01*
X100160499Y-99944640D01*
X100160500Y-99944638D01*
X100160500Y-98305137D01*
X100160499Y-98305135D01*
X100148868Y-98246658D01*
X100148867Y-98246657D01*
X100104552Y-98180335D01*
X100038230Y-98136020D01*
X100038229Y-98136019D01*
X99979752Y-98124388D01*
X99979748Y-98124388D01*
X98340252Y-98124388D01*
X98340247Y-98124388D01*
X98281770Y-98136019D01*
X98281769Y-98136020D01*
X98215447Y-98180335D01*
X98171132Y-98246657D01*
X98171131Y-98246658D01*
X98159500Y-98305135D01*
X98159500Y-99944640D01*
X98171131Y-100003117D01*
X98171132Y-100003118D01*
X98215447Y-100069440D01*
X98281769Y-100113755D01*
X98281770Y-100113756D01*
X98340247Y-100125387D01*
X98340250Y-100125388D01*
X98791520Y-100125388D01*
X98858559Y-100145073D01*
X98904314Y-100197877D01*
X98914258Y-100267035D01*
X98885233Y-100330591D01*
X98826455Y-100368365D01*
X98823613Y-100369163D01*
X98713682Y-100398618D01*
X98713673Y-100398622D01*
X98507516Y-100494754D01*
X98507512Y-100494756D01*
X98434526Y-100545861D01*
X98434526Y-100545862D01*
X99113553Y-101224888D01*
X99107339Y-101224888D01*
X99005606Y-101252147D01*
X98914394Y-101304808D01*
X98839920Y-101379282D01*
X98787259Y-101470494D01*
X98760000Y-101572227D01*
X98760000Y-101578440D01*
X98080974Y-100899414D01*
X98080973Y-100899414D01*
X98029868Y-100972400D01*
X98029866Y-100972404D01*
X97933734Y-101178561D01*
X97933730Y-101178570D01*
X97874860Y-101398277D01*
X97874858Y-101398288D01*
X97855034Y-101624885D01*
X90748414Y-101624885D01*
X90754966Y-101550002D01*
X90754966Y-101549997D01*
X90735141Y-101323400D01*
X90735139Y-101323389D01*
X90676269Y-101103682D01*
X90676264Y-101103668D01*
X90580136Y-100897521D01*
X90580132Y-100897513D01*
X90529025Y-100824526D01*
X89850000Y-101503551D01*
X89850000Y-101497339D01*
X89822741Y-101395606D01*
X89770080Y-101304394D01*
X89695606Y-101229920D01*
X89604394Y-101177259D01*
X89502661Y-101150000D01*
X89496445Y-101150000D01*
X90175472Y-100470974D01*
X90102478Y-100419863D01*
X89896331Y-100323735D01*
X89896320Y-100323731D01*
X89679300Y-100265581D01*
X89619640Y-100229216D01*
X89589111Y-100166369D01*
X89597406Y-100096993D01*
X89641891Y-100043115D01*
X89675393Y-100027147D01*
X89834727Y-99978814D01*
X89898670Y-99944636D01*
X90008532Y-99885913D01*
X90008538Y-99885910D01*
X90160883Y-99760883D01*
X90285910Y-99608538D01*
X90378814Y-99434727D01*
X90436024Y-99246132D01*
X90455341Y-99050000D01*
X90436024Y-98853868D01*
X90378814Y-98665273D01*
X90378811Y-98665269D01*
X90378811Y-98665266D01*
X90285913Y-98491467D01*
X90285909Y-98491460D01*
X90160883Y-98339116D01*
X90008539Y-98214090D01*
X90008532Y-98214086D01*
X89834733Y-98121188D01*
X89834727Y-98121186D01*
X89646132Y-98063976D01*
X89646129Y-98063975D01*
X89450000Y-98044659D01*
X89253870Y-98063975D01*
X89065266Y-98121188D01*
X88891467Y-98214086D01*
X88891460Y-98214090D01*
X88739116Y-98339116D01*
X88614090Y-98491460D01*
X88614086Y-98491467D01*
X88521188Y-98665266D01*
X88463975Y-98853870D01*
X88444659Y-99050000D01*
X88463975Y-99246129D01*
X88521188Y-99434733D01*
X88614086Y-99608532D01*
X88614090Y-99608539D01*
X88739116Y-99760883D01*
X88891460Y-99885909D01*
X88891467Y-99885913D01*
X89065268Y-99978812D01*
X89065270Y-99978812D01*
X89065273Y-99978814D01*
X89224601Y-100027146D01*
X89283039Y-100065443D01*
X89311495Y-100129255D01*
X89300935Y-100198322D01*
X89254711Y-100250716D01*
X89220699Y-100265581D01*
X89003680Y-100323731D01*
X89003673Y-100323734D01*
X88797516Y-100419866D01*
X88797512Y-100419868D01*
X88724526Y-100470973D01*
X88724526Y-100470974D01*
X89403553Y-101150000D01*
X89397339Y-101150000D01*
X89295606Y-101177259D01*
X89204394Y-101229920D01*
X89129920Y-101304394D01*
X89077259Y-101395606D01*
X89050000Y-101497339D01*
X89050000Y-101503552D01*
X88370974Y-100824526D01*
X88370973Y-100824526D01*
X88319868Y-100897512D01*
X88319866Y-100897516D01*
X88223734Y-101103673D01*
X88223730Y-101103682D01*
X88164860Y-101323389D01*
X88164858Y-101323400D01*
X88145034Y-101549997D01*
X80054346Y-101549997D01*
X80054346Y-92144500D01*
X80074031Y-92077461D01*
X80126835Y-92031706D01*
X80178346Y-92020500D01*
X136595500Y-92020500D01*
X136662539Y-92040185D01*
G37*
%TD.AperFunction*%
%TD*%
M02*
