%TF.GenerationSoftware,KiCad,Pcbnew,8.0.8*%
%TF.CreationDate,2025-03-08T09:49:48-08:00*%
%TF.ProjectId,proto,70726f74-6f2e-46b6-9963-61645f706362,rev?*%
%TF.SameCoordinates,Original*%
%TF.FileFunction,Copper,L1,Top*%
%TF.FilePolarity,Positive*%
%FSLAX46Y46*%
G04 Gerber Fmt 4.6, Leading zero omitted, Abs format (unit mm)*
G04 Created by KiCad (PCBNEW 8.0.8) date 2025-03-08 09:49:48*
%MOMM*%
%LPD*%
G01*
G04 APERTURE LIST*
G04 Aperture macros list*
%AMHorizOval*
0 Thick line with rounded ends*
0 $1 width*
0 $2 $3 position (X,Y) of the first rounded end (center of the circle)*
0 $4 $5 position (X,Y) of the second rounded end (center of the circle)*
0 Add line between two ends*
20,1,$1,$2,$3,$4,$5,0*
0 Add two circle primitives to create the rounded ends*
1,1,$1,$2,$3*
1,1,$1,$4,$5*%
G04 Aperture macros list end*
%TA.AperFunction,ComponentPad*%
%ADD10R,2.400000X1.600000*%
%TD*%
%TA.AperFunction,ComponentPad*%
%ADD11O,2.400000X1.600000*%
%TD*%
%TA.AperFunction,ComponentPad*%
%ADD12R,1.600000X1.600000*%
%TD*%
%TA.AperFunction,ComponentPad*%
%ADD13C,1.600000*%
%TD*%
%TA.AperFunction,ComponentPad*%
%ADD14R,1.700000X1.700000*%
%TD*%
%TA.AperFunction,ComponentPad*%
%ADD15O,1.700000X1.700000*%
%TD*%
%TA.AperFunction,ComponentPad*%
%ADD16HorizOval,3.000000X-0.447077X-0.223880X0.447077X0.223880X0*%
%TD*%
%TA.AperFunction,ComponentPad*%
%ADD17HorizOval,3.000000X-0.223880X-0.447077X0.223880X0.447077X0*%
%TD*%
%TA.AperFunction,ComponentPad*%
%ADD18O,3.000000X4.000000*%
%TD*%
%TA.AperFunction,ComponentPad*%
%ADD19HorizOval,3.000000X-0.394005X0.307831X0.394005X-0.307831X0*%
%TD*%
%TA.AperFunction,ComponentPad*%
%ADD20HorizOval,3.000000X-0.447077X0.223880X0.447077X-0.223880X0*%
%TD*%
%TA.AperFunction,ComponentPad*%
%ADD21O,4.000000X3.000000*%
%TD*%
%TA.AperFunction,ComponentPad*%
%ADD22HorizOval,3.000000X0.447077X0.223880X-0.447077X-0.223880X0*%
%TD*%
%TA.AperFunction,ComponentPad*%
%ADD23HorizOval,3.000000X0.394005X0.307831X-0.394005X-0.307831X0*%
%TD*%
%TA.AperFunction,ComponentPad*%
%ADD24HorizOval,3.000000X-0.223880X0.447077X0.223880X-0.447077X0*%
%TD*%
%TA.AperFunction,ComponentPad*%
%ADD25HorizOval,3.000000X-0.447077X0.223880X0.447077X-0.223880X0*%
%TD*%
%TA.AperFunction,ComponentPad*%
%ADD26C,2.400000*%
%TD*%
%TA.AperFunction,ComponentPad*%
%ADD27O,2.400000X2.400000*%
%TD*%
%TA.AperFunction,ComponentPad*%
%ADD28R,1.600000X2.400000*%
%TD*%
%TA.AperFunction,ComponentPad*%
%ADD29O,1.600000X2.400000*%
%TD*%
%TA.AperFunction,SMDPad,CuDef*%
%ADD30R,5.800000X2.000000*%
%TD*%
%TA.AperFunction,ViaPad*%
%ADD31C,0.600000*%
%TD*%
%TA.AperFunction,Conductor*%
%ADD32C,1.600000*%
%TD*%
%TA.AperFunction,Conductor*%
%ADD33C,0.200000*%
%TD*%
%TA.AperFunction,Conductor*%
%ADD34C,0.400000*%
%TD*%
G04 APERTURE END LIST*
D10*
%TO.P,S1,1,HV_OUT*%
%TO.N,Net-(S1-HV_OUT)*%
X101770000Y-162740000D03*
D11*
%TO.P,S1,2,LV_IN*%
%TO.N,Net-(J5-Pin_1)*%
X101770000Y-177980000D03*
%TO.P,S1,3,LGND*%
%TO.N,GND*%
X109390000Y-177980000D03*
%TO.P,S1,4,PGND*%
X109390000Y-162740000D03*
%TO.P,S1,x*%
%TO.N,N/C*%
X101770000Y-165280000D03*
X101770000Y-167820000D03*
X101770000Y-170360000D03*
X101770000Y-172900000D03*
X101770000Y-175440000D03*
X109390000Y-165280000D03*
X109390000Y-167820000D03*
X109390000Y-170360000D03*
X109390000Y-172900000D03*
X109390000Y-175440000D03*
%TD*%
D12*
%TO.P,C1,1*%
%TO.N,Net-(J2-Pin_1)*%
X125950000Y-99174888D03*
D13*
%TO.P,C1,2*%
%TO.N,GND*%
X125950000Y-101674888D03*
%TD*%
D14*
%TO.P,J2,1,Pin_1*%
%TO.N,Net-(J2-Pin_1)*%
X132290000Y-126005000D03*
D15*
%TO.P,J2,2,Pin_2*%
X132290000Y-128545000D03*
%TO.P,J2,3,Pin_3*%
X132290000Y-131085000D03*
%TO.P,J2,4,Pin_4*%
X132290000Y-133625000D03*
%TO.P,J2,5,Pin_5*%
X132290000Y-136165000D03*
%TD*%
D13*
%TO.P,C5,1*%
%TO.N,Net-(J2-Pin_1)*%
X130000000Y-99890000D03*
%TO.P,C5,2*%
%TO.N,GND*%
X130000000Y-102390000D03*
%TD*%
%TO.P,C6,1*%
%TO.N,Net-(J5-Pin_1)*%
X87060000Y-122730000D03*
%TO.P,C6,2*%
%TO.N,GND*%
X87060000Y-120230000D03*
%TD*%
D14*
%TO.P,J1,1,Pin_1*%
%TO.N,Net-(J1-Pin_1)*%
X126060000Y-109140000D03*
D15*
%TO.P,J1,2,Pin_2*%
%TO.N,Net-(J1-Pin_2)*%
X126060000Y-111680000D03*
%TO.P,J1,3,Pin_3*%
%TO.N,Net-(J1-Pin_3)*%
X126060000Y-114220000D03*
%TO.P,J1,4,Pin_4*%
%TO.N,Net-(J1-Pin_4)*%
X126060000Y-116760000D03*
%TO.P,J1,5,Pin_5*%
%TO.N,Net-(J1-Pin_5)*%
X126060000Y-119300000D03*
%TD*%
D13*
%TO.P,C2,1*%
%TO.N,Net-(J2-Pin_1)*%
X132290000Y-141190000D03*
%TO.P,C2,2*%
%TO.N,GND*%
X129790000Y-141190000D03*
%TD*%
D16*
%TO.P,N1,1,A*%
%TO.N,Net-(N1-A)*%
X117400000Y-141560000D03*
D17*
%TO.P,N1,2,D0*%
%TO.N,Net-(N1-D0)*%
X113900000Y-139810000D03*
D18*
%TO.P,N1,3,D9*%
%TO.N,unconnected-(N1-D9-Pad3)*%
X109400000Y-139810000D03*
D19*
%TO.P,N1,4,D8*%
%TO.N,unconnected-(N1-D8-Pad4)*%
X104900000Y-139810000D03*
D20*
%TO.P,N1,5,D7*%
%TO.N,Net-(N1-D7)*%
X101275000Y-141560000D03*
D21*
%TO.P,N1,6,D6*%
%TO.N,Net-(N1-D6)*%
X100150000Y-145560000D03*
D22*
%TO.P,N1,7,D5*%
%TO.N,Net-(N1-D5)*%
X101275000Y-149560000D03*
D23*
%TO.P,N1,8,D4*%
%TO.N,Net-(N1-D4)*%
X104900000Y-151310000D03*
D18*
%TO.P,N1,9,D3*%
%TO.N,Net-(N1-D3)*%
X109400000Y-151310000D03*
D24*
%TO.P,N1,10,D2*%
%TO.N,Net-(N1-D2)*%
X113900000Y-151310000D03*
D25*
%TO.P,N1,11,D1*%
%TO.N,Net-(N1-D1)*%
X117400000Y-149560000D03*
D21*
%TO.P,N1,12,NC*%
%TO.N,unconnected-(N1-NC-Pad12)*%
X118400000Y-145560000D03*
%TD*%
D26*
%TO.P,R1,1*%
%TO.N,Net-(N1-A)*%
X126070000Y-160340000D03*
D27*
%TO.P,R1,2*%
%TO.N,Net-(S1-HV_OUT)*%
X126070000Y-175580000D03*
%TD*%
D14*
%TO.P,J4,1,Pin_1*%
%TO.N,GND*%
X129750000Y-126000000D03*
D15*
%TO.P,J4,2,Pin_2*%
X129750000Y-128540000D03*
%TO.P,J4,3,Pin_3*%
X129750000Y-131080000D03*
%TO.P,J4,4,Pin_4*%
X129750000Y-133620000D03*
%TO.P,J4,5,Pin_5*%
X129750000Y-136160000D03*
%TD*%
D28*
%TO.P,U2,1,PGND*%
%TO.N,GND*%
X97910000Y-117400000D03*
D29*
%TO.P,U2,2,VCC*%
%TO.N,Net-(J5-Pin_1)*%
X100450000Y-117400000D03*
%TO.P,U2,3,SER_IN*%
%TO.N,Net-(J1-Pin_1)*%
X102990000Y-117400000D03*
%TO.P,U2,4,DRAIN0*%
%TO.N,Net-(N1-D0)*%
X105530000Y-117400000D03*
%TO.P,U2,5,DRAIN1*%
%TO.N,Net-(N1-D1)*%
X108070000Y-117400000D03*
%TO.P,U2,6,DRAIN2*%
%TO.N,Net-(N1-D2)*%
X110610000Y-117400000D03*
%TO.P,U2,7,DRAIN3*%
%TO.N,Net-(N1-D3)*%
X113150000Y-117400000D03*
%TO.P,U2,8,~{SRCLR}*%
%TO.N,Net-(J1-Pin_3)*%
X115690000Y-117400000D03*
%TO.P,U2,9,~{G}*%
%TO.N,Net-(J1-Pin_5)*%
X118230000Y-117400000D03*
%TO.P,U2,10,PGND*%
%TO.N,GND*%
X120770000Y-117400000D03*
%TO.P,U2,11,PGND*%
X120770000Y-109780000D03*
%TO.P,U2,12,RCLK*%
%TO.N,Net-(J1-Pin_4)*%
X118230000Y-109780000D03*
%TO.P,U2,13,SRCK*%
%TO.N,Net-(J1-Pin_2)*%
X115690000Y-109780000D03*
%TO.P,U2,14,DRAIN4*%
%TO.N,Net-(N1-D4)*%
X113150000Y-109780000D03*
%TO.P,U2,15,DRAIN5*%
%TO.N,Net-(N1-D5)*%
X110610000Y-109780000D03*
%TO.P,U2,16,DRAIN6*%
%TO.N,Net-(N1-D6)*%
X108070000Y-109780000D03*
%TO.P,U2,17,DRAIN7*%
%TO.N,Net-(N1-D7)*%
X105530000Y-109780000D03*
%TO.P,U2,18,SER_OUT*%
%TO.N,unconnected-(U2-SER_OUT-Pad18)*%
X102990000Y-109780000D03*
%TO.P,U2,19,LGND*%
%TO.N,GND*%
X100450000Y-109780000D03*
%TO.P,U2,20,PGND*%
X97910000Y-109780000D03*
%TD*%
D14*
%TO.P,J5,1,Pin_1*%
%TO.N,Net-(J5-Pin_1)*%
X87030000Y-125950000D03*
D15*
%TO.P,J5,2,Pin_2*%
X87030000Y-128490000D03*
%TO.P,J5,3,Pin_3*%
X87030000Y-131030000D03*
%TO.P,J5,4,Pin_4*%
X87030000Y-133570000D03*
%TO.P,J5,5,Pin_5*%
X87030000Y-136110000D03*
%TD*%
D13*
%TO.P,C7,1*%
%TO.N,Net-(J5-Pin_1)*%
X100440000Y-120220000D03*
%TO.P,C7,2*%
%TO.N,GND*%
X97940000Y-120220000D03*
%TD*%
D14*
%TO.P,J3,1,Pin_1*%
%TO.N,GND*%
X84480000Y-125920000D03*
D15*
%TO.P,J3,2,Pin_2*%
X84480000Y-128460000D03*
%TO.P,J3,3,Pin_3*%
X84480000Y-131000000D03*
%TO.P,J3,4,Pin_4*%
X84480000Y-133540000D03*
%TO.P,J3,5,Pin_5*%
X84480000Y-136080000D03*
%TD*%
D12*
%TO.P,C3,1*%
%TO.N,Net-(J5-Pin_1)*%
X99160000Y-99124888D03*
D13*
%TO.P,C3,2*%
%TO.N,GND*%
X99160000Y-101624888D03*
%TD*%
D30*
%TO.P,U1,1,IN+*%
%TO.N,Net-(J2-Pin_1)*%
X122690000Y-95710001D03*
%TO.P,U1,2,5v*%
%TO.N,Net-(J5-Pin_1)*%
X102690000Y-95744500D03*
%TO.P,U1,3,GND*%
%TO.N,GND*%
X102690000Y-104835500D03*
%TO.P,U1,4,IN-*%
X122690000Y-104905497D03*
%TD*%
D13*
%TO.P,C4,1*%
%TO.N,Net-(J5-Pin_1)*%
X89450000Y-99050000D03*
%TO.P,C4,2*%
%TO.N,GND*%
X89450000Y-101550000D03*
%TD*%
D31*
%TO.N,GND*%
X126930000Y-104490000D03*
X95510000Y-105240000D03*
X95500000Y-104440000D03*
X127710000Y-105280000D03*
X97070000Y-105230000D03*
X128470000Y-105280000D03*
X128470000Y-104480000D03*
X127710000Y-104480000D03*
X96280000Y-104440000D03*
X126150000Y-104490000D03*
X97060000Y-104430000D03*
X97820000Y-104430000D03*
X97830000Y-105230000D03*
X126150000Y-105290000D03*
X96290000Y-105240000D03*
X126930000Y-105290000D03*
%TO.N,Net-(N1-D0)*%
X105530000Y-125240000D03*
%TD*%
D32*
%TO.N,GND*%
X97940000Y-120220000D02*
X97940000Y-117430000D01*
X97940000Y-117430000D02*
X97910000Y-117400000D01*
D33*
X99160000Y-104805500D02*
X100450000Y-104805500D01*
D32*
X100450000Y-104805500D02*
X100450000Y-109780000D01*
X97910000Y-109780000D02*
X97910000Y-105310000D01*
D33*
X97910000Y-105310000D02*
X97830000Y-105230000D01*
D32*
X109390000Y-162740000D02*
X107000000Y-162740000D01*
X129750000Y-133620000D02*
X129750000Y-136160000D01*
X129750000Y-104905497D02*
X129750000Y-126000000D01*
D34*
X84450000Y-125890000D02*
X84480000Y-125920000D01*
D33*
X102275000Y-104860000D02*
X102299500Y-104835500D01*
D32*
X129750000Y-136160000D02*
X129750000Y-141150000D01*
X109390000Y-177980000D02*
X110530000Y-179120000D01*
D33*
X100450000Y-104835500D02*
X102299500Y-104835500D01*
D32*
X130000000Y-102390000D02*
X130000000Y-104655497D01*
D33*
X128550000Y-104450000D02*
X128560000Y-104460000D01*
X125950000Y-104885497D02*
X125930000Y-104905497D01*
D32*
X99130000Y-104835500D02*
X102690000Y-104835500D01*
X105270000Y-176290000D02*
X106960000Y-177980000D01*
D33*
X127030000Y-105260000D02*
X127020000Y-105270000D01*
X126240000Y-104470000D02*
X126224503Y-104485497D01*
D32*
X89450000Y-101550000D02*
X89450000Y-104515500D01*
D33*
X89450000Y-104515500D02*
X89130000Y-104835500D01*
D32*
X97940000Y-120220000D02*
X87070000Y-120220000D01*
D33*
X123910994Y-104090000D02*
X123095497Y-104905497D01*
D32*
X125930000Y-104905497D02*
X122690000Y-104905497D01*
X99160000Y-101624888D02*
X99160000Y-104805500D01*
X84480000Y-133540000D02*
X84480000Y-136080000D01*
X84450000Y-107500000D02*
X87114500Y-104835500D01*
X87060000Y-120230000D02*
X84600000Y-120230000D01*
D34*
X101534000Y-104070000D02*
X102299500Y-104835500D01*
D32*
X125950000Y-101674888D02*
X125950000Y-104885497D01*
X84480000Y-131000000D02*
X84480000Y-133540000D01*
X129790000Y-177420000D02*
X129790000Y-141190000D01*
X129750000Y-131080000D02*
X129750000Y-133620000D01*
D34*
X84450000Y-128430000D02*
X84480000Y-128460000D01*
D32*
X84480000Y-128460000D02*
X84480000Y-131000000D01*
D33*
X127790000Y-104450000D02*
X127800000Y-104460000D01*
X123880000Y-105690000D02*
X123095497Y-104905497D01*
D32*
X129750000Y-126000000D02*
X129750000Y-128540000D01*
D33*
X126230000Y-104460000D02*
X126240000Y-104470000D01*
D32*
X107000000Y-162740000D02*
X105270000Y-164470000D01*
D33*
X99160000Y-104805500D02*
X99130000Y-104835500D01*
D32*
X106960000Y-177980000D02*
X109390000Y-177980000D01*
D33*
X127010000Y-104460000D02*
X127020000Y-104470000D01*
D32*
X110530000Y-179120000D02*
X128090000Y-179120000D01*
X129750000Y-141150000D02*
X129790000Y-141190000D01*
X84450000Y-125890000D02*
X84450000Y-107500000D01*
X87114500Y-104835500D02*
X99130000Y-104835500D01*
D33*
X99160000Y-101624888D02*
X99170000Y-101634888D01*
D32*
X130000000Y-104655497D02*
X129750000Y-104905497D01*
X105270000Y-164470000D02*
X105270000Y-176290000D01*
D34*
X101465000Y-105670000D02*
X102299500Y-104835500D01*
D33*
X87070000Y-120220000D02*
X87060000Y-120230000D01*
X127030000Y-104460000D02*
X127020000Y-104470000D01*
D32*
X128090000Y-179120000D02*
X129790000Y-177420000D01*
X129750000Y-128540000D02*
X129750000Y-131080000D01*
X84450000Y-125890000D02*
X84450000Y-128430000D01*
X129750000Y-104905497D02*
X125930000Y-104905497D01*
%TO.N,Net-(J2-Pin_1)*%
X132290000Y-98750000D02*
X130960000Y-97420000D01*
X129250001Y-95710001D02*
X125940000Y-95710001D01*
X132290000Y-136165000D02*
X132290000Y-141190000D01*
X125940000Y-95710001D02*
X122690000Y-95710001D01*
X132290000Y-128545000D02*
X132290000Y-131085000D01*
X130000000Y-99890000D02*
X130000000Y-98740000D01*
X130000000Y-98740000D02*
X130960000Y-97780000D01*
X130960000Y-97780000D02*
X130960000Y-97420000D01*
X125950000Y-99174888D02*
X125950000Y-95720001D01*
X132290000Y-126005000D02*
X132290000Y-128545000D01*
X130960000Y-97420000D02*
X129250001Y-95710001D01*
D33*
X125950000Y-95720001D02*
X125940000Y-95710001D01*
D32*
X132290000Y-131085000D02*
X132290000Y-133625000D01*
X132290000Y-98750000D02*
X132290000Y-126005000D01*
X132290000Y-133625000D02*
X132290000Y-136165000D01*
%TO.N,Net-(J5-Pin_1)*%
X87030000Y-133570000D02*
X87030000Y-131030000D01*
X87060000Y-122730000D02*
X87060000Y-125920000D01*
X89450000Y-99050000D02*
X89450000Y-95924500D01*
X87090000Y-178010000D02*
X87120000Y-177980000D01*
X100450000Y-121341370D02*
X100450000Y-117400000D01*
X81640000Y-138830000D02*
X87030000Y-138830000D01*
X95841370Y-125950000D02*
X100450000Y-121341370D01*
X87030000Y-125950000D02*
X95841370Y-125950000D01*
X86375500Y-95744500D02*
X81640000Y-100480000D01*
X99160000Y-99124888D02*
X99160000Y-95804500D01*
X99100000Y-95744500D02*
X102690000Y-95744500D01*
X87030000Y-128490000D02*
X87030000Y-125950000D01*
X81640000Y-172560000D02*
X87090000Y-178010000D01*
D33*
X99160000Y-95804500D02*
X99100000Y-95744500D01*
D32*
X81640000Y-138830000D02*
X81640000Y-172560000D01*
X87120000Y-177980000D02*
X101770000Y-177980000D01*
X87030000Y-131030000D02*
X87030000Y-128490000D01*
D33*
X87060000Y-125920000D02*
X87030000Y-125950000D01*
D32*
X87030000Y-136110000D02*
X87030000Y-133570000D01*
X87030000Y-138830000D02*
X87030000Y-136110000D01*
X81640000Y-100480000D02*
X81640000Y-138830000D01*
X86375500Y-95744500D02*
X99100000Y-95744500D01*
D33*
%TO.N,Net-(J1-Pin_4)*%
X121420000Y-112970000D02*
X118230000Y-109780000D01*
X127330000Y-115490000D02*
X127330000Y-113500000D01*
X126060000Y-116760000D02*
X127330000Y-115490000D01*
X126800000Y-112970000D02*
X121420000Y-112970000D01*
X127330000Y-113500000D02*
X126800000Y-112970000D01*
%TO.N,Net-(J1-Pin_3)*%
X118870000Y-114220000D02*
X115690000Y-117400000D01*
X126060000Y-114220000D02*
X118870000Y-114220000D01*
%TO.N,Net-(J1-Pin_1)*%
X105510000Y-107550000D02*
X104220000Y-108840000D01*
X104220000Y-112160000D02*
X102990000Y-113390000D01*
X124470000Y-107550000D02*
X105510000Y-107550000D01*
X102990000Y-113390000D02*
X102990000Y-117400000D01*
X104220000Y-108840000D02*
X104220000Y-112160000D01*
X126060000Y-109140000D02*
X124470000Y-107550000D01*
%TO.N,Net-(N1-D5)*%
X101400000Y-149560000D02*
X101400000Y-148550000D01*
%TO.N,Net-(N1-D7)*%
X109380000Y-108970000D02*
X108530000Y-108120000D01*
X101275000Y-141560000D02*
X101275000Y-125775000D01*
X108530000Y-108120000D02*
X107190000Y-108120000D01*
X106800000Y-120250000D02*
X106800000Y-113200000D01*
X107190000Y-108120000D02*
X105530000Y-109780000D01*
X106800000Y-113200000D02*
X109380000Y-110620000D01*
X101275000Y-125775000D02*
X106800000Y-120250000D01*
X109380000Y-110620000D02*
X109380000Y-108970000D01*
D32*
%TO.N,Net-(N1-A)*%
X117400000Y-141560000D02*
X122120000Y-141560000D01*
X126070000Y-145510000D02*
X126070000Y-160340000D01*
X122120000Y-141560000D02*
X126070000Y-145510000D01*
D33*
%TO.N,Net-(N1-D6)*%
X104300000Y-113550000D02*
X108070000Y-109780000D01*
X104300000Y-121330000D02*
X104300000Y-113550000D01*
X98580000Y-127050000D02*
X104300000Y-121330000D01*
X98580000Y-143990000D02*
X98580000Y-127050000D01*
X100150000Y-145560000D02*
X98580000Y-143990000D01*
%TO.N,Net-(N1-D0)*%
X113900000Y-139810000D02*
X114010000Y-139700000D01*
X104900000Y-118030000D02*
X105530000Y-117400000D01*
X114010000Y-139700000D02*
X114010000Y-139920000D01*
X113900000Y-139810000D02*
X113900000Y-133610000D01*
X113900000Y-133610000D02*
X105530000Y-125240000D01*
%TO.N,Net-(N1-D1)*%
X107400000Y-118070000D02*
X108070000Y-117400000D01*
X117400000Y-149560000D02*
X117480000Y-149640000D01*
D32*
%TO.N,Net-(S1-HV_OUT)*%
X113980000Y-162340000D02*
X113980000Y-169000000D01*
X105330000Y-159180000D02*
X110820000Y-159180000D01*
X120560000Y-175580000D02*
X126070000Y-175580000D01*
X110820000Y-159180000D02*
X113980000Y-162340000D01*
X101770000Y-162740000D02*
X105330000Y-159180000D01*
X113980000Y-169000000D02*
X120560000Y-175580000D01*
D33*
%TO.N,Net-(J1-Pin_2)*%
X117310000Y-108180000D02*
X115710000Y-109780000D01*
X126060000Y-111680000D02*
X122560000Y-108180000D01*
X115710000Y-109780000D02*
X115690000Y-109780000D01*
X122560000Y-108180000D02*
X117310000Y-108180000D01*
%TO.N,Net-(J1-Pin_5)*%
X126060000Y-119300000D02*
X120130000Y-119300000D01*
X120130000Y-119300000D02*
X118230000Y-117400000D01*
%TD*%
M02*
