%TF.GenerationSoftware,KiCad,Pcbnew,8.0.8*%
%TF.CreationDate,2025-02-27T12:07:19-08:00*%
%TF.ProjectId,proto,70726f74-6f2e-46b6-9963-61645f706362,rev?*%
%TF.SameCoordinates,Original*%
%TF.FileFunction,Copper,L1,Top*%
%TF.FilePolarity,Positive*%
%FSLAX46Y46*%
G04 Gerber Fmt 4.6, Leading zero omitted, Abs format (unit mm)*
G04 Created by KiCad (PCBNEW 8.0.8) date 2025-02-27 12:07:19*
%MOMM*%
%LPD*%
G01*
G04 APERTURE LIST*
G04 Aperture macros list*
%AMHorizOval*
0 Thick line with rounded ends*
0 $1 width*
0 $2 $3 position (X,Y) of the first rounded end (center of the circle)*
0 $4 $5 position (X,Y) of the second rounded end (center of the circle)*
0 Add line between two ends*
20,1,$1,$2,$3,$4,$5,0*
0 Add two circle primitives to create the rounded ends*
1,1,$1,$2,$3*
1,1,$1,$4,$5*%
G04 Aperture macros list end*
%TA.AperFunction,ComponentPad*%
%ADD10C,2.524000*%
%TD*%
%TA.AperFunction,ComponentPad*%
%ADD11R,1.600000X1.600000*%
%TD*%
%TA.AperFunction,ComponentPad*%
%ADD12C,1.600000*%
%TD*%
%TA.AperFunction,ComponentPad*%
%ADD13R,1.700000X1.700000*%
%TD*%
%TA.AperFunction,ComponentPad*%
%ADD14O,1.700000X1.700000*%
%TD*%
%TA.AperFunction,ComponentPad*%
%ADD15HorizOval,3.000000X-0.447077X0.223880X0.447077X-0.223880X0*%
%TD*%
%TA.AperFunction,ComponentPad*%
%ADD16HorizOval,3.000000X-0.394005X0.307831X0.394005X-0.307831X0*%
%TD*%
%TA.AperFunction,ComponentPad*%
%ADD17O,3.000000X4.000000*%
%TD*%
%TA.AperFunction,ComponentPad*%
%ADD18HorizOval,3.000000X-0.223880X-0.447077X0.223880X0.447077X0*%
%TD*%
%TA.AperFunction,ComponentPad*%
%ADD19HorizOval,3.000000X-0.447077X-0.223880X0.447077X0.223880X0*%
%TD*%
%TA.AperFunction,ComponentPad*%
%ADD20O,4.000000X3.000000*%
%TD*%
%TA.AperFunction,ComponentPad*%
%ADD21HorizOval,3.000000X-0.447077X0.223880X0.447077X-0.223880X0*%
%TD*%
%TA.AperFunction,ComponentPad*%
%ADD22HorizOval,3.000000X-0.223880X0.447077X0.223880X-0.447077X0*%
%TD*%
%TA.AperFunction,ComponentPad*%
%ADD23HorizOval,3.000000X0.394005X0.307831X-0.394005X-0.307831X0*%
%TD*%
%TA.AperFunction,ComponentPad*%
%ADD24HorizOval,3.000000X0.447077X0.223880X-0.447077X-0.223880X0*%
%TD*%
%TA.AperFunction,ComponentPad*%
%ADD25C,2.400000*%
%TD*%
%TA.AperFunction,ComponentPad*%
%ADD26O,2.400000X2.400000*%
%TD*%
%TA.AperFunction,ComponentPad*%
%ADD27R,1.600000X2.400000*%
%TD*%
%TA.AperFunction,ComponentPad*%
%ADD28O,1.600000X2.400000*%
%TD*%
%TA.AperFunction,SMDPad,CuDef*%
%ADD29R,5.809998X2.359998*%
%TD*%
%TA.AperFunction,SMDPad,CuDef*%
%ADD30R,5.631000X2.391000*%
%TD*%
%TA.AperFunction,SMDPad,CuDef*%
%ADD31R,5.701000X2.351000*%
%TD*%
%TA.AperFunction,SMDPad,CuDef*%
%ADD32R,5.710994X2.310994*%
%TD*%
%TA.AperFunction,ViaPad*%
%ADD33C,0.600000*%
%TD*%
%TA.AperFunction,Conductor*%
%ADD34C,1.600000*%
%TD*%
%TA.AperFunction,Conductor*%
%ADD35C,0.400000*%
%TD*%
%TA.AperFunction,Conductor*%
%ADD36C,0.200000*%
%TD*%
%TA.AperFunction,Conductor*%
%ADD37C,2.400000*%
%TD*%
%TA.AperFunction,Conductor*%
%ADD38C,1.200000*%
%TD*%
%TA.AperFunction,Conductor*%
%ADD39C,2.200000*%
%TD*%
%TA.AperFunction,Conductor*%
%ADD40C,2.300000*%
%TD*%
G04 APERTURE END LIST*
D10*
%TO.P,S1,1,HV_OUT*%
%TO.N,Net-(S1-HV_OUT)*%
X101780000Y-160230000D03*
%TO.P,S1,2,LV_IN*%
%TO.N,Net-(J5-Pin_1)*%
X101780000Y-178010000D03*
%TO.P,S1,3,LGND*%
%TO.N,GND*%
X109400000Y-178010000D03*
%TO.P,S1,4,PGND*%
X109400000Y-160230000D03*
%TD*%
D11*
%TO.P,C1,1*%
%TO.N,Net-(J2-Pin_1)*%
X125950000Y-99174888D03*
D12*
%TO.P,C1,2*%
%TO.N,GND*%
X125950000Y-101674888D03*
%TD*%
D13*
%TO.P,J2,1,Pin_1*%
%TO.N,Net-(J2-Pin_1)*%
X132290000Y-126005000D03*
D14*
%TO.P,J2,2,Pin_2*%
X132290000Y-128545000D03*
%TO.P,J2,3,Pin_3*%
X132290000Y-131085000D03*
%TO.P,J2,4,Pin_4*%
X132290000Y-133625000D03*
%TO.P,J2,5,Pin_5*%
X132290000Y-136165000D03*
%TD*%
D12*
%TO.P,C5,1*%
%TO.N,Net-(J2-Pin_1)*%
X130000000Y-99890000D03*
%TO.P,C5,2*%
%TO.N,GND*%
X130000000Y-102390000D03*
%TD*%
%TO.P,C6,1*%
%TO.N,Net-(J5-Pin_1)*%
X87060000Y-122730000D03*
%TO.P,C6,2*%
%TO.N,GND*%
X87060000Y-120230000D03*
%TD*%
D13*
%TO.P,J1,1,Pin_1*%
%TO.N,Net-(J1-Pin_1)*%
X126060000Y-109140000D03*
D14*
%TO.P,J1,2,Pin_2*%
%TO.N,Net-(J1-Pin_2)*%
X126060000Y-111680000D03*
%TO.P,J1,3,Pin_3*%
%TO.N,Net-(J1-Pin_3)*%
X126060000Y-114220000D03*
%TO.P,J1,4,Pin_4*%
%TO.N,Net-(J1-Pin_4)*%
X126060000Y-116760000D03*
%TO.P,J1,5,Pin_5*%
%TO.N,Net-(J1-Pin_5)*%
X126060000Y-119300000D03*
%TD*%
D12*
%TO.P,C2,1*%
%TO.N,Net-(J2-Pin_1)*%
X132290000Y-141190000D03*
%TO.P,C2,2*%
%TO.N,GND*%
X129790000Y-141190000D03*
%TD*%
D15*
%TO.P,N1,1,A*%
%TO.N,Net-(N1-A)*%
X101400000Y-141560000D03*
D16*
%TO.P,N1,2,D0*%
%TO.N,Net-(N1-D0)*%
X104900000Y-139810000D03*
D17*
%TO.P,N1,3,D9*%
%TO.N,unconnected-(N1-D9-Pad3)*%
X109400000Y-139810000D03*
D18*
%TO.P,N1,4,D8*%
%TO.N,unconnected-(N1-D8-Pad4)*%
X113900000Y-139810000D03*
D19*
%TO.P,N1,5,D7*%
%TO.N,Net-(N1-D7)*%
X117400000Y-141560000D03*
D20*
%TO.P,N1,6,D6*%
%TO.N,Net-(N1-D6)*%
X118400000Y-145560000D03*
D21*
%TO.P,N1,7,D5*%
%TO.N,Net-(N1-D5)*%
X117400000Y-149560000D03*
D22*
%TO.P,N1,8,D4*%
%TO.N,Net-(N1-D4)*%
X113900000Y-151310000D03*
D17*
%TO.P,N1,9,D3*%
%TO.N,Net-(N1-D3)*%
X109400000Y-151310000D03*
D23*
%TO.P,N1,10,D2*%
%TO.N,Net-(N1-D2)*%
X104900000Y-151310000D03*
D24*
%TO.P,N1,11,D1*%
%TO.N,Net-(N1-D1)*%
X101400000Y-149560000D03*
D20*
%TO.P,N1,12,NC*%
%TO.N,unconnected-(N1-NC-Pad12)*%
X100400000Y-145560000D03*
%TD*%
D25*
%TO.P,R1,1*%
%TO.N,Net-(N1-A)*%
X91830000Y-148580000D03*
D26*
%TO.P,R1,2*%
%TO.N,Net-(S1-HV_OUT)*%
X91830000Y-163820000D03*
%TD*%
D13*
%TO.P,J4,1,Pin_1*%
%TO.N,GND*%
X129750000Y-126000000D03*
D14*
%TO.P,J4,2,Pin_2*%
X129750000Y-128540000D03*
%TO.P,J4,3,Pin_3*%
X129750000Y-131080000D03*
%TO.P,J4,4,Pin_4*%
X129750000Y-133620000D03*
%TO.P,J4,5,Pin_5*%
X129750000Y-136160000D03*
%TD*%
D27*
%TO.P,U2,1,PGND*%
%TO.N,GND*%
X97910000Y-117400000D03*
D28*
%TO.P,U2,2,VCC*%
%TO.N,Net-(J5-Pin_1)*%
X100450000Y-117400000D03*
%TO.P,U2,3,SER_IN*%
%TO.N,Net-(J1-Pin_1)*%
X102990000Y-117400000D03*
%TO.P,U2,4,DRAIN0*%
%TO.N,Net-(N1-D0)*%
X105530000Y-117400000D03*
%TO.P,U2,5,DRAIN1*%
%TO.N,Net-(N1-D1)*%
X108070000Y-117400000D03*
%TO.P,U2,6,DRAIN2*%
%TO.N,Net-(N1-D2)*%
X110610000Y-117400000D03*
%TO.P,U2,7,DRAIN3*%
%TO.N,Net-(N1-D3)*%
X113150000Y-117400000D03*
%TO.P,U2,8,~{SRCLR}*%
%TO.N,Net-(J1-Pin_3)*%
X115690000Y-117400000D03*
%TO.P,U2,9,~{G}*%
%TO.N,Net-(J1-Pin_5)*%
X118230000Y-117400000D03*
%TO.P,U2,10,PGND*%
%TO.N,GND*%
X120770000Y-117400000D03*
%TO.P,U2,11,PGND*%
X120770000Y-109780000D03*
%TO.P,U2,12,RCLK*%
%TO.N,Net-(J1-Pin_4)*%
X118230000Y-109780000D03*
%TO.P,U2,13,SRCK*%
%TO.N,Net-(J1-Pin_2)*%
X115690000Y-109780000D03*
%TO.P,U2,14,DRAIN4*%
%TO.N,Net-(N1-D4)*%
X113150000Y-109780000D03*
%TO.P,U2,15,DRAIN5*%
%TO.N,Net-(N1-D5)*%
X110610000Y-109780000D03*
%TO.P,U2,16,DRAIN6*%
%TO.N,Net-(N1-D6)*%
X108070000Y-109780000D03*
%TO.P,U2,17,DRAIN7*%
%TO.N,Net-(N1-D7)*%
X105530000Y-109780000D03*
%TO.P,U2,18,SER_OUT*%
%TO.N,unconnected-(U2-SER_OUT-Pad18)*%
X102990000Y-109780000D03*
%TO.P,U2,19,LGND*%
%TO.N,GND*%
X100450000Y-109780000D03*
%TO.P,U2,20,PGND*%
X97910000Y-109780000D03*
%TD*%
D13*
%TO.P,J5,1,Pin_1*%
%TO.N,Net-(J5-Pin_1)*%
X87030000Y-125950000D03*
D14*
%TO.P,J5,2,Pin_2*%
X87030000Y-128490000D03*
%TO.P,J5,3,Pin_3*%
X87030000Y-131030000D03*
%TO.P,J5,4,Pin_4*%
X87030000Y-133570000D03*
%TO.P,J5,5,Pin_5*%
X87030000Y-136110000D03*
%TD*%
D12*
%TO.P,C7,1*%
%TO.N,Net-(J5-Pin_1)*%
X100440000Y-120220000D03*
%TO.P,C7,2*%
%TO.N,GND*%
X97940000Y-120220000D03*
%TD*%
D13*
%TO.P,J3,1,Pin_1*%
%TO.N,GND*%
X84480000Y-125920000D03*
D14*
%TO.P,J3,2,Pin_2*%
X84480000Y-128460000D03*
%TO.P,J3,3,Pin_3*%
X84480000Y-131000000D03*
%TO.P,J3,4,Pin_4*%
X84480000Y-133540000D03*
%TO.P,J3,5,Pin_5*%
X84480000Y-136080000D03*
%TD*%
D11*
%TO.P,C3,1*%
%TO.N,Net-(J5-Pin_1)*%
X99160000Y-99124888D03*
D12*
%TO.P,C3,2*%
%TO.N,GND*%
X99160000Y-101624888D03*
%TD*%
D29*
%TO.P,U1,1,IN+*%
%TO.N,Net-(J2-Pin_1)*%
X123054999Y-95710001D03*
D30*
%TO.P,U1,2,5v*%
%TO.N,Net-(J5-Pin_1)*%
X102284500Y-95744500D03*
D31*
%TO.P,U1,3,GND*%
%TO.N,GND*%
X102299500Y-104835500D03*
D32*
%TO.P,U1,4,IN-*%
X123095497Y-104905497D03*
%TD*%
D12*
%TO.P,C4,1*%
%TO.N,Net-(J5-Pin_1)*%
X89450000Y-99050000D03*
%TO.P,C4,2*%
%TO.N,GND*%
X89450000Y-101550000D03*
%TD*%
D33*
%TO.N,GND*%
X127270000Y-104890000D03*
X91060000Y-104850000D03*
X91840000Y-105650000D03*
X126480000Y-104090000D03*
X91050000Y-104050000D03*
X127260000Y-104090000D03*
X128050000Y-105680000D03*
X92620000Y-104840000D03*
X128810000Y-105680000D03*
X128810000Y-104880000D03*
X91060000Y-105650000D03*
X93380000Y-105640000D03*
X128040000Y-104080000D03*
X128050000Y-104880000D03*
X91830000Y-104050000D03*
X126490000Y-104890000D03*
X92610000Y-104040000D03*
X92620000Y-105640000D03*
X93370000Y-104040000D03*
X93380000Y-104840000D03*
X126490000Y-105690000D03*
X91840000Y-104850000D03*
X127270000Y-105690000D03*
X128800000Y-104080000D03*
%TD*%
D34*
%TO.N,GND*%
X109400000Y-160230000D02*
X109400000Y-178010000D01*
X129790000Y-141190000D02*
X129790000Y-151700000D01*
X129790000Y-151700000D02*
X121260000Y-160230000D01*
X121260000Y-160230000D02*
X109400000Y-160230000D01*
%TO.N,Net-(N1-A)*%
X101400000Y-141560000D02*
X95900000Y-141560000D01*
X95900000Y-141560000D02*
X91830000Y-145630000D01*
X91830000Y-145630000D02*
X91830000Y-148580000D01*
%TO.N,Net-(S1-HV_OUT)*%
X91830000Y-163820000D02*
X98190000Y-163820000D01*
X98190000Y-163820000D02*
X101780000Y-160230000D01*
%TO.N,Net-(J5-Pin_1)*%
X81640000Y-138830000D02*
X81640000Y-172560000D01*
X81640000Y-172560000D02*
X87090000Y-178010000D01*
X87090000Y-178010000D02*
X101780000Y-178010000D01*
%TO.N,GND*%
X129750000Y-133620000D02*
X129750000Y-136160000D01*
D35*
X98800000Y-105670000D02*
X98040000Y-105670000D01*
D34*
X129750000Y-104905497D02*
X129750000Y-126000000D01*
D35*
X97260000Y-105680000D02*
X96480000Y-105680000D01*
X84450000Y-125890000D02*
X84480000Y-125920000D01*
D36*
X98790000Y-104860000D02*
X102275000Y-104860000D01*
D35*
X98800000Y-105670000D02*
X98800000Y-104870000D01*
D36*
X102275000Y-104860000D02*
X102299500Y-104835500D01*
X98030000Y-104860000D02*
X98040000Y-104870000D01*
D35*
X126490000Y-105690000D02*
X126490000Y-104890000D01*
D34*
X129750000Y-136160000D02*
X129750000Y-141150000D01*
D35*
X98030000Y-104070000D02*
X97260000Y-104070000D01*
X128810000Y-104880000D02*
X128050000Y-104880000D01*
D36*
X100450000Y-104835500D02*
X102299500Y-104835500D01*
X97270000Y-104870000D02*
X97260000Y-104880000D01*
X128800000Y-104870000D02*
X128810000Y-104880000D01*
D37*
X102299500Y-104835500D02*
X89130000Y-104835500D01*
D35*
X98040000Y-105670000D02*
X97270000Y-105670000D01*
D36*
X127280000Y-105680000D02*
X127270000Y-105690000D01*
D34*
X99170000Y-101634888D02*
X99170000Y-104480000D01*
X97910000Y-109780000D02*
X97910000Y-104980000D01*
D36*
X97910000Y-104980000D02*
X98030000Y-104860000D01*
X126490000Y-104890000D02*
X126474503Y-104905497D01*
X127270000Y-104080000D02*
X127260000Y-104090000D01*
D35*
X96480000Y-105680000D02*
X96480000Y-104880000D01*
D34*
X84450000Y-107500000D02*
X84450000Y-120380000D01*
D35*
X128050000Y-105680000D02*
X128050000Y-104880000D01*
D34*
X89450000Y-101550000D02*
X89450000Y-104515500D01*
X125950000Y-104845497D02*
X125950000Y-101674888D01*
D36*
X89450000Y-104515500D02*
X89130000Y-104835500D01*
D34*
X97940000Y-120220000D02*
X87070000Y-120220000D01*
D35*
X128800000Y-104080000D02*
X128040000Y-104080000D01*
X128040000Y-104080000D02*
X128040000Y-104870000D01*
D36*
X123910994Y-104090000D02*
X123095497Y-104905497D01*
D35*
X98790000Y-104070000D02*
X98030000Y-104070000D01*
X127260000Y-104090000D02*
X126480000Y-104090000D01*
X126480000Y-104090000D02*
X126480000Y-104880000D01*
X98040000Y-104870000D02*
X97270000Y-104870000D01*
D38*
X130000000Y-102390000D02*
X130000000Y-104655497D01*
D35*
X97250000Y-104080000D02*
X96470000Y-104080000D01*
X126490000Y-105690000D02*
X123880000Y-105690000D01*
D39*
X89130000Y-104835500D02*
X87114500Y-104835500D01*
D35*
X128050000Y-104880000D02*
X127280000Y-104880000D01*
X128810000Y-105680000D02*
X128810000Y-104880000D01*
D34*
X84480000Y-133540000D02*
X84480000Y-136080000D01*
D35*
X98030000Y-104070000D02*
X98030000Y-104860000D01*
X96470000Y-104870000D02*
X96480000Y-104880000D01*
D34*
X87060000Y-120230000D02*
X84600000Y-120230000D01*
D35*
X128050000Y-105680000D02*
X127280000Y-105680000D01*
X98800000Y-104870000D02*
X98040000Y-104870000D01*
X101534000Y-104070000D02*
X102299500Y-104835500D01*
D34*
X84480000Y-131000000D02*
X84480000Y-133540000D01*
D35*
X128800000Y-104080000D02*
X128800000Y-104870000D01*
D34*
X129750000Y-131080000D02*
X129750000Y-133620000D01*
D35*
X84450000Y-128430000D02*
X84480000Y-128460000D01*
D34*
X126010000Y-104905497D02*
X125950000Y-104845497D01*
X84480000Y-128460000D02*
X84480000Y-131000000D01*
D36*
X128040000Y-104870000D02*
X128050000Y-104880000D01*
X123880000Y-105690000D02*
X123095497Y-104905497D01*
D34*
X129750000Y-126000000D02*
X129750000Y-128540000D01*
D36*
X97260000Y-104070000D02*
X97250000Y-104080000D01*
D34*
X87114500Y-104835500D02*
X84450000Y-107500000D01*
D35*
X97250000Y-104080000D02*
X97250000Y-104870000D01*
X127270000Y-105690000D02*
X126490000Y-105690000D01*
D36*
X126480000Y-104880000D02*
X126490000Y-104890000D01*
D35*
X127270000Y-104890000D02*
X126490000Y-104890000D01*
D36*
X123095497Y-104905497D02*
X126010000Y-104905497D01*
D35*
X128040000Y-104080000D02*
X127270000Y-104080000D01*
X127260000Y-104090000D02*
X127260000Y-104880000D01*
D36*
X98790000Y-104860000D02*
X98814500Y-104835500D01*
D34*
X100450000Y-109780000D02*
X100450000Y-104835500D01*
D36*
X127260000Y-104880000D02*
X127270000Y-104890000D01*
X98790000Y-104860000D02*
X98800000Y-104870000D01*
D35*
X126474503Y-104905497D02*
X123095497Y-104905497D01*
X97260000Y-104880000D02*
X96480000Y-104880000D01*
X126480000Y-104090000D02*
X123910994Y-104090000D01*
X97260000Y-105680000D02*
X97260000Y-104880000D01*
X98790000Y-104070000D02*
X101534000Y-104070000D01*
D34*
X129750000Y-141150000D02*
X129790000Y-141190000D01*
D36*
X97250000Y-104870000D02*
X97260000Y-104880000D01*
D40*
X126010000Y-104905497D02*
X129400000Y-104905497D01*
D36*
X99160000Y-101624888D02*
X99170000Y-101634888D01*
D35*
X101465000Y-105670000D02*
X102299500Y-104835500D01*
X98800000Y-105670000D02*
X101465000Y-105670000D01*
D36*
X130000000Y-104655497D02*
X129750000Y-104905497D01*
X97270000Y-105670000D02*
X97260000Y-105680000D01*
D35*
X128810000Y-105680000D02*
X128050000Y-105680000D01*
D36*
X87070000Y-120220000D02*
X87060000Y-120230000D01*
X127280000Y-104880000D02*
X127270000Y-104890000D01*
D34*
X84450000Y-120380000D02*
X84450000Y-125890000D01*
D35*
X98040000Y-105670000D02*
X98040000Y-104870000D01*
D34*
X129750000Y-128540000D02*
X129750000Y-131080000D01*
D35*
X96470000Y-104080000D02*
X96470000Y-104870000D01*
D34*
X84450000Y-125890000D02*
X84450000Y-128430000D01*
D35*
X127270000Y-105690000D02*
X127270000Y-104890000D01*
D36*
X99170000Y-104480000D02*
X98790000Y-104860000D01*
D34*
%TO.N,Net-(J2-Pin_1)*%
X125950000Y-98605002D02*
X125950000Y-95710001D01*
X132290000Y-136165000D02*
X132290000Y-141190000D01*
X132290000Y-128545000D02*
X132290000Y-131085000D01*
X130000000Y-99890000D02*
X130000000Y-98740000D01*
X125950000Y-95710001D02*
X123054999Y-95710001D01*
X129865000Y-96325000D02*
X132290000Y-98750000D01*
X132290000Y-126005000D02*
X132290000Y-128545000D01*
D36*
X125950000Y-99174888D02*
X125950000Y-98605002D01*
D34*
X129250001Y-95710001D02*
X129865000Y-96325000D01*
X130000000Y-98740000D02*
X131140000Y-97600000D01*
X132290000Y-131085000D02*
X132290000Y-133625000D01*
X132290000Y-98750000D02*
X132290000Y-126005000D01*
X123054999Y-95710001D02*
X129250001Y-95710001D01*
X132290000Y-133625000D02*
X132290000Y-136165000D01*
%TO.N,Net-(J5-Pin_1)*%
X87030000Y-133570000D02*
X87030000Y-131030000D01*
X87060000Y-122730000D02*
X87060000Y-125920000D01*
D36*
X89450000Y-95924500D02*
X89630000Y-95744500D01*
D34*
X89630000Y-95744500D02*
X86375500Y-95744500D01*
X99160000Y-99124888D02*
X99160000Y-95744500D01*
X89450000Y-99050000D02*
X89450000Y-95924500D01*
X100450000Y-121341370D02*
X100450000Y-117400000D01*
X81640000Y-138830000D02*
X87030000Y-138830000D01*
X95841370Y-125950000D02*
X100450000Y-121341370D01*
X87030000Y-125950000D02*
X95841370Y-125950000D01*
D36*
X99160000Y-95744500D02*
X102284500Y-95744500D01*
D34*
X86375500Y-95744500D02*
X81640000Y-100480000D01*
X87030000Y-128490000D02*
X87030000Y-125950000D01*
X102284500Y-95744500D02*
X89630000Y-95744500D01*
X87030000Y-131030000D02*
X87030000Y-128490000D01*
D36*
X87060000Y-125920000D02*
X87030000Y-125950000D01*
D34*
X87030000Y-136110000D02*
X87030000Y-133570000D01*
X87030000Y-138830000D02*
X87030000Y-136110000D01*
X81640000Y-100480000D02*
X81640000Y-138830000D01*
D36*
%TO.N,Net-(J1-Pin_4)*%
X121420000Y-112970000D02*
X118230000Y-109780000D01*
X127330000Y-115490000D02*
X127330000Y-113500000D01*
X126060000Y-116760000D02*
X127330000Y-115490000D01*
X126800000Y-112970000D02*
X121420000Y-112970000D01*
X127330000Y-113500000D02*
X126800000Y-112970000D01*
%TO.N,Net-(J1-Pin_3)*%
X118870000Y-114220000D02*
X115690000Y-117400000D01*
X126060000Y-114220000D02*
X118870000Y-114220000D01*
%TO.N,Net-(J1-Pin_1)*%
X104220000Y-116170000D02*
X102990000Y-117400000D01*
X105510000Y-107550000D02*
X104220000Y-108840000D01*
X124470000Y-107550000D02*
X105510000Y-107550000D01*
X126060000Y-109140000D02*
X124470000Y-107550000D01*
X104220000Y-108840000D02*
X104220000Y-116170000D01*
%TO.N,Net-(N1-D5)*%
X122590000Y-147590000D02*
X122590000Y-138120000D01*
X122590000Y-138120000D02*
X111900000Y-127430000D01*
X117400000Y-149560000D02*
X117480000Y-149640000D01*
X111900000Y-111070000D02*
X110610000Y-109780000D01*
X117480000Y-149640000D02*
X120540000Y-149640000D01*
X111900000Y-127430000D02*
X111900000Y-111070000D01*
X120540000Y-149640000D02*
X122590000Y-147590000D01*
%TO.N,Net-(N1-D6)*%
X109370000Y-125990000D02*
X109370000Y-111080000D01*
X121830000Y-142130000D02*
X121830000Y-138450000D01*
X121830000Y-138450000D02*
X109370000Y-125990000D01*
X118400000Y-145560000D02*
X121830000Y-142130000D01*
X109370000Y-111080000D02*
X108070000Y-109780000D01*
%TO.N,Net-(N1-D0)*%
X104900000Y-139810000D02*
X104900000Y-118030000D01*
X104900000Y-118030000D02*
X105530000Y-117400000D01*
%TO.N,Net-(N1-D1)*%
X107400000Y-118070000D02*
X108070000Y-117400000D01*
X101400000Y-148550000D02*
X107400000Y-142550000D01*
X101400000Y-149560000D02*
X101400000Y-148550000D01*
X107400000Y-142550000D02*
X107400000Y-118070000D01*
%TO.N,Net-(J1-Pin_2)*%
X117310000Y-108180000D02*
X115710000Y-109780000D01*
X126060000Y-111680000D02*
X122560000Y-108180000D01*
X115710000Y-109780000D02*
X115690000Y-109780000D01*
X122560000Y-108180000D02*
X117310000Y-108180000D01*
%TO.N,Net-(J1-Pin_5)*%
X126060000Y-119300000D02*
X120130000Y-119300000D01*
X120130000Y-119300000D02*
X118230000Y-117400000D01*
%TD*%
M02*
