%TF.GenerationSoftware,KiCad,Pcbnew,8.0.8*%
%TF.CreationDate,2025-02-27T12:07:19-08:00*%
%TF.ProjectId,proto,70726f74-6f2e-46b6-9963-61645f706362,rev?*%
%TF.SameCoordinates,Original*%
%TF.FileFunction,Legend,Top*%
%TF.FilePolarity,Positive*%
%FSLAX46Y46*%
G04 Gerber Fmt 4.6, Leading zero omitted, Abs format (unit mm)*
G04 Created by KiCad (PCBNEW 8.0.8) date 2025-02-27 12:07:19*
%MOMM*%
%LPD*%
G01*
G04 APERTURE LIST*
G04 Aperture macros list*
%AMHorizOval*
0 Thick line with rounded ends*
0 $1 width*
0 $2 $3 position (X,Y) of the first rounded end (center of the circle)*
0 $4 $5 position (X,Y) of the second rounded end (center of the circle)*
0 Add line between two ends*
20,1,$1,$2,$3,$4,$5,0*
0 Add two circle primitives to create the rounded ends*
1,1,$1,$2,$3*
1,1,$1,$4,$5*%
G04 Aperture macros list end*
%ADD10C,0.100000*%
%ADD11C,0.150000*%
%ADD12C,0.120000*%
%ADD13HorizOval,3.000000X-0.447077X0.223880X0.447077X-0.223880X0*%
%ADD14HorizOval,3.000000X-0.394005X0.307831X0.394005X-0.307831X0*%
%ADD15O,3.000000X4.000000*%
%ADD16HorizOval,3.000000X-0.223880X-0.447077X0.223880X0.447077X0*%
%ADD17HorizOval,3.000000X-0.447077X-0.223880X0.447077X0.223880X0*%
%ADD18O,4.000000X3.000000*%
%ADD19HorizOval,3.000000X-0.447077X0.223880X0.447077X-0.223880X0*%
%ADD20HorizOval,3.000000X-0.223880X0.447077X0.223880X-0.447077X0*%
%ADD21HorizOval,3.000000X0.394005X0.307831X-0.394005X-0.307831X0*%
%ADD22HorizOval,3.000000X0.447077X0.223880X-0.447077X-0.223880X0*%
G04 APERTURE END LIST*
D10*
X82837419Y-113386665D02*
X82837419Y-112767618D01*
X82837419Y-112767618D02*
X83218371Y-113100951D01*
X83218371Y-113100951D02*
X83218371Y-112958094D01*
X83218371Y-112958094D02*
X83265990Y-112862856D01*
X83265990Y-112862856D02*
X83313609Y-112815237D01*
X83313609Y-112815237D02*
X83408847Y-112767618D01*
X83408847Y-112767618D02*
X83646942Y-112767618D01*
X83646942Y-112767618D02*
X83742180Y-112815237D01*
X83742180Y-112815237D02*
X83789800Y-112862856D01*
X83789800Y-112862856D02*
X83837419Y-112958094D01*
X83837419Y-112958094D02*
X83837419Y-113243808D01*
X83837419Y-113243808D02*
X83789800Y-113339046D01*
X83789800Y-113339046D02*
X83742180Y-113386665D01*
X83170752Y-111910475D02*
X83837419Y-111910475D01*
X82789800Y-112148570D02*
X83504085Y-112386665D01*
X83504085Y-112386665D02*
X83504085Y-111767618D01*
X83742180Y-111386665D02*
X83789800Y-111339046D01*
X83789800Y-111339046D02*
X83837419Y-111386665D01*
X83837419Y-111386665D02*
X83789800Y-111434284D01*
X83789800Y-111434284D02*
X83742180Y-111386665D01*
X83742180Y-111386665D02*
X83837419Y-111386665D01*
X83170752Y-110481904D02*
X83837419Y-110481904D01*
X82789800Y-110719999D02*
X83504085Y-110958094D01*
X83504085Y-110958094D02*
X83504085Y-110339047D01*
X82837419Y-109767618D02*
X82837419Y-109672380D01*
X82837419Y-109672380D02*
X82885038Y-109577142D01*
X82885038Y-109577142D02*
X82932657Y-109529523D01*
X82932657Y-109529523D02*
X83027895Y-109481904D01*
X83027895Y-109481904D02*
X83218371Y-109434285D01*
X83218371Y-109434285D02*
X83456466Y-109434285D01*
X83456466Y-109434285D02*
X83646942Y-109481904D01*
X83646942Y-109481904D02*
X83742180Y-109529523D01*
X83742180Y-109529523D02*
X83789800Y-109577142D01*
X83789800Y-109577142D02*
X83837419Y-109672380D01*
X83837419Y-109672380D02*
X83837419Y-109767618D01*
X83837419Y-109767618D02*
X83789800Y-109862856D01*
X83789800Y-109862856D02*
X83742180Y-109910475D01*
X83742180Y-109910475D02*
X83646942Y-109958094D01*
X83646942Y-109958094D02*
X83456466Y-110005713D01*
X83456466Y-110005713D02*
X83218371Y-110005713D01*
X83218371Y-110005713D02*
X83027895Y-109958094D01*
X83027895Y-109958094D02*
X82932657Y-109910475D01*
X82932657Y-109910475D02*
X82885038Y-109862856D01*
X82885038Y-109862856D02*
X82837419Y-109767618D01*
X82837419Y-108815237D02*
X82837419Y-108719999D01*
X82837419Y-108719999D02*
X82885038Y-108624761D01*
X82885038Y-108624761D02*
X82932657Y-108577142D01*
X82932657Y-108577142D02*
X83027895Y-108529523D01*
X83027895Y-108529523D02*
X83218371Y-108481904D01*
X83218371Y-108481904D02*
X83456466Y-108481904D01*
X83456466Y-108481904D02*
X83646942Y-108529523D01*
X83646942Y-108529523D02*
X83742180Y-108577142D01*
X83742180Y-108577142D02*
X83789800Y-108624761D01*
X83789800Y-108624761D02*
X83837419Y-108719999D01*
X83837419Y-108719999D02*
X83837419Y-108815237D01*
X83837419Y-108815237D02*
X83789800Y-108910475D01*
X83789800Y-108910475D02*
X83742180Y-108958094D01*
X83742180Y-108958094D02*
X83646942Y-109005713D01*
X83646942Y-109005713D02*
X83456466Y-109053332D01*
X83456466Y-109053332D02*
X83218371Y-109053332D01*
X83218371Y-109053332D02*
X83027895Y-109005713D01*
X83027895Y-109005713D02*
X82932657Y-108958094D01*
X82932657Y-108958094D02*
X82885038Y-108910475D01*
X82885038Y-108910475D02*
X82837419Y-108815237D01*
X82837419Y-107862856D02*
X82837419Y-107767618D01*
X82837419Y-107767618D02*
X82885038Y-107672380D01*
X82885038Y-107672380D02*
X82932657Y-107624761D01*
X82932657Y-107624761D02*
X83027895Y-107577142D01*
X83027895Y-107577142D02*
X83218371Y-107529523D01*
X83218371Y-107529523D02*
X83456466Y-107529523D01*
X83456466Y-107529523D02*
X83646942Y-107577142D01*
X83646942Y-107577142D02*
X83742180Y-107624761D01*
X83742180Y-107624761D02*
X83789800Y-107672380D01*
X83789800Y-107672380D02*
X83837419Y-107767618D01*
X83837419Y-107767618D02*
X83837419Y-107862856D01*
X83837419Y-107862856D02*
X83789800Y-107958094D01*
X83789800Y-107958094D02*
X83742180Y-108005713D01*
X83742180Y-108005713D02*
X83646942Y-108053332D01*
X83646942Y-108053332D02*
X83456466Y-108100951D01*
X83456466Y-108100951D02*
X83218371Y-108100951D01*
X83218371Y-108100951D02*
X83027895Y-108053332D01*
X83027895Y-108053332D02*
X82932657Y-108005713D01*
X82932657Y-108005713D02*
X82885038Y-107958094D01*
X82885038Y-107958094D02*
X82837419Y-107862856D01*
X83837419Y-106339046D02*
X83170752Y-106339046D01*
X83265990Y-106339046D02*
X83218371Y-106291427D01*
X83218371Y-106291427D02*
X83170752Y-106196189D01*
X83170752Y-106196189D02*
X83170752Y-106053332D01*
X83170752Y-106053332D02*
X83218371Y-105958094D01*
X83218371Y-105958094D02*
X83313609Y-105910475D01*
X83313609Y-105910475D02*
X83837419Y-105910475D01*
X83313609Y-105910475D02*
X83218371Y-105862856D01*
X83218371Y-105862856D02*
X83170752Y-105767618D01*
X83170752Y-105767618D02*
X83170752Y-105624761D01*
X83170752Y-105624761D02*
X83218371Y-105529522D01*
X83218371Y-105529522D02*
X83313609Y-105481903D01*
X83313609Y-105481903D02*
X83837419Y-105481903D01*
X83837419Y-105005713D02*
X83170752Y-105005713D01*
X83265990Y-105005713D02*
X83218371Y-104958094D01*
X83218371Y-104958094D02*
X83170752Y-104862856D01*
X83170752Y-104862856D02*
X83170752Y-104719999D01*
X83170752Y-104719999D02*
X83218371Y-104624761D01*
X83218371Y-104624761D02*
X83313609Y-104577142D01*
X83313609Y-104577142D02*
X83837419Y-104577142D01*
X83313609Y-104577142D02*
X83218371Y-104529523D01*
X83218371Y-104529523D02*
X83170752Y-104434285D01*
X83170752Y-104434285D02*
X83170752Y-104291428D01*
X83170752Y-104291428D02*
X83218371Y-104196189D01*
X83218371Y-104196189D02*
X83313609Y-104148570D01*
X83313609Y-104148570D02*
X83837419Y-104148570D01*
X83980000Y-125920000D02*
X83893580Y-125920000D01*
X83980000Y-91520000D02*
X83893580Y-91520000D01*
X84480000Y-125920000D02*
X84480000Y-91520000D01*
X84480000Y-125920000D02*
X84480000Y-91520000D01*
X84480000Y-125920000D02*
X83893579Y-124793496D01*
X84480000Y-125920000D02*
X85066421Y-124793496D01*
X84480000Y-91520000D02*
X85066421Y-92646504D01*
X84480000Y-91520000D02*
X83893579Y-92646504D01*
X78911265Y-141055731D02*
X78911265Y-140865255D01*
X78911265Y-140865255D02*
X78863646Y-140770017D01*
X78863646Y-140770017D02*
X78816026Y-140722398D01*
X78816026Y-140722398D02*
X78673169Y-140627160D01*
X78673169Y-140627160D02*
X78482693Y-140579541D01*
X78482693Y-140579541D02*
X78101741Y-140579541D01*
X78101741Y-140579541D02*
X78006503Y-140627160D01*
X78006503Y-140627160D02*
X77958884Y-140674779D01*
X77958884Y-140674779D02*
X77911265Y-140770017D01*
X77911265Y-140770017D02*
X77911265Y-140960493D01*
X77911265Y-140960493D02*
X77958884Y-141055731D01*
X77958884Y-141055731D02*
X78006503Y-141103350D01*
X78006503Y-141103350D02*
X78101741Y-141150969D01*
X78101741Y-141150969D02*
X78339836Y-141150969D01*
X78339836Y-141150969D02*
X78435074Y-141103350D01*
X78435074Y-141103350D02*
X78482693Y-141055731D01*
X78482693Y-141055731D02*
X78530312Y-140960493D01*
X78530312Y-140960493D02*
X78530312Y-140770017D01*
X78530312Y-140770017D02*
X78482693Y-140674779D01*
X78482693Y-140674779D02*
X78435074Y-140627160D01*
X78435074Y-140627160D02*
X78339836Y-140579541D01*
X77911265Y-139960493D02*
X77911265Y-139865255D01*
X77911265Y-139865255D02*
X77958884Y-139770017D01*
X77958884Y-139770017D02*
X78006503Y-139722398D01*
X78006503Y-139722398D02*
X78101741Y-139674779D01*
X78101741Y-139674779D02*
X78292217Y-139627160D01*
X78292217Y-139627160D02*
X78530312Y-139627160D01*
X78530312Y-139627160D02*
X78720788Y-139674779D01*
X78720788Y-139674779D02*
X78816026Y-139722398D01*
X78816026Y-139722398D02*
X78863646Y-139770017D01*
X78863646Y-139770017D02*
X78911265Y-139865255D01*
X78911265Y-139865255D02*
X78911265Y-139960493D01*
X78911265Y-139960493D02*
X78863646Y-140055731D01*
X78863646Y-140055731D02*
X78816026Y-140103350D01*
X78816026Y-140103350D02*
X78720788Y-140150969D01*
X78720788Y-140150969D02*
X78530312Y-140198588D01*
X78530312Y-140198588D02*
X78292217Y-140198588D01*
X78292217Y-140198588D02*
X78101741Y-140150969D01*
X78101741Y-140150969D02*
X78006503Y-140103350D01*
X78006503Y-140103350D02*
X77958884Y-140055731D01*
X77958884Y-140055731D02*
X77911265Y-139960493D01*
X78816026Y-139198588D02*
X78863646Y-139150969D01*
X78863646Y-139150969D02*
X78911265Y-139198588D01*
X78911265Y-139198588D02*
X78863646Y-139246207D01*
X78863646Y-139246207D02*
X78816026Y-139198588D01*
X78816026Y-139198588D02*
X78911265Y-139198588D01*
X77911265Y-138531922D02*
X77911265Y-138436684D01*
X77911265Y-138436684D02*
X77958884Y-138341446D01*
X77958884Y-138341446D02*
X78006503Y-138293827D01*
X78006503Y-138293827D02*
X78101741Y-138246208D01*
X78101741Y-138246208D02*
X78292217Y-138198589D01*
X78292217Y-138198589D02*
X78530312Y-138198589D01*
X78530312Y-138198589D02*
X78720788Y-138246208D01*
X78720788Y-138246208D02*
X78816026Y-138293827D01*
X78816026Y-138293827D02*
X78863646Y-138341446D01*
X78863646Y-138341446D02*
X78911265Y-138436684D01*
X78911265Y-138436684D02*
X78911265Y-138531922D01*
X78911265Y-138531922D02*
X78863646Y-138627160D01*
X78863646Y-138627160D02*
X78816026Y-138674779D01*
X78816026Y-138674779D02*
X78720788Y-138722398D01*
X78720788Y-138722398D02*
X78530312Y-138770017D01*
X78530312Y-138770017D02*
X78292217Y-138770017D01*
X78292217Y-138770017D02*
X78101741Y-138722398D01*
X78101741Y-138722398D02*
X78006503Y-138674779D01*
X78006503Y-138674779D02*
X77958884Y-138627160D01*
X77958884Y-138627160D02*
X77911265Y-138531922D01*
X78006503Y-137817636D02*
X77958884Y-137770017D01*
X77958884Y-137770017D02*
X77911265Y-137674779D01*
X77911265Y-137674779D02*
X77911265Y-137436684D01*
X77911265Y-137436684D02*
X77958884Y-137341446D01*
X77958884Y-137341446D02*
X78006503Y-137293827D01*
X78006503Y-137293827D02*
X78101741Y-137246208D01*
X78101741Y-137246208D02*
X78196979Y-137246208D01*
X78196979Y-137246208D02*
X78339836Y-137293827D01*
X78339836Y-137293827D02*
X78911265Y-137865255D01*
X78911265Y-137865255D02*
X78911265Y-137246208D01*
X77911265Y-136912874D02*
X77911265Y-136293827D01*
X77911265Y-136293827D02*
X78292217Y-136627160D01*
X78292217Y-136627160D02*
X78292217Y-136484303D01*
X78292217Y-136484303D02*
X78339836Y-136389065D01*
X78339836Y-136389065D02*
X78387455Y-136341446D01*
X78387455Y-136341446D02*
X78482693Y-136293827D01*
X78482693Y-136293827D02*
X78720788Y-136293827D01*
X78720788Y-136293827D02*
X78816026Y-136341446D01*
X78816026Y-136341446D02*
X78863646Y-136389065D01*
X78863646Y-136389065D02*
X78911265Y-136484303D01*
X78911265Y-136484303D02*
X78911265Y-136770017D01*
X78911265Y-136770017D02*
X78863646Y-136865255D01*
X78863646Y-136865255D02*
X78816026Y-136912874D01*
X78339836Y-135722398D02*
X78292217Y-135817636D01*
X78292217Y-135817636D02*
X78244598Y-135865255D01*
X78244598Y-135865255D02*
X78149360Y-135912874D01*
X78149360Y-135912874D02*
X78101741Y-135912874D01*
X78101741Y-135912874D02*
X78006503Y-135865255D01*
X78006503Y-135865255D02*
X77958884Y-135817636D01*
X77958884Y-135817636D02*
X77911265Y-135722398D01*
X77911265Y-135722398D02*
X77911265Y-135531922D01*
X77911265Y-135531922D02*
X77958884Y-135436684D01*
X77958884Y-135436684D02*
X78006503Y-135389065D01*
X78006503Y-135389065D02*
X78101741Y-135341446D01*
X78101741Y-135341446D02*
X78149360Y-135341446D01*
X78149360Y-135341446D02*
X78244598Y-135389065D01*
X78244598Y-135389065D02*
X78292217Y-135436684D01*
X78292217Y-135436684D02*
X78339836Y-135531922D01*
X78339836Y-135531922D02*
X78339836Y-135722398D01*
X78339836Y-135722398D02*
X78387455Y-135817636D01*
X78387455Y-135817636D02*
X78435074Y-135865255D01*
X78435074Y-135865255D02*
X78530312Y-135912874D01*
X78530312Y-135912874D02*
X78720788Y-135912874D01*
X78720788Y-135912874D02*
X78816026Y-135865255D01*
X78816026Y-135865255D02*
X78863646Y-135817636D01*
X78863646Y-135817636D02*
X78911265Y-135722398D01*
X78911265Y-135722398D02*
X78911265Y-135531922D01*
X78911265Y-135531922D02*
X78863646Y-135436684D01*
X78863646Y-135436684D02*
X78816026Y-135389065D01*
X78816026Y-135389065D02*
X78720788Y-135341446D01*
X78720788Y-135341446D02*
X78530312Y-135341446D01*
X78530312Y-135341446D02*
X78435074Y-135389065D01*
X78435074Y-135389065D02*
X78387455Y-135436684D01*
X78387455Y-135436684D02*
X78339836Y-135531922D01*
X78911265Y-134150969D02*
X78244598Y-134150969D01*
X78339836Y-134150969D02*
X78292217Y-134103350D01*
X78292217Y-134103350D02*
X78244598Y-134008112D01*
X78244598Y-134008112D02*
X78244598Y-133865255D01*
X78244598Y-133865255D02*
X78292217Y-133770017D01*
X78292217Y-133770017D02*
X78387455Y-133722398D01*
X78387455Y-133722398D02*
X78911265Y-133722398D01*
X78387455Y-133722398D02*
X78292217Y-133674779D01*
X78292217Y-133674779D02*
X78244598Y-133579541D01*
X78244598Y-133579541D02*
X78244598Y-133436684D01*
X78244598Y-133436684D02*
X78292217Y-133341445D01*
X78292217Y-133341445D02*
X78387455Y-133293826D01*
X78387455Y-133293826D02*
X78911265Y-133293826D01*
X78911265Y-132817636D02*
X78244598Y-132817636D01*
X78339836Y-132817636D02*
X78292217Y-132770017D01*
X78292217Y-132770017D02*
X78244598Y-132674779D01*
X78244598Y-132674779D02*
X78244598Y-132531922D01*
X78244598Y-132531922D02*
X78292217Y-132436684D01*
X78292217Y-132436684D02*
X78387455Y-132389065D01*
X78387455Y-132389065D02*
X78911265Y-132389065D01*
X78387455Y-132389065D02*
X78292217Y-132341446D01*
X78292217Y-132341446D02*
X78244598Y-132246208D01*
X78244598Y-132246208D02*
X78244598Y-132103351D01*
X78244598Y-132103351D02*
X78292217Y-132008112D01*
X78292217Y-132008112D02*
X78387455Y-131960493D01*
X78387455Y-131960493D02*
X78911265Y-131960493D01*
X80053846Y-91520000D02*
X80140266Y-91520000D01*
X80053846Y-181543846D02*
X80140266Y-181543846D01*
X79553846Y-91520000D02*
X79553846Y-181543846D01*
X79553846Y-91520000D02*
X79553846Y-181543846D01*
X79553846Y-91520000D02*
X80140267Y-92646504D01*
X79553846Y-91520000D02*
X78967425Y-92646504D01*
X79553846Y-181543846D02*
X78967425Y-180417342D01*
X79553846Y-181543846D02*
X80140267Y-180417342D01*
D11*
X108638095Y-168257200D02*
X108780952Y-168304819D01*
X108780952Y-168304819D02*
X109019047Y-168304819D01*
X109019047Y-168304819D02*
X109114285Y-168257200D01*
X109114285Y-168257200D02*
X109161904Y-168209580D01*
X109161904Y-168209580D02*
X109209523Y-168114342D01*
X109209523Y-168114342D02*
X109209523Y-168019104D01*
X109209523Y-168019104D02*
X109161904Y-167923866D01*
X109161904Y-167923866D02*
X109114285Y-167876247D01*
X109114285Y-167876247D02*
X109019047Y-167828628D01*
X109019047Y-167828628D02*
X108828571Y-167781009D01*
X108828571Y-167781009D02*
X108733333Y-167733390D01*
X108733333Y-167733390D02*
X108685714Y-167685771D01*
X108685714Y-167685771D02*
X108638095Y-167590533D01*
X108638095Y-167590533D02*
X108638095Y-167495295D01*
X108638095Y-167495295D02*
X108685714Y-167400057D01*
X108685714Y-167400057D02*
X108733333Y-167352438D01*
X108733333Y-167352438D02*
X108828571Y-167304819D01*
X108828571Y-167304819D02*
X109066666Y-167304819D01*
X109066666Y-167304819D02*
X109209523Y-167352438D01*
X110161904Y-168304819D02*
X109590476Y-168304819D01*
X109876190Y-168304819D02*
X109876190Y-167304819D01*
X109876190Y-167304819D02*
X109780952Y-167447676D01*
X109780952Y-167447676D02*
X109685714Y-167542914D01*
X109685714Y-167542914D02*
X109590476Y-167590533D01*
X126309580Y-93366666D02*
X126357200Y-93414285D01*
X126357200Y-93414285D02*
X126404819Y-93557142D01*
X126404819Y-93557142D02*
X126404819Y-93652380D01*
X126404819Y-93652380D02*
X126357200Y-93795237D01*
X126357200Y-93795237D02*
X126261961Y-93890475D01*
X126261961Y-93890475D02*
X126166723Y-93938094D01*
X126166723Y-93938094D02*
X125976247Y-93985713D01*
X125976247Y-93985713D02*
X125833390Y-93985713D01*
X125833390Y-93985713D02*
X125642914Y-93938094D01*
X125642914Y-93938094D02*
X125547676Y-93890475D01*
X125547676Y-93890475D02*
X125452438Y-93795237D01*
X125452438Y-93795237D02*
X125404819Y-93652380D01*
X125404819Y-93652380D02*
X125404819Y-93557142D01*
X125404819Y-93557142D02*
X125452438Y-93414285D01*
X125452438Y-93414285D02*
X125500057Y-93366666D01*
X126404819Y-92414285D02*
X126404819Y-92985713D01*
X126404819Y-92699999D02*
X125404819Y-92699999D01*
X125404819Y-92699999D02*
X125547676Y-92795237D01*
X125547676Y-92795237D02*
X125642914Y-92890475D01*
X125642914Y-92890475D02*
X125690533Y-92985713D01*
X130359580Y-109376666D02*
X130407200Y-109424285D01*
X130407200Y-109424285D02*
X130454819Y-109567142D01*
X130454819Y-109567142D02*
X130454819Y-109662380D01*
X130454819Y-109662380D02*
X130407200Y-109805237D01*
X130407200Y-109805237D02*
X130311961Y-109900475D01*
X130311961Y-109900475D02*
X130216723Y-109948094D01*
X130216723Y-109948094D02*
X130026247Y-109995713D01*
X130026247Y-109995713D02*
X129883390Y-109995713D01*
X129883390Y-109995713D02*
X129692914Y-109948094D01*
X129692914Y-109948094D02*
X129597676Y-109900475D01*
X129597676Y-109900475D02*
X129502438Y-109805237D01*
X129502438Y-109805237D02*
X129454819Y-109662380D01*
X129454819Y-109662380D02*
X129454819Y-109567142D01*
X129454819Y-109567142D02*
X129502438Y-109424285D01*
X129502438Y-109424285D02*
X129550057Y-109376666D01*
X129454819Y-108471904D02*
X129454819Y-108948094D01*
X129454819Y-108948094D02*
X129931009Y-108995713D01*
X129931009Y-108995713D02*
X129883390Y-108948094D01*
X129883390Y-108948094D02*
X129835771Y-108852856D01*
X129835771Y-108852856D02*
X129835771Y-108614761D01*
X129835771Y-108614761D02*
X129883390Y-108519523D01*
X129883390Y-108519523D02*
X129931009Y-108471904D01*
X129931009Y-108471904D02*
X130026247Y-108424285D01*
X130026247Y-108424285D02*
X130264342Y-108424285D01*
X130264342Y-108424285D02*
X130359580Y-108471904D01*
X130359580Y-108471904D02*
X130407200Y-108519523D01*
X130407200Y-108519523D02*
X130454819Y-108614761D01*
X130454819Y-108614761D02*
X130454819Y-108852856D01*
X130454819Y-108852856D02*
X130407200Y-108948094D01*
X130407200Y-108948094D02*
X130359580Y-108995713D01*
X89409580Y-121696666D02*
X89457200Y-121744285D01*
X89457200Y-121744285D02*
X89504819Y-121887142D01*
X89504819Y-121887142D02*
X89504819Y-121982380D01*
X89504819Y-121982380D02*
X89457200Y-122125237D01*
X89457200Y-122125237D02*
X89361961Y-122220475D01*
X89361961Y-122220475D02*
X89266723Y-122268094D01*
X89266723Y-122268094D02*
X89076247Y-122315713D01*
X89076247Y-122315713D02*
X88933390Y-122315713D01*
X88933390Y-122315713D02*
X88742914Y-122268094D01*
X88742914Y-122268094D02*
X88647676Y-122220475D01*
X88647676Y-122220475D02*
X88552438Y-122125237D01*
X88552438Y-122125237D02*
X88504819Y-121982380D01*
X88504819Y-121982380D02*
X88504819Y-121887142D01*
X88504819Y-121887142D02*
X88552438Y-121744285D01*
X88552438Y-121744285D02*
X88600057Y-121696666D01*
X88504819Y-120839523D02*
X88504819Y-121029999D01*
X88504819Y-121029999D02*
X88552438Y-121125237D01*
X88552438Y-121125237D02*
X88600057Y-121172856D01*
X88600057Y-121172856D02*
X88742914Y-121268094D01*
X88742914Y-121268094D02*
X88933390Y-121315713D01*
X88933390Y-121315713D02*
X89314342Y-121315713D01*
X89314342Y-121315713D02*
X89409580Y-121268094D01*
X89409580Y-121268094D02*
X89457200Y-121220475D01*
X89457200Y-121220475D02*
X89504819Y-121125237D01*
X89504819Y-121125237D02*
X89504819Y-120934761D01*
X89504819Y-120934761D02*
X89457200Y-120839523D01*
X89457200Y-120839523D02*
X89409580Y-120791904D01*
X89409580Y-120791904D02*
X89314342Y-120744285D01*
X89314342Y-120744285D02*
X89076247Y-120744285D01*
X89076247Y-120744285D02*
X88981009Y-120791904D01*
X88981009Y-120791904D02*
X88933390Y-120839523D01*
X88933390Y-120839523D02*
X88885771Y-120934761D01*
X88885771Y-120934761D02*
X88885771Y-121125237D01*
X88885771Y-121125237D02*
X88933390Y-121220475D01*
X88933390Y-121220475D02*
X88981009Y-121268094D01*
X88981009Y-121268094D02*
X89076247Y-121315713D01*
X130873333Y-143599580D02*
X130825714Y-143647200D01*
X130825714Y-143647200D02*
X130682857Y-143694819D01*
X130682857Y-143694819D02*
X130587619Y-143694819D01*
X130587619Y-143694819D02*
X130444762Y-143647200D01*
X130444762Y-143647200D02*
X130349524Y-143551961D01*
X130349524Y-143551961D02*
X130301905Y-143456723D01*
X130301905Y-143456723D02*
X130254286Y-143266247D01*
X130254286Y-143266247D02*
X130254286Y-143123390D01*
X130254286Y-143123390D02*
X130301905Y-142932914D01*
X130301905Y-142932914D02*
X130349524Y-142837676D01*
X130349524Y-142837676D02*
X130444762Y-142742438D01*
X130444762Y-142742438D02*
X130587619Y-142694819D01*
X130587619Y-142694819D02*
X130682857Y-142694819D01*
X130682857Y-142694819D02*
X130825714Y-142742438D01*
X130825714Y-142742438D02*
X130873333Y-142790057D01*
X131254286Y-142790057D02*
X131301905Y-142742438D01*
X131301905Y-142742438D02*
X131397143Y-142694819D01*
X131397143Y-142694819D02*
X131635238Y-142694819D01*
X131635238Y-142694819D02*
X131730476Y-142742438D01*
X131730476Y-142742438D02*
X131778095Y-142790057D01*
X131778095Y-142790057D02*
X131825714Y-142885295D01*
X131825714Y-142885295D02*
X131825714Y-142980533D01*
X131825714Y-142980533D02*
X131778095Y-143123390D01*
X131778095Y-143123390D02*
X131206667Y-143694819D01*
X131206667Y-143694819D02*
X131825714Y-143694819D01*
X121604819Y-146321904D02*
X120604819Y-146321904D01*
X120604819Y-146321904D02*
X121604819Y-145750476D01*
X121604819Y-145750476D02*
X120604819Y-145750476D01*
X121604819Y-144750476D02*
X121604819Y-145321904D01*
X121604819Y-145036190D02*
X120604819Y-145036190D01*
X120604819Y-145036190D02*
X120747676Y-145131428D01*
X120747676Y-145131428D02*
X120842914Y-145226666D01*
X120842914Y-145226666D02*
X120890533Y-145321904D01*
X95654819Y-156366666D02*
X95178628Y-156699999D01*
X95654819Y-156938094D02*
X94654819Y-156938094D01*
X94654819Y-156938094D02*
X94654819Y-156557142D01*
X94654819Y-156557142D02*
X94702438Y-156461904D01*
X94702438Y-156461904D02*
X94750057Y-156414285D01*
X94750057Y-156414285D02*
X94845295Y-156366666D01*
X94845295Y-156366666D02*
X94988152Y-156366666D01*
X94988152Y-156366666D02*
X95083390Y-156414285D01*
X95083390Y-156414285D02*
X95131009Y-156461904D01*
X95131009Y-156461904D02*
X95178628Y-156557142D01*
X95178628Y-156557142D02*
X95178628Y-156938094D01*
X95654819Y-155414285D02*
X95654819Y-155985713D01*
X95654819Y-155699999D02*
X94654819Y-155699999D01*
X94654819Y-155699999D02*
X94797676Y-155795237D01*
X94797676Y-155795237D02*
X94892914Y-155890475D01*
X94892914Y-155890475D02*
X94940533Y-155985713D01*
X95034819Y-114351904D02*
X95844342Y-114351904D01*
X95844342Y-114351904D02*
X95939580Y-114304285D01*
X95939580Y-114304285D02*
X95987200Y-114256666D01*
X95987200Y-114256666D02*
X96034819Y-114161428D01*
X96034819Y-114161428D02*
X96034819Y-113970952D01*
X96034819Y-113970952D02*
X95987200Y-113875714D01*
X95987200Y-113875714D02*
X95939580Y-113828095D01*
X95939580Y-113828095D02*
X95844342Y-113780476D01*
X95844342Y-113780476D02*
X95034819Y-113780476D01*
X95130057Y-113351904D02*
X95082438Y-113304285D01*
X95082438Y-113304285D02*
X95034819Y-113209047D01*
X95034819Y-113209047D02*
X95034819Y-112970952D01*
X95034819Y-112970952D02*
X95082438Y-112875714D01*
X95082438Y-112875714D02*
X95130057Y-112828095D01*
X95130057Y-112828095D02*
X95225295Y-112780476D01*
X95225295Y-112780476D02*
X95320533Y-112780476D01*
X95320533Y-112780476D02*
X95463390Y-112828095D01*
X95463390Y-112828095D02*
X96034819Y-113399523D01*
X96034819Y-113399523D02*
X96034819Y-112780476D01*
X99023333Y-122629580D02*
X98975714Y-122677200D01*
X98975714Y-122677200D02*
X98832857Y-122724819D01*
X98832857Y-122724819D02*
X98737619Y-122724819D01*
X98737619Y-122724819D02*
X98594762Y-122677200D01*
X98594762Y-122677200D02*
X98499524Y-122581961D01*
X98499524Y-122581961D02*
X98451905Y-122486723D01*
X98451905Y-122486723D02*
X98404286Y-122296247D01*
X98404286Y-122296247D02*
X98404286Y-122153390D01*
X98404286Y-122153390D02*
X98451905Y-121962914D01*
X98451905Y-121962914D02*
X98499524Y-121867676D01*
X98499524Y-121867676D02*
X98594762Y-121772438D01*
X98594762Y-121772438D02*
X98737619Y-121724819D01*
X98737619Y-121724819D02*
X98832857Y-121724819D01*
X98832857Y-121724819D02*
X98975714Y-121772438D01*
X98975714Y-121772438D02*
X99023333Y-121820057D01*
X99356667Y-121724819D02*
X100023333Y-121724819D01*
X100023333Y-121724819D02*
X99594762Y-122724819D01*
X95619580Y-100496666D02*
X95667200Y-100544285D01*
X95667200Y-100544285D02*
X95714819Y-100687142D01*
X95714819Y-100687142D02*
X95714819Y-100782380D01*
X95714819Y-100782380D02*
X95667200Y-100925237D01*
X95667200Y-100925237D02*
X95571961Y-101020475D01*
X95571961Y-101020475D02*
X95476723Y-101068094D01*
X95476723Y-101068094D02*
X95286247Y-101115713D01*
X95286247Y-101115713D02*
X95143390Y-101115713D01*
X95143390Y-101115713D02*
X94952914Y-101068094D01*
X94952914Y-101068094D02*
X94857676Y-101020475D01*
X94857676Y-101020475D02*
X94762438Y-100925237D01*
X94762438Y-100925237D02*
X94714819Y-100782380D01*
X94714819Y-100782380D02*
X94714819Y-100687142D01*
X94714819Y-100687142D02*
X94762438Y-100544285D01*
X94762438Y-100544285D02*
X94810057Y-100496666D01*
X94714819Y-100163332D02*
X94714819Y-99544285D01*
X94714819Y-99544285D02*
X95095771Y-99877618D01*
X95095771Y-99877618D02*
X95095771Y-99734761D01*
X95095771Y-99734761D02*
X95143390Y-99639523D01*
X95143390Y-99639523D02*
X95191009Y-99591904D01*
X95191009Y-99591904D02*
X95286247Y-99544285D01*
X95286247Y-99544285D02*
X95524342Y-99544285D01*
X95524342Y-99544285D02*
X95619580Y-99591904D01*
X95619580Y-99591904D02*
X95667200Y-99639523D01*
X95667200Y-99639523D02*
X95714819Y-99734761D01*
X95714819Y-99734761D02*
X95714819Y-100020475D01*
X95714819Y-100020475D02*
X95667200Y-100115713D01*
X95667200Y-100115713D02*
X95619580Y-100163332D01*
X113735180Y-99518095D02*
X112925657Y-99518095D01*
X112925657Y-99518095D02*
X112830419Y-99565714D01*
X112830419Y-99565714D02*
X112782800Y-99613333D01*
X112782800Y-99613333D02*
X112735180Y-99708571D01*
X112735180Y-99708571D02*
X112735180Y-99899047D01*
X112735180Y-99899047D02*
X112782800Y-99994285D01*
X112782800Y-99994285D02*
X112830419Y-100041904D01*
X112830419Y-100041904D02*
X112925657Y-100089523D01*
X112925657Y-100089523D02*
X113735180Y-100089523D01*
X112735180Y-101089523D02*
X112735180Y-100518095D01*
X112735180Y-100803809D02*
X113735180Y-100803809D01*
X113735180Y-100803809D02*
X113592323Y-100708571D01*
X113592323Y-100708571D02*
X113497085Y-100613333D01*
X113497085Y-100613333D02*
X113449466Y-100518095D01*
X87439580Y-100526666D02*
X87487200Y-100574285D01*
X87487200Y-100574285D02*
X87534819Y-100717142D01*
X87534819Y-100717142D02*
X87534819Y-100812380D01*
X87534819Y-100812380D02*
X87487200Y-100955237D01*
X87487200Y-100955237D02*
X87391961Y-101050475D01*
X87391961Y-101050475D02*
X87296723Y-101098094D01*
X87296723Y-101098094D02*
X87106247Y-101145713D01*
X87106247Y-101145713D02*
X86963390Y-101145713D01*
X86963390Y-101145713D02*
X86772914Y-101098094D01*
X86772914Y-101098094D02*
X86677676Y-101050475D01*
X86677676Y-101050475D02*
X86582438Y-100955237D01*
X86582438Y-100955237D02*
X86534819Y-100812380D01*
X86534819Y-100812380D02*
X86534819Y-100717142D01*
X86534819Y-100717142D02*
X86582438Y-100574285D01*
X86582438Y-100574285D02*
X86630057Y-100526666D01*
X86868152Y-99669523D02*
X87534819Y-99669523D01*
X86487200Y-99907618D02*
X87201485Y-100145713D01*
X87201485Y-100145713D02*
X87201485Y-99526666D01*
%TO.C,S1*%
D12*
X99360104Y-158220052D02*
X118360000Y-158220052D01*
X118360000Y-180229948D01*
X99360104Y-180229948D01*
X99360104Y-158220052D01*
%TO.C,C1*%
X124910000Y-100664888D02*
X123381000Y-100664888D01*
X124910000Y-100704888D02*
X123385000Y-100704888D01*
X124910000Y-100744888D02*
X123389000Y-100744888D01*
X124910000Y-100784888D02*
X123394000Y-100784888D01*
X124910000Y-100824888D02*
X123400000Y-100824888D01*
X124910000Y-100864888D02*
X123407000Y-100864888D01*
X124910000Y-100904888D02*
X123414000Y-100904888D01*
X124910000Y-100944888D02*
X123422000Y-100944888D01*
X124910000Y-100984888D02*
X123430000Y-100984888D01*
X124910000Y-101024888D02*
X123439000Y-101024888D01*
X124910000Y-101064888D02*
X123449000Y-101064888D01*
X124910000Y-101104888D02*
X123459000Y-101104888D01*
X124910000Y-101145888D02*
X123470000Y-101145888D01*
X124910000Y-101185888D02*
X123482000Y-101185888D01*
X124910000Y-101225888D02*
X123495000Y-101225888D01*
X124910000Y-101265888D02*
X123508000Y-101265888D01*
X124910000Y-101305888D02*
X123522000Y-101305888D01*
X124910000Y-101345888D02*
X123536000Y-101345888D01*
X124910000Y-101385888D02*
X123552000Y-101385888D01*
X124910000Y-101425888D02*
X123568000Y-101425888D01*
X124910000Y-101465888D02*
X123585000Y-101465888D01*
X124910000Y-101505888D02*
X123602000Y-101505888D01*
X124910000Y-101545888D02*
X123621000Y-101545888D01*
X124910000Y-101585888D02*
X123640000Y-101585888D01*
X124910000Y-101625888D02*
X123660000Y-101625888D01*
X124910000Y-101665888D02*
X123682000Y-101665888D01*
X124910000Y-101705888D02*
X123703000Y-101705888D01*
X124910000Y-101745888D02*
X123726000Y-101745888D01*
X124910000Y-101785888D02*
X123750000Y-101785888D01*
X124910000Y-101825888D02*
X123775000Y-101825888D01*
X124910000Y-101865888D02*
X123801000Y-101865888D01*
X124910000Y-101905888D02*
X123828000Y-101905888D01*
X124910000Y-101945888D02*
X123855000Y-101945888D01*
X124910000Y-101985888D02*
X123885000Y-101985888D01*
X124910000Y-102025888D02*
X123915000Y-102025888D01*
X124910000Y-102065888D02*
X123946000Y-102065888D01*
X124910000Y-102105888D02*
X123979000Y-102105888D01*
X124910000Y-102145888D02*
X124013000Y-102145888D01*
X124910000Y-102185888D02*
X124049000Y-102185888D01*
X124910000Y-102225888D02*
X124086000Y-102225888D01*
X124910000Y-102265888D02*
X124124000Y-102265888D01*
X124910000Y-102305888D02*
X124165000Y-102305888D01*
X124910000Y-102345888D02*
X124207000Y-102345888D01*
X124910000Y-102385888D02*
X124251000Y-102385888D01*
X124910000Y-102425888D02*
X124297000Y-102425888D01*
X124910000Y-102465888D02*
X124345000Y-102465888D01*
X124910000Y-102505888D02*
X124396000Y-102505888D01*
X124910000Y-102545888D02*
X124450000Y-102545888D01*
X124910000Y-102585888D02*
X124507000Y-102585888D01*
X124910000Y-102625888D02*
X124567000Y-102625888D01*
X124910000Y-102665888D02*
X124631000Y-102665888D01*
X124910000Y-102705888D02*
X124699000Y-102705888D01*
X126234000Y-103025888D02*
X125666000Y-103025888D01*
X126468000Y-102985888D02*
X125432000Y-102985888D01*
X126627000Y-102945888D02*
X125273000Y-102945888D01*
X126755000Y-102905888D02*
X125145000Y-102905888D01*
X126865000Y-102865888D02*
X125035000Y-102865888D01*
X126961000Y-102825888D02*
X124939000Y-102825888D01*
X127048000Y-102785888D02*
X124852000Y-102785888D01*
X127128000Y-102745888D02*
X124772000Y-102745888D01*
X127201000Y-102705888D02*
X126990000Y-102705888D01*
X127269000Y-102665888D02*
X126990000Y-102665888D01*
X127333000Y-102625888D02*
X126990000Y-102625888D01*
X127393000Y-102585888D02*
X126990000Y-102585888D01*
X127425000Y-97620113D02*
X127425000Y-98120113D01*
X127450000Y-102545888D02*
X126990000Y-102545888D01*
X127504000Y-102505888D02*
X126990000Y-102505888D01*
X127555000Y-102465888D02*
X126990000Y-102465888D01*
X127603000Y-102425888D02*
X126990000Y-102425888D01*
X127649000Y-102385888D02*
X126990000Y-102385888D01*
X127675000Y-97870113D02*
X127175000Y-97870113D01*
X127693000Y-102345888D02*
X126990000Y-102345888D01*
X127735000Y-102305888D02*
X126990000Y-102305888D01*
X127776000Y-102265888D02*
X126990000Y-102265888D01*
X127814000Y-102225888D02*
X126990000Y-102225888D01*
X127851000Y-102185888D02*
X126990000Y-102185888D01*
X127887000Y-102145888D02*
X126990000Y-102145888D01*
X127921000Y-102105888D02*
X126990000Y-102105888D01*
X127954000Y-102065888D02*
X126990000Y-102065888D01*
X127985000Y-102025888D02*
X126990000Y-102025888D01*
X128015000Y-101985888D02*
X126990000Y-101985888D01*
X128045000Y-101945888D02*
X126990000Y-101945888D01*
X128072000Y-101905888D02*
X126990000Y-101905888D01*
X128099000Y-101865888D02*
X126990000Y-101865888D01*
X128125000Y-101825888D02*
X126990000Y-101825888D01*
X128150000Y-101785888D02*
X126990000Y-101785888D01*
X128174000Y-101745888D02*
X126990000Y-101745888D01*
X128197000Y-101705888D02*
X126990000Y-101705888D01*
X128218000Y-101665888D02*
X126990000Y-101665888D01*
X128240000Y-101625888D02*
X126990000Y-101625888D01*
X128260000Y-101585888D02*
X126990000Y-101585888D01*
X128279000Y-101545888D02*
X126990000Y-101545888D01*
X128298000Y-101505888D02*
X126990000Y-101505888D01*
X128315000Y-101465888D02*
X126990000Y-101465888D01*
X128332000Y-101425888D02*
X126990000Y-101425888D01*
X128348000Y-101385888D02*
X126990000Y-101385888D01*
X128364000Y-101345888D02*
X126990000Y-101345888D01*
X128378000Y-101305888D02*
X126990000Y-101305888D01*
X128392000Y-101265888D02*
X126990000Y-101265888D01*
X128405000Y-101225888D02*
X126990000Y-101225888D01*
X128418000Y-101185888D02*
X126990000Y-101185888D01*
X128430000Y-101145888D02*
X126990000Y-101145888D01*
X128441000Y-101104888D02*
X126990000Y-101104888D01*
X128451000Y-101064888D02*
X126990000Y-101064888D01*
X128461000Y-101024888D02*
X126990000Y-101024888D01*
X128470000Y-100984888D02*
X126990000Y-100984888D01*
X128478000Y-100944888D02*
X126990000Y-100944888D01*
X128486000Y-100904888D02*
X126990000Y-100904888D01*
X128493000Y-100864888D02*
X126990000Y-100864888D01*
X128500000Y-100824888D02*
X126990000Y-100824888D01*
X128506000Y-100784888D02*
X126990000Y-100784888D01*
X128511000Y-100744888D02*
X126990000Y-100744888D01*
X128515000Y-100704888D02*
X126990000Y-100704888D01*
X128519000Y-100664888D02*
X126990000Y-100664888D01*
X128523000Y-100624888D02*
X123377000Y-100624888D01*
X128526000Y-100584888D02*
X123374000Y-100584888D01*
X128528000Y-100544888D02*
X123372000Y-100544888D01*
X128529000Y-100504888D02*
X123371000Y-100504888D01*
X128530000Y-100424888D02*
X123370000Y-100424888D01*
X128530000Y-100464888D02*
X123370000Y-100464888D01*
X128570000Y-100424888D02*
G75*
G02*
X123330000Y-100424888I-2620000J0D01*
G01*
X123330000Y-100424888D02*
G75*
G02*
X128570000Y-100424888I2620000J0D01*
G01*
%TO.C,J2*%
X130960000Y-124675000D02*
X132290000Y-124675000D01*
X130960000Y-126005000D02*
X130960000Y-124675000D01*
X130960000Y-127275000D02*
X130960000Y-137495000D01*
X130960000Y-127275000D02*
X133620000Y-127275000D01*
X130960000Y-137495000D02*
X133620000Y-137495000D01*
X133620000Y-127275000D02*
X133620000Y-137495000D01*
%TO.C,C5*%
X129080000Y-100511000D02*
X129080000Y-101769000D01*
X130920000Y-100511000D02*
X130920000Y-101769000D01*
%TO.C,C6*%
X86140000Y-122109000D02*
X86140000Y-120851000D01*
X87980000Y-122109000D02*
X87980000Y-120851000D01*
%TO.C,J1*%
X124730000Y-107810000D02*
X126060000Y-107810000D01*
X124730000Y-109140000D02*
X124730000Y-107810000D01*
X124730000Y-110410000D02*
X124730000Y-120630000D01*
X124730000Y-110410000D02*
X127390000Y-110410000D01*
X124730000Y-120630000D02*
X127390000Y-120630000D01*
X127390000Y-110410000D02*
X127390000Y-120630000D01*
%TO.C,C2*%
X131669000Y-140270000D02*
X130411000Y-140270000D01*
X131669000Y-142110000D02*
X130411000Y-142110000D01*
D11*
%TO.C,N1*%
X88900000Y-145560000D02*
X95400000Y-145560000D01*
X92100000Y-134560000D02*
X100900000Y-134560000D01*
X109400000Y-134560000D02*
X100900000Y-134560000D01*
X109400000Y-134560000D02*
X117900000Y-134560000D01*
X109400000Y-156560000D02*
X100900000Y-156560000D01*
X109400000Y-156560000D02*
X117900000Y-156560000D01*
X126700000Y-156560000D02*
X117900000Y-156560000D01*
X129900000Y-145560000D02*
X123400000Y-145560000D01*
X88900000Y-145560000D02*
G75*
G02*
X92053040Y-134636036I20499991J3D01*
G01*
X100900000Y-156560000D02*
G75*
G02*
X100916997Y-134546887I8499999J11000000D01*
G01*
X117900000Y-134560000D02*
G75*
G02*
X117883003Y-156573113I-8500000J-11000000D01*
G01*
X129900000Y-145560000D02*
G75*
G02*
X126727868Y-156514223I-20500000J0D01*
G01*
X111900000Y-145560000D02*
G75*
G02*
X106900000Y-145560000I-2500000J0D01*
G01*
X106900000Y-145560000D02*
G75*
G02*
X111900000Y-145560000I2500000J0D01*
G01*
D12*
%TO.C,R1*%
X89460000Y-150130000D02*
X89460000Y-162270000D01*
X89460000Y-162270000D02*
X94200000Y-162270000D01*
X91830000Y-150020000D02*
X91830000Y-150130000D01*
X91830000Y-162380000D02*
X91830000Y-162270000D01*
X94200000Y-150130000D02*
X89460000Y-150130000D01*
X94200000Y-162270000D02*
X94200000Y-150130000D01*
%TO.C,J4*%
X128420000Y-124670000D02*
X129750000Y-124670000D01*
X128420000Y-126000000D02*
X128420000Y-124670000D01*
X128420000Y-127270000D02*
X128420000Y-137490000D01*
X128420000Y-127270000D02*
X131080000Y-127270000D01*
X128420000Y-137490000D02*
X131080000Y-137490000D01*
X131080000Y-127270000D02*
X131080000Y-137490000D01*
%TO.C,U2*%
X96580000Y-111340000D02*
X96580000Y-112590000D01*
X96580000Y-114590000D02*
X96580000Y-115840000D01*
X96580000Y-115840000D02*
X122100000Y-115840000D01*
X122100000Y-111340000D02*
X96580000Y-111340000D01*
X122100000Y-115840000D02*
X122100000Y-111340000D01*
X96580000Y-112590000D02*
G75*
G02*
X96580000Y-114590000I0J-1000000D01*
G01*
%TO.C,J5*%
X85700000Y-124620000D02*
X87030000Y-124620000D01*
X85700000Y-125950000D02*
X85700000Y-124620000D01*
X85700000Y-127220000D02*
X85700000Y-137440000D01*
X85700000Y-127220000D02*
X88360000Y-127220000D01*
X85700000Y-137440000D02*
X88360000Y-137440000D01*
X88360000Y-127220000D02*
X88360000Y-137440000D01*
%TO.C,C7*%
X99819000Y-119300000D02*
X98561000Y-119300000D01*
X99819000Y-121140000D02*
X98561000Y-121140000D01*
%TO.C,J3*%
X83150000Y-124590000D02*
X84480000Y-124590000D01*
X83150000Y-125920000D02*
X83150000Y-124590000D01*
X83150000Y-127190000D02*
X83150000Y-137410000D01*
X83150000Y-127190000D02*
X85810000Y-127190000D01*
X83150000Y-137410000D02*
X85810000Y-137410000D01*
X85810000Y-127190000D02*
X85810000Y-137410000D01*
%TO.C,C3*%
X98120000Y-100614888D02*
X96591000Y-100614888D01*
X98120000Y-100654888D02*
X96595000Y-100654888D01*
X98120000Y-100694888D02*
X96599000Y-100694888D01*
X98120000Y-100734888D02*
X96604000Y-100734888D01*
X98120000Y-100774888D02*
X96610000Y-100774888D01*
X98120000Y-100814888D02*
X96617000Y-100814888D01*
X98120000Y-100854888D02*
X96624000Y-100854888D01*
X98120000Y-100894888D02*
X96632000Y-100894888D01*
X98120000Y-100934888D02*
X96640000Y-100934888D01*
X98120000Y-100974888D02*
X96649000Y-100974888D01*
X98120000Y-101014888D02*
X96659000Y-101014888D01*
X98120000Y-101054888D02*
X96669000Y-101054888D01*
X98120000Y-101095888D02*
X96680000Y-101095888D01*
X98120000Y-101135888D02*
X96692000Y-101135888D01*
X98120000Y-101175888D02*
X96705000Y-101175888D01*
X98120000Y-101215888D02*
X96718000Y-101215888D01*
X98120000Y-101255888D02*
X96732000Y-101255888D01*
X98120000Y-101295888D02*
X96746000Y-101295888D01*
X98120000Y-101335888D02*
X96762000Y-101335888D01*
X98120000Y-101375888D02*
X96778000Y-101375888D01*
X98120000Y-101415888D02*
X96795000Y-101415888D01*
X98120000Y-101455888D02*
X96812000Y-101455888D01*
X98120000Y-101495888D02*
X96831000Y-101495888D01*
X98120000Y-101535888D02*
X96850000Y-101535888D01*
X98120000Y-101575888D02*
X96870000Y-101575888D01*
X98120000Y-101615888D02*
X96892000Y-101615888D01*
X98120000Y-101655888D02*
X96913000Y-101655888D01*
X98120000Y-101695888D02*
X96936000Y-101695888D01*
X98120000Y-101735888D02*
X96960000Y-101735888D01*
X98120000Y-101775888D02*
X96985000Y-101775888D01*
X98120000Y-101815888D02*
X97011000Y-101815888D01*
X98120000Y-101855888D02*
X97038000Y-101855888D01*
X98120000Y-101895888D02*
X97065000Y-101895888D01*
X98120000Y-101935888D02*
X97095000Y-101935888D01*
X98120000Y-101975888D02*
X97125000Y-101975888D01*
X98120000Y-102015888D02*
X97156000Y-102015888D01*
X98120000Y-102055888D02*
X97189000Y-102055888D01*
X98120000Y-102095888D02*
X97223000Y-102095888D01*
X98120000Y-102135888D02*
X97259000Y-102135888D01*
X98120000Y-102175888D02*
X97296000Y-102175888D01*
X98120000Y-102215888D02*
X97334000Y-102215888D01*
X98120000Y-102255888D02*
X97375000Y-102255888D01*
X98120000Y-102295888D02*
X97417000Y-102295888D01*
X98120000Y-102335888D02*
X97461000Y-102335888D01*
X98120000Y-102375888D02*
X97507000Y-102375888D01*
X98120000Y-102415888D02*
X97555000Y-102415888D01*
X98120000Y-102455888D02*
X97606000Y-102455888D01*
X98120000Y-102495888D02*
X97660000Y-102495888D01*
X98120000Y-102535888D02*
X97717000Y-102535888D01*
X98120000Y-102575888D02*
X97777000Y-102575888D01*
X98120000Y-102615888D02*
X97841000Y-102615888D01*
X98120000Y-102655888D02*
X97909000Y-102655888D01*
X99444000Y-102975888D02*
X98876000Y-102975888D01*
X99678000Y-102935888D02*
X98642000Y-102935888D01*
X99837000Y-102895888D02*
X98483000Y-102895888D01*
X99965000Y-102855888D02*
X98355000Y-102855888D01*
X100075000Y-102815888D02*
X98245000Y-102815888D01*
X100171000Y-102775888D02*
X98149000Y-102775888D01*
X100258000Y-102735888D02*
X98062000Y-102735888D01*
X100338000Y-102695888D02*
X97982000Y-102695888D01*
X100411000Y-102655888D02*
X100200000Y-102655888D01*
X100479000Y-102615888D02*
X100200000Y-102615888D01*
X100543000Y-102575888D02*
X100200000Y-102575888D01*
X100603000Y-102535888D02*
X100200000Y-102535888D01*
X100635000Y-97570113D02*
X100635000Y-98070113D01*
X100660000Y-102495888D02*
X100200000Y-102495888D01*
X100714000Y-102455888D02*
X100200000Y-102455888D01*
X100765000Y-102415888D02*
X100200000Y-102415888D01*
X100813000Y-102375888D02*
X100200000Y-102375888D01*
X100859000Y-102335888D02*
X100200000Y-102335888D01*
X100885000Y-97820113D02*
X100385000Y-97820113D01*
X100903000Y-102295888D02*
X100200000Y-102295888D01*
X100945000Y-102255888D02*
X100200000Y-102255888D01*
X100986000Y-102215888D02*
X100200000Y-102215888D01*
X101024000Y-102175888D02*
X100200000Y-102175888D01*
X101061000Y-102135888D02*
X100200000Y-102135888D01*
X101097000Y-102095888D02*
X100200000Y-102095888D01*
X101131000Y-102055888D02*
X100200000Y-102055888D01*
X101164000Y-102015888D02*
X100200000Y-102015888D01*
X101195000Y-101975888D02*
X100200000Y-101975888D01*
X101225000Y-101935888D02*
X100200000Y-101935888D01*
X101255000Y-101895888D02*
X100200000Y-101895888D01*
X101282000Y-101855888D02*
X100200000Y-101855888D01*
X101309000Y-101815888D02*
X100200000Y-101815888D01*
X101335000Y-101775888D02*
X100200000Y-101775888D01*
X101360000Y-101735888D02*
X100200000Y-101735888D01*
X101384000Y-101695888D02*
X100200000Y-101695888D01*
X101407000Y-101655888D02*
X100200000Y-101655888D01*
X101428000Y-101615888D02*
X100200000Y-101615888D01*
X101450000Y-101575888D02*
X100200000Y-101575888D01*
X101470000Y-101535888D02*
X100200000Y-101535888D01*
X101489000Y-101495888D02*
X100200000Y-101495888D01*
X101508000Y-101455888D02*
X100200000Y-101455888D01*
X101525000Y-101415888D02*
X100200000Y-101415888D01*
X101542000Y-101375888D02*
X100200000Y-101375888D01*
X101558000Y-101335888D02*
X100200000Y-101335888D01*
X101574000Y-101295888D02*
X100200000Y-101295888D01*
X101588000Y-101255888D02*
X100200000Y-101255888D01*
X101602000Y-101215888D02*
X100200000Y-101215888D01*
X101615000Y-101175888D02*
X100200000Y-101175888D01*
X101628000Y-101135888D02*
X100200000Y-101135888D01*
X101640000Y-101095888D02*
X100200000Y-101095888D01*
X101651000Y-101054888D02*
X100200000Y-101054888D01*
X101661000Y-101014888D02*
X100200000Y-101014888D01*
X101671000Y-100974888D02*
X100200000Y-100974888D01*
X101680000Y-100934888D02*
X100200000Y-100934888D01*
X101688000Y-100894888D02*
X100200000Y-100894888D01*
X101696000Y-100854888D02*
X100200000Y-100854888D01*
X101703000Y-100814888D02*
X100200000Y-100814888D01*
X101710000Y-100774888D02*
X100200000Y-100774888D01*
X101716000Y-100734888D02*
X100200000Y-100734888D01*
X101721000Y-100694888D02*
X100200000Y-100694888D01*
X101725000Y-100654888D02*
X100200000Y-100654888D01*
X101729000Y-100614888D02*
X100200000Y-100614888D01*
X101733000Y-100574888D02*
X96587000Y-100574888D01*
X101736000Y-100534888D02*
X96584000Y-100534888D01*
X101738000Y-100494888D02*
X96582000Y-100494888D01*
X101739000Y-100454888D02*
X96581000Y-100454888D01*
X101740000Y-100374888D02*
X96580000Y-100374888D01*
X101740000Y-100414888D02*
X96580000Y-100414888D01*
X101780000Y-100374888D02*
G75*
G02*
X96540000Y-100374888I-2620000J0D01*
G01*
X96540000Y-100374888D02*
G75*
G02*
X101780000Y-100374888I2620000J0D01*
G01*
%TO.C,U1*%
X122210000Y-93720000D02*
X103210000Y-93720000D01*
X103210000Y-106670000D01*
X122210000Y-106670000D01*
X122210000Y-93720000D01*
%TO.C,C4*%
X88530000Y-99671000D02*
X88530000Y-100929000D01*
X90370000Y-99671000D02*
X90370000Y-100929000D01*
%TD*%
D13*
%TO.C,N1*%
X101400000Y-141560000D03*
D14*
X104900000Y-139810000D03*
D15*
X109400000Y-139810000D03*
D16*
X113900000Y-139810000D03*
D17*
X117400000Y-141560000D03*
D18*
X118400000Y-145560000D03*
D19*
X117400000Y-149560000D03*
D20*
X113900000Y-151310000D03*
D15*
X109400000Y-151310000D03*
D21*
X104900000Y-151310000D03*
D22*
X101400000Y-149560000D03*
D18*
X100400000Y-145560000D03*
%TD*%
M02*
