%TF.GenerationSoftware,KiCad,Pcbnew,8.0.8*%
%TF.CreationDate,2025-03-08T09:49:48-08:00*%
%TF.ProjectId,proto,70726f74-6f2e-46b6-9963-61645f706362,rev?*%
%TF.SameCoordinates,Original*%
%TF.FileFunction,Copper,L4,Bot*%
%TF.FilePolarity,Positive*%
%FSLAX46Y46*%
G04 Gerber Fmt 4.6, Leading zero omitted, Abs format (unit mm)*
G04 Created by KiCad (PCBNEW 8.0.8) date 2025-03-08 09:49:48*
%MOMM*%
%LPD*%
G01*
G04 APERTURE LIST*
G04 Aperture macros list*
%AMHorizOval*
0 Thick line with rounded ends*
0 $1 width*
0 $2 $3 position (X,Y) of the first rounded end (center of the circle)*
0 $4 $5 position (X,Y) of the second rounded end (center of the circle)*
0 Add line between two ends*
20,1,$1,$2,$3,$4,$5,0*
0 Add two circle primitives to create the rounded ends*
1,1,$1,$2,$3*
1,1,$1,$4,$5*%
G04 Aperture macros list end*
%TA.AperFunction,ComponentPad*%
%ADD10R,2.400000X1.600000*%
%TD*%
%TA.AperFunction,ComponentPad*%
%ADD11O,2.400000X1.600000*%
%TD*%
%TA.AperFunction,ComponentPad*%
%ADD12R,1.600000X1.600000*%
%TD*%
%TA.AperFunction,ComponentPad*%
%ADD13C,1.600000*%
%TD*%
%TA.AperFunction,ComponentPad*%
%ADD14R,1.700000X1.700000*%
%TD*%
%TA.AperFunction,ComponentPad*%
%ADD15O,1.700000X1.700000*%
%TD*%
%TA.AperFunction,ComponentPad*%
%ADD16HorizOval,3.000000X-0.447077X-0.223880X0.447077X0.223880X0*%
%TD*%
%TA.AperFunction,ComponentPad*%
%ADD17HorizOval,3.000000X-0.223880X-0.447077X0.223880X0.447077X0*%
%TD*%
%TA.AperFunction,ComponentPad*%
%ADD18O,3.000000X4.000000*%
%TD*%
%TA.AperFunction,ComponentPad*%
%ADD19HorizOval,3.000000X-0.394005X0.307831X0.394005X-0.307831X0*%
%TD*%
%TA.AperFunction,ComponentPad*%
%ADD20HorizOval,3.000000X-0.447077X0.223880X0.447077X-0.223880X0*%
%TD*%
%TA.AperFunction,ComponentPad*%
%ADD21O,4.000000X3.000000*%
%TD*%
%TA.AperFunction,ComponentPad*%
%ADD22HorizOval,3.000000X0.447077X0.223880X-0.447077X-0.223880X0*%
%TD*%
%TA.AperFunction,ComponentPad*%
%ADD23HorizOval,3.000000X0.394005X0.307831X-0.394005X-0.307831X0*%
%TD*%
%TA.AperFunction,ComponentPad*%
%ADD24HorizOval,3.000000X-0.223880X0.447077X0.223880X-0.447077X0*%
%TD*%
%TA.AperFunction,ComponentPad*%
%ADD25HorizOval,3.000000X-0.447077X0.223880X0.447077X-0.223880X0*%
%TD*%
%TA.AperFunction,ComponentPad*%
%ADD26C,2.400000*%
%TD*%
%TA.AperFunction,ComponentPad*%
%ADD27O,2.400000X2.400000*%
%TD*%
%TA.AperFunction,ComponentPad*%
%ADD28R,1.600000X2.400000*%
%TD*%
%TA.AperFunction,ComponentPad*%
%ADD29O,1.600000X2.400000*%
%TD*%
%TA.AperFunction,ViaPad*%
%ADD30C,0.600000*%
%TD*%
%TA.AperFunction,Conductor*%
%ADD31C,0.200000*%
%TD*%
G04 APERTURE END LIST*
D10*
%TO.P,S1,1,HV_OUT*%
%TO.N,Net-(S1-HV_OUT)*%
X101770000Y-162740000D03*
D11*
%TO.P,S1,2,LV_IN*%
%TO.N,Net-(J5-Pin_1)*%
X101770000Y-177980000D03*
%TO.P,S1,3,LGND*%
%TO.N,GND*%
X109390000Y-177980000D03*
%TO.P,S1,4,PGND*%
X109390000Y-162740000D03*
%TO.P,S1,x*%
%TO.N,N/C*%
X101770000Y-165280000D03*
X101770000Y-167820000D03*
X101770000Y-170360000D03*
X101770000Y-172900000D03*
X101770000Y-175440000D03*
X109390000Y-165280000D03*
X109390000Y-167820000D03*
X109390000Y-170360000D03*
X109390000Y-172900000D03*
X109390000Y-175440000D03*
%TD*%
D12*
%TO.P,C1,1*%
%TO.N,Net-(J2-Pin_1)*%
X125950000Y-99174888D03*
D13*
%TO.P,C1,2*%
%TO.N,GND*%
X125950000Y-101674888D03*
%TD*%
D14*
%TO.P,J2,1,Pin_1*%
%TO.N,Net-(J2-Pin_1)*%
X132290000Y-126005000D03*
D15*
%TO.P,J2,2,Pin_2*%
X132290000Y-128545000D03*
%TO.P,J2,3,Pin_3*%
X132290000Y-131085000D03*
%TO.P,J2,4,Pin_4*%
X132290000Y-133625000D03*
%TO.P,J2,5,Pin_5*%
X132290000Y-136165000D03*
%TD*%
D13*
%TO.P,C5,1*%
%TO.N,Net-(J2-Pin_1)*%
X130000000Y-99890000D03*
%TO.P,C5,2*%
%TO.N,GND*%
X130000000Y-102390000D03*
%TD*%
%TO.P,C6,1*%
%TO.N,Net-(J5-Pin_1)*%
X87060000Y-122730000D03*
%TO.P,C6,2*%
%TO.N,GND*%
X87060000Y-120230000D03*
%TD*%
D14*
%TO.P,J1,1,Pin_1*%
%TO.N,Net-(J1-Pin_1)*%
X126060000Y-109140000D03*
D15*
%TO.P,J1,2,Pin_2*%
%TO.N,Net-(J1-Pin_2)*%
X126060000Y-111680000D03*
%TO.P,J1,3,Pin_3*%
%TO.N,Net-(J1-Pin_3)*%
X126060000Y-114220000D03*
%TO.P,J1,4,Pin_4*%
%TO.N,Net-(J1-Pin_4)*%
X126060000Y-116760000D03*
%TO.P,J1,5,Pin_5*%
%TO.N,Net-(J1-Pin_5)*%
X126060000Y-119300000D03*
%TD*%
D13*
%TO.P,C2,1*%
%TO.N,Net-(J2-Pin_1)*%
X132290000Y-141190000D03*
%TO.P,C2,2*%
%TO.N,GND*%
X129790000Y-141190000D03*
%TD*%
D16*
%TO.P,N1,1,A*%
%TO.N,Net-(N1-A)*%
X117400000Y-141560000D03*
D17*
%TO.P,N1,2,D0*%
%TO.N,Net-(N1-D0)*%
X113900000Y-139810000D03*
D18*
%TO.P,N1,3,D9*%
%TO.N,unconnected-(N1-D9-Pad3)*%
X109400000Y-139810000D03*
D19*
%TO.P,N1,4,D8*%
%TO.N,unconnected-(N1-D8-Pad4)*%
X104900000Y-139810000D03*
D20*
%TO.P,N1,5,D7*%
%TO.N,Net-(N1-D7)*%
X101275000Y-141560000D03*
D21*
%TO.P,N1,6,D6*%
%TO.N,Net-(N1-D6)*%
X100150000Y-145560000D03*
D22*
%TO.P,N1,7,D5*%
%TO.N,Net-(N1-D5)*%
X101275000Y-149560000D03*
D23*
%TO.P,N1,8,D4*%
%TO.N,Net-(N1-D4)*%
X104900000Y-151310000D03*
D18*
%TO.P,N1,9,D3*%
%TO.N,Net-(N1-D3)*%
X109400000Y-151310000D03*
D24*
%TO.P,N1,10,D2*%
%TO.N,Net-(N1-D2)*%
X113900000Y-151310000D03*
D25*
%TO.P,N1,11,D1*%
%TO.N,Net-(N1-D1)*%
X117400000Y-149560000D03*
D21*
%TO.P,N1,12,NC*%
%TO.N,unconnected-(N1-NC-Pad12)*%
X118400000Y-145560000D03*
%TD*%
D26*
%TO.P,R1,1*%
%TO.N,Net-(N1-A)*%
X126070000Y-160340000D03*
D27*
%TO.P,R1,2*%
%TO.N,Net-(S1-HV_OUT)*%
X126070000Y-175580000D03*
%TD*%
D14*
%TO.P,J4,1,Pin_1*%
%TO.N,GND*%
X129750000Y-126000000D03*
D15*
%TO.P,J4,2,Pin_2*%
X129750000Y-128540000D03*
%TO.P,J4,3,Pin_3*%
X129750000Y-131080000D03*
%TO.P,J4,4,Pin_4*%
X129750000Y-133620000D03*
%TO.P,J4,5,Pin_5*%
X129750000Y-136160000D03*
%TD*%
D28*
%TO.P,U2,1,PGND*%
%TO.N,GND*%
X97910000Y-117400000D03*
D29*
%TO.P,U2,2,VCC*%
%TO.N,Net-(J5-Pin_1)*%
X100450000Y-117400000D03*
%TO.P,U2,3,SER_IN*%
%TO.N,Net-(J1-Pin_1)*%
X102990000Y-117400000D03*
%TO.P,U2,4,DRAIN0*%
%TO.N,Net-(N1-D0)*%
X105530000Y-117400000D03*
%TO.P,U2,5,DRAIN1*%
%TO.N,Net-(N1-D1)*%
X108070000Y-117400000D03*
%TO.P,U2,6,DRAIN2*%
%TO.N,Net-(N1-D2)*%
X110610000Y-117400000D03*
%TO.P,U2,7,DRAIN3*%
%TO.N,Net-(N1-D3)*%
X113150000Y-117400000D03*
%TO.P,U2,8,~{SRCLR}*%
%TO.N,Net-(J1-Pin_3)*%
X115690000Y-117400000D03*
%TO.P,U2,9,~{G}*%
%TO.N,Net-(J1-Pin_5)*%
X118230000Y-117400000D03*
%TO.P,U2,10,PGND*%
%TO.N,GND*%
X120770000Y-117400000D03*
%TO.P,U2,11,PGND*%
X120770000Y-109780000D03*
%TO.P,U2,12,RCLK*%
%TO.N,Net-(J1-Pin_4)*%
X118230000Y-109780000D03*
%TO.P,U2,13,SRCK*%
%TO.N,Net-(J1-Pin_2)*%
X115690000Y-109780000D03*
%TO.P,U2,14,DRAIN4*%
%TO.N,Net-(N1-D4)*%
X113150000Y-109780000D03*
%TO.P,U2,15,DRAIN5*%
%TO.N,Net-(N1-D5)*%
X110610000Y-109780000D03*
%TO.P,U2,16,DRAIN6*%
%TO.N,Net-(N1-D6)*%
X108070000Y-109780000D03*
%TO.P,U2,17,DRAIN7*%
%TO.N,Net-(N1-D7)*%
X105530000Y-109780000D03*
%TO.P,U2,18,SER_OUT*%
%TO.N,unconnected-(U2-SER_OUT-Pad18)*%
X102990000Y-109780000D03*
%TO.P,U2,19,LGND*%
%TO.N,GND*%
X100450000Y-109780000D03*
%TO.P,U2,20,PGND*%
X97910000Y-109780000D03*
%TD*%
D14*
%TO.P,J5,1,Pin_1*%
%TO.N,Net-(J5-Pin_1)*%
X87030000Y-125950000D03*
D15*
%TO.P,J5,2,Pin_2*%
X87030000Y-128490000D03*
%TO.P,J5,3,Pin_3*%
X87030000Y-131030000D03*
%TO.P,J5,4,Pin_4*%
X87030000Y-133570000D03*
%TO.P,J5,5,Pin_5*%
X87030000Y-136110000D03*
%TD*%
D13*
%TO.P,C7,1*%
%TO.N,Net-(J5-Pin_1)*%
X100440000Y-120220000D03*
%TO.P,C7,2*%
%TO.N,GND*%
X97940000Y-120220000D03*
%TD*%
D14*
%TO.P,J3,1,Pin_1*%
%TO.N,GND*%
X84480000Y-125920000D03*
D15*
%TO.P,J3,2,Pin_2*%
X84480000Y-128460000D03*
%TO.P,J3,3,Pin_3*%
X84480000Y-131000000D03*
%TO.P,J3,4,Pin_4*%
X84480000Y-133540000D03*
%TO.P,J3,5,Pin_5*%
X84480000Y-136080000D03*
%TD*%
D12*
%TO.P,C3,1*%
%TO.N,Net-(J5-Pin_1)*%
X99160000Y-99124888D03*
D13*
%TO.P,C3,2*%
%TO.N,GND*%
X99160000Y-101624888D03*
%TD*%
%TO.P,C4,1*%
%TO.N,Net-(J5-Pin_1)*%
X89450000Y-99050000D03*
%TO.P,C4,2*%
%TO.N,GND*%
X89450000Y-101550000D03*
%TD*%
D30*
%TO.N,GND*%
X126930000Y-104490000D03*
X95510000Y-105240000D03*
X95500000Y-104440000D03*
X127710000Y-105280000D03*
X97070000Y-105230000D03*
X128470000Y-105280000D03*
X128470000Y-104480000D03*
X127710000Y-104480000D03*
X96280000Y-104440000D03*
X126150000Y-104490000D03*
X97060000Y-104430000D03*
X97820000Y-104430000D03*
X97830000Y-105230000D03*
X126150000Y-105290000D03*
X96290000Y-105240000D03*
X126930000Y-105290000D03*
%TO.N,Net-(N1-D0)*%
X105530000Y-125240000D03*
%TD*%
D31*
%TO.N,Net-(N1-D5)*%
X101740000Y-115610000D02*
X103640000Y-113710000D01*
X97150000Y-147210000D02*
X97150000Y-127050000D01*
X103640000Y-113710000D02*
X107680000Y-113710000D01*
X97150000Y-127050000D02*
X101740000Y-122460000D01*
X110610000Y-110780000D02*
X110610000Y-109780000D01*
X99500000Y-149560000D02*
X97150000Y-147210000D01*
X107680000Y-113710000D02*
X110610000Y-110780000D01*
X101740000Y-122460000D02*
X101740000Y-115610000D01*
X101275000Y-149560000D02*
X99500000Y-149560000D01*
%TO.N,Net-(N1-D3)*%
X111570000Y-133590000D02*
X109340000Y-131360000D01*
X111570000Y-141090000D02*
X111570000Y-133590000D01*
X110100000Y-115710000D02*
X111460000Y-115710000D01*
X111460000Y-115710000D02*
X113150000Y-117400000D01*
X109400000Y-151310000D02*
X112550000Y-148160000D01*
X109340000Y-116470000D02*
X110100000Y-115710000D01*
X112550000Y-148160000D02*
X112550000Y-142730000D01*
X109340000Y-131360000D02*
X109340000Y-116470000D01*
X111600000Y-141780000D02*
X111600000Y-141120000D01*
X112550000Y-142730000D02*
X111600000Y-141780000D01*
%TO.N,Net-(N1-A)*%
X117400000Y-141560000D02*
X116920000Y-141080000D01*
%TO.N,Net-(N1-D0)*%
X105530000Y-125240000D02*
X105530000Y-117400000D01*
%TO.N,Net-(N1-D2)*%
X113900000Y-151310000D02*
X113900000Y-146690000D01*
X113900000Y-146690000D02*
X116660000Y-143880000D01*
X116660000Y-143880000D02*
X118590000Y-143390000D01*
X119830000Y-133160000D02*
X110610000Y-123940000D01*
X119830000Y-142520000D02*
X119830000Y-133160000D01*
X110610000Y-123940000D02*
X110610000Y-117400000D01*
X118590000Y-143390000D02*
X119830000Y-142520000D01*
%TO.N,Net-(N1-D1)*%
X121110000Y-115140000D02*
X109330000Y-115140000D01*
X117400000Y-149560000D02*
X118652923Y-149560000D01*
X122590000Y-145622923D02*
X122590000Y-116620000D01*
X109330000Y-115140000D02*
X108070000Y-116400000D01*
X108070000Y-116400000D02*
X108070000Y-117400000D01*
X118652923Y-149560000D02*
X122590000Y-145622923D01*
X122590000Y-116620000D02*
X121110000Y-115140000D01*
%TO.N,Net-(N1-D4)*%
X104900000Y-144910000D02*
X107380000Y-142430000D01*
X107380000Y-119720000D02*
X106810000Y-119150000D01*
X104900000Y-151310000D02*
X104330000Y-151880000D01*
X104900000Y-151310000D02*
X104900000Y-144910000D01*
X106810000Y-116120000D02*
X113150000Y-109780000D01*
X106810000Y-119150000D02*
X106810000Y-116120000D01*
X107380000Y-142430000D02*
X107380000Y-119720000D01*
%TD*%
M02*
