M48
; DRILL file {KiCad 8.0.8} date 2025-03-08T09:49:42-0800
; FORMAT={-:-/ absolute / metric / decimal}
; #@! TF.CreationDate,2025-03-08T09:49:42-08:00
; #@! TF.GenerationSoftware,Kicad,Pcbnew,8.0.8
; #@! TF.FileFunction,Plated,1,4,PTH
FMAT,2
METRIC
; #@! TA.AperFunction,Plated,PTH,ViaDrill
T1C0.300
; #@! TA.AperFunction,Plated,PTH,ComponentDrill
T2C0.800
; #@! TA.AperFunction,Plated,PTH,ComponentDrill
T3C1.000
; #@! TA.AperFunction,Plated,PTH,ComponentDrill
T4C1.200
; #@! TA.AperFunction,Plated,PTH,ComponentDrill
T5C2.500
%
G90
G05
T1
X95.5Y-104.44
X95.51Y-105.24
X96.28Y-104.44
X96.29Y-105.24
X97.06Y-104.43
X97.07Y-105.23
X97.82Y-104.43
X97.83Y-105.23
X105.53Y-125.24
X126.15Y-104.49
X126.15Y-105.29
X126.93Y-104.49
X126.93Y-105.29
X127.71Y-104.48
X127.71Y-105.28
X128.47Y-104.48
X128.47Y-105.28
T2
X87.06Y-120.23
X87.06Y-122.73
X89.45Y-99.05
X89.45Y-101.55
X97.91Y-109.78
X97.91Y-117.4
X97.94Y-120.22
X99.16Y-99.125
X99.16Y-101.625
X100.44Y-120.22
X100.45Y-109.78
X100.45Y-117.4
X101.77Y-162.74
X101.77Y-165.28
X101.77Y-167.82
X101.77Y-170.36
X101.77Y-172.9
X101.77Y-175.44
X101.77Y-177.98
X102.99Y-109.78
X102.99Y-117.4
X105.53Y-109.78
X105.53Y-117.4
X108.07Y-109.78
X108.07Y-117.4
X109.39Y-162.74
X109.39Y-165.28
X109.39Y-167.82
X109.39Y-170.36
X109.39Y-172.9
X109.39Y-175.44
X109.39Y-177.98
X110.61Y-109.78
X110.61Y-117.4
X113.15Y-109.78
X113.15Y-117.4
X115.69Y-109.78
X115.69Y-117.4
X118.23Y-109.78
X118.23Y-117.4
X120.77Y-109.78
X120.77Y-117.4
X125.95Y-99.175
X125.95Y-101.675
X129.79Y-141.19
X130.0Y-99.89
X130.0Y-102.39
X132.29Y-141.19
T3
X84.48Y-125.92
X84.48Y-128.46
X84.48Y-131.0
X84.48Y-133.54
X84.48Y-136.08
X87.03Y-125.95
X87.03Y-128.49
X87.03Y-131.03
X87.03Y-133.57
X87.03Y-136.11
X126.06Y-109.14
X126.06Y-111.68
X126.06Y-114.22
X126.06Y-116.76
X126.06Y-119.3
X129.75Y-126.0
X129.75Y-128.54
X129.75Y-131.08
X129.75Y-133.62
X129.75Y-136.16
X132.29Y-126.005
X132.29Y-128.545
X132.29Y-131.085
X132.29Y-133.625
X132.29Y-136.165
T4
X126.07Y-160.34
X126.07Y-175.58
T5
X100.15Y-145.56
X101.275Y-141.56
X101.275Y-149.56
X104.9Y-139.81
X104.9Y-151.31
X109.4Y-139.81
X109.4Y-151.31
X113.9Y-139.81
X113.9Y-151.31
X117.4Y-141.56
X117.4Y-149.56
X118.4Y-145.56
M30
