%TF.GenerationSoftware,KiCad,Pcbnew,8.0.8*%
%TF.CreationDate,2025-02-27T12:07:19-08:00*%
%TF.ProjectId,proto,70726f74-6f2e-46b6-9963-61645f706362,rev?*%
%TF.SameCoordinates,Original*%
%TF.FileFunction,Copper,L4,Bot*%
%TF.FilePolarity,Positive*%
%FSLAX46Y46*%
G04 Gerber Fmt 4.6, Leading zero omitted, Abs format (unit mm)*
G04 Created by KiCad (PCBNEW 8.0.8) date 2025-02-27 12:07:19*
%MOMM*%
%LPD*%
G01*
G04 APERTURE LIST*
G04 Aperture macros list*
%AMHorizOval*
0 Thick line with rounded ends*
0 $1 width*
0 $2 $3 position (X,Y) of the first rounded end (center of the circle)*
0 $4 $5 position (X,Y) of the second rounded end (center of the circle)*
0 Add line between two ends*
20,1,$1,$2,$3,$4,$5,0*
0 Add two circle primitives to create the rounded ends*
1,1,$1,$2,$3*
1,1,$1,$4,$5*%
G04 Aperture macros list end*
%TA.AperFunction,ComponentPad*%
%ADD10C,2.524000*%
%TD*%
%TA.AperFunction,ComponentPad*%
%ADD11R,1.600000X1.600000*%
%TD*%
%TA.AperFunction,ComponentPad*%
%ADD12C,1.600000*%
%TD*%
%TA.AperFunction,ComponentPad*%
%ADD13R,1.700000X1.700000*%
%TD*%
%TA.AperFunction,ComponentPad*%
%ADD14O,1.700000X1.700000*%
%TD*%
%TA.AperFunction,ComponentPad*%
%ADD15HorizOval,3.000000X-0.447077X0.223880X0.447077X-0.223880X0*%
%TD*%
%TA.AperFunction,ComponentPad*%
%ADD16HorizOval,3.000000X-0.394005X0.307831X0.394005X-0.307831X0*%
%TD*%
%TA.AperFunction,ComponentPad*%
%ADD17O,3.000000X4.000000*%
%TD*%
%TA.AperFunction,ComponentPad*%
%ADD18HorizOval,3.000000X-0.223880X-0.447077X0.223880X0.447077X0*%
%TD*%
%TA.AperFunction,ComponentPad*%
%ADD19HorizOval,3.000000X-0.447077X-0.223880X0.447077X0.223880X0*%
%TD*%
%TA.AperFunction,ComponentPad*%
%ADD20O,4.000000X3.000000*%
%TD*%
%TA.AperFunction,ComponentPad*%
%ADD21HorizOval,3.000000X-0.447077X0.223880X0.447077X-0.223880X0*%
%TD*%
%TA.AperFunction,ComponentPad*%
%ADD22HorizOval,3.000000X-0.223880X0.447077X0.223880X-0.447077X0*%
%TD*%
%TA.AperFunction,ComponentPad*%
%ADD23HorizOval,3.000000X0.394005X0.307831X-0.394005X-0.307831X0*%
%TD*%
%TA.AperFunction,ComponentPad*%
%ADD24HorizOval,3.000000X0.447077X0.223880X-0.447077X-0.223880X0*%
%TD*%
%TA.AperFunction,ComponentPad*%
%ADD25C,2.400000*%
%TD*%
%TA.AperFunction,ComponentPad*%
%ADD26O,2.400000X2.400000*%
%TD*%
%TA.AperFunction,ComponentPad*%
%ADD27R,1.600000X2.400000*%
%TD*%
%TA.AperFunction,ComponentPad*%
%ADD28O,1.600000X2.400000*%
%TD*%
%TA.AperFunction,ViaPad*%
%ADD29C,0.600000*%
%TD*%
%TA.AperFunction,Conductor*%
%ADD30C,0.200000*%
%TD*%
G04 APERTURE END LIST*
D10*
%TO.P,S1,1,HV_OUT*%
%TO.N,Net-(S1-HV_OUT)*%
X101780000Y-160230000D03*
%TO.P,S1,2,LV_IN*%
%TO.N,Net-(J5-Pin_1)*%
X101780000Y-178010000D03*
%TO.P,S1,3,LGND*%
%TO.N,GND*%
X109400000Y-178010000D03*
%TO.P,S1,4,PGND*%
X109400000Y-160230000D03*
%TD*%
D11*
%TO.P,C1,1*%
%TO.N,Net-(J2-Pin_1)*%
X125950000Y-99174888D03*
D12*
%TO.P,C1,2*%
%TO.N,GND*%
X125950000Y-101674888D03*
%TD*%
D13*
%TO.P,J2,1,Pin_1*%
%TO.N,Net-(J2-Pin_1)*%
X132290000Y-126005000D03*
D14*
%TO.P,J2,2,Pin_2*%
X132290000Y-128545000D03*
%TO.P,J2,3,Pin_3*%
X132290000Y-131085000D03*
%TO.P,J2,4,Pin_4*%
X132290000Y-133625000D03*
%TO.P,J2,5,Pin_5*%
X132290000Y-136165000D03*
%TD*%
D12*
%TO.P,C5,1*%
%TO.N,Net-(J2-Pin_1)*%
X130000000Y-99890000D03*
%TO.P,C5,2*%
%TO.N,GND*%
X130000000Y-102390000D03*
%TD*%
%TO.P,C6,1*%
%TO.N,Net-(J5-Pin_1)*%
X87060000Y-122730000D03*
%TO.P,C6,2*%
%TO.N,GND*%
X87060000Y-120230000D03*
%TD*%
D13*
%TO.P,J1,1,Pin_1*%
%TO.N,Net-(J1-Pin_1)*%
X126060000Y-109140000D03*
D14*
%TO.P,J1,2,Pin_2*%
%TO.N,Net-(J1-Pin_2)*%
X126060000Y-111680000D03*
%TO.P,J1,3,Pin_3*%
%TO.N,Net-(J1-Pin_3)*%
X126060000Y-114220000D03*
%TO.P,J1,4,Pin_4*%
%TO.N,Net-(J1-Pin_4)*%
X126060000Y-116760000D03*
%TO.P,J1,5,Pin_5*%
%TO.N,Net-(J1-Pin_5)*%
X126060000Y-119300000D03*
%TD*%
D12*
%TO.P,C2,1*%
%TO.N,Net-(J2-Pin_1)*%
X132290000Y-141190000D03*
%TO.P,C2,2*%
%TO.N,GND*%
X129790000Y-141190000D03*
%TD*%
D15*
%TO.P,N1,1,A*%
%TO.N,Net-(N1-A)*%
X101400000Y-141560000D03*
D16*
%TO.P,N1,2,D0*%
%TO.N,Net-(N1-D0)*%
X104900000Y-139810000D03*
D17*
%TO.P,N1,3,D9*%
%TO.N,unconnected-(N1-D9-Pad3)*%
X109400000Y-139810000D03*
D18*
%TO.P,N1,4,D8*%
%TO.N,unconnected-(N1-D8-Pad4)*%
X113900000Y-139810000D03*
D19*
%TO.P,N1,5,D7*%
%TO.N,Net-(N1-D7)*%
X117400000Y-141560000D03*
D20*
%TO.P,N1,6,D6*%
%TO.N,Net-(N1-D6)*%
X118400000Y-145560000D03*
D21*
%TO.P,N1,7,D5*%
%TO.N,Net-(N1-D5)*%
X117400000Y-149560000D03*
D22*
%TO.P,N1,8,D4*%
%TO.N,Net-(N1-D4)*%
X113900000Y-151310000D03*
D17*
%TO.P,N1,9,D3*%
%TO.N,Net-(N1-D3)*%
X109400000Y-151310000D03*
D23*
%TO.P,N1,10,D2*%
%TO.N,Net-(N1-D2)*%
X104900000Y-151310000D03*
D24*
%TO.P,N1,11,D1*%
%TO.N,Net-(N1-D1)*%
X101400000Y-149560000D03*
D20*
%TO.P,N1,12,NC*%
%TO.N,unconnected-(N1-NC-Pad12)*%
X100400000Y-145560000D03*
%TD*%
D25*
%TO.P,R1,1*%
%TO.N,Net-(N1-A)*%
X91830000Y-148580000D03*
D26*
%TO.P,R1,2*%
%TO.N,Net-(S1-HV_OUT)*%
X91830000Y-163820000D03*
%TD*%
D13*
%TO.P,J4,1,Pin_1*%
%TO.N,GND*%
X129750000Y-126000000D03*
D14*
%TO.P,J4,2,Pin_2*%
X129750000Y-128540000D03*
%TO.P,J4,3,Pin_3*%
X129750000Y-131080000D03*
%TO.P,J4,4,Pin_4*%
X129750000Y-133620000D03*
%TO.P,J4,5,Pin_5*%
X129750000Y-136160000D03*
%TD*%
D27*
%TO.P,U2,1,PGND*%
%TO.N,GND*%
X97910000Y-117400000D03*
D28*
%TO.P,U2,2,VCC*%
%TO.N,Net-(J5-Pin_1)*%
X100450000Y-117400000D03*
%TO.P,U2,3,SER_IN*%
%TO.N,Net-(J1-Pin_1)*%
X102990000Y-117400000D03*
%TO.P,U2,4,DRAIN0*%
%TO.N,Net-(N1-D0)*%
X105530000Y-117400000D03*
%TO.P,U2,5,DRAIN1*%
%TO.N,Net-(N1-D1)*%
X108070000Y-117400000D03*
%TO.P,U2,6,DRAIN2*%
%TO.N,Net-(N1-D2)*%
X110610000Y-117400000D03*
%TO.P,U2,7,DRAIN3*%
%TO.N,Net-(N1-D3)*%
X113150000Y-117400000D03*
%TO.P,U2,8,~{SRCLR}*%
%TO.N,Net-(J1-Pin_3)*%
X115690000Y-117400000D03*
%TO.P,U2,9,~{G}*%
%TO.N,Net-(J1-Pin_5)*%
X118230000Y-117400000D03*
%TO.P,U2,10,PGND*%
%TO.N,GND*%
X120770000Y-117400000D03*
%TO.P,U2,11,PGND*%
X120770000Y-109780000D03*
%TO.P,U2,12,RCLK*%
%TO.N,Net-(J1-Pin_4)*%
X118230000Y-109780000D03*
%TO.P,U2,13,SRCK*%
%TO.N,Net-(J1-Pin_2)*%
X115690000Y-109780000D03*
%TO.P,U2,14,DRAIN4*%
%TO.N,Net-(N1-D4)*%
X113150000Y-109780000D03*
%TO.P,U2,15,DRAIN5*%
%TO.N,Net-(N1-D5)*%
X110610000Y-109780000D03*
%TO.P,U2,16,DRAIN6*%
%TO.N,Net-(N1-D6)*%
X108070000Y-109780000D03*
%TO.P,U2,17,DRAIN7*%
%TO.N,Net-(N1-D7)*%
X105530000Y-109780000D03*
%TO.P,U2,18,SER_OUT*%
%TO.N,unconnected-(U2-SER_OUT-Pad18)*%
X102990000Y-109780000D03*
%TO.P,U2,19,LGND*%
%TO.N,GND*%
X100450000Y-109780000D03*
%TO.P,U2,20,PGND*%
X97910000Y-109780000D03*
%TD*%
D13*
%TO.P,J5,1,Pin_1*%
%TO.N,Net-(J5-Pin_1)*%
X87030000Y-125950000D03*
D14*
%TO.P,J5,2,Pin_2*%
X87030000Y-128490000D03*
%TO.P,J5,3,Pin_3*%
X87030000Y-131030000D03*
%TO.P,J5,4,Pin_4*%
X87030000Y-133570000D03*
%TO.P,J5,5,Pin_5*%
X87030000Y-136110000D03*
%TD*%
D12*
%TO.P,C7,1*%
%TO.N,Net-(J5-Pin_1)*%
X100440000Y-120220000D03*
%TO.P,C7,2*%
%TO.N,GND*%
X97940000Y-120220000D03*
%TD*%
D13*
%TO.P,J3,1,Pin_1*%
%TO.N,GND*%
X84480000Y-125920000D03*
D14*
%TO.P,J3,2,Pin_2*%
X84480000Y-128460000D03*
%TO.P,J3,3,Pin_3*%
X84480000Y-131000000D03*
%TO.P,J3,4,Pin_4*%
X84480000Y-133540000D03*
%TO.P,J3,5,Pin_5*%
X84480000Y-136080000D03*
%TD*%
D11*
%TO.P,C3,1*%
%TO.N,Net-(J5-Pin_1)*%
X99160000Y-99124888D03*
D12*
%TO.P,C3,2*%
%TO.N,GND*%
X99160000Y-101624888D03*
%TD*%
%TO.P,C4,1*%
%TO.N,Net-(J5-Pin_1)*%
X89450000Y-99050000D03*
%TO.P,C4,2*%
%TO.N,GND*%
X89450000Y-101550000D03*
%TD*%
D29*
%TO.N,GND*%
X127270000Y-104890000D03*
X91060000Y-104850000D03*
X91840000Y-105650000D03*
X126480000Y-104090000D03*
X91050000Y-104050000D03*
X127260000Y-104090000D03*
X128050000Y-105680000D03*
X92620000Y-104840000D03*
X128810000Y-105680000D03*
X128810000Y-104880000D03*
X91060000Y-105650000D03*
X93380000Y-105640000D03*
X128040000Y-104080000D03*
X128050000Y-104880000D03*
X91830000Y-104050000D03*
X126490000Y-104890000D03*
X92610000Y-104040000D03*
X92620000Y-105640000D03*
X93370000Y-104040000D03*
X93380000Y-104840000D03*
X126490000Y-105690000D03*
X91840000Y-104850000D03*
X127270000Y-105690000D03*
X128800000Y-104080000D03*
%TD*%
D30*
%TO.N,Net-(N1-D3)*%
X109400000Y-151310000D02*
X105910000Y-147820000D01*
X105910000Y-147820000D02*
X105910000Y-142290000D01*
X105910000Y-142290000D02*
X107340000Y-140860000D01*
X107340000Y-140860000D02*
X107340000Y-123210000D01*
X107340000Y-123210000D02*
X113150000Y-117400000D01*
%TO.N,Net-(N1-D2)*%
X97690000Y-130320000D02*
X97690000Y-150480000D01*
%TO.N,Net-(N1-D7)*%
X117400000Y-141560000D02*
X116920000Y-141080000D01*
X116080000Y-108020000D02*
X107290000Y-108020000D01*
X107290000Y-108020000D02*
X105530000Y-109780000D01*
X116920000Y-108860000D02*
X116080000Y-108020000D01*
X116920000Y-141080000D02*
X116920000Y-108860000D01*
%TO.N,Net-(N1-D2)*%
X104330000Y-151880000D02*
X99090000Y-151880000D01*
X97690000Y-130320000D02*
X110610000Y-117400000D01*
X104900000Y-151310000D02*
X104330000Y-151880000D01*
X99090000Y-151880000D02*
X97690000Y-150480000D01*
%TO.N,Net-(N1-D4)*%
X111490000Y-141490000D02*
X111490000Y-130590000D01*
X113900000Y-151310000D02*
X113900000Y-143900000D01*
X111490000Y-130590000D02*
X113840000Y-128240000D01*
X113900000Y-143900000D02*
X111490000Y-141490000D01*
X114450000Y-118819999D02*
X114450000Y-111080000D01*
X113840000Y-119429999D02*
X114450000Y-118819999D01*
X113840000Y-128240000D02*
X113840000Y-119429999D01*
X114450000Y-111080000D02*
X113150000Y-109780000D01*
%TD*%
M02*
