%TF.GenerationSoftware,KiCad,Pcbnew,8.0.8*%
%TF.CreationDate,2025-04-20T11:12:48-07:00*%
%TF.ProjectId,display,64697370-6c61-4792-9e6b-696361645f70,rev?*%
%TF.SameCoordinates,Original*%
%TF.FileFunction,Legend,Bot*%
%TF.FilePolarity,Positive*%
%FSLAX46Y46*%
G04 Gerber Fmt 4.6, Leading zero omitted, Abs format (unit mm)*
G04 Created by KiCad (PCBNEW 8.0.8) date 2025-04-20 11:12:48*
%MOMM*%
%LPD*%
G01*
G04 APERTURE LIST*
%ADD10C,0.120000*%
G04 APERTURE END LIST*
D10*
%TO.C,J1*%
X105090000Y-121660000D02*
X105090000Y-126660000D01*
X110610000Y-121660000D02*
X105090000Y-121660000D01*
X110610000Y-122660000D02*
X110610000Y-121660000D01*
X111285000Y-121620000D02*
X111285000Y-122220000D01*
X111285000Y-122220000D02*
X111885000Y-121920000D01*
X111885000Y-121920000D02*
X111285000Y-121620000D01*
X111885000Y-122660000D02*
X110609000Y-122660000D01*
X114651000Y-122660000D02*
X114075000Y-122660000D01*
X117191000Y-122660000D02*
X116390000Y-122660000D01*
X119731000Y-122660000D02*
X118930000Y-122660000D01*
X122271000Y-122660000D02*
X121470000Y-122660000D01*
X124811000Y-122660000D02*
X124010000Y-122660000D01*
X127351000Y-122660000D02*
X126550000Y-122660000D01*
X129891000Y-122660000D02*
X129090000Y-122660000D01*
X132431000Y-122660000D02*
X131630000Y-122660000D01*
X134971000Y-122660000D02*
X134170000Y-122660000D01*
X137511000Y-122660000D02*
X136710000Y-122660000D01*
X140051000Y-122660000D02*
X139250000Y-122660000D01*
X142591000Y-122660000D02*
X141790000Y-122660000D01*
X145131000Y-122660000D02*
X144330000Y-122660000D01*
X147671000Y-122660000D02*
X146870000Y-122660000D01*
X150211000Y-122660000D02*
X149410000Y-122660000D01*
X152751000Y-122660000D02*
X151950000Y-122660000D01*
X155291000Y-122660000D02*
X154490000Y-122660000D01*
X157831000Y-122660000D02*
X157030000Y-122660000D01*
X160371000Y-122660000D02*
X159570000Y-122660000D01*
X162911000Y-122660000D02*
X162110000Y-122660000D01*
X165451000Y-122660000D02*
X164650000Y-122660000D01*
X167991000Y-122660000D02*
X167190000Y-122660000D01*
X170531000Y-122660000D02*
X169730000Y-122660000D01*
X173071000Y-122660000D02*
X172270000Y-122660000D01*
X175611000Y-122660000D02*
X174810000Y-122660000D01*
X178151000Y-122660000D02*
X177350000Y-122660000D01*
X180691000Y-122660000D02*
X179890000Y-122660000D01*
X183231000Y-122660000D02*
X182430000Y-122660000D01*
X185771000Y-122660000D02*
X184970000Y-122660000D01*
X188311000Y-122660000D02*
X187510000Y-122660000D01*
X190851000Y-122660000D02*
X190050000Y-122660000D01*
X194090000Y-121660000D02*
X199610000Y-121660000D01*
X194090000Y-122660000D02*
X192590000Y-122660000D01*
X194090000Y-122660000D02*
X194090000Y-121660000D01*
X199610000Y-121660000D02*
X199610000Y-126660000D01*
%TD*%
M02*
