%TF.GenerationSoftware,KiCad,Pcbnew,8.0.8*%
%TF.CreationDate,2025-04-20T11:12:48-07:00*%
%TF.ProjectId,display,64697370-6c61-4792-9e6b-696361645f70,rev?*%
%TF.SameCoordinates,Original*%
%TF.FileFunction,Soldermask,Top*%
%TF.FilePolarity,Negative*%
%FSLAX46Y46*%
G04 Gerber Fmt 4.6, Leading zero omitted, Abs format (unit mm)*
G04 Created by KiCad (PCBNEW 8.0.8) date 2025-04-20 11:12:48*
%MOMM*%
%LPD*%
G01*
G04 APERTURE LIST*
G04 Aperture macros list*
%AMRoundRect*
0 Rectangle with rounded corners*
0 $1 Rounding radius*
0 $2 $3 $4 $5 $6 $7 $8 $9 X,Y pos of 4 corners*
0 Add a 4 corners polygon primitive as box body*
4,1,4,$2,$3,$4,$5,$6,$7,$8,$9,$2,$3,0*
0 Add four circle primitives for the rounded corners*
1,1,$1+$1,$2,$3*
1,1,$1+$1,$4,$5*
1,1,$1+$1,$6,$7*
1,1,$1+$1,$8,$9*
0 Add four rect primitives between the rounded corners*
20,1,$1+$1,$2,$3,$4,$5,0*
20,1,$1+$1,$4,$5,$6,$7,0*
20,1,$1+$1,$6,$7,$8,$9,0*
20,1,$1+$1,$8,$9,$2,$3,0*%
%AMHorizOval*
0 Thick line with rounded ends*
0 $1 width*
0 $2 $3 position (X,Y) of the first rounded end (center of the circle)*
0 $4 $5 position (X,Y) of the second rounded end (center of the circle)*
0 Add line between two ends*
20,1,$1,$2,$3,$4,$5,0*
0 Add two circle primitives to create the rounded ends*
1,1,$1,$2,$3*
1,1,$1,$4,$5*%
G04 Aperture macros list end*
%ADD10HorizOval,3.000000X-0.223880X0.447077X0.223880X-0.447077X0*%
%ADD11HorizOval,3.000000X-0.447077X0.223880X0.447077X-0.223880X0*%
%ADD12O,4.000000X3.000000*%
%ADD13HorizOval,3.000000X-0.307831X-0.394005X0.307831X0.394005X0*%
%ADD14HorizOval,3.000000X-0.223880X-0.447077X0.223880X0.447077X0*%
%ADD15O,3.000000X4.000000*%
%ADD16HorizOval,3.000000X-0.223880X0.447077X0.223880X-0.447077X0*%
%ADD17HorizOval,3.000000X-0.307831X0.394005X0.307831X-0.394005X0*%
%ADD18HorizOval,3.000000X0.447077X0.223880X-0.447077X-0.223880X0*%
%ADD19HorizOval,3.000000X0.223880X0.447077X-0.223880X-0.447077X0*%
%ADD20C,2.000000*%
%ADD21C,2.850000*%
%ADD22RoundRect,0.249999X-0.525001X-0.525001X0.525001X-0.525001X0.525001X0.525001X-0.525001X0.525001X0*%
%ADD23C,1.550000*%
G04 APERTURE END LIST*
D10*
%TO.C,N3*%
X144303700Y-92450000D03*
D11*
X146053700Y-88950000D03*
D12*
X146053700Y-84450000D03*
D13*
X146053700Y-79950000D03*
D14*
X144303700Y-76325000D03*
D15*
X140303700Y-75200000D03*
D16*
X136303700Y-76325000D03*
D17*
X134553700Y-79950000D03*
D12*
X134553700Y-84450000D03*
D18*
X134553700Y-88950000D03*
D19*
X136303700Y-92450000D03*
D15*
X140303700Y-93450000D03*
%TD*%
D20*
%TO.C,R2*%
X108424000Y-68170000D03*
X99424000Y-68170000D03*
%TD*%
%TO.C,R1*%
X84424000Y-68190000D03*
X75424000Y-68190000D03*
%TD*%
%TO.C,R3*%
X138433700Y-68170000D03*
X129433700Y-68170000D03*
%TD*%
%TO.C,R11*%
X219946666Y-115530000D03*
X219946666Y-124530000D03*
%TD*%
%TO.C,R4*%
X162446800Y-68170000D03*
X153446800Y-68170000D03*
%TD*%
%TO.C,R5*%
X192456900Y-68170000D03*
X183456900Y-68170000D03*
%TD*%
%TO.C,R7*%
X84450000Y-109960000D03*
X84450000Y-118960000D03*
%TD*%
D10*
%TO.C,N4*%
X168316800Y-92450000D03*
D11*
X170066800Y-88950000D03*
D12*
X170066800Y-84450000D03*
D13*
X170066800Y-79950000D03*
D14*
X168316800Y-76325000D03*
D15*
X164316800Y-75200000D03*
D16*
X160316800Y-76325000D03*
D17*
X158566800Y-79950000D03*
D12*
X158566800Y-84450000D03*
D18*
X158566800Y-88950000D03*
D19*
X160316800Y-92450000D03*
D15*
X164316800Y-93450000D03*
%TD*%
D10*
%TO.C,N2*%
X114304000Y-92450000D03*
D11*
X116054000Y-88950000D03*
D12*
X116054000Y-84450000D03*
D13*
X116054000Y-79950000D03*
D14*
X114304000Y-76325000D03*
D15*
X110304000Y-75200000D03*
D16*
X106304000Y-76325000D03*
D17*
X104554000Y-79950000D03*
D12*
X104554000Y-84450000D03*
D18*
X104554000Y-88950000D03*
D19*
X106304000Y-92450000D03*
D15*
X110304000Y-93450000D03*
%TD*%
D10*
%TO.C,N5*%
X198316900Y-92450000D03*
D11*
X200066900Y-88950000D03*
D12*
X200066900Y-84450000D03*
D13*
X200066900Y-79950000D03*
D14*
X198316900Y-76325000D03*
D15*
X194316900Y-75200000D03*
D16*
X190316900Y-76325000D03*
D17*
X188566900Y-79950000D03*
D12*
X188566900Y-84450000D03*
D18*
X188566900Y-88950000D03*
D19*
X190316900Y-92450000D03*
D15*
X194316900Y-93450000D03*
%TD*%
D20*
%TO.C,R6*%
X216450000Y-68160000D03*
X207450000Y-68160000D03*
%TD*%
D10*
%TO.C,N1*%
X90296452Y-92450000D03*
D11*
X92046452Y-88950000D03*
D12*
X92046452Y-84450000D03*
D13*
X92046452Y-79950000D03*
D14*
X90296452Y-76325000D03*
D15*
X86296452Y-75200000D03*
D16*
X82296452Y-76325000D03*
D17*
X80546452Y-79950000D03*
D12*
X80546452Y-84450000D03*
D18*
X80546452Y-88950000D03*
D19*
X82296452Y-92450000D03*
D15*
X86296452Y-93450000D03*
%TD*%
D20*
%TO.C,R8*%
X90670000Y-109960000D03*
X90670000Y-118960000D03*
%TD*%
%TO.C,R10*%
X212863333Y-115530000D03*
X212863333Y-124530000D03*
%TD*%
%TO.C,R9*%
X205780000Y-115530000D03*
X205780000Y-124530000D03*
%TD*%
D10*
%TO.C,N6*%
X222330000Y-92450000D03*
D11*
X224080000Y-88950000D03*
D12*
X224080000Y-84450000D03*
D13*
X224080000Y-79950000D03*
D14*
X222330000Y-76325000D03*
D15*
X218330000Y-75200000D03*
D16*
X214330000Y-76325000D03*
D17*
X212580000Y-79950000D03*
D12*
X212580000Y-84450000D03*
D18*
X212580000Y-88950000D03*
D19*
X214330000Y-92450000D03*
D15*
X218330000Y-93450000D03*
%TD*%
D20*
%TO.C,R12*%
X227030000Y-115530000D03*
X227030000Y-124530000D03*
%TD*%
D21*
%TO.C,J1*%
X107900000Y-124460000D03*
X196800000Y-124460000D03*
D22*
X112980000Y-121920000D03*
D23*
X115520000Y-121920000D03*
X118060000Y-121920000D03*
X120600000Y-121920000D03*
X123140000Y-121920000D03*
X125680000Y-121920000D03*
X128220000Y-121920000D03*
X130760000Y-121920000D03*
X133300000Y-121920000D03*
X135840000Y-121920000D03*
X138380000Y-121920000D03*
X140920000Y-121920000D03*
X143460000Y-121920000D03*
X146000000Y-121920000D03*
X148540000Y-121920000D03*
X151080000Y-121920000D03*
X153620000Y-121920000D03*
X156160000Y-121920000D03*
X158700000Y-121920000D03*
X161240000Y-121920000D03*
X163780000Y-121920000D03*
X166320000Y-121920000D03*
X168860000Y-121920000D03*
X171400000Y-121920000D03*
X173940000Y-121920000D03*
X176480000Y-121920000D03*
X179020000Y-121920000D03*
X181560000Y-121920000D03*
X184100000Y-121920000D03*
X186640000Y-121920000D03*
X189180000Y-121920000D03*
X191720000Y-121920000D03*
X112980000Y-119380000D03*
X115520000Y-119380000D03*
X118060000Y-119380000D03*
X120600000Y-119380000D03*
X123140000Y-119380000D03*
X125680000Y-119380000D03*
X128220000Y-119380000D03*
X130760000Y-119380000D03*
X133300000Y-119380000D03*
X135840000Y-119380000D03*
X138380000Y-119380000D03*
X140920000Y-119380000D03*
X143460000Y-119380000D03*
X146000000Y-119380000D03*
X148540000Y-119380000D03*
X151080000Y-119380000D03*
X153620000Y-119380000D03*
X156160000Y-119380000D03*
X158700000Y-119380000D03*
X161240000Y-119380000D03*
X163780000Y-119380000D03*
X166320000Y-119380000D03*
X168860000Y-119380000D03*
X171400000Y-119380000D03*
X173940000Y-119380000D03*
X176480000Y-119380000D03*
X179020000Y-119380000D03*
X181560000Y-119380000D03*
X184100000Y-119380000D03*
X186640000Y-119380000D03*
X189180000Y-119380000D03*
X191720000Y-119380000D03*
X112980000Y-116840000D03*
X115520000Y-116840000D03*
X118060000Y-116840000D03*
X120600000Y-116840000D03*
X123140000Y-116840000D03*
X125680000Y-116840000D03*
X128220000Y-116840000D03*
X130760000Y-116840000D03*
X133300000Y-116840000D03*
X135840000Y-116840000D03*
X138380000Y-116840000D03*
X140920000Y-116840000D03*
X143460000Y-116840000D03*
X146000000Y-116840000D03*
X148540000Y-116840000D03*
X151080000Y-116840000D03*
X153620000Y-116840000D03*
X156160000Y-116840000D03*
X158700000Y-116840000D03*
X161240000Y-116840000D03*
X163780000Y-116840000D03*
X166320000Y-116840000D03*
X168860000Y-116840000D03*
X171400000Y-116840000D03*
X173940000Y-116840000D03*
X176480000Y-116840000D03*
X179020000Y-116840000D03*
X181560000Y-116840000D03*
X184100000Y-116840000D03*
X186640000Y-116840000D03*
X189180000Y-116840000D03*
X191720000Y-116840000D03*
%TD*%
M02*
