%TF.GenerationSoftware,KiCad,Pcbnew,8.0.8*%
%TF.CreationDate,2025-04-22T21:40:41-07:00*%
%TF.ProjectId,display,64697370-6c61-4792-9e6b-696361645f70,rev?*%
%TF.SameCoordinates,Original*%
%TF.FileFunction,Copper,L1,Top*%
%TF.FilePolarity,Positive*%
%FSLAX46Y46*%
G04 Gerber Fmt 4.6, Leading zero omitted, Abs format (unit mm)*
G04 Created by KiCad (PCBNEW 8.0.8) date 2025-04-22 21:40:41*
%MOMM*%
%LPD*%
G01*
G04 APERTURE LIST*
G04 Aperture macros list*
%AMRoundRect*
0 Rectangle with rounded corners*
0 $1 Rounding radius*
0 $2 $3 $4 $5 $6 $7 $8 $9 X,Y pos of 4 corners*
0 Add a 4 corners polygon primitive as box body*
4,1,4,$2,$3,$4,$5,$6,$7,$8,$9,$2,$3,0*
0 Add four circle primitives for the rounded corners*
1,1,$1+$1,$2,$3*
1,1,$1+$1,$4,$5*
1,1,$1+$1,$6,$7*
1,1,$1+$1,$8,$9*
0 Add four rect primitives between the rounded corners*
20,1,$1+$1,$2,$3,$4,$5,0*
20,1,$1+$1,$4,$5,$6,$7,0*
20,1,$1+$1,$6,$7,$8,$9,0*
20,1,$1+$1,$8,$9,$2,$3,0*%
%AMHorizOval*
0 Thick line with rounded ends*
0 $1 width*
0 $2 $3 position (X,Y) of the first rounded end (center of the circle)*
0 $4 $5 position (X,Y) of the second rounded end (center of the circle)*
0 Add line between two ends*
20,1,$1,$2,$3,$4,$5,0*
0 Add two circle primitives to create the rounded ends*
1,1,$1,$2,$3*
1,1,$1,$4,$5*%
G04 Aperture macros list end*
%TA.AperFunction,ComponentPad*%
%ADD10HorizOval,3.000000X-0.223880X0.447077X0.223880X-0.447077X0*%
%TD*%
%TA.AperFunction,ComponentPad*%
%ADD11HorizOval,3.000000X-0.447077X0.223880X0.447077X-0.223880X0*%
%TD*%
%TA.AperFunction,ComponentPad*%
%ADD12O,4.000000X3.000000*%
%TD*%
%TA.AperFunction,ComponentPad*%
%ADD13HorizOval,3.000000X-0.307831X-0.394005X0.307831X0.394005X0*%
%TD*%
%TA.AperFunction,ComponentPad*%
%ADD14HorizOval,3.000000X-0.223880X-0.447077X0.223880X0.447077X0*%
%TD*%
%TA.AperFunction,ComponentPad*%
%ADD15O,3.000000X4.000000*%
%TD*%
%TA.AperFunction,ComponentPad*%
%ADD16HorizOval,3.000000X-0.223880X0.447077X0.223880X-0.447077X0*%
%TD*%
%TA.AperFunction,ComponentPad*%
%ADD17HorizOval,3.000000X-0.307831X0.394005X0.307831X-0.394005X0*%
%TD*%
%TA.AperFunction,ComponentPad*%
%ADD18HorizOval,3.000000X0.447077X0.223880X-0.447077X-0.223880X0*%
%TD*%
%TA.AperFunction,ComponentPad*%
%ADD19HorizOval,3.000000X0.223880X0.447077X-0.223880X-0.447077X0*%
%TD*%
%TA.AperFunction,ComponentPad*%
%ADD20C,2.000000*%
%TD*%
%TA.AperFunction,ComponentPad*%
%ADD21RoundRect,0.249999X-0.525001X-0.525001X0.525001X-0.525001X0.525001X0.525001X-0.525001X0.525001X0*%
%TD*%
%TA.AperFunction,ComponentPad*%
%ADD22C,1.550000*%
%TD*%
%TA.AperFunction,ViaPad*%
%ADD23C,0.600000*%
%TD*%
%TA.AperFunction,Conductor*%
%ADD24C,0.300000*%
%TD*%
%TA.AperFunction,Conductor*%
%ADD25C,1.600000*%
%TD*%
%TA.AperFunction,Conductor*%
%ADD26C,1.000000*%
%TD*%
G04 APERTURE END LIST*
D10*
%TO.P,N3,1,A*%
%TO.N,MD3*%
X144303700Y-92450000D03*
D11*
%TO.P,N3,2,D0*%
%TO.N,/T3-0*%
X146053700Y-88950000D03*
D12*
%TO.P,N3,3,D9*%
%TO.N,/T3-9*%
X146053700Y-84450000D03*
D13*
%TO.P,N3,4,D8*%
%TO.N,/T3-8*%
X146053700Y-79950000D03*
D14*
%TO.P,N3,5,D7*%
%TO.N,/T3-7*%
X144303700Y-76325000D03*
D15*
%TO.P,N3,6,D6*%
%TO.N,/T3-6*%
X140303700Y-75200000D03*
D16*
%TO.P,N3,7,D5*%
%TO.N,/T3-5*%
X136303700Y-76325000D03*
D17*
%TO.P,N3,8,D4*%
%TO.N,/T3-4*%
X134553700Y-79950000D03*
D12*
%TO.P,N3,9,D3*%
%TO.N,/T3-3*%
X134553700Y-84450000D03*
D18*
%TO.P,N3,10,D2*%
%TO.N,/T3-2*%
X134553700Y-88950000D03*
D19*
%TO.P,N3,11,D1*%
%TO.N,/T3-1*%
X136303700Y-92450000D03*
D15*
%TO.P,N3,12,NC*%
%TO.N,unconnected-(N3-NC-Pad12)*%
X140303700Y-93450000D03*
%TD*%
D20*
%TO.P,R2,1*%
%TO.N,Net-(N2-A)*%
X108424000Y-68170000D03*
%TO.P,R2,2*%
%TO.N,Net-(J1-Pin_b1)*%
X99424000Y-68170000D03*
%TD*%
%TO.P,R1,1*%
%TO.N,Net-(N1-A)*%
X84424000Y-68190000D03*
%TO.P,R1,2*%
%TO.N,Net-(J1-Pin_b1)*%
X75424000Y-68190000D03*
%TD*%
%TO.P,R3,1*%
%TO.N,MD3*%
X138433700Y-68170000D03*
%TO.P,R3,2*%
%TO.N,Net-(J1-Pin_b1)*%
X129433700Y-68170000D03*
%TD*%
%TO.P,R11,1*%
%TO.N,Net-(N5-A)*%
X219946666Y-115530000D03*
%TO.P,R11,2*%
%TO.N,Net-(J1-Pin_a32)*%
X219946666Y-124530000D03*
%TD*%
%TO.P,R4,1*%
%TO.N,MD4*%
X162446800Y-68170000D03*
%TO.P,R4,2*%
%TO.N,Net-(J1-Pin_b1)*%
X153446800Y-68170000D03*
%TD*%
%TO.P,R5,1*%
%TO.N,Net-(N5-A)*%
X192456900Y-68170000D03*
%TO.P,R5,2*%
%TO.N,Net-(J1-Pin_b1)*%
X183456900Y-68170000D03*
%TD*%
%TO.P,R7,1*%
%TO.N,Net-(N1-A)*%
X81560000Y-109270000D03*
%TO.P,R7,2*%
%TO.N,Net-(J1-Pin_c2)*%
X81560000Y-118270000D03*
%TD*%
D10*
%TO.P,N4,1,A*%
%TO.N,MD4*%
X168316800Y-92450000D03*
D11*
%TO.P,N4,2,D0*%
%TO.N,/T4-0*%
X170066800Y-88950000D03*
D12*
%TO.P,N4,3,D9*%
%TO.N,/T4-9*%
X170066800Y-84450000D03*
D13*
%TO.P,N4,4,D8*%
%TO.N,/T4-8*%
X170066800Y-79950000D03*
D14*
%TO.P,N4,5,D7*%
%TO.N,/T4-7*%
X168316800Y-76325000D03*
D15*
%TO.P,N4,6,D6*%
%TO.N,/T4-6*%
X164316800Y-75200000D03*
D16*
%TO.P,N4,7,D5*%
%TO.N,/T4-5*%
X160316800Y-76325000D03*
D17*
%TO.P,N4,8,D4*%
%TO.N,/T4-4*%
X158566800Y-79950000D03*
D12*
%TO.P,N4,9,D3*%
%TO.N,/T4-3*%
X158566800Y-84450000D03*
D18*
%TO.P,N4,10,D2*%
%TO.N,/T4-2*%
X158566800Y-88950000D03*
D19*
%TO.P,N4,11,D1*%
%TO.N,/T4-1*%
X160316800Y-92450000D03*
D15*
%TO.P,N4,12,NC*%
%TO.N,unconnected-(N4-NC-Pad12)*%
X164316800Y-93450000D03*
%TD*%
D10*
%TO.P,N2,1,A*%
%TO.N,Net-(N2-A)*%
X114304000Y-92450000D03*
D11*
%TO.P,N2,2,D0*%
%TO.N,/T2-0*%
X116054000Y-88950000D03*
D12*
%TO.P,N2,3,D9*%
%TO.N,/T2-9*%
X116054000Y-84450000D03*
D13*
%TO.P,N2,4,D8*%
%TO.N,/T2-8*%
X116054000Y-79950000D03*
D14*
%TO.P,N2,5,D7*%
%TO.N,/T2-7*%
X114304000Y-76325000D03*
D15*
%TO.P,N2,6,D6*%
%TO.N,/T2-6*%
X110304000Y-75200000D03*
D16*
%TO.P,N2,7,D5*%
%TO.N,/T2-5*%
X106304000Y-76325000D03*
D17*
%TO.P,N2,8,D4*%
%TO.N,/T2-4*%
X104554000Y-79950000D03*
D12*
%TO.P,N2,9,D3*%
%TO.N,/T2-3*%
X104554000Y-84450000D03*
D18*
%TO.P,N2,10,D2*%
%TO.N,/T2-2*%
X104554000Y-88950000D03*
D19*
%TO.P,N2,11,D1*%
%TO.N,/T2-1*%
X106304000Y-92450000D03*
D15*
%TO.P,N2,12,NC*%
%TO.N,unconnected-(N2-NC-Pad12)*%
X110304000Y-93450000D03*
%TD*%
D10*
%TO.P,N5,1,A*%
%TO.N,Net-(N5-A)*%
X198316900Y-92450000D03*
D11*
%TO.P,N5,2,D0*%
%TO.N,/T5-0*%
X200066900Y-88950000D03*
D12*
%TO.P,N5,3,D9*%
%TO.N,/T5-9*%
X200066900Y-84450000D03*
D13*
%TO.P,N5,4,D8*%
%TO.N,/T5-8*%
X200066900Y-79950000D03*
D14*
%TO.P,N5,5,D7*%
%TO.N,/T5-7*%
X198316900Y-76325000D03*
D15*
%TO.P,N5,6,D6*%
%TO.N,/T5-6*%
X194316900Y-75200000D03*
D16*
%TO.P,N5,7,D5*%
%TO.N,/T5-5*%
X190316900Y-76325000D03*
D17*
%TO.P,N5,8,D4*%
%TO.N,/T5-4*%
X188566900Y-79950000D03*
D12*
%TO.P,N5,9,D3*%
%TO.N,/T5-3*%
X188566900Y-84450000D03*
D18*
%TO.P,N5,10,D2*%
%TO.N,/T5-2*%
X188566900Y-88950000D03*
D19*
%TO.P,N5,11,D1*%
%TO.N,/T5-1*%
X190316900Y-92450000D03*
D15*
%TO.P,N5,12,NC*%
%TO.N,unconnected-(N5-NC-Pad12)*%
X194316900Y-93450000D03*
%TD*%
D20*
%TO.P,R6,1*%
%TO.N,Net-(N6-A)*%
X216450000Y-68160000D03*
%TO.P,R6,2*%
%TO.N,Net-(J1-Pin_b1)*%
X207450000Y-68160000D03*
%TD*%
D10*
%TO.P,N1,1,A*%
%TO.N,Net-(N1-A)*%
X90296452Y-92450000D03*
D11*
%TO.P,N1,2,D0*%
%TO.N,/T1-0*%
X92046452Y-88950000D03*
D12*
%TO.P,N1,3,D9*%
%TO.N,/T1-9*%
X92046452Y-84450000D03*
D13*
%TO.P,N1,4,D8*%
%TO.N,/T1-8*%
X92046452Y-79950000D03*
D14*
%TO.P,N1,5,D7*%
%TO.N,/T1-7*%
X90296452Y-76325000D03*
D15*
%TO.P,N1,6,D6*%
%TO.N,/T1-6*%
X86296452Y-75200000D03*
D16*
%TO.P,N1,7,D5*%
%TO.N,/T1-5*%
X82296452Y-76325000D03*
D17*
%TO.P,N1,8,D4*%
%TO.N,/T1-4*%
X80546452Y-79950000D03*
D12*
%TO.P,N1,9,D3*%
%TO.N,/T1-3*%
X80546452Y-84450000D03*
D18*
%TO.P,N1,10,D2*%
%TO.N,/T1-2*%
X80546452Y-88950000D03*
D19*
%TO.P,N1,11,D1*%
%TO.N,/T1-1*%
X82296452Y-92450000D03*
D15*
%TO.P,N1,12,NC*%
%TO.N,unconnected-(N1-NC-Pad12)*%
X86296452Y-93450000D03*
%TD*%
D20*
%TO.P,R8,1*%
%TO.N,Net-(N2-A)*%
X87780000Y-109270000D03*
%TO.P,R8,2*%
%TO.N,Net-(J1-Pin_c1)*%
X87780000Y-118270000D03*
%TD*%
%TO.P,R10,1*%
%TO.N,MD4*%
X212863333Y-115530000D03*
%TO.P,R10,2*%
%TO.N,Net-(J1-Pin_a31)*%
X212863333Y-124530000D03*
%TD*%
%TO.P,R9,1*%
%TO.N,MD3*%
X205780000Y-115530000D03*
%TO.P,R9,2*%
%TO.N,Net-(J1-Pin_a31)*%
X205780000Y-124530000D03*
%TD*%
D10*
%TO.P,N6,1,A*%
%TO.N,Net-(N6-A)*%
X222330000Y-92450000D03*
D11*
%TO.P,N6,2,D0*%
%TO.N,/T6-0*%
X224080000Y-88950000D03*
D12*
%TO.P,N6,3,D9*%
%TO.N,/T6-9*%
X224080000Y-84450000D03*
D13*
%TO.P,N6,4,D8*%
%TO.N,/T6-8*%
X224080000Y-79950000D03*
D14*
%TO.P,N6,5,D7*%
%TO.N,/T6-7*%
X222330000Y-76325000D03*
D15*
%TO.P,N6,6,D6*%
%TO.N,/T6-6*%
X218330000Y-75200000D03*
D16*
%TO.P,N6,7,D5*%
%TO.N,/T6-5*%
X214330000Y-76325000D03*
D17*
%TO.P,N6,8,D4*%
%TO.N,/T6-4*%
X212580000Y-79950000D03*
D12*
%TO.P,N6,9,D3*%
%TO.N,/T6-3*%
X212580000Y-84450000D03*
D18*
%TO.P,N6,10,D2*%
%TO.N,/T6-2*%
X212580000Y-88950000D03*
D19*
%TO.P,N6,11,D1*%
%TO.N,/T6-1*%
X214330000Y-92450000D03*
D15*
%TO.P,N6,12,NC*%
%TO.N,unconnected-(N6-NC-Pad12)*%
X218330000Y-93450000D03*
%TD*%
D20*
%TO.P,R12,1*%
%TO.N,Net-(N6-A)*%
X227030000Y-115530000D03*
%TO.P,R12,2*%
%TO.N,Net-(J1-Pin_a32)*%
X227030000Y-124530000D03*
%TD*%
D21*
%TO.P,J1,a1,Pin_a1*%
%TO.N,/T1-5*%
X112980000Y-121920000D03*
D22*
%TO.P,J1,a2,Pin_a2*%
%TO.N,/T1-4*%
X115520000Y-121920000D03*
%TO.P,J1,a3,Pin_a3*%
%TO.N,/T1-3*%
X118060000Y-121920000D03*
%TO.P,J1,a4,Pin_a4*%
%TO.N,/T1-2*%
X120600000Y-121920000D03*
%TO.P,J1,a5,Pin_a5*%
%TO.N,/T1-1*%
X123140000Y-121920000D03*
%TO.P,J1,a6,Pin_a6*%
%TO.N,/T1-0*%
X125680000Y-121920000D03*
%TO.P,J1,a7,Pin_a7*%
%TO.N,/T1-9*%
X128220000Y-121920000D03*
%TO.P,J1,a8,Pin_a8*%
%TO.N,/T1-8*%
X130760000Y-121920000D03*
%TO.P,J1,a9,Pin_a9*%
%TO.N,/T1-7*%
X133300000Y-121920000D03*
%TO.P,J1,a10,Pin_a10*%
%TO.N,/T1-6*%
X135840000Y-121920000D03*
%TO.P,J1,a11,Pin_a11*%
%TO.N,/T2-5*%
X138380000Y-121920000D03*
%TO.P,J1,a12,Pin_a12*%
%TO.N,/T2-4*%
X140920000Y-121920000D03*
%TO.P,J1,a13,Pin_a13*%
%TO.N,/T2-3*%
X143460000Y-121920000D03*
%TO.P,J1,a14,Pin_a14*%
%TO.N,/T2-2*%
X146000000Y-121920000D03*
%TO.P,J1,a15,Pin_a15*%
%TO.N,/T2-1*%
X148540000Y-121920000D03*
%TO.P,J1,a16,Pin_a16*%
%TO.N,/T2-0*%
X151080000Y-121920000D03*
%TO.P,J1,a17,Pin_a17*%
%TO.N,/T2-9*%
X153620000Y-121920000D03*
%TO.P,J1,a18,Pin_a18*%
%TO.N,/T2-8*%
X156160000Y-121920000D03*
%TO.P,J1,a19,Pin_a19*%
%TO.N,/T2-7*%
X158700000Y-121920000D03*
%TO.P,J1,a20,Pin_a20*%
%TO.N,/T2-6*%
X161240000Y-121920000D03*
%TO.P,J1,a21,Pin_a21*%
%TO.N,/T3-5*%
X163780000Y-121920000D03*
%TO.P,J1,a22,Pin_a22*%
%TO.N,/T3-4*%
X166320000Y-121920000D03*
%TO.P,J1,a23,Pin_a23*%
%TO.N,/T3-3*%
X168860000Y-121920000D03*
%TO.P,J1,a24,Pin_a24*%
%TO.N,/T3-2*%
X171400000Y-121920000D03*
%TO.P,J1,a25,Pin_a25*%
%TO.N,/T3-1*%
X173940000Y-121920000D03*
%TO.P,J1,a26,Pin_a26*%
%TO.N,/T3-0*%
X176480000Y-121920000D03*
%TO.P,J1,a27,Pin_a27*%
%TO.N,/T3-9*%
X179020000Y-121920000D03*
%TO.P,J1,a28,Pin_a28*%
%TO.N,/T3-8*%
X181560000Y-121920000D03*
%TO.P,J1,a29,Pin_a29*%
%TO.N,/T3-7*%
X184100000Y-121920000D03*
%TO.P,J1,a30,Pin_a30*%
%TO.N,/T3-6*%
X186640000Y-121920000D03*
%TO.P,J1,a31,Pin_a31*%
%TO.N,Net-(J1-Pin_a31)*%
X189180000Y-121920000D03*
%TO.P,J1,a32,Pin_a32*%
%TO.N,Net-(J1-Pin_a32)*%
X191720000Y-121920000D03*
%TO.P,J1,b1,Pin_b1*%
%TO.N,Net-(J1-Pin_b1)*%
X112980000Y-119380000D03*
%TO.P,J1,b2,Pin_b2*%
X115520000Y-119380000D03*
%TO.P,J1,b3,Pin_b3*%
X118060000Y-119380000D03*
%TO.P,J1,b4,Pin_b4*%
X120600000Y-119380000D03*
%TO.P,J1,b5,Pin_b5*%
X123140000Y-119380000D03*
%TO.P,J1,b6,Pin_b6*%
X125680000Y-119380000D03*
%TO.P,J1,b7,Pin_b7*%
X128220000Y-119380000D03*
%TO.P,J1,b8,Pin_b8*%
X130760000Y-119380000D03*
%TO.P,J1,b9,Pin_b9*%
X133300000Y-119380000D03*
%TO.P,J1,b10,Pin_b10*%
X135840000Y-119380000D03*
%TO.P,J1,b11,Pin_b11*%
X138380000Y-119380000D03*
%TO.P,J1,b12,Pin_b12*%
X140920000Y-119380000D03*
%TO.P,J1,b13,Pin_b13*%
X143460000Y-119380000D03*
%TO.P,J1,b14,Pin_b14*%
X146000000Y-119380000D03*
%TO.P,J1,b15,Pin_b15*%
X148540000Y-119380000D03*
%TO.P,J1,b16,Pin_b16*%
X151080000Y-119380000D03*
%TO.P,J1,b17,Pin_b17*%
%TO.N,GND*%
X153620000Y-119380000D03*
%TO.P,J1,b18,Pin_b18*%
X156160000Y-119380000D03*
%TO.P,J1,b19,Pin_b19*%
X158700000Y-119380000D03*
%TO.P,J1,b20,Pin_b20*%
X161240000Y-119380000D03*
%TO.P,J1,b21,Pin_b21*%
X163780000Y-119380000D03*
%TO.P,J1,b22,Pin_b22*%
X166320000Y-119380000D03*
%TO.P,J1,b23,Pin_b23*%
X168860000Y-119380000D03*
%TO.P,J1,b24,Pin_b24*%
X171400000Y-119380000D03*
%TO.P,J1,b25,Pin_b25*%
X173940000Y-119380000D03*
%TO.P,J1,b26,Pin_b26*%
X176480000Y-119380000D03*
%TO.P,J1,b27,Pin_b27*%
X179020000Y-119380000D03*
%TO.P,J1,b28,Pin_b28*%
X181560000Y-119380000D03*
%TO.P,J1,b29,Pin_b29*%
X184100000Y-119380000D03*
%TO.P,J1,b30,Pin_b30*%
X186640000Y-119380000D03*
%TO.P,J1,b31,Pin_b31*%
X189180000Y-119380000D03*
%TO.P,J1,b32,Pin_b32*%
X191720000Y-119380000D03*
%TO.P,J1,c1,Pin_c1*%
%TO.N,Net-(J1-Pin_c1)*%
X112980000Y-116840000D03*
%TO.P,J1,c2,Pin_c2*%
%TO.N,Net-(J1-Pin_c2)*%
X115520000Y-116840000D03*
%TO.P,J1,c3,Pin_c3*%
%TO.N,/T4-5*%
X118060000Y-116840000D03*
%TO.P,J1,c4,Pin_c4*%
%TO.N,/T4-4*%
X120600000Y-116840000D03*
%TO.P,J1,c5,Pin_c5*%
%TO.N,/T4-3*%
X123140000Y-116840000D03*
%TO.P,J1,c6,Pin_c6*%
%TO.N,/T4-2*%
X125680000Y-116840000D03*
%TO.P,J1,c7,Pin_c7*%
%TO.N,/T4-1*%
X128220000Y-116840000D03*
%TO.P,J1,c8,Pin_c8*%
%TO.N,/T4-0*%
X130760000Y-116840000D03*
%TO.P,J1,c9,Pin_c9*%
%TO.N,/T4-9*%
X133300000Y-116840000D03*
%TO.P,J1,c10,Pin_c10*%
%TO.N,/T4-8*%
X135840000Y-116840000D03*
%TO.P,J1,c11,Pin_c11*%
%TO.N,/T4-7*%
X138380000Y-116840000D03*
%TO.P,J1,c12,Pin_c12*%
%TO.N,/T4-6*%
X140920000Y-116840000D03*
%TO.P,J1,c13,Pin_c13*%
%TO.N,/T5-5*%
X143460000Y-116840000D03*
%TO.P,J1,c14,Pin_c14*%
%TO.N,/T5-4*%
X146000000Y-116840000D03*
%TO.P,J1,c15,Pin_c15*%
%TO.N,/T5-3*%
X148540000Y-116840000D03*
%TO.P,J1,c16,Pin_c16*%
%TO.N,/T5-2*%
X151080000Y-116840000D03*
%TO.P,J1,c17,Pin_c17*%
%TO.N,/T5-1*%
X153620000Y-116840000D03*
%TO.P,J1,c18,Pin_c18*%
%TO.N,/T5-0*%
X156160000Y-116840000D03*
%TO.P,J1,c19,Pin_c19*%
%TO.N,/T5-9*%
X158700000Y-116840000D03*
%TO.P,J1,c20,Pin_c20*%
%TO.N,/T5-8*%
X161240000Y-116840000D03*
%TO.P,J1,c21,Pin_c21*%
%TO.N,/T5-7*%
X163780000Y-116840000D03*
%TO.P,J1,c22,Pin_c22*%
%TO.N,/T5-6*%
X166320000Y-116840000D03*
%TO.P,J1,c23,Pin_c23*%
%TO.N,/T6-5*%
X168860000Y-116840000D03*
%TO.P,J1,c24,Pin_c24*%
%TO.N,/T6-4*%
X171400000Y-116840000D03*
%TO.P,J1,c25,Pin_c25*%
%TO.N,/T6-3*%
X173940000Y-116840000D03*
%TO.P,J1,c26,Pin_c26*%
%TO.N,/T6-2*%
X176480000Y-116840000D03*
%TO.P,J1,c27,Pin_c27*%
%TO.N,/T6-1*%
X179020000Y-116840000D03*
%TO.P,J1,c28,Pin_c28*%
%TO.N,/T6-0*%
X181560000Y-116840000D03*
%TO.P,J1,c29,Pin_c29*%
%TO.N,/T6-9*%
X184100000Y-116840000D03*
%TO.P,J1,c30,Pin_c30*%
%TO.N,/T6-8*%
X186640000Y-116840000D03*
%TO.P,J1,c31,Pin_c31*%
%TO.N,/T6-7*%
X189180000Y-116840000D03*
%TO.P,J1,c32,Pin_c32*%
%TO.N,/T6-6*%
X191720000Y-116840000D03*
%TD*%
D23*
%TO.N,Net-(J1-Pin_c1)*%
X102920000Y-116840000D03*
%TO.N,Net-(J1-Pin_c2)*%
X100910000Y-115110000D03*
%TD*%
D24*
%TO.N,/T4-6*%
X140920000Y-116840000D02*
X155700000Y-102060000D01*
X176170000Y-98010000D02*
X176170000Y-75970000D01*
X166946800Y-72570000D02*
X164316800Y-75200000D01*
X155700000Y-102060000D02*
X172120000Y-102060000D01*
X176170000Y-75970000D02*
X172770000Y-72570000D01*
X172120000Y-102060000D02*
X176170000Y-98010000D01*
X172770000Y-72570000D02*
X166946800Y-72570000D01*
%TO.N,/T6-2*%
X211870000Y-98070000D02*
X198170000Y-111770000D01*
X212580000Y-88950000D02*
X211870000Y-89660000D01*
X181550000Y-111770000D02*
X176480000Y-116840000D01*
X198170000Y-111770000D02*
X181550000Y-111770000D01*
X211870000Y-89660000D02*
X211870000Y-98070000D01*
D25*
%TO.N,Net-(J1-Pin_b1)*%
X102394000Y-65200000D02*
X126463700Y-65200000D01*
X78870000Y-112930000D02*
X75424000Y-109484000D01*
X150446800Y-65170000D02*
X153446800Y-68170000D01*
X153446800Y-68170000D02*
X156346800Y-65270000D01*
X186720000Y-65210000D02*
X204500000Y-65210000D01*
X126463700Y-65200000D02*
X129433700Y-68170000D01*
X75424000Y-109484000D02*
X75424000Y-68190000D01*
X180556900Y-65270000D02*
X183456900Y-68170000D01*
X132433700Y-65170000D02*
X150446800Y-65170000D01*
X151080000Y-119380000D02*
X98300000Y-119380000D01*
X78524000Y-65090000D02*
X96344000Y-65090000D01*
X183456900Y-68170000D02*
X183760000Y-68170000D01*
X98300000Y-119380000D02*
X91850000Y-112930000D01*
X156346800Y-65270000D02*
X180556900Y-65270000D01*
X204500000Y-65210000D02*
X207450000Y-68160000D01*
X75424000Y-68190000D02*
X78524000Y-65090000D01*
X183760000Y-68170000D02*
X186720000Y-65210000D01*
X129433700Y-68170000D02*
X132433700Y-65170000D01*
X91850000Y-112930000D02*
X78870000Y-112930000D01*
X99424000Y-68170000D02*
X102394000Y-65200000D01*
X96344000Y-65090000D02*
X99424000Y-68170000D01*
D24*
%TO.N,/T4-3*%
X154680000Y-87110000D02*
X157340000Y-84450000D01*
X157340000Y-84450000D02*
X158566800Y-84450000D01*
X154680000Y-91820000D02*
X154680000Y-87110000D01*
X127650000Y-112330000D02*
X134170000Y-112330000D01*
X134170000Y-112330000D02*
X154680000Y-91820000D01*
X123140000Y-116840000D02*
X127650000Y-112330000D01*
%TO.N,/T5-1*%
X153620000Y-116840000D02*
X164790000Y-105670000D01*
X190316900Y-99903100D02*
X190316900Y-92450000D01*
X164790000Y-105670000D02*
X184550000Y-105670000D01*
X184550000Y-105670000D02*
X190316900Y-99903100D01*
%TO.N,/T6-6*%
X191720000Y-116840000D02*
X191730000Y-116830000D01*
X225880000Y-72760000D02*
X220770000Y-72760000D01*
X229400000Y-95210000D02*
X229400000Y-76280000D01*
X229400000Y-76280000D02*
X225880000Y-72760000D01*
X191730000Y-116830000D02*
X198834374Y-116830000D01*
X219380000Y-105230000D02*
X229400000Y-95210000D01*
X210434374Y-105230000D02*
X219380000Y-105230000D01*
X198834374Y-116830000D02*
X210434374Y-105230000D01*
X220770000Y-72760000D02*
X218330000Y-75200000D01*
%TO.N,/T4-0*%
X169960000Y-99480000D02*
X173290000Y-96150000D01*
X150470000Y-99480000D02*
X169960000Y-99480000D01*
X130760000Y-116840000D02*
X133140000Y-114460000D01*
X135490000Y-114460000D02*
X150470000Y-99480000D01*
X173290000Y-92173200D02*
X170066800Y-88950000D01*
X133140000Y-114460000D02*
X135490000Y-114460000D01*
X173290000Y-96150000D02*
X173290000Y-92173200D01*
%TO.N,/T6-8*%
X218510000Y-104030000D02*
X228000000Y-94540000D01*
X186640000Y-116840000D02*
X186640000Y-116820000D01*
X188780000Y-114680000D02*
X198970000Y-114680000D01*
X228000000Y-94540000D02*
X228000000Y-82000000D01*
X186640000Y-116820000D02*
X188780000Y-114680000D01*
X209620000Y-104030000D02*
X218510000Y-104030000D01*
X225950000Y-79950000D02*
X224080000Y-79950000D01*
X228000000Y-82000000D02*
X225950000Y-79950000D01*
X198970000Y-114680000D02*
X209620000Y-104030000D01*
%TO.N,/T5-7*%
X163780000Y-116840000D02*
X172380000Y-108240000D01*
X196420000Y-108240000D02*
X205510000Y-99150000D01*
X202260000Y-74530000D02*
X200111900Y-74530000D01*
X205510000Y-99150000D02*
X205510000Y-77780000D01*
X205510000Y-77780000D02*
X202260000Y-74530000D01*
X172380000Y-108240000D02*
X196420000Y-108240000D01*
X200111900Y-74530000D02*
X198316900Y-76325000D01*
%TO.N,/T6-0*%
X185210000Y-113190000D02*
X198631472Y-113190000D01*
X225950000Y-94590000D02*
X225950000Y-90820000D01*
X208991472Y-102830000D02*
X217710000Y-102830000D01*
X198631472Y-113190000D02*
X208991472Y-102830000D01*
X225950000Y-90820000D02*
X224080000Y-88950000D01*
X217710000Y-102830000D02*
X225950000Y-94590000D01*
X181560000Y-116840000D02*
X185210000Y-113190000D01*
%TO.N,/T4-7*%
X138380000Y-116840000D02*
X153760000Y-101460000D01*
X175430000Y-97420000D02*
X175430000Y-76130000D01*
X171390000Y-101460000D02*
X175430000Y-97420000D01*
X171001800Y-73640000D02*
X168316800Y-76325000D01*
X172940000Y-73640000D02*
X171001800Y-73640000D01*
X153760000Y-101460000D02*
X171390000Y-101460000D01*
X175430000Y-76130000D02*
X172940000Y-73640000D01*
%TO.N,/T5-3*%
X148540000Y-116840000D02*
X161150000Y-104230000D01*
X186014560Y-101915440D02*
X186014560Y-87002340D01*
X186014560Y-87002340D02*
X188566900Y-84450000D01*
X161150000Y-104230000D02*
X183700000Y-104230000D01*
X183700000Y-104230000D02*
X186014560Y-101915440D01*
%TO.N,/T6-7*%
X189180000Y-116840000D02*
X189180000Y-116810000D01*
X190430000Y-115560000D02*
X199100000Y-115560000D01*
X226405000Y-76325000D02*
X222330000Y-76325000D01*
X228730000Y-94830000D02*
X228730000Y-78650000D01*
X199100000Y-115560000D02*
X210030000Y-104630000D01*
X189180000Y-116810000D02*
X190430000Y-115560000D01*
X210030000Y-104630000D02*
X218930000Y-104630000D01*
X218930000Y-104630000D02*
X228730000Y-94830000D01*
X228730000Y-78650000D02*
X226405000Y-76325000D01*
%TO.N,/T5-0*%
X156160000Y-116840000D02*
X166670000Y-106330000D01*
X166670000Y-106330000D02*
X195380000Y-106330000D01*
X203310000Y-92193100D02*
X200066900Y-88950000D01*
X203310000Y-98400000D02*
X203310000Y-92193100D01*
X195380000Y-106330000D02*
X203310000Y-98400000D01*
%TO.N,/T6-9*%
X198810000Y-113860000D02*
X209240000Y-103430000D01*
X227340000Y-87710000D02*
X224080000Y-84450000D01*
X187060000Y-113860000D02*
X198810000Y-113860000D01*
X209240000Y-103430000D02*
X218100000Y-103430000D01*
X184100000Y-116840000D02*
X184100000Y-116820000D01*
X184100000Y-116820000D02*
X187060000Y-113860000D01*
X227340000Y-94190000D02*
X227340000Y-87710000D01*
X218100000Y-103430000D02*
X227340000Y-94190000D01*
%TO.N,/T5-6*%
X196830000Y-108980000D02*
X174180000Y-108980000D01*
X194316900Y-75200000D02*
X196816900Y-72700000D01*
X206210000Y-77530000D02*
X206210000Y-99600000D01*
X201380000Y-72700000D02*
X206210000Y-77530000D01*
X196816900Y-72700000D02*
X201380000Y-72700000D01*
X206210000Y-99600000D02*
X196830000Y-108980000D01*
X174180000Y-108980000D02*
X166320000Y-116840000D01*
%TO.N,/T4-8*%
X172710000Y-79950000D02*
X170066800Y-79950000D01*
X151820000Y-100860000D02*
X170780000Y-100860000D01*
X174640000Y-97000000D02*
X174640000Y-81880000D01*
X170780000Y-100860000D02*
X174640000Y-97000000D01*
X174640000Y-81880000D02*
X172710000Y-79950000D01*
X135840000Y-116840000D02*
X151820000Y-100860000D01*
%TO.N,/T5-2*%
X187490000Y-90026900D02*
X188566900Y-88950000D01*
X162970000Y-104950000D02*
X184100000Y-104950000D01*
X187490000Y-101560000D02*
X187490000Y-90026900D01*
X184100000Y-104950000D02*
X187490000Y-101560000D01*
X151080000Y-116840000D02*
X162970000Y-104950000D01*
%TO.N,/T6-4*%
X197700000Y-110290000D02*
X177950000Y-110290000D01*
X212580000Y-79950000D02*
X209427660Y-83102340D01*
X209427660Y-98562340D02*
X197700000Y-110290000D01*
X209427660Y-83102340D02*
X209427660Y-98562340D01*
X177950000Y-110290000D02*
X171400000Y-116840000D01*
%TO.N,/T5-4*%
X146000000Y-116840000D02*
X159310000Y-103530000D01*
X185310000Y-83206900D02*
X188566900Y-79950000D01*
X185310000Y-101480000D02*
X185310000Y-83206900D01*
X183260000Y-103530000D02*
X185310000Y-101480000D01*
X159310000Y-103530000D02*
X183260000Y-103530000D01*
%TO.N,/T5-5*%
X182890000Y-102800000D02*
X184670000Y-101020000D01*
X187275000Y-76325000D02*
X190316900Y-76325000D01*
X184670000Y-78930000D02*
X187275000Y-76325000D01*
X184670000Y-101020000D02*
X184670000Y-78930000D01*
X157500000Y-102800000D02*
X182890000Y-102800000D01*
X143460000Y-116840000D02*
X157500000Y-102800000D01*
%TO.N,/T4-4*%
X125820000Y-111620000D02*
X133800000Y-111620000D01*
X156430000Y-79950000D02*
X158566800Y-79950000D01*
X120600000Y-116840000D02*
X125820000Y-111620000D01*
X133800000Y-111620000D02*
X154040000Y-91380000D01*
X154040000Y-91380000D02*
X154040000Y-82340000D01*
X154040000Y-82340000D02*
X156430000Y-79950000D01*
D25*
%TO.N,GND*%
X153620000Y-119380000D02*
X191720000Y-119380000D01*
D24*
%TO.N,/T4-9*%
X133300000Y-116840000D02*
X134950000Y-115190000D01*
X134950000Y-115190000D02*
X136060000Y-115190000D01*
X170410000Y-100130000D02*
X174000000Y-96540000D01*
X174000000Y-86800000D02*
X171650000Y-84450000D01*
X171650000Y-84450000D02*
X170066800Y-84450000D01*
X151120000Y-100130000D02*
X170410000Y-100130000D01*
X174000000Y-96540000D02*
X174000000Y-86800000D01*
X136060000Y-115190000D02*
X151120000Y-100130000D01*
%TO.N,/T5-9*%
X204000000Y-86990000D02*
X201460000Y-84450000D01*
X195680000Y-106990000D02*
X204000000Y-98670000D01*
X168550000Y-106990000D02*
X195680000Y-106990000D01*
X158700000Y-116840000D02*
X168550000Y-106990000D01*
X201460000Y-84450000D02*
X200066900Y-84450000D01*
X204000000Y-98670000D02*
X204000000Y-86990000D01*
D26*
%TO.N,Net-(J1-Pin_c1)*%
X102920000Y-116840000D02*
X112980000Y-116840000D01*
D24*
%TO.N,/T4-2*%
X125680000Y-116840000D02*
X129450000Y-113070000D01*
X129450000Y-113070000D02*
X134446800Y-113070000D01*
X134446800Y-113070000D02*
X158566800Y-88950000D01*
%TO.N,/T6-1*%
X179050000Y-116840000D02*
X183380000Y-112510000D01*
X179020000Y-116840000D02*
X179050000Y-116840000D01*
X214330000Y-96500000D02*
X214330000Y-92450000D01*
X198320000Y-112510000D02*
X214330000Y-96500000D01*
X183380000Y-112510000D02*
X198320000Y-112510000D01*
%TO.N,/T6-5*%
X197310000Y-109650000D02*
X208620000Y-98340000D01*
X208620000Y-79780000D02*
X212075000Y-76325000D01*
X208620000Y-98340000D02*
X208620000Y-79780000D01*
X176050000Y-109650000D02*
X197310000Y-109650000D01*
X168860000Y-116840000D02*
X176050000Y-109650000D01*
X212075000Y-76325000D02*
X214330000Y-76325000D01*
%TO.N,/T4-5*%
X153290000Y-91070000D02*
X153290000Y-77920000D01*
X124010000Y-110890000D02*
X133470000Y-110890000D01*
X133470000Y-110890000D02*
X153290000Y-91070000D01*
X118060000Y-116840000D02*
X124010000Y-110890000D01*
X154885000Y-76325000D02*
X160316800Y-76325000D01*
X153290000Y-77920000D02*
X154885000Y-76325000D01*
%TO.N,/T6-3*%
X179780000Y-111000000D02*
X197940000Y-111000000D01*
X197940000Y-111000000D02*
X210027660Y-98912340D01*
X210027660Y-98912340D02*
X210027660Y-87002340D01*
X173940000Y-116840000D02*
X179780000Y-111000000D01*
X210027660Y-87002340D02*
X212580000Y-84450000D01*
%TO.N,/T5-8*%
X161240000Y-116840000D02*
X170440000Y-107640000D01*
X204660000Y-82660000D02*
X201950000Y-79950000D01*
X204660000Y-98980000D02*
X204660000Y-82660000D01*
X201950000Y-79950000D02*
X200066900Y-79950000D01*
X196000000Y-107640000D02*
X204660000Y-98980000D01*
X170440000Y-107640000D02*
X196000000Y-107640000D01*
%TO.N,/T4-1*%
X156260000Y-92450000D02*
X160316800Y-92450000D01*
X131280000Y-113780000D02*
X134930000Y-113780000D01*
X128220000Y-116840000D02*
X131280000Y-113780000D01*
X134930000Y-113780000D02*
X156260000Y-92450000D01*
D25*
%TO.N,Net-(N1-A)*%
X96180000Y-76030000D02*
X96180000Y-90470000D01*
X94200000Y-92450000D02*
X90296452Y-92450000D01*
X88340000Y-68190000D02*
X96180000Y-76030000D01*
X90296452Y-92450000D02*
X90296452Y-96703548D01*
X81560000Y-105440000D02*
X81560000Y-109270000D01*
X84424000Y-68190000D02*
X88340000Y-68190000D01*
X96180000Y-90470000D02*
X94200000Y-92450000D01*
X90296452Y-96703548D02*
X81560000Y-105440000D01*
%TO.N,Net-(N2-A)*%
X107780000Y-103530000D02*
X93520000Y-103530000D01*
X114304000Y-97006000D02*
X107780000Y-103530000D01*
X112150000Y-68170000D02*
X120580000Y-76600000D01*
X120580000Y-76600000D02*
X120580000Y-90090000D01*
X108424000Y-68170000D02*
X112150000Y-68170000D01*
X93520000Y-103530000D02*
X87780000Y-109270000D01*
X118220000Y-92450000D02*
X114304000Y-92450000D01*
X114304000Y-92450000D02*
X114304000Y-97006000D01*
X120580000Y-90090000D02*
X118220000Y-92450000D01*
D26*
%TO.N,Net-(J1-Pin_a31)*%
X192310000Y-123660000D02*
X190800000Y-123660000D01*
X212863333Y-124530000D02*
X205780000Y-124530000D01*
X205780000Y-124530000D02*
X202120000Y-120870000D01*
X202120000Y-120870000D02*
X195100000Y-120870000D01*
X189180000Y-122040000D02*
X189180000Y-121920000D01*
X190800000Y-123660000D02*
X189180000Y-122040000D01*
X195100000Y-120870000D02*
X192310000Y-123660000D01*
%TO.N,Net-(J1-Pin_a32)*%
X194410000Y-119390000D02*
X191880000Y-121920000D01*
X214806666Y-119390000D02*
X194410000Y-119390000D01*
X219946666Y-124530000D02*
X214806666Y-119390000D01*
X191880000Y-121920000D02*
X191720000Y-121920000D01*
X227030000Y-124530000D02*
X219946666Y-124530000D01*
%TO.N,Net-(J1-Pin_c2)*%
X113790000Y-115110000D02*
X100910000Y-115110000D01*
X100910000Y-115110000D02*
X100880000Y-115110000D01*
X115520000Y-116840000D02*
X113790000Y-115110000D01*
D25*
%TO.N,MD3*%
X210990000Y-107340000D02*
X205780000Y-112550000D01*
X221910000Y-107340000D02*
X210990000Y-107340000D01*
X231350000Y-74850000D02*
X231350000Y-97900000D01*
X231350000Y-97900000D02*
X221910000Y-107340000D01*
X153110000Y-75580000D02*
X157800000Y-70890000D01*
X149850000Y-90720000D02*
X148120000Y-92450000D01*
X227390000Y-70890000D02*
X231350000Y-74850000D01*
X157800000Y-70890000D02*
X227390000Y-70890000D01*
X142440000Y-68170000D02*
X149850000Y-75580000D01*
X149850000Y-75580000D02*
X149850000Y-90720000D01*
X205780000Y-112550000D02*
X205780000Y-115530000D01*
X148120000Y-92450000D02*
X144303700Y-92450000D01*
X138433700Y-68170000D02*
X142440000Y-68170000D01*
X149850000Y-75580000D02*
X153110000Y-75580000D01*
%TD*%
M02*
