M48
; DRILL file {KiCad 8.0.8} date 2025-04-20T11:12:15-0700
; FORMAT={-:-/ absolute / metric / decimal}
; #@! TF.CreationDate,2025-04-20T11:12:15-07:00
; #@! TF.GenerationSoftware,Kicad,Pcbnew,8.0.8
; #@! TF.FileFunction,Plated,1,4,PTH
FMAT,2
METRIC
; #@! TA.AperFunction,Plated,PTH,ViaDrill
T1C0.300
; #@! TA.AperFunction,Plated,PTH,ComponentDrill
T2C1.000
; #@! TA.AperFunction,Plated,PTH,ComponentDrill
T3C2.500
%
G90
G05
T1
X100.91Y-115.11
X102.92Y-116.84
T2
X75.424Y-68.19
X84.424Y-68.19
X84.45Y-109.96
X84.45Y-118.96
X90.67Y-109.96
X90.67Y-118.96
X99.424Y-68.17
X108.424Y-68.17
X112.98Y-116.84
X112.98Y-119.38
X112.98Y-121.92
X115.52Y-116.84
X115.52Y-119.38
X115.52Y-121.92
X118.06Y-116.84
X118.06Y-119.38
X118.06Y-121.92
X120.6Y-116.84
X120.6Y-119.38
X120.6Y-121.92
X123.14Y-116.84
X123.14Y-119.38
X123.14Y-121.92
X125.68Y-116.84
X125.68Y-119.38
X125.68Y-121.92
X128.22Y-116.84
X128.22Y-119.38
X128.22Y-121.92
X129.434Y-68.17
X130.76Y-116.84
X130.76Y-119.38
X130.76Y-121.92
X133.3Y-116.84
X133.3Y-119.38
X133.3Y-121.92
X135.84Y-116.84
X135.84Y-119.38
X135.84Y-121.92
X138.38Y-116.84
X138.38Y-119.38
X138.38Y-121.92
X138.434Y-68.17
X140.92Y-116.84
X140.92Y-119.38
X140.92Y-121.92
X143.46Y-116.84
X143.46Y-119.38
X143.46Y-121.92
X146.0Y-116.84
X146.0Y-119.38
X146.0Y-121.92
X148.54Y-116.84
X148.54Y-119.38
X148.54Y-121.92
X151.08Y-116.84
X151.08Y-119.38
X151.08Y-121.92
X153.447Y-68.17
X153.62Y-116.84
X153.62Y-119.38
X153.62Y-121.92
X156.16Y-116.84
X156.16Y-119.38
X156.16Y-121.92
X158.7Y-116.84
X158.7Y-119.38
X158.7Y-121.92
X161.24Y-116.84
X161.24Y-119.38
X161.24Y-121.92
X162.447Y-68.17
X163.78Y-116.84
X163.78Y-119.38
X163.78Y-121.92
X166.32Y-116.84
X166.32Y-119.38
X166.32Y-121.92
X168.86Y-116.84
X168.86Y-119.38
X168.86Y-121.92
X171.4Y-116.84
X171.4Y-119.38
X171.4Y-121.92
X173.94Y-116.84
X173.94Y-119.38
X173.94Y-121.92
X176.48Y-116.84
X176.48Y-119.38
X176.48Y-121.92
X179.02Y-116.84
X179.02Y-119.38
X179.02Y-121.92
X181.56Y-116.84
X181.56Y-119.38
X181.56Y-121.92
X183.457Y-68.17
X184.1Y-116.84
X184.1Y-119.38
X184.1Y-121.92
X186.64Y-116.84
X186.64Y-119.38
X186.64Y-121.92
X189.18Y-116.84
X189.18Y-119.38
X189.18Y-121.92
X191.72Y-116.84
X191.72Y-119.38
X191.72Y-121.92
X192.457Y-68.17
X205.78Y-115.53
X205.78Y-124.53
X207.45Y-68.16
X212.863Y-115.53
X212.863Y-124.53
X216.45Y-68.16
X219.947Y-115.53
X219.947Y-124.53
X227.03Y-115.53
X227.03Y-124.53
T3
X80.546Y-79.95
X80.546Y-84.45
X80.546Y-88.95
X82.296Y-76.325
X82.296Y-92.45
X86.296Y-75.2
X86.296Y-93.45
X90.296Y-76.325
X90.296Y-92.45
X92.046Y-79.95
X92.046Y-84.45
X92.046Y-88.95
X104.554Y-79.95
X104.554Y-84.45
X104.554Y-88.95
X106.304Y-76.325
X106.304Y-92.45
X110.304Y-75.2
X110.304Y-93.45
X114.304Y-76.325
X114.304Y-92.45
X116.054Y-79.95
X116.054Y-84.45
X116.054Y-88.95
X134.554Y-79.95
X134.554Y-84.45
X134.554Y-88.95
X136.304Y-76.325
X136.304Y-92.45
X140.304Y-75.2
X140.304Y-93.45
X144.304Y-76.325
X144.304Y-92.45
X146.054Y-79.95
X146.054Y-84.45
X146.054Y-88.95
X158.567Y-79.95
X158.567Y-84.45
X158.567Y-88.95
X160.317Y-76.325
X160.317Y-92.45
X164.317Y-75.2
X164.317Y-93.45
X168.317Y-76.325
X168.317Y-92.45
X170.067Y-79.95
X170.067Y-84.45
X170.067Y-88.95
X188.567Y-79.95
X188.567Y-84.45
X188.567Y-88.95
X190.317Y-76.325
X190.317Y-92.45
X194.317Y-75.2
X194.317Y-93.45
X198.317Y-76.325
X198.317Y-92.45
X200.067Y-79.95
X200.067Y-84.45
X200.067Y-88.95
X212.58Y-79.95
X212.58Y-84.45
X212.58Y-88.95
X214.33Y-76.325
X214.33Y-92.45
X218.33Y-75.2
X218.33Y-93.45
X222.33Y-76.325
X222.33Y-92.45
X224.08Y-79.95
X224.08Y-84.45
X224.08Y-88.95
M30
