%TF.GenerationSoftware,KiCad,Pcbnew,8.0.8*%
%TF.CreationDate,2025-04-22T21:40:42-07:00*%
%TF.ProjectId,display,64697370-6c61-4792-9e6b-696361645f70,rev?*%
%TF.SameCoordinates,Original*%
%TF.FileFunction,Copper,L4,Bot*%
%TF.FilePolarity,Positive*%
%FSLAX46Y46*%
G04 Gerber Fmt 4.6, Leading zero omitted, Abs format (unit mm)*
G04 Created by KiCad (PCBNEW 8.0.8) date 2025-04-22 21:40:42*
%MOMM*%
%LPD*%
G01*
G04 APERTURE LIST*
G04 Aperture macros list*
%AMRoundRect*
0 Rectangle with rounded corners*
0 $1 Rounding radius*
0 $2 $3 $4 $5 $6 $7 $8 $9 X,Y pos of 4 corners*
0 Add a 4 corners polygon primitive as box body*
4,1,4,$2,$3,$4,$5,$6,$7,$8,$9,$2,$3,0*
0 Add four circle primitives for the rounded corners*
1,1,$1+$1,$2,$3*
1,1,$1+$1,$4,$5*
1,1,$1+$1,$6,$7*
1,1,$1+$1,$8,$9*
0 Add four rect primitives between the rounded corners*
20,1,$1+$1,$2,$3,$4,$5,0*
20,1,$1+$1,$4,$5,$6,$7,0*
20,1,$1+$1,$6,$7,$8,$9,0*
20,1,$1+$1,$8,$9,$2,$3,0*%
%AMHorizOval*
0 Thick line with rounded ends*
0 $1 width*
0 $2 $3 position (X,Y) of the first rounded end (center of the circle)*
0 $4 $5 position (X,Y) of the second rounded end (center of the circle)*
0 Add line between two ends*
20,1,$1,$2,$3,$4,$5,0*
0 Add two circle primitives to create the rounded ends*
1,1,$1,$2,$3*
1,1,$1,$4,$5*%
G04 Aperture macros list end*
%TA.AperFunction,ComponentPad*%
%ADD10HorizOval,3.000000X-0.223880X0.447077X0.223880X-0.447077X0*%
%TD*%
%TA.AperFunction,ComponentPad*%
%ADD11HorizOval,3.000000X-0.447077X0.223880X0.447077X-0.223880X0*%
%TD*%
%TA.AperFunction,ComponentPad*%
%ADD12O,4.000000X3.000000*%
%TD*%
%TA.AperFunction,ComponentPad*%
%ADD13HorizOval,3.000000X-0.307831X-0.394005X0.307831X0.394005X0*%
%TD*%
%TA.AperFunction,ComponentPad*%
%ADD14HorizOval,3.000000X-0.223880X-0.447077X0.223880X0.447077X0*%
%TD*%
%TA.AperFunction,ComponentPad*%
%ADD15O,3.000000X4.000000*%
%TD*%
%TA.AperFunction,ComponentPad*%
%ADD16HorizOval,3.000000X-0.223880X0.447077X0.223880X-0.447077X0*%
%TD*%
%TA.AperFunction,ComponentPad*%
%ADD17HorizOval,3.000000X-0.307831X0.394005X0.307831X-0.394005X0*%
%TD*%
%TA.AperFunction,ComponentPad*%
%ADD18HorizOval,3.000000X0.447077X0.223880X-0.447077X-0.223880X0*%
%TD*%
%TA.AperFunction,ComponentPad*%
%ADD19HorizOval,3.000000X0.223880X0.447077X-0.223880X-0.447077X0*%
%TD*%
%TA.AperFunction,ComponentPad*%
%ADD20C,2.000000*%
%TD*%
%TA.AperFunction,ComponentPad*%
%ADD21RoundRect,0.249999X-0.525001X-0.525001X0.525001X-0.525001X0.525001X0.525001X-0.525001X0.525001X0*%
%TD*%
%TA.AperFunction,ComponentPad*%
%ADD22C,1.550000*%
%TD*%
%TA.AperFunction,ViaPad*%
%ADD23C,0.600000*%
%TD*%
%TA.AperFunction,Conductor*%
%ADD24C,0.300000*%
%TD*%
%TA.AperFunction,Conductor*%
%ADD25C,1.000000*%
%TD*%
%TA.AperFunction,Conductor*%
%ADD26C,1.600000*%
%TD*%
G04 APERTURE END LIST*
D10*
%TO.P,N3,1,A*%
%TO.N,MD3*%
X144303700Y-92450000D03*
D11*
%TO.P,N3,2,D0*%
%TO.N,/T3-0*%
X146053700Y-88950000D03*
D12*
%TO.P,N3,3,D9*%
%TO.N,/T3-9*%
X146053700Y-84450000D03*
D13*
%TO.P,N3,4,D8*%
%TO.N,/T3-8*%
X146053700Y-79950000D03*
D14*
%TO.P,N3,5,D7*%
%TO.N,/T3-7*%
X144303700Y-76325000D03*
D15*
%TO.P,N3,6,D6*%
%TO.N,/T3-6*%
X140303700Y-75200000D03*
D16*
%TO.P,N3,7,D5*%
%TO.N,/T3-5*%
X136303700Y-76325000D03*
D17*
%TO.P,N3,8,D4*%
%TO.N,/T3-4*%
X134553700Y-79950000D03*
D12*
%TO.P,N3,9,D3*%
%TO.N,/T3-3*%
X134553700Y-84450000D03*
D18*
%TO.P,N3,10,D2*%
%TO.N,/T3-2*%
X134553700Y-88950000D03*
D19*
%TO.P,N3,11,D1*%
%TO.N,/T3-1*%
X136303700Y-92450000D03*
D15*
%TO.P,N3,12,NC*%
%TO.N,unconnected-(N3-NC-Pad12)*%
X140303700Y-93450000D03*
%TD*%
D20*
%TO.P,R2,1*%
%TO.N,Net-(N2-A)*%
X108424000Y-68170000D03*
%TO.P,R2,2*%
%TO.N,Net-(J1-Pin_b1)*%
X99424000Y-68170000D03*
%TD*%
%TO.P,R1,1*%
%TO.N,Net-(N1-A)*%
X84424000Y-68190000D03*
%TO.P,R1,2*%
%TO.N,Net-(J1-Pin_b1)*%
X75424000Y-68190000D03*
%TD*%
%TO.P,R3,1*%
%TO.N,MD3*%
X138433700Y-68170000D03*
%TO.P,R3,2*%
%TO.N,Net-(J1-Pin_b1)*%
X129433700Y-68170000D03*
%TD*%
%TO.P,R11,1*%
%TO.N,Net-(N5-A)*%
X219946666Y-115530000D03*
%TO.P,R11,2*%
%TO.N,Net-(J1-Pin_a32)*%
X219946666Y-124530000D03*
%TD*%
%TO.P,R4,1*%
%TO.N,MD4*%
X162446800Y-68170000D03*
%TO.P,R4,2*%
%TO.N,Net-(J1-Pin_b1)*%
X153446800Y-68170000D03*
%TD*%
%TO.P,R5,1*%
%TO.N,Net-(N5-A)*%
X192456900Y-68170000D03*
%TO.P,R5,2*%
%TO.N,Net-(J1-Pin_b1)*%
X183456900Y-68170000D03*
%TD*%
%TO.P,R7,1*%
%TO.N,Net-(N1-A)*%
X81560000Y-109270000D03*
%TO.P,R7,2*%
%TO.N,Net-(J1-Pin_c2)*%
X81560000Y-118270000D03*
%TD*%
D10*
%TO.P,N4,1,A*%
%TO.N,MD4*%
X168316800Y-92450000D03*
D11*
%TO.P,N4,2,D0*%
%TO.N,/T4-0*%
X170066800Y-88950000D03*
D12*
%TO.P,N4,3,D9*%
%TO.N,/T4-9*%
X170066800Y-84450000D03*
D13*
%TO.P,N4,4,D8*%
%TO.N,/T4-8*%
X170066800Y-79950000D03*
D14*
%TO.P,N4,5,D7*%
%TO.N,/T4-7*%
X168316800Y-76325000D03*
D15*
%TO.P,N4,6,D6*%
%TO.N,/T4-6*%
X164316800Y-75200000D03*
D16*
%TO.P,N4,7,D5*%
%TO.N,/T4-5*%
X160316800Y-76325000D03*
D17*
%TO.P,N4,8,D4*%
%TO.N,/T4-4*%
X158566800Y-79950000D03*
D12*
%TO.P,N4,9,D3*%
%TO.N,/T4-3*%
X158566800Y-84450000D03*
D18*
%TO.P,N4,10,D2*%
%TO.N,/T4-2*%
X158566800Y-88950000D03*
D19*
%TO.P,N4,11,D1*%
%TO.N,/T4-1*%
X160316800Y-92450000D03*
D15*
%TO.P,N4,12,NC*%
%TO.N,unconnected-(N4-NC-Pad12)*%
X164316800Y-93450000D03*
%TD*%
D10*
%TO.P,N2,1,A*%
%TO.N,Net-(N2-A)*%
X114304000Y-92450000D03*
D11*
%TO.P,N2,2,D0*%
%TO.N,/T2-0*%
X116054000Y-88950000D03*
D12*
%TO.P,N2,3,D9*%
%TO.N,/T2-9*%
X116054000Y-84450000D03*
D13*
%TO.P,N2,4,D8*%
%TO.N,/T2-8*%
X116054000Y-79950000D03*
D14*
%TO.P,N2,5,D7*%
%TO.N,/T2-7*%
X114304000Y-76325000D03*
D15*
%TO.P,N2,6,D6*%
%TO.N,/T2-6*%
X110304000Y-75200000D03*
D16*
%TO.P,N2,7,D5*%
%TO.N,/T2-5*%
X106304000Y-76325000D03*
D17*
%TO.P,N2,8,D4*%
%TO.N,/T2-4*%
X104554000Y-79950000D03*
D12*
%TO.P,N2,9,D3*%
%TO.N,/T2-3*%
X104554000Y-84450000D03*
D18*
%TO.P,N2,10,D2*%
%TO.N,/T2-2*%
X104554000Y-88950000D03*
D19*
%TO.P,N2,11,D1*%
%TO.N,/T2-1*%
X106304000Y-92450000D03*
D15*
%TO.P,N2,12,NC*%
%TO.N,unconnected-(N2-NC-Pad12)*%
X110304000Y-93450000D03*
%TD*%
D10*
%TO.P,N5,1,A*%
%TO.N,Net-(N5-A)*%
X198316900Y-92450000D03*
D11*
%TO.P,N5,2,D0*%
%TO.N,/T5-0*%
X200066900Y-88950000D03*
D12*
%TO.P,N5,3,D9*%
%TO.N,/T5-9*%
X200066900Y-84450000D03*
D13*
%TO.P,N5,4,D8*%
%TO.N,/T5-8*%
X200066900Y-79950000D03*
D14*
%TO.P,N5,5,D7*%
%TO.N,/T5-7*%
X198316900Y-76325000D03*
D15*
%TO.P,N5,6,D6*%
%TO.N,/T5-6*%
X194316900Y-75200000D03*
D16*
%TO.P,N5,7,D5*%
%TO.N,/T5-5*%
X190316900Y-76325000D03*
D17*
%TO.P,N5,8,D4*%
%TO.N,/T5-4*%
X188566900Y-79950000D03*
D12*
%TO.P,N5,9,D3*%
%TO.N,/T5-3*%
X188566900Y-84450000D03*
D18*
%TO.P,N5,10,D2*%
%TO.N,/T5-2*%
X188566900Y-88950000D03*
D19*
%TO.P,N5,11,D1*%
%TO.N,/T5-1*%
X190316900Y-92450000D03*
D15*
%TO.P,N5,12,NC*%
%TO.N,unconnected-(N5-NC-Pad12)*%
X194316900Y-93450000D03*
%TD*%
D20*
%TO.P,R6,1*%
%TO.N,Net-(N6-A)*%
X216450000Y-68160000D03*
%TO.P,R6,2*%
%TO.N,Net-(J1-Pin_b1)*%
X207450000Y-68160000D03*
%TD*%
D10*
%TO.P,N1,1,A*%
%TO.N,Net-(N1-A)*%
X90296452Y-92450000D03*
D11*
%TO.P,N1,2,D0*%
%TO.N,/T1-0*%
X92046452Y-88950000D03*
D12*
%TO.P,N1,3,D9*%
%TO.N,/T1-9*%
X92046452Y-84450000D03*
D13*
%TO.P,N1,4,D8*%
%TO.N,/T1-8*%
X92046452Y-79950000D03*
D14*
%TO.P,N1,5,D7*%
%TO.N,/T1-7*%
X90296452Y-76325000D03*
D15*
%TO.P,N1,6,D6*%
%TO.N,/T1-6*%
X86296452Y-75200000D03*
D16*
%TO.P,N1,7,D5*%
%TO.N,/T1-5*%
X82296452Y-76325000D03*
D17*
%TO.P,N1,8,D4*%
%TO.N,/T1-4*%
X80546452Y-79950000D03*
D12*
%TO.P,N1,9,D3*%
%TO.N,/T1-3*%
X80546452Y-84450000D03*
D18*
%TO.P,N1,10,D2*%
%TO.N,/T1-2*%
X80546452Y-88950000D03*
D19*
%TO.P,N1,11,D1*%
%TO.N,/T1-1*%
X82296452Y-92450000D03*
D15*
%TO.P,N1,12,NC*%
%TO.N,unconnected-(N1-NC-Pad12)*%
X86296452Y-93450000D03*
%TD*%
D20*
%TO.P,R8,1*%
%TO.N,Net-(N2-A)*%
X87780000Y-109270000D03*
%TO.P,R8,2*%
%TO.N,Net-(J1-Pin_c1)*%
X87780000Y-118270000D03*
%TD*%
%TO.P,R10,1*%
%TO.N,MD4*%
X212863333Y-115530000D03*
%TO.P,R10,2*%
%TO.N,Net-(J1-Pin_a31)*%
X212863333Y-124530000D03*
%TD*%
%TO.P,R9,1*%
%TO.N,MD3*%
X205780000Y-115530000D03*
%TO.P,R9,2*%
%TO.N,Net-(J1-Pin_a31)*%
X205780000Y-124530000D03*
%TD*%
D10*
%TO.P,N6,1,A*%
%TO.N,Net-(N6-A)*%
X222330000Y-92450000D03*
D11*
%TO.P,N6,2,D0*%
%TO.N,/T6-0*%
X224080000Y-88950000D03*
D12*
%TO.P,N6,3,D9*%
%TO.N,/T6-9*%
X224080000Y-84450000D03*
D13*
%TO.P,N6,4,D8*%
%TO.N,/T6-8*%
X224080000Y-79950000D03*
D14*
%TO.P,N6,5,D7*%
%TO.N,/T6-7*%
X222330000Y-76325000D03*
D15*
%TO.P,N6,6,D6*%
%TO.N,/T6-6*%
X218330000Y-75200000D03*
D16*
%TO.P,N6,7,D5*%
%TO.N,/T6-5*%
X214330000Y-76325000D03*
D17*
%TO.P,N6,8,D4*%
%TO.N,/T6-4*%
X212580000Y-79950000D03*
D12*
%TO.P,N6,9,D3*%
%TO.N,/T6-3*%
X212580000Y-84450000D03*
D18*
%TO.P,N6,10,D2*%
%TO.N,/T6-2*%
X212580000Y-88950000D03*
D19*
%TO.P,N6,11,D1*%
%TO.N,/T6-1*%
X214330000Y-92450000D03*
D15*
%TO.P,N6,12,NC*%
%TO.N,unconnected-(N6-NC-Pad12)*%
X218330000Y-93450000D03*
%TD*%
D20*
%TO.P,R12,1*%
%TO.N,Net-(N6-A)*%
X227030000Y-115530000D03*
%TO.P,R12,2*%
%TO.N,Net-(J1-Pin_a32)*%
X227030000Y-124530000D03*
%TD*%
D21*
%TO.P,J1,a1,Pin_a1*%
%TO.N,/T1-5*%
X112980000Y-121920000D03*
D22*
%TO.P,J1,a2,Pin_a2*%
%TO.N,/T1-4*%
X115520000Y-121920000D03*
%TO.P,J1,a3,Pin_a3*%
%TO.N,/T1-3*%
X118060000Y-121920000D03*
%TO.P,J1,a4,Pin_a4*%
%TO.N,/T1-2*%
X120600000Y-121920000D03*
%TO.P,J1,a5,Pin_a5*%
%TO.N,/T1-1*%
X123140000Y-121920000D03*
%TO.P,J1,a6,Pin_a6*%
%TO.N,/T1-0*%
X125680000Y-121920000D03*
%TO.P,J1,a7,Pin_a7*%
%TO.N,/T1-9*%
X128220000Y-121920000D03*
%TO.P,J1,a8,Pin_a8*%
%TO.N,/T1-8*%
X130760000Y-121920000D03*
%TO.P,J1,a9,Pin_a9*%
%TO.N,/T1-7*%
X133300000Y-121920000D03*
%TO.P,J1,a10,Pin_a10*%
%TO.N,/T1-6*%
X135840000Y-121920000D03*
%TO.P,J1,a11,Pin_a11*%
%TO.N,/T2-5*%
X138380000Y-121920000D03*
%TO.P,J1,a12,Pin_a12*%
%TO.N,/T2-4*%
X140920000Y-121920000D03*
%TO.P,J1,a13,Pin_a13*%
%TO.N,/T2-3*%
X143460000Y-121920000D03*
%TO.P,J1,a14,Pin_a14*%
%TO.N,/T2-2*%
X146000000Y-121920000D03*
%TO.P,J1,a15,Pin_a15*%
%TO.N,/T2-1*%
X148540000Y-121920000D03*
%TO.P,J1,a16,Pin_a16*%
%TO.N,/T2-0*%
X151080000Y-121920000D03*
%TO.P,J1,a17,Pin_a17*%
%TO.N,/T2-9*%
X153620000Y-121920000D03*
%TO.P,J1,a18,Pin_a18*%
%TO.N,/T2-8*%
X156160000Y-121920000D03*
%TO.P,J1,a19,Pin_a19*%
%TO.N,/T2-7*%
X158700000Y-121920000D03*
%TO.P,J1,a20,Pin_a20*%
%TO.N,/T2-6*%
X161240000Y-121920000D03*
%TO.P,J1,a21,Pin_a21*%
%TO.N,/T3-5*%
X163780000Y-121920000D03*
%TO.P,J1,a22,Pin_a22*%
%TO.N,/T3-4*%
X166320000Y-121920000D03*
%TO.P,J1,a23,Pin_a23*%
%TO.N,/T3-3*%
X168860000Y-121920000D03*
%TO.P,J1,a24,Pin_a24*%
%TO.N,/T3-2*%
X171400000Y-121920000D03*
%TO.P,J1,a25,Pin_a25*%
%TO.N,/T3-1*%
X173940000Y-121920000D03*
%TO.P,J1,a26,Pin_a26*%
%TO.N,/T3-0*%
X176480000Y-121920000D03*
%TO.P,J1,a27,Pin_a27*%
%TO.N,/T3-9*%
X179020000Y-121920000D03*
%TO.P,J1,a28,Pin_a28*%
%TO.N,/T3-8*%
X181560000Y-121920000D03*
%TO.P,J1,a29,Pin_a29*%
%TO.N,/T3-7*%
X184100000Y-121920000D03*
%TO.P,J1,a30,Pin_a30*%
%TO.N,/T3-6*%
X186640000Y-121920000D03*
%TO.P,J1,a31,Pin_a31*%
%TO.N,Net-(J1-Pin_a31)*%
X189180000Y-121920000D03*
%TO.P,J1,a32,Pin_a32*%
%TO.N,Net-(J1-Pin_a32)*%
X191720000Y-121920000D03*
%TO.P,J1,b1,Pin_b1*%
%TO.N,Net-(J1-Pin_b1)*%
X112980000Y-119380000D03*
%TO.P,J1,b2,Pin_b2*%
X115520000Y-119380000D03*
%TO.P,J1,b3,Pin_b3*%
X118060000Y-119380000D03*
%TO.P,J1,b4,Pin_b4*%
X120600000Y-119380000D03*
%TO.P,J1,b5,Pin_b5*%
X123140000Y-119380000D03*
%TO.P,J1,b6,Pin_b6*%
X125680000Y-119380000D03*
%TO.P,J1,b7,Pin_b7*%
X128220000Y-119380000D03*
%TO.P,J1,b8,Pin_b8*%
X130760000Y-119380000D03*
%TO.P,J1,b9,Pin_b9*%
X133300000Y-119380000D03*
%TO.P,J1,b10,Pin_b10*%
X135840000Y-119380000D03*
%TO.P,J1,b11,Pin_b11*%
X138380000Y-119380000D03*
%TO.P,J1,b12,Pin_b12*%
X140920000Y-119380000D03*
%TO.P,J1,b13,Pin_b13*%
X143460000Y-119380000D03*
%TO.P,J1,b14,Pin_b14*%
X146000000Y-119380000D03*
%TO.P,J1,b15,Pin_b15*%
X148540000Y-119380000D03*
%TO.P,J1,b16,Pin_b16*%
X151080000Y-119380000D03*
%TO.P,J1,b17,Pin_b17*%
%TO.N,GND*%
X153620000Y-119380000D03*
%TO.P,J1,b18,Pin_b18*%
X156160000Y-119380000D03*
%TO.P,J1,b19,Pin_b19*%
X158700000Y-119380000D03*
%TO.P,J1,b20,Pin_b20*%
X161240000Y-119380000D03*
%TO.P,J1,b21,Pin_b21*%
X163780000Y-119380000D03*
%TO.P,J1,b22,Pin_b22*%
X166320000Y-119380000D03*
%TO.P,J1,b23,Pin_b23*%
X168860000Y-119380000D03*
%TO.P,J1,b24,Pin_b24*%
X171400000Y-119380000D03*
%TO.P,J1,b25,Pin_b25*%
X173940000Y-119380000D03*
%TO.P,J1,b26,Pin_b26*%
X176480000Y-119380000D03*
%TO.P,J1,b27,Pin_b27*%
X179020000Y-119380000D03*
%TO.P,J1,b28,Pin_b28*%
X181560000Y-119380000D03*
%TO.P,J1,b29,Pin_b29*%
X184100000Y-119380000D03*
%TO.P,J1,b30,Pin_b30*%
X186640000Y-119380000D03*
%TO.P,J1,b31,Pin_b31*%
X189180000Y-119380000D03*
%TO.P,J1,b32,Pin_b32*%
X191720000Y-119380000D03*
%TO.P,J1,c1,Pin_c1*%
%TO.N,Net-(J1-Pin_c1)*%
X112980000Y-116840000D03*
%TO.P,J1,c2,Pin_c2*%
%TO.N,Net-(J1-Pin_c2)*%
X115520000Y-116840000D03*
%TO.P,J1,c3,Pin_c3*%
%TO.N,/T4-5*%
X118060000Y-116840000D03*
%TO.P,J1,c4,Pin_c4*%
%TO.N,/T4-4*%
X120600000Y-116840000D03*
%TO.P,J1,c5,Pin_c5*%
%TO.N,/T4-3*%
X123140000Y-116840000D03*
%TO.P,J1,c6,Pin_c6*%
%TO.N,/T4-2*%
X125680000Y-116840000D03*
%TO.P,J1,c7,Pin_c7*%
%TO.N,/T4-1*%
X128220000Y-116840000D03*
%TO.P,J1,c8,Pin_c8*%
%TO.N,/T4-0*%
X130760000Y-116840000D03*
%TO.P,J1,c9,Pin_c9*%
%TO.N,/T4-9*%
X133300000Y-116840000D03*
%TO.P,J1,c10,Pin_c10*%
%TO.N,/T4-8*%
X135840000Y-116840000D03*
%TO.P,J1,c11,Pin_c11*%
%TO.N,/T4-7*%
X138380000Y-116840000D03*
%TO.P,J1,c12,Pin_c12*%
%TO.N,/T4-6*%
X140920000Y-116840000D03*
%TO.P,J1,c13,Pin_c13*%
%TO.N,/T5-5*%
X143460000Y-116840000D03*
%TO.P,J1,c14,Pin_c14*%
%TO.N,/T5-4*%
X146000000Y-116840000D03*
%TO.P,J1,c15,Pin_c15*%
%TO.N,/T5-3*%
X148540000Y-116840000D03*
%TO.P,J1,c16,Pin_c16*%
%TO.N,/T5-2*%
X151080000Y-116840000D03*
%TO.P,J1,c17,Pin_c17*%
%TO.N,/T5-1*%
X153620000Y-116840000D03*
%TO.P,J1,c18,Pin_c18*%
%TO.N,/T5-0*%
X156160000Y-116840000D03*
%TO.P,J1,c19,Pin_c19*%
%TO.N,/T5-9*%
X158700000Y-116840000D03*
%TO.P,J1,c20,Pin_c20*%
%TO.N,/T5-8*%
X161240000Y-116840000D03*
%TO.P,J1,c21,Pin_c21*%
%TO.N,/T5-7*%
X163780000Y-116840000D03*
%TO.P,J1,c22,Pin_c22*%
%TO.N,/T5-6*%
X166320000Y-116840000D03*
%TO.P,J1,c23,Pin_c23*%
%TO.N,/T6-5*%
X168860000Y-116840000D03*
%TO.P,J1,c24,Pin_c24*%
%TO.N,/T6-4*%
X171400000Y-116840000D03*
%TO.P,J1,c25,Pin_c25*%
%TO.N,/T6-3*%
X173940000Y-116840000D03*
%TO.P,J1,c26,Pin_c26*%
%TO.N,/T6-2*%
X176480000Y-116840000D03*
%TO.P,J1,c27,Pin_c27*%
%TO.N,/T6-1*%
X179020000Y-116840000D03*
%TO.P,J1,c28,Pin_c28*%
%TO.N,/T6-0*%
X181560000Y-116840000D03*
%TO.P,J1,c29,Pin_c29*%
%TO.N,/T6-9*%
X184100000Y-116840000D03*
%TO.P,J1,c30,Pin_c30*%
%TO.N,/T6-8*%
X186640000Y-116840000D03*
%TO.P,J1,c31,Pin_c31*%
%TO.N,/T6-7*%
X189180000Y-116840000D03*
%TO.P,J1,c32,Pin_c32*%
%TO.N,/T6-6*%
X191720000Y-116840000D03*
%TD*%
D23*
%TO.N,Net-(J1-Pin_c1)*%
X102920000Y-116840000D03*
%TO.N,Net-(J1-Pin_c2)*%
X100910000Y-115110000D03*
%TD*%
D24*
%TO.N,/T3-6*%
X147780000Y-73340000D02*
X142163700Y-73340000D01*
X185360000Y-120640000D02*
X185360000Y-116280000D01*
X152060000Y-88970000D02*
X152060000Y-77620000D01*
X185360000Y-116280000D02*
X165800000Y-96720000D01*
X165800000Y-96720000D02*
X159810000Y-96720000D01*
X152060000Y-77620000D02*
X147780000Y-73340000D01*
X186640000Y-121920000D02*
X185360000Y-120640000D01*
X159810000Y-96720000D02*
X152060000Y-88970000D01*
X142163700Y-73340000D02*
X140303700Y-75200000D01*
%TO.N,/T2-9*%
X149320000Y-101520000D02*
X133370000Y-101520000D01*
X153620000Y-121920000D02*
X152360000Y-120660000D01*
X123600000Y-87550000D02*
X120500000Y-84450000D01*
X123600000Y-91750000D02*
X123600000Y-87550000D01*
X152360000Y-120660000D02*
X152360000Y-104560000D01*
X133370000Y-101520000D02*
X123600000Y-91750000D01*
X120500000Y-84450000D02*
X116054000Y-84450000D01*
X152360000Y-104560000D02*
X149320000Y-101520000D01*
%TO.N,/T3-2*%
X133860000Y-89643700D02*
X134553700Y-88950000D01*
X136410000Y-96560000D02*
X133860000Y-94010000D01*
X133860000Y-94010000D02*
X133860000Y-89643700D01*
X171400000Y-121920000D02*
X170110000Y-120630000D01*
X170110000Y-114270000D02*
X152400000Y-96560000D01*
X170110000Y-120630000D02*
X170110000Y-114270000D01*
X152400000Y-96560000D02*
X136410000Y-96560000D01*
%TO.N,/T1-4*%
X81560000Y-97700000D02*
X76990000Y-93130000D01*
X76990000Y-93130000D02*
X76990000Y-83506452D01*
X76990000Y-83506452D02*
X80546452Y-79950000D01*
X98570000Y-113230000D02*
X83040000Y-97700000D01*
X114210000Y-120610000D02*
X114210000Y-115400000D01*
X115520000Y-121920000D02*
X114210000Y-120610000D01*
X83040000Y-97700000D02*
X81560000Y-97700000D01*
X114210000Y-115400000D02*
X112040000Y-113230000D01*
X112040000Y-113230000D02*
X98570000Y-113230000D01*
%TO.N,/T1-7*%
X133300000Y-121920000D02*
X132030000Y-120650000D01*
X132030000Y-108950000D02*
X130780000Y-107700000D01*
X111070000Y-107700000D02*
X97470000Y-94100000D01*
X97470000Y-80030000D02*
X93740000Y-76300000D01*
X132030000Y-120650000D02*
X132030000Y-108950000D01*
X97470000Y-94100000D02*
X97470000Y-80030000D01*
X93740000Y-76300000D02*
X90321452Y-76300000D01*
X90321452Y-76300000D02*
X90296452Y-76325000D01*
X130780000Y-107700000D02*
X111070000Y-107700000D01*
%TO.N,/T3-4*%
X131090000Y-83413700D02*
X134553700Y-79950000D01*
X165050000Y-111730000D02*
X151240000Y-97920000D01*
X135060000Y-97920000D02*
X131090000Y-93950000D01*
X166320000Y-121920000D02*
X165050000Y-120650000D01*
X131090000Y-93950000D02*
X131090000Y-83413700D01*
X165050000Y-120650000D02*
X165050000Y-111730000D01*
X151240000Y-97920000D02*
X135060000Y-97920000D01*
%TO.N,/T2-7*%
X157420000Y-107250000D02*
X150240000Y-100070000D01*
X125310000Y-91300000D02*
X125310000Y-79500000D01*
X157420000Y-120640000D02*
X157420000Y-107250000D01*
X134080000Y-100070000D02*
X125310000Y-91300000D01*
X125310000Y-79500000D02*
X122135000Y-76325000D01*
X158700000Y-121920000D02*
X157420000Y-120640000D01*
X122135000Y-76325000D02*
X114304000Y-76325000D01*
X150240000Y-100070000D02*
X134080000Y-100070000D01*
%TO.N,/T2-1*%
X147260000Y-120640000D02*
X147260000Y-104120000D01*
X147260000Y-104120000D02*
X146240000Y-103100000D01*
X148540000Y-121920000D02*
X147260000Y-120640000D01*
X114360000Y-103100000D02*
X106304000Y-95044000D01*
X106304000Y-95044000D02*
X106304000Y-92450000D01*
X146240000Y-103100000D02*
X114360000Y-103100000D01*
%TO.N,/T2-2*%
X144720000Y-120640000D02*
X144720000Y-104980000D01*
X103160000Y-93300000D02*
X103160000Y-90344000D01*
X113670000Y-103810000D02*
X113630000Y-103770000D01*
X143550000Y-103810000D02*
X113670000Y-103810000D01*
X144720000Y-104980000D02*
X143550000Y-103810000D01*
X146000000Y-121920000D02*
X144720000Y-120640000D01*
X103160000Y-90344000D02*
X104554000Y-88950000D01*
X113630000Y-103770000D02*
X103160000Y-93300000D01*
%TO.N,/T1-5*%
X111755000Y-117555000D02*
X108160000Y-113960000D01*
X76210000Y-80070000D02*
X79955000Y-76325000D01*
X111755000Y-120695000D02*
X111755000Y-117555000D01*
X79955000Y-76325000D02*
X82296452Y-76325000D01*
X76210000Y-93300000D02*
X76210000Y-80070000D01*
X98110000Y-113960000D02*
X82510000Y-98360000D01*
X81270000Y-98360000D02*
X76210000Y-93300000D01*
X112980000Y-121920000D02*
X111755000Y-120695000D01*
X82510000Y-98360000D02*
X81270000Y-98360000D01*
X108160000Y-113960000D02*
X98110000Y-113960000D01*
%TO.N,/T1-8*%
X94860000Y-79950000D02*
X92046452Y-79950000D01*
X96610000Y-81700000D02*
X94860000Y-79950000D01*
X129480000Y-109840000D02*
X128120000Y-108480000D01*
X110700000Y-108480000D02*
X96610000Y-94390000D01*
X130760000Y-121920000D02*
X129480000Y-120640000D01*
X129480000Y-120640000D02*
X129480000Y-109840000D01*
X96610000Y-94390000D02*
X96610000Y-81700000D01*
X128120000Y-108480000D02*
X110700000Y-108480000D01*
%TO.N,/T2-4*%
X139640000Y-120640000D02*
X139640000Y-107090000D01*
X140920000Y-121920000D02*
X139640000Y-120640000D01*
X112400000Y-105290000D02*
X100920000Y-93810000D01*
X100920000Y-83584000D02*
X104554000Y-79950000D01*
X137880000Y-105330000D02*
X112400000Y-105290000D01*
X100920000Y-93810000D02*
X100920000Y-83584000D01*
X139640000Y-107090000D02*
X137880000Y-105330000D01*
%TO.N,/T2-6*%
X150540000Y-99280000D02*
X134290000Y-99280000D01*
X159925000Y-108665000D02*
X150540000Y-99280000D01*
X126150000Y-91140000D02*
X126150000Y-76600000D01*
X126150000Y-76600000D02*
X122160000Y-72610000D01*
X122160000Y-72610000D02*
X112894000Y-72610000D01*
X112894000Y-72610000D02*
X110304000Y-75200000D01*
X159925000Y-120605000D02*
X159925000Y-108665000D01*
X161240000Y-121920000D02*
X159925000Y-120605000D01*
X134290000Y-99280000D02*
X126150000Y-91140000D01*
%TO.N,/T1-3*%
X114810000Y-112460000D02*
X98850000Y-112460000D01*
X116745000Y-114395000D02*
X114810000Y-112460000D01*
X77800000Y-92940000D02*
X77800000Y-87196452D01*
X98850000Y-112460000D02*
X83420000Y-97030000D01*
X118060000Y-121920000D02*
X116745000Y-120605000D01*
X77800000Y-87196452D02*
X80546452Y-84450000D01*
X81890000Y-97030000D02*
X77800000Y-92940000D01*
X116745000Y-120605000D02*
X116745000Y-114395000D01*
X83420000Y-97030000D02*
X81890000Y-97030000D01*
%TO.N,/T1-9*%
X110270000Y-109270000D02*
X95468204Y-94468204D01*
X126995000Y-111835000D02*
X124430000Y-109270000D01*
X95468204Y-87871752D02*
X92046452Y-84450000D01*
X126995000Y-120695000D02*
X126995000Y-111835000D01*
X124430000Y-109270000D02*
X110270000Y-109270000D01*
X128220000Y-121920000D02*
X126995000Y-120695000D01*
X95468204Y-94468204D02*
X95468204Y-87871752D01*
%TO.N,/T1-6*%
X111470000Y-106850000D02*
X98260000Y-93640000D01*
X133300000Y-106850000D02*
X111470000Y-106850000D01*
X92400000Y-72680000D02*
X88816452Y-72680000D01*
X98260000Y-78540000D02*
X92400000Y-72680000D01*
X134580000Y-120660000D02*
X134580000Y-108130000D01*
X88816452Y-72680000D02*
X86296452Y-75200000D01*
X134580000Y-108130000D02*
X133300000Y-106850000D01*
X135840000Y-121920000D02*
X134580000Y-120660000D01*
X98260000Y-93640000D02*
X98260000Y-78540000D01*
%TO.N,/T3-8*%
X180290000Y-116280000D02*
X162210000Y-98200000D01*
X162210000Y-98200000D02*
X158970000Y-98200000D01*
X158970000Y-98200000D02*
X150530000Y-89760000D01*
X180290000Y-120650000D02*
X180290000Y-116280000D01*
X150530000Y-89760000D02*
X150530000Y-82010000D01*
X181560000Y-121920000D02*
X180290000Y-120650000D01*
X150530000Y-82010000D02*
X148470000Y-79950000D01*
X148470000Y-79950000D02*
X146053700Y-79950000D01*
%TO.N,/T2-8*%
X133770000Y-100770000D02*
X124320000Y-91320000D01*
X154890000Y-120650000D02*
X154890000Y-105960000D01*
X156160000Y-121920000D02*
X154890000Y-120650000D01*
X124320000Y-83060000D02*
X121210000Y-79950000D01*
X149700000Y-100770000D02*
X133770000Y-100770000D01*
X121210000Y-79950000D02*
X116054000Y-79950000D01*
X124320000Y-91320000D02*
X124320000Y-83060000D01*
X154890000Y-105960000D02*
X149700000Y-100770000D01*
%TO.N,/T3-9*%
X149830000Y-87270000D02*
X147010000Y-84450000D01*
X149830000Y-90250000D02*
X149830000Y-87270000D01*
X178980000Y-121920000D02*
X177770000Y-120710000D01*
X177770000Y-120710000D02*
X177770000Y-116120000D01*
X160540000Y-98890000D02*
X158470000Y-98890000D01*
X147010000Y-84450000D02*
X146053700Y-84450000D01*
X158470000Y-98890000D02*
X149830000Y-90250000D01*
X177770000Y-116120000D02*
X160540000Y-98890000D01*
X179020000Y-121920000D02*
X178980000Y-121920000D01*
D25*
%TO.N,Net-(J1-Pin_c1)*%
X102920000Y-116840000D02*
X89210000Y-116840000D01*
X89210000Y-116840000D02*
X87780000Y-118270000D01*
X112965000Y-116860000D02*
X112980000Y-116875000D01*
D24*
%TO.N,/T3-7*%
X151270000Y-89340000D02*
X151270000Y-78700000D01*
X182820000Y-116250000D02*
X164060000Y-97490000D01*
X182820000Y-120640000D02*
X182820000Y-116250000D01*
X159420000Y-97490000D02*
X151270000Y-89340000D01*
X184100000Y-121920000D02*
X182820000Y-120640000D01*
X148895000Y-76325000D02*
X144303700Y-76325000D01*
X164060000Y-97490000D02*
X159420000Y-97490000D01*
X151270000Y-78700000D02*
X148895000Y-76325000D01*
%TO.N,/T2-5*%
X103475000Y-76325000D02*
X106304000Y-76325000D01*
X111950000Y-106030000D02*
X100180000Y-94260000D01*
X135710000Y-106070000D02*
X111950000Y-106030000D01*
X100180000Y-79620000D02*
X103475000Y-76325000D01*
X137110000Y-120650000D02*
X137110000Y-107470000D01*
X137110000Y-107470000D02*
X135710000Y-106070000D01*
X100180000Y-94260000D02*
X100180000Y-79620000D01*
X138380000Y-121920000D02*
X137110000Y-120650000D01*
%TO.N,/T2-3*%
X143460000Y-121920000D02*
X142200000Y-120660000D01*
X101720000Y-93080000D02*
X101720000Y-87284000D01*
X101720000Y-87284000D02*
X104554000Y-84450000D01*
X113130000Y-104490000D02*
X101720000Y-93080000D01*
X142200000Y-120660000D02*
X142200000Y-106220000D01*
X142200000Y-106220000D02*
X140510000Y-104530000D01*
X140510000Y-104530000D02*
X113130000Y-104490000D01*
%TO.N,/T2-0*%
X149820000Y-120660000D02*
X149820000Y-103390000D01*
X149820000Y-103390000D02*
X148760000Y-102330000D01*
X119680000Y-88950000D02*
X116054000Y-88950000D01*
X148760000Y-102330000D02*
X133060000Y-102330000D01*
X133060000Y-102330000D02*
X119680000Y-88950000D01*
X151080000Y-121920000D02*
X149820000Y-120660000D01*
%TO.N,/T1-0*%
X93010000Y-93170000D02*
X93010000Y-89913548D01*
X93010000Y-89913548D02*
X92046452Y-88950000D01*
X124455000Y-120695000D02*
X124455000Y-112625000D01*
X125680000Y-121920000D02*
X124455000Y-120695000D01*
X121880000Y-110050000D02*
X109890000Y-110050000D01*
X124455000Y-112625000D02*
X121880000Y-110050000D01*
X109890000Y-110050000D02*
X93010000Y-93170000D01*
%TO.N,/T3-0*%
X146053700Y-88950000D02*
X146093700Y-88910000D01*
X159080000Y-99610000D02*
X175210000Y-115740000D01*
X175210000Y-115740000D02*
X175210000Y-120650000D01*
X158010000Y-99610000D02*
X159080000Y-99610000D01*
X175210000Y-120650000D02*
X176480000Y-121920000D01*
X147310000Y-88910000D02*
X158010000Y-99610000D01*
X146093700Y-88910000D02*
X147310000Y-88910000D01*
%TO.N,/T3-5*%
X134550000Y-98580000D02*
X130380000Y-94410000D01*
X130380000Y-94410000D02*
X130380000Y-80224820D01*
X163780000Y-121920000D02*
X162510000Y-120650000D01*
X130380000Y-80224820D02*
X134279820Y-76325000D01*
X162510000Y-120650000D02*
X162510000Y-110210000D01*
X162510000Y-110210000D02*
X150880000Y-98580000D01*
X150880000Y-98580000D02*
X134550000Y-98580000D01*
X134279820Y-76325000D02*
X136303700Y-76325000D01*
%TO.N,/T1-2*%
X83820000Y-96340000D02*
X82160000Y-96340000D01*
X99190000Y-111710000D02*
X83820000Y-96340000D01*
X119330000Y-120620000D02*
X119290000Y-114010000D01*
X78790000Y-90706452D02*
X80546452Y-88950000D01*
X119290000Y-114010000D02*
X116990000Y-111710000D01*
X82160000Y-96340000D02*
X78790000Y-92970000D01*
X78790000Y-92970000D02*
X78790000Y-90706452D01*
X120600000Y-121920000D02*
X119330000Y-120650000D01*
X119330000Y-120650000D02*
X119330000Y-120620000D01*
X116990000Y-111710000D02*
X99190000Y-111710000D01*
%TO.N,/T1-1*%
X99450000Y-110880000D02*
X82296452Y-93726452D01*
X82296452Y-93726452D02*
X82296452Y-92450000D01*
X121915000Y-113505000D02*
X119290000Y-110880000D01*
X119290000Y-110880000D02*
X99450000Y-110880000D01*
X123140000Y-121920000D02*
X121915000Y-120695000D01*
X121915000Y-120695000D02*
X121915000Y-113505000D01*
%TO.N,/T3-3*%
X168860000Y-121920000D02*
X167590000Y-120650000D01*
X131810000Y-93240000D02*
X131810000Y-87193700D01*
X151790000Y-97250000D02*
X135820000Y-97250000D01*
X135820000Y-97250000D02*
X131810000Y-93240000D01*
X167590000Y-120650000D02*
X167590000Y-113050000D01*
X131810000Y-87193700D02*
X134553700Y-84450000D01*
X167590000Y-113050000D02*
X151790000Y-97250000D01*
%TO.N,/T3-1*%
X153130000Y-95900000D02*
X137620000Y-95900000D01*
X172670000Y-115440000D02*
X153130000Y-95900000D01*
X172670000Y-120650000D02*
X172670000Y-115440000D01*
X136303700Y-94583700D02*
X136303700Y-92450000D01*
X173940000Y-121920000D02*
X172670000Y-120650000D01*
X137620000Y-95900000D02*
X136303700Y-94583700D01*
D26*
%TO.N,Net-(N5-A)*%
X219946666Y-110546666D02*
X201850000Y-92450000D01*
X219946666Y-115530000D02*
X219946666Y-110546666D01*
X203980000Y-76460000D02*
X203980000Y-90320000D01*
X195690000Y-68170000D02*
X203980000Y-76460000D01*
X203980000Y-90320000D02*
X201850000Y-92450000D01*
X192456900Y-68170000D02*
X195690000Y-68170000D01*
X201850000Y-92450000D02*
X198316900Y-92450000D01*
%TO.N,Net-(N6-A)*%
X227750000Y-76090000D02*
X227750000Y-90580000D01*
X227750000Y-90580000D02*
X225880000Y-92450000D01*
X216450000Y-68160000D02*
X219820000Y-68160000D01*
X227030000Y-93600000D02*
X225880000Y-92450000D01*
X225880000Y-92450000D02*
X222330000Y-92450000D01*
X219820000Y-68160000D02*
X227750000Y-76090000D01*
X227030000Y-115530000D02*
X227030000Y-93600000D01*
D25*
%TO.N,Net-(J1-Pin_c2)*%
X84720000Y-115110000D02*
X81560000Y-118270000D01*
X100910000Y-115110000D02*
X84720000Y-115110000D01*
D26*
%TO.N,MD4*%
X172790000Y-91380000D02*
X172735000Y-91435000D01*
X173860000Y-75710000D02*
X173860000Y-90310000D01*
X172735000Y-91435000D02*
X171720000Y-92450000D01*
X166320000Y-68170000D02*
X173860000Y-75710000D01*
X212863333Y-115530000D02*
X198073333Y-100740000D01*
X173860000Y-90310000D02*
X172735000Y-91435000D01*
X198073333Y-100740000D02*
X180170000Y-100740000D01*
X180170000Y-100740000D02*
X171800000Y-92370000D01*
X162446800Y-68170000D02*
X166320000Y-68170000D01*
X171720000Y-92450000D02*
X168316800Y-92450000D01*
X171800000Y-92370000D02*
X172735000Y-91435000D01*
%TD*%
M02*
