M48
; DRILL file {KiCad 8.0.8} date 2025-04-22T20:56:37-0700
; FORMAT={-:-/ absolute / metric / decimal}
; #@! TF.CreationDate,2025-04-22T20:56:37-07:00
; #@! TF.GenerationSoftware,Kicad,Pcbnew,8.0.8
; #@! TF.FileFunction,Plated,1,4,PTH
FMAT,2
METRIC
; #@! TA.AperFunction,Plated,PTH,ViaDrill
T1C0.300
; #@! TA.AperFunction,Plated,PTH,ComponentDrill
T2C0.800
; #@! TA.AperFunction,Plated,PTH,ComponentDrill
T3C1.000
; #@! TA.AperFunction,Plated,PTH,ComponentDrill
T4C1.016
%
G90
G05
T1
X95.23Y-76.34
X95.79Y-81.44
X96.45Y-76.34
X97.01Y-81.44
X97.66Y-76.34
X98.22Y-81.44
X98.85Y-76.34
X99.41Y-81.44
X100.14Y-76.34
X114.88Y-103.79
X115.77Y-103.79
X125.96Y-98.81
X127.37Y-98.81
X128.9Y-98.81
X140.5Y-98.81
X141.98Y-98.81
X143.46Y-98.81
X154.94Y-98.81
X156.52Y-98.81
X157.89Y-98.81
X169.12Y-98.81
X170.62Y-98.81
X172.03Y-98.81
X181.83Y-101.315
X182.97Y-101.315
X190.74Y-78.938
X191.68Y-78.938
X192.67Y-78.92
X199.62Y-77.2
X199.62Y-90.12
X204.6Y-100.68
X205.69Y-78.91
X205.69Y-80.79
X205.69Y-82.55
X205.69Y-84.26
X205.69Y-85.87
X205.69Y-87.58
X205.7Y-77.13
X207.32Y-80.84
X207.32Y-82.72
X207.32Y-84.48
X207.32Y-86.19
X207.32Y-87.8
X207.32Y-89.51
X207.33Y-79.06
X211.39Y-84.58
X211.39Y-86.46
X211.39Y-88.22
X211.39Y-89.93
X211.39Y-91.54
X211.39Y-93.25
X211.4Y-82.8
X211.897Y-61.01
X211.897Y-61.88
X211.897Y-62.66
X211.897Y-63.53
X211.897Y-64.36
X212.92Y-86.33
X212.92Y-88.21
X212.92Y-89.97
X212.92Y-91.68
X212.92Y-93.29
X212.92Y-95.0
X212.93Y-84.55
X213.75Y-61.03
X213.75Y-61.9
X213.75Y-62.68
X213.75Y-63.55
X213.75Y-64.38
X215.69Y-61.0
X215.69Y-61.87
X215.69Y-62.65
X215.69Y-63.52
X215.69Y-64.35
X217.58Y-60.98
X217.58Y-61.85
X217.58Y-62.63
X217.58Y-63.5
X217.58Y-64.33
X218.19Y-111.49
X218.19Y-113.37
X218.19Y-115.13
X218.19Y-116.84
X218.19Y-118.45
X218.19Y-120.16
X218.2Y-109.71
X219.277Y-61.01
X219.277Y-61.83
X219.277Y-62.66
X219.277Y-63.53
X219.277Y-64.31
X219.711Y-111.49
X219.711Y-113.37
X219.711Y-115.13
X219.711Y-116.84
X219.711Y-118.45
X219.711Y-120.16
X219.721Y-109.71
X220.75Y-61.0
X220.75Y-61.87
X220.75Y-62.65
X220.75Y-63.52
X220.75Y-64.35
X221.233Y-111.49
X221.233Y-113.37
X221.233Y-115.13
X221.233Y-116.84
X221.233Y-118.45
X221.233Y-120.16
X221.243Y-109.71
X222.23Y-61.0
X222.23Y-61.87
X222.23Y-62.65
X222.23Y-63.52
X222.23Y-64.35
X222.754Y-111.49
X222.754Y-113.37
X222.754Y-115.13
X222.754Y-116.84
X222.754Y-118.45
X222.754Y-120.16
X222.764Y-109.71
X223.77Y-61.0
X223.77Y-61.87
X223.77Y-62.65
X223.77Y-63.52
X223.77Y-64.35
X224.276Y-111.49
X224.276Y-113.37
X224.276Y-115.13
X224.276Y-116.84
X224.276Y-118.45
X224.276Y-120.16
X224.286Y-109.71
X225.247Y-60.98
X225.247Y-61.81
X225.247Y-62.65
X225.247Y-63.52
X225.247Y-64.31
X225.797Y-111.49
X225.797Y-113.37
X225.797Y-115.13
X225.797Y-116.84
X225.797Y-118.45
X225.797Y-120.16
X225.807Y-109.71
X227.319Y-111.49
X227.319Y-113.37
X227.319Y-115.13
X227.319Y-116.84
X227.319Y-118.45
X227.319Y-120.16
X227.329Y-109.71
X228.84Y-111.49
X228.84Y-113.37
X228.84Y-115.13
X228.84Y-116.84
X228.84Y-118.45
X228.84Y-120.16
X228.85Y-109.71
T2
X74.39Y-117.1
X74.39Y-124.72
X76.93Y-117.1
X76.93Y-124.72
X79.47Y-117.1
X79.47Y-124.72
X82.01Y-117.1
X82.01Y-124.72
X84.55Y-117.1
X84.55Y-124.72
X87.09Y-117.1
X87.09Y-124.72
X89.63Y-117.1
X89.63Y-124.72
X92.17Y-117.1
X92.17Y-124.72
X98.35Y-93.66
X99.58Y-78.92
X99.58Y-89.08
X100.85Y-93.66
X102.41Y-101.29
X102.41Y-103.83
X102.41Y-106.37
X102.41Y-108.91
X102.41Y-111.45
X102.41Y-113.99
X102.41Y-116.53
X102.41Y-119.07
X102.41Y-121.61
X102.41Y-124.15
X110.03Y-101.29
X110.03Y-103.83
X110.03Y-106.37
X110.03Y-108.91
X110.03Y-111.45
X110.03Y-113.99
X110.03Y-116.53
X110.03Y-119.07
X110.03Y-121.61
X110.03Y-124.15
X112.96Y-101.29
X112.96Y-103.79
X125.855Y-56.145
X125.855Y-58.645
X125.98Y-101.35
X125.98Y-103.85
X128.785Y-56.145
X128.785Y-58.685
X128.785Y-61.225
X128.785Y-63.765
X128.785Y-66.305
X128.785Y-68.845
X128.785Y-71.385
X128.785Y-73.925
X128.785Y-76.465
X128.785Y-79.005
X128.91Y-101.35
X128.91Y-103.89
X128.91Y-106.43
X128.91Y-108.97
X128.91Y-111.51
X128.91Y-114.05
X128.91Y-116.59
X128.91Y-119.13
X128.91Y-121.67
X128.91Y-124.21
X136.405Y-56.145
X136.405Y-58.685
X136.405Y-61.225
X136.405Y-63.765
X136.405Y-66.305
X136.405Y-68.845
X136.405Y-71.385
X136.405Y-73.925
X136.405Y-76.465
X136.405Y-79.005
X136.53Y-101.35
X136.53Y-103.89
X136.53Y-106.43
X136.53Y-108.97
X136.53Y-111.51
X136.53Y-114.05
X136.53Y-116.59
X136.53Y-119.13
X136.53Y-121.67
X136.53Y-124.21
X140.53Y-101.35
X140.53Y-103.85
X143.229Y-56.1
X143.229Y-58.6
X143.47Y-101.35
X143.47Y-103.89
X143.47Y-106.43
X143.47Y-108.97
X143.47Y-111.51
X143.47Y-114.05
X143.47Y-116.59
X143.47Y-119.13
X143.47Y-121.67
X143.47Y-124.21
X146.169Y-56.09
X146.169Y-58.63
X146.169Y-61.17
X146.169Y-63.71
X146.169Y-66.25
X146.169Y-68.79
X146.169Y-71.33
X146.169Y-73.87
X146.169Y-76.41
X146.169Y-78.95
X151.09Y-101.35
X151.09Y-103.89
X151.09Y-106.43
X151.09Y-108.97
X151.09Y-111.51
X151.09Y-114.05
X151.09Y-116.59
X151.09Y-119.13
X151.09Y-121.67
X151.09Y-124.21
X153.789Y-56.09
X153.789Y-58.63
X153.789Y-61.17
X153.789Y-63.71
X153.789Y-66.25
X153.789Y-68.79
X153.789Y-71.33
X153.789Y-73.87
X153.789Y-76.41
X153.789Y-78.95
X154.97Y-101.32
X154.97Y-103.82
X157.88Y-101.32
X157.88Y-103.86
X157.88Y-106.4
X157.88Y-108.94
X157.88Y-111.48
X157.88Y-114.02
X157.88Y-116.56
X157.88Y-119.1
X157.88Y-121.64
X157.88Y-124.18
X160.632Y-56.065
X160.632Y-58.565
X163.562Y-56.065
X163.562Y-58.605
X163.562Y-61.145
X163.562Y-63.685
X163.562Y-66.225
X163.562Y-68.765
X163.562Y-71.305
X163.562Y-73.845
X163.562Y-76.385
X163.562Y-78.925
X165.5Y-101.32
X165.5Y-103.86
X165.5Y-106.4
X165.5Y-108.94
X165.5Y-111.48
X165.5Y-114.02
X165.5Y-116.56
X165.5Y-119.1
X165.5Y-121.64
X165.5Y-124.18
X169.1Y-101.315
X169.1Y-103.815
X171.182Y-56.065
X171.182Y-58.605
X171.182Y-61.145
X171.182Y-63.685
X171.182Y-66.225
X171.182Y-68.765
X171.182Y-71.305
X171.182Y-73.845
X171.182Y-76.385
X171.182Y-78.925
X172.04Y-101.315
X172.04Y-103.855
X172.04Y-106.395
X172.04Y-108.935
X172.04Y-111.475
X172.04Y-114.015
X172.04Y-116.555
X172.04Y-119.095
X172.04Y-121.635
X172.04Y-124.175
X178.12Y-56.078
X178.12Y-58.578
X179.66Y-101.315
X179.66Y-103.855
X179.66Y-106.395
X179.66Y-108.935
X179.66Y-111.475
X179.66Y-114.015
X179.66Y-116.555
X179.66Y-119.095
X179.66Y-121.635
X179.66Y-124.175
X181.05Y-56.078
X181.05Y-58.617
X181.05Y-61.157
X181.05Y-63.697
X181.05Y-66.237
X181.05Y-68.778
X181.05Y-71.317
X181.05Y-73.858
X181.05Y-76.397
X181.05Y-78.938
X187.65Y-124.31
X188.67Y-56.078
X188.67Y-58.617
X188.67Y-61.157
X188.67Y-63.697
X188.67Y-66.237
X188.67Y-68.778
X188.67Y-71.317
X188.67Y-73.858
X188.67Y-76.397
X188.67Y-78.938
X188.85Y-105.225
X188.85Y-107.765
X188.85Y-110.305
X188.85Y-112.845
X188.85Y-115.385
X188.85Y-117.925
X188.85Y-120.465
X189.21Y-102.01
X196.47Y-105.225
X196.47Y-107.765
X196.47Y-110.305
X196.47Y-112.845
X196.47Y-115.385
X196.47Y-117.925
X196.47Y-120.465
X197.81Y-124.31
X199.37Y-102.01
X199.38Y-105.225
X199.38Y-107.725
X207.71Y-107.38
X207.71Y-122.62
X209.397Y-69.51
X211.897Y-69.51
X215.33Y-107.38
X215.33Y-122.62
X216.777Y-69.51
X219.277Y-69.51
X220.99Y-101.92
X223.49Y-101.92
X225.247Y-69.51
X227.747Y-69.51
T3
X104.9Y-76.31
X104.9Y-78.85
X107.44Y-76.31
X107.44Y-78.85
X109.98Y-76.31
X109.98Y-78.85
X111.74Y-87.92
X111.74Y-90.46
X111.74Y-93.0
X112.52Y-76.31
X112.52Y-78.85
X114.28Y-87.92
X114.28Y-90.46
X114.28Y-93.0
X115.06Y-76.31
X115.06Y-78.85
X116.82Y-87.92
X116.82Y-90.46
X116.82Y-93.0
X117.14Y-56.14
X117.14Y-58.68
X117.14Y-61.22
X117.14Y-63.76
X117.14Y-66.3
X119.36Y-87.92
X119.36Y-90.46
X119.36Y-93.0
X119.68Y-56.14
X119.68Y-58.68
X119.68Y-61.22
X119.68Y-63.76
X119.68Y-66.3
X121.9Y-87.92
X121.9Y-90.46
X121.9Y-93.0
X124.44Y-87.92
X124.44Y-90.46
X124.44Y-93.0
X126.98Y-87.92
X126.98Y-90.46
X126.98Y-93.0
X129.52Y-87.92
X129.52Y-90.46
X129.52Y-93.0
X132.06Y-87.92
X132.06Y-90.46
X132.06Y-93.0
X134.6Y-87.92
X134.6Y-90.46
X134.6Y-93.0
X137.14Y-87.92
X137.14Y-90.46
X137.14Y-93.0
X139.68Y-87.92
X139.68Y-90.46
X139.68Y-93.0
X142.22Y-87.92
X142.22Y-90.46
X142.22Y-93.0
X144.76Y-87.92
X144.76Y-90.46
X144.76Y-93.0
X147.3Y-87.92
X147.3Y-90.46
X147.3Y-93.0
X149.84Y-87.92
X149.84Y-90.46
X149.84Y-93.0
X152.38Y-87.92
X152.38Y-90.46
X152.38Y-93.0
X154.92Y-87.92
X154.92Y-90.46
X154.92Y-93.0
X157.46Y-87.92
X157.46Y-90.46
X157.46Y-93.0
X160.0Y-87.92
X160.0Y-90.46
X160.0Y-93.0
X162.54Y-87.92
X162.54Y-90.46
X162.54Y-93.0
X165.08Y-87.92
X165.08Y-90.46
X165.08Y-93.0
X167.62Y-87.92
X167.62Y-90.46
X167.62Y-93.0
X170.16Y-87.92
X170.16Y-90.46
X170.16Y-93.0
X172.7Y-87.92
X172.7Y-90.46
X172.7Y-93.0
X175.24Y-87.92
X175.24Y-90.46
X175.24Y-93.0
X177.78Y-87.92
X177.78Y-90.46
X177.78Y-93.0
X180.32Y-87.92
X180.32Y-90.46
X180.32Y-93.0
X182.86Y-87.92
X182.86Y-90.46
X182.86Y-93.0
X185.4Y-87.92
X185.4Y-90.46
X185.4Y-93.0
X187.94Y-87.92
X187.94Y-90.46
X187.94Y-93.0
X190.48Y-87.92
X190.48Y-90.46
X190.48Y-93.0
X211.55Y-54.91
X211.55Y-57.45
X214.09Y-54.91
X214.09Y-57.45
X216.63Y-54.91
X216.63Y-57.45
X219.17Y-54.91
X219.17Y-57.45
X221.71Y-54.91
X221.71Y-57.45
T4
X73.06Y-73.8
X73.06Y-76.34
X73.06Y-78.88
X73.06Y-81.42
X73.06Y-83.96
X73.06Y-86.5
X73.06Y-89.04
X73.06Y-91.58
X73.06Y-94.12
X73.06Y-96.66
X73.06Y-99.2
X73.06Y-101.74
X73.06Y-104.28
X73.06Y-106.82
X93.38Y-73.8
X93.38Y-76.34
X93.38Y-78.88
X93.38Y-81.42
X93.38Y-83.96
X93.38Y-86.5
X93.38Y-89.04
X93.38Y-91.58
X93.38Y-94.12
X93.38Y-96.66
X93.38Y-99.2
X93.38Y-101.74
X93.38Y-104.28
X93.38Y-106.82
M30
