%TF.GenerationSoftware,KiCad,Pcbnew,8.0.8*%
%TF.CreationDate,2025-04-22T20:57:00-07:00*%
%TF.ProjectId,logic,6c6f6769-632e-46b6-9963-61645f706362,rev?*%
%TF.SameCoordinates,Original*%
%TF.FileFunction,Soldermask,Bot*%
%TF.FilePolarity,Negative*%
%FSLAX46Y46*%
G04 Gerber Fmt 4.6, Leading zero omitted, Abs format (unit mm)*
G04 Created by KiCad (PCBNEW 8.0.8) date 2025-04-22 20:57:00*
%MOMM*%
%LPD*%
G01*
G04 APERTURE LIST*
G04 Aperture macros list*
%AMRoundRect*
0 Rectangle with rounded corners*
0 $1 Rounding radius*
0 $2 $3 $4 $5 $6 $7 $8 $9 X,Y pos of 4 corners*
0 Add a 4 corners polygon primitive as box body*
4,1,4,$2,$3,$4,$5,$6,$7,$8,$9,$2,$3,0*
0 Add four circle primitives for the rounded corners*
1,1,$1+$1,$2,$3*
1,1,$1+$1,$4,$5*
1,1,$1+$1,$6,$7*
1,1,$1+$1,$8,$9*
0 Add four rect primitives between the rounded corners*
20,1,$1+$1,$2,$3,$4,$5,0*
20,1,$1+$1,$4,$5,$6,$7,0*
20,1,$1+$1,$6,$7,$8,$9,0*
20,1,$1+$1,$8,$9,$2,$3,0*%
G04 Aperture macros list end*
%ADD10C,1.600000*%
%ADD11R,2.400000X1.600000*%
%ADD12O,2.400000X1.600000*%
%ADD13R,1.700000X1.700000*%
%ADD14O,1.700000X1.700000*%
%ADD15C,2.200000*%
%ADD16C,1.727200*%
%ADD17R,1.727200X1.727200*%
%ADD18O,1.600000X1.600000*%
%ADD19C,2.850000*%
%ADD20RoundRect,0.249999X0.525001X-0.525001X0.525001X0.525001X-0.525001X0.525001X-0.525001X-0.525001X0*%
%ADD21C,1.550000*%
%ADD22R,1.600000X1.600000*%
G04 APERTURE END LIST*
D10*
%TO.C,C14*%
X169100000Y-103815000D03*
X169100000Y-101315000D03*
%TD*%
%TO.C,C8*%
X143228889Y-58600000D03*
X143228889Y-56100000D03*
%TD*%
D11*
%TO.C,U3*%
X143470000Y-101350000D03*
D12*
X143470000Y-103890000D03*
X143470000Y-106430000D03*
X143470000Y-108970000D03*
X143470000Y-111510000D03*
X143470000Y-114050000D03*
X143470000Y-116590000D03*
X143470000Y-119130000D03*
X143470000Y-121670000D03*
X143470000Y-124210000D03*
X151090000Y-124210000D03*
X151090000Y-121670000D03*
X151090000Y-119130000D03*
X151090000Y-116590000D03*
X151090000Y-114050000D03*
X151090000Y-111510000D03*
X151090000Y-108970000D03*
X151090000Y-106430000D03*
X151090000Y-103890000D03*
X151090000Y-101350000D03*
%TD*%
D13*
%TO.C,J3*%
X115060000Y-76310000D03*
D14*
X115060000Y-78850000D03*
X112520000Y-76310000D03*
X112520000Y-78850000D03*
X109980000Y-76310000D03*
X109980000Y-78850000D03*
X107440000Y-76310000D03*
X107440000Y-78850000D03*
X104900000Y-76310000D03*
X104900000Y-78850000D03*
%TD*%
D10*
%TO.C,C2*%
X216777349Y-69510000D03*
X219277349Y-69510000D03*
%TD*%
D13*
%TO.C,J2*%
X117140000Y-56140000D03*
D14*
X119680000Y-56140000D03*
X117140000Y-58680000D03*
X119680000Y-58680000D03*
X117140000Y-61220000D03*
X119680000Y-61220000D03*
X117140000Y-63760000D03*
X119680000Y-63760000D03*
X117140000Y-66300000D03*
X119680000Y-66300000D03*
%TD*%
D10*
%TO.C,C7*%
X125855000Y-58645000D03*
X125855000Y-56145000D03*
%TD*%
D15*
%TO.C,A1*%
X93470000Y-53915200D03*
X72970000Y-53915200D03*
X93470000Y-110915200D03*
X72970000Y-110915200D03*
D16*
X93380000Y-78880000D03*
X93380000Y-73800000D03*
X73060000Y-76340000D03*
X73060000Y-78880000D03*
X73060000Y-81420000D03*
X73060000Y-83960000D03*
X73060000Y-86500000D03*
X73060000Y-89040000D03*
X73060000Y-91580000D03*
X73060000Y-73800000D03*
X73060000Y-94120000D03*
X73060000Y-96660000D03*
X73060000Y-99200000D03*
X73060000Y-101740000D03*
X73060000Y-104280000D03*
X73060000Y-106820000D03*
X93380000Y-106820000D03*
X93380000Y-104280000D03*
X93380000Y-101740000D03*
X93380000Y-99200000D03*
X93380000Y-96660000D03*
X93380000Y-94120000D03*
X93380000Y-91580000D03*
X93380000Y-89040000D03*
X93380000Y-86500000D03*
D17*
X93380000Y-81420000D03*
D16*
X93380000Y-83960000D03*
X93380000Y-76340000D03*
%TD*%
D10*
%TO.C,C15*%
X199380000Y-105225000D03*
X199380000Y-107725000D03*
%TD*%
D11*
%TO.C,U4*%
X128910000Y-101350000D03*
D12*
X128910000Y-103890000D03*
X128910000Y-106430000D03*
X128910000Y-108970000D03*
X128910000Y-111510000D03*
X128910000Y-114050000D03*
X128910000Y-116590000D03*
X128910000Y-119130000D03*
X128910000Y-121670000D03*
X128910000Y-124210000D03*
X136530000Y-124210000D03*
X136530000Y-121670000D03*
X136530000Y-119130000D03*
X136530000Y-116590000D03*
X136530000Y-114050000D03*
X136530000Y-111510000D03*
X136530000Y-108970000D03*
X136530000Y-106430000D03*
X136530000Y-103890000D03*
X136530000Y-101350000D03*
%TD*%
D10*
%TO.C,R3*%
X99580000Y-78920000D03*
D18*
X99580000Y-89080000D03*
%TD*%
D10*
%TO.C,R2*%
X197810000Y-124310000D03*
D18*
X187650000Y-124310000D03*
%TD*%
D10*
%TO.C,C13*%
X154970000Y-103820000D03*
X154970000Y-101320000D03*
%TD*%
D11*
%TO.C,U14*%
X188850000Y-105225000D03*
D12*
X188850000Y-107765000D03*
X188850000Y-110305000D03*
X188850000Y-112845000D03*
X188850000Y-115385000D03*
X188850000Y-117925000D03*
X188850000Y-120465000D03*
X196470000Y-120465000D03*
X196470000Y-117925000D03*
X196470000Y-115385000D03*
X196470000Y-112845000D03*
X196470000Y-110305000D03*
X196470000Y-107765000D03*
X196470000Y-105225000D03*
%TD*%
D10*
%TO.C,C5*%
X100850000Y-93660000D03*
X98350000Y-93660000D03*
%TD*%
D11*
%TO.C,S1*%
X207709948Y-107380000D03*
D12*
X207709948Y-122620000D03*
X215329948Y-122620000D03*
X215329948Y-107380000D03*
%TD*%
D10*
%TO.C,C6*%
X112960000Y-101290000D03*
X112960000Y-103790000D03*
%TD*%
D11*
%TO.C,U1*%
X172040000Y-101315000D03*
D12*
X172040000Y-103855000D03*
X172040000Y-106395000D03*
X172040000Y-108935000D03*
X172040000Y-111475000D03*
X172040000Y-114015000D03*
X172040000Y-116555000D03*
X172040000Y-119095000D03*
X172040000Y-121635000D03*
X172040000Y-124175000D03*
X179660000Y-124175000D03*
X179660000Y-121635000D03*
X179660000Y-119095000D03*
X179660000Y-116555000D03*
X179660000Y-114015000D03*
X179660000Y-111475000D03*
X179660000Y-108935000D03*
X179660000Y-106395000D03*
X179660000Y-103855000D03*
X179660000Y-101315000D03*
%TD*%
D19*
%TO.C,J1*%
X106110000Y-90760000D03*
X196110000Y-90760000D03*
D20*
X111740000Y-93000000D03*
D21*
X114280000Y-93000000D03*
X116820000Y-93000000D03*
X119360000Y-93000000D03*
X121900000Y-93000000D03*
X124440000Y-93000000D03*
X126980000Y-93000000D03*
X129520000Y-93000000D03*
X132060000Y-93000000D03*
X134600000Y-93000000D03*
X137140000Y-93000000D03*
X139680000Y-93000000D03*
X142220000Y-93000000D03*
X144760000Y-93000000D03*
X147300000Y-93000000D03*
X149840000Y-93000000D03*
X152380000Y-93000000D03*
X154920000Y-93000000D03*
X157460000Y-93000000D03*
X160000000Y-93000000D03*
X162540000Y-93000000D03*
X165080000Y-93000000D03*
X167620000Y-93000000D03*
X170160000Y-93000000D03*
X172700000Y-93000000D03*
X175240000Y-93000000D03*
X177780000Y-93000000D03*
X180320000Y-93000000D03*
X182860000Y-93000000D03*
X185400000Y-93000000D03*
X187940000Y-93000000D03*
X190480000Y-93000000D03*
X111740000Y-90460000D03*
X114280000Y-90460000D03*
X116820000Y-90460000D03*
X119360000Y-90460000D03*
X121900000Y-90460000D03*
X124440000Y-90460000D03*
X126980000Y-90460000D03*
X129520000Y-90460000D03*
X132060000Y-90460000D03*
X134600000Y-90460000D03*
X137140000Y-90460000D03*
X139680000Y-90460000D03*
X142220000Y-90460000D03*
X144760000Y-90460000D03*
X147300000Y-90460000D03*
X149840000Y-90460000D03*
X152380000Y-90460000D03*
X154920000Y-90460000D03*
X157460000Y-90460000D03*
X160000000Y-90460000D03*
X162540000Y-90460000D03*
X165080000Y-90460000D03*
X167620000Y-90460000D03*
X170160000Y-90460000D03*
X172700000Y-90460000D03*
X175240000Y-90460000D03*
X177780000Y-90460000D03*
X180320000Y-90460000D03*
X182860000Y-90460000D03*
X185400000Y-90460000D03*
X187940000Y-90460000D03*
X190480000Y-90460000D03*
X111740000Y-87920000D03*
X114280000Y-87920000D03*
X116820000Y-87920000D03*
X119360000Y-87920000D03*
X121900000Y-87920000D03*
X124440000Y-87920000D03*
X126980000Y-87920000D03*
X129520000Y-87920000D03*
X132060000Y-87920000D03*
X134600000Y-87920000D03*
X137140000Y-87920000D03*
X139680000Y-87920000D03*
X142220000Y-87920000D03*
X144760000Y-87920000D03*
X147300000Y-87920000D03*
X149840000Y-87920000D03*
X152380000Y-87920000D03*
X154920000Y-87920000D03*
X157460000Y-87920000D03*
X160000000Y-87920000D03*
X162540000Y-87920000D03*
X165080000Y-87920000D03*
X167620000Y-87920000D03*
X170160000Y-87920000D03*
X172700000Y-87920000D03*
X175240000Y-87920000D03*
X177780000Y-87920000D03*
X180320000Y-87920000D03*
X182860000Y-87920000D03*
X185400000Y-87920000D03*
X187940000Y-87920000D03*
X190480000Y-87920000D03*
%TD*%
D11*
%TO.C,U9*%
X102410000Y-101290000D03*
D12*
X102410000Y-103830000D03*
X102410000Y-106370000D03*
X102410000Y-108910000D03*
X102410000Y-111450000D03*
X102410000Y-113990000D03*
X102410000Y-116530000D03*
X102410000Y-119070000D03*
X102410000Y-121610000D03*
X102410000Y-124150000D03*
X110030000Y-124150000D03*
X110030000Y-121610000D03*
X110030000Y-119070000D03*
X110030000Y-116530000D03*
X110030000Y-113990000D03*
X110030000Y-111450000D03*
X110030000Y-108910000D03*
X110030000Y-106370000D03*
X110030000Y-103830000D03*
X110030000Y-101290000D03*
%TD*%
D11*
%TO.C,U6*%
X146168889Y-56090000D03*
D12*
X146168889Y-58630000D03*
X146168889Y-61170000D03*
X146168889Y-63710000D03*
X146168889Y-66250000D03*
X146168889Y-68790000D03*
X146168889Y-71330000D03*
X146168889Y-73870000D03*
X146168889Y-76410000D03*
X146168889Y-78950000D03*
X153788889Y-78950000D03*
X153788889Y-76410000D03*
X153788889Y-73870000D03*
X153788889Y-71330000D03*
X153788889Y-68790000D03*
X153788889Y-66250000D03*
X153788889Y-63710000D03*
X153788889Y-61170000D03*
X153788889Y-58630000D03*
X153788889Y-56090000D03*
%TD*%
D13*
%TO.C,J4*%
X211550000Y-57450000D03*
D14*
X211550000Y-54910000D03*
X214090000Y-57450000D03*
X214090000Y-54910000D03*
X216630000Y-57450000D03*
X216630000Y-54910000D03*
X219170000Y-57450000D03*
X219170000Y-54910000D03*
X221710000Y-57450000D03*
X221710000Y-54910000D03*
%TD*%
D11*
%TO.C,U5*%
X128785000Y-56145000D03*
D12*
X128785000Y-58685000D03*
X128785000Y-61225000D03*
X128785000Y-63765000D03*
X128785000Y-66305000D03*
X128785000Y-68845000D03*
X128785000Y-71385000D03*
X128785000Y-73925000D03*
X128785000Y-76465000D03*
X128785000Y-79005000D03*
X136405000Y-79005000D03*
X136405000Y-76465000D03*
X136405000Y-73925000D03*
X136405000Y-71385000D03*
X136405000Y-68845000D03*
X136405000Y-66305000D03*
X136405000Y-63765000D03*
X136405000Y-61225000D03*
X136405000Y-58685000D03*
X136405000Y-56145000D03*
%TD*%
D10*
%TO.C,R1*%
X199370000Y-102010000D03*
D18*
X189210000Y-102010000D03*
%TD*%
D11*
%TO.C,U8*%
X181050000Y-56077500D03*
D12*
X181050000Y-58617500D03*
X181050000Y-61157500D03*
X181050000Y-63697500D03*
X181050000Y-66237500D03*
X181050000Y-68777500D03*
X181050000Y-71317500D03*
X181050000Y-73857500D03*
X181050000Y-76397500D03*
X181050000Y-78937500D03*
X188670000Y-78937500D03*
X188670000Y-76397500D03*
X188670000Y-73857500D03*
X188670000Y-71317500D03*
X188670000Y-68777500D03*
X188670000Y-66237500D03*
X188670000Y-63697500D03*
X188670000Y-61157500D03*
X188670000Y-58617500D03*
X188670000Y-56077500D03*
%TD*%
D10*
%TO.C,C11*%
X125980000Y-103850000D03*
X125980000Y-101350000D03*
%TD*%
%TO.C,C9*%
X160631825Y-58565000D03*
X160631825Y-56065000D03*
%TD*%
D22*
%TO.C,C1*%
X227747349Y-69510000D03*
D10*
X225247349Y-69510000D03*
%TD*%
D22*
%TO.C,C4*%
X209397349Y-69510000D03*
D10*
X211897349Y-69510000D03*
%TD*%
%TO.C,C12*%
X140530000Y-103850000D03*
X140530000Y-101350000D03*
%TD*%
D22*
%TO.C,RN1*%
X74390000Y-124720000D03*
D18*
X76930000Y-124720000D03*
X79470000Y-124720000D03*
X82010000Y-124720000D03*
X84550000Y-124720000D03*
X87090000Y-124720000D03*
X89630000Y-124720000D03*
X92170000Y-124720000D03*
X92170000Y-117100000D03*
X89630000Y-117100000D03*
X87090000Y-117100000D03*
X84550000Y-117100000D03*
X82010000Y-117100000D03*
X79470000Y-117100000D03*
X76930000Y-117100000D03*
X74390000Y-117100000D03*
%TD*%
D10*
%TO.C,C3*%
X220990000Y-101920000D03*
X223490000Y-101920000D03*
%TD*%
%TO.C,C10*%
X178120000Y-58577500D03*
X178120000Y-56077500D03*
%TD*%
D11*
%TO.C,U2*%
X157880000Y-101320000D03*
D12*
X157880000Y-103860000D03*
X157880000Y-106400000D03*
X157880000Y-108940000D03*
X157880000Y-111480000D03*
X157880000Y-114020000D03*
X157880000Y-116560000D03*
X157880000Y-119100000D03*
X157880000Y-121640000D03*
X157880000Y-124180000D03*
X165500000Y-124180000D03*
X165500000Y-121640000D03*
X165500000Y-119100000D03*
X165500000Y-116560000D03*
X165500000Y-114020000D03*
X165500000Y-111480000D03*
X165500000Y-108940000D03*
X165500000Y-106400000D03*
X165500000Y-103860000D03*
X165500000Y-101320000D03*
%TD*%
D11*
%TO.C,U7*%
X163561825Y-56065000D03*
D12*
X163561825Y-58605000D03*
X163561825Y-61145000D03*
X163561825Y-63685000D03*
X163561825Y-66225000D03*
X163561825Y-68765000D03*
X163561825Y-71305000D03*
X163561825Y-73845000D03*
X163561825Y-76385000D03*
X163561825Y-78925000D03*
X171181825Y-78925000D03*
X171181825Y-76385000D03*
X171181825Y-73845000D03*
X171181825Y-71305000D03*
X171181825Y-68765000D03*
X171181825Y-66225000D03*
X171181825Y-63685000D03*
X171181825Y-61145000D03*
X171181825Y-58605000D03*
X171181825Y-56065000D03*
%TD*%
M02*
