%TF.GenerationSoftware,KiCad,Pcbnew,8.0.8*%
%TF.CreationDate,2025-04-22T20:57:00-07:00*%
%TF.ProjectId,logic,6c6f6769-632e-46b6-9963-61645f706362,rev?*%
%TF.SameCoordinates,Original*%
%TF.FileFunction,Copper,L1,Top*%
%TF.FilePolarity,Positive*%
%FSLAX46Y46*%
G04 Gerber Fmt 4.6, Leading zero omitted, Abs format (unit mm)*
G04 Created by KiCad (PCBNEW 8.0.8) date 2025-04-22 20:57:00*
%MOMM*%
%LPD*%
G01*
G04 APERTURE LIST*
G04 Aperture macros list*
%AMRoundRect*
0 Rectangle with rounded corners*
0 $1 Rounding radius*
0 $2 $3 $4 $5 $6 $7 $8 $9 X,Y pos of 4 corners*
0 Add a 4 corners polygon primitive as box body*
4,1,4,$2,$3,$4,$5,$6,$7,$8,$9,$2,$3,0*
0 Add four circle primitives for the rounded corners*
1,1,$1+$1,$2,$3*
1,1,$1+$1,$4,$5*
1,1,$1+$1,$6,$7*
1,1,$1+$1,$8,$9*
0 Add four rect primitives between the rounded corners*
20,1,$1+$1,$2,$3,$4,$5,0*
20,1,$1+$1,$4,$5,$6,$7,0*
20,1,$1+$1,$6,$7,$8,$9,0*
20,1,$1+$1,$8,$9,$2,$3,0*%
G04 Aperture macros list end*
%TA.AperFunction,ComponentPad*%
%ADD10C,1.600000*%
%TD*%
%TA.AperFunction,ComponentPad*%
%ADD11R,2.400000X1.600000*%
%TD*%
%TA.AperFunction,ComponentPad*%
%ADD12O,2.400000X1.600000*%
%TD*%
%TA.AperFunction,ComponentPad*%
%ADD13R,1.700000X1.700000*%
%TD*%
%TA.AperFunction,ComponentPad*%
%ADD14O,1.700000X1.700000*%
%TD*%
%TA.AperFunction,SMDPad,CuDef*%
%ADD15R,2.000000X5.800000*%
%TD*%
%TA.AperFunction,ComponentPad*%
%ADD16C,1.727200*%
%TD*%
%TA.AperFunction,ComponentPad*%
%ADD17R,1.727200X1.727200*%
%TD*%
%TA.AperFunction,ComponentPad*%
%ADD18O,1.600000X1.600000*%
%TD*%
%TA.AperFunction,ComponentPad*%
%ADD19RoundRect,0.249999X0.525001X-0.525001X0.525001X0.525001X-0.525001X0.525001X-0.525001X-0.525001X0*%
%TD*%
%TA.AperFunction,ComponentPad*%
%ADD20C,1.550000*%
%TD*%
%TA.AperFunction,ComponentPad*%
%ADD21R,1.600000X1.600000*%
%TD*%
%TA.AperFunction,ViaPad*%
%ADD22C,0.500000*%
%TD*%
%TA.AperFunction,ViaPad*%
%ADD23C,0.600000*%
%TD*%
%TA.AperFunction,Conductor*%
%ADD24C,2.000000*%
%TD*%
%TA.AperFunction,Conductor*%
%ADD25C,1.600000*%
%TD*%
%TA.AperFunction,Conductor*%
%ADD26C,1.800000*%
%TD*%
%TA.AperFunction,Conductor*%
%ADD27C,0.200000*%
%TD*%
%TA.AperFunction,Conductor*%
%ADD28C,0.300000*%
%TD*%
%TA.AperFunction,Conductor*%
%ADD29C,1.000000*%
%TD*%
G04 APERTURE END LIST*
D10*
%TO.P,C14,1*%
%TO.N,V5.0*%
X169100000Y-103815000D03*
%TO.P,C14,2*%
%TO.N,GND*%
X169100000Y-101315000D03*
%TD*%
%TO.P,C8,1*%
%TO.N,V5.0*%
X143228889Y-58600000D03*
%TO.P,C8,2*%
%TO.N,GND*%
X143228889Y-56100000D03*
%TD*%
D11*
%TO.P,U3,1,PGND*%
%TO.N,GND*%
X143470000Y-101350000D03*
D12*
%TO.P,U3,2,VCC*%
%TO.N,V5.0*%
X143470000Y-103890000D03*
%TO.P,U3,3,SER_IN*%
%TO.N,/Sin3*%
X143470000Y-106430000D03*
%TO.P,U3,4,DRAIN0*%
%TO.N,/B3-0*%
X143470000Y-108970000D03*
%TO.P,U3,5,DRAIN1*%
%TO.N,/B3-1*%
X143470000Y-111510000D03*
%TO.P,U3,6,DRAIN2*%
%TO.N,/B3-2*%
X143470000Y-114050000D03*
%TO.P,U3,7,DRAIN3*%
%TO.N,/B3-3*%
X143470000Y-116590000D03*
%TO.P,U3,8,~{SRCLR}*%
%TO.N,/~{SRCLR}*%
X143470000Y-119130000D03*
%TO.P,U3,9,~{G}*%
%TO.N,POR*%
X143470000Y-121670000D03*
%TO.P,U3,10,PGND*%
%TO.N,GND*%
X143470000Y-124210000D03*
%TO.P,U3,11,PGND*%
X151090000Y-124210000D03*
%TO.P,U3,12,RCLK*%
%TO.N,/RCLK*%
X151090000Y-121670000D03*
%TO.P,U3,13,SRCK*%
%TO.N,/SRCK*%
X151090000Y-119130000D03*
%TO.P,U3,14,DRAIN4*%
%TO.N,/B3-4*%
X151090000Y-116590000D03*
%TO.P,U3,15,DRAIN5*%
%TO.N,/B3-5*%
X151090000Y-114050000D03*
%TO.P,U3,16,DRAIN6*%
%TO.N,/B3-6*%
X151090000Y-111510000D03*
%TO.P,U3,17,DRAIN7*%
%TO.N,/B3-7*%
X151090000Y-108970000D03*
%TO.P,U3,18,SER_OUT*%
%TO.N,/Sin2*%
X151090000Y-106430000D03*
%TO.P,U3,19,LGND*%
%TO.N,GND*%
X151090000Y-103890000D03*
%TO.P,U3,20,PGND*%
X151090000Y-101350000D03*
%TD*%
D13*
%TO.P,J3,1,Pin_1*%
%TO.N,Net-(J3-Pin_1)*%
X115060000Y-76310000D03*
D14*
%TO.P,J3,2,Pin_2*%
%TO.N,Net-(J3-Pin_2)*%
X115060000Y-78850000D03*
%TO.P,J3,3,Pin_3*%
%TO.N,Net-(J3-Pin_3)*%
X112520000Y-76310000D03*
%TO.P,J3,4,Pin_4*%
%TO.N,Net-(J3-Pin_4)*%
X112520000Y-78850000D03*
%TO.P,J3,5,Pin_5*%
%TO.N,Net-(J3-Pin_5)*%
X109980000Y-76310000D03*
%TO.P,J3,6,Pin_6*%
%TO.N,Net-(J3-Pin_6)*%
X109980000Y-78850000D03*
%TO.P,J3,7,Pin_7*%
%TO.N,V3.3*%
X107440000Y-76310000D03*
%TO.P,J3,8,Pin_8*%
X107440000Y-78850000D03*
%TO.P,J3,9,Pin_9*%
X104900000Y-76310000D03*
%TO.P,J3,10,Pin_10*%
X104900000Y-78850000D03*
%TD*%
D10*
%TO.P,C2,1*%
%TO.N,Net-(J4-Pin_10)*%
X216777349Y-69510000D03*
%TO.P,C2,2*%
%TO.N,GND*%
X219277349Y-69510000D03*
%TD*%
D13*
%TO.P,J2,1,Pin_1*%
%TO.N,Net-(J2-Pin_1)*%
X117140000Y-56140000D03*
D14*
%TO.P,J2,2,Pin_2*%
%TO.N,GND*%
X119680000Y-56140000D03*
%TO.P,J2,3,Pin_3*%
%TO.N,Net-(J2-Pin_3)*%
X117140000Y-58680000D03*
%TO.P,J2,4,Pin_4*%
%TO.N,GND*%
X119680000Y-58680000D03*
%TO.P,J2,5,Pin_5*%
%TO.N,Net-(J2-Pin_5)*%
X117140000Y-61220000D03*
%TO.P,J2,6,Pin_6*%
%TO.N,GND*%
X119680000Y-61220000D03*
%TO.P,J2,7,Pin_7*%
%TO.N,Net-(J2-Pin_7)*%
X117140000Y-63760000D03*
%TO.P,J2,8,Pin_8*%
%TO.N,GND*%
X119680000Y-63760000D03*
%TO.P,J2,9,Pin_9*%
%TO.N,Net-(J2-Pin_9)*%
X117140000Y-66300000D03*
%TO.P,J2,10,Pin_10*%
%TO.N,GND*%
X119680000Y-66300000D03*
%TD*%
D15*
%TO.P,U10,1,IN+*%
%TO.N,Net-(J4-Pin_10)*%
X217620001Y-79380000D03*
%TO.P,U10,2,5v*%
%TO.N,V5.0*%
X217654500Y-99380000D03*
%TO.P,U10,3,GND*%
%TO.N,GND*%
X226745500Y-99380000D03*
%TO.P,U10,4,IN-*%
X226815497Y-79380000D03*
%TD*%
D10*
%TO.P,C7,1*%
%TO.N,V5.0*%
X125855000Y-58645000D03*
%TO.P,C7,2*%
%TO.N,GND*%
X125855000Y-56145000D03*
%TD*%
D16*
%TO.P,A1,3V3,3.3V*%
%TO.N,V3.3*%
X93380000Y-78880000D03*
%TO.P,A1,5V,5V*%
%TO.N,unconnected-(A1-Pad5V)*%
X93380000Y-73800000D03*
%TO.P,A1,A0,A0/DAC*%
%TO.N,unconnected-(A1-A0{slash}DAC-PadA0)*%
X73060000Y-76340000D03*
%TO.P,A1,A1,A1*%
%TO.N,/~{SRCLR3.3}*%
X73060000Y-78880000D03*
%TO.P,A1,A2,A2*%
%TO.N,Net-(J2-Pin_1)*%
X73060000Y-81420000D03*
%TO.P,A1,A3,A3*%
%TO.N,Net-(J2-Pin_3)*%
X73060000Y-83960000D03*
%TO.P,A1,A4,A4*%
%TO.N,Net-(J2-Pin_5)*%
X73060000Y-86500000D03*
%TO.P,A1,A5,A5*%
%TO.N,Net-(J2-Pin_7)*%
X73060000Y-89040000D03*
%TO.P,A1,A6,A6*%
%TO.N,Net-(J2-Pin_9)*%
X73060000Y-91580000D03*
%TO.P,A1,AREF,AREF*%
%TO.N,unconnected-(A1-PadAREF)*%
X73060000Y-73800000D03*
%TO.P,A1,D0,D0*%
%TO.N,Net-(RN1-R8.1)*%
X73060000Y-94120000D03*
%TO.P,A1,D1,D1*%
%TO.N,Net-(RN1-R7.1)*%
X73060000Y-96660000D03*
%TO.P,A1,D2,D2*%
%TO.N,Net-(RN1-R6.1)*%
X73060000Y-99200000D03*
%TO.P,A1,D3,D3*%
%TO.N,Net-(RN1-R5.1)*%
X73060000Y-101740000D03*
%TO.P,A1,D4,D4*%
%TO.N,Net-(RN1-R4.1)*%
X73060000Y-104280000D03*
%TO.P,A1,D5,D5*%
%TO.N,Net-(RN1-R3.1)*%
X73060000Y-106820000D03*
%TO.P,A1,D6,D6*%
%TO.N,unconnected-(A1-PadD6)*%
X93380000Y-106820000D03*
%TO.P,A1,D7,D7*%
%TO.N,Net-(U9-I3a)*%
X93380000Y-104280000D03*
%TO.P,A1,D8,D8_MOSI*%
%TO.N,Net-(A1-D8_MOSI)*%
X93380000Y-101740000D03*
%TO.P,A1,D9,D9_SCK*%
%TO.N,Net-(A1-D9_SCK)*%
X93380000Y-99200000D03*
%TO.P,A1,D10,D10_MISO*%
%TO.N,unconnected-(A1-D10_MISO-PadD10)*%
X93380000Y-96660000D03*
%TO.P,A1,D11,D11/SDA*%
%TO.N,unconnected-(A1-D11{slash}SDA-PadD11)*%
X93380000Y-94120000D03*
%TO.P,A1,D12,D12/SCL*%
%TO.N,unconnected-(A1-D12{slash}SCL-PadD12)*%
X93380000Y-91580000D03*
%TO.P,A1,D13,D13/RX*%
%TO.N,unconnected-(A1-D13{slash}RX-PadD13)*%
X93380000Y-89040000D03*
%TO.P,A1,D14,D14/TX*%
%TO.N,unconnected-(A1-D14{slash}TX-PadD14)*%
X93380000Y-86500000D03*
D17*
%TO.P,A1,GND,GND*%
%TO.N,GND*%
X93380000Y-81420000D03*
D16*
%TO.P,A1,RST,RESET*%
%TO.N,Net-(A1-RESET)*%
X93380000Y-83960000D03*
%TO.P,A1,VIN,VIN*%
%TO.N,V5.0*%
X93380000Y-76340000D03*
%TD*%
D10*
%TO.P,C15,1*%
%TO.N,V5.0*%
X199380000Y-105225000D03*
%TO.P,C15,2*%
%TO.N,GND*%
X199380000Y-107725000D03*
%TD*%
D11*
%TO.P,U4,1,PGND*%
%TO.N,GND*%
X128910000Y-101350000D03*
D12*
%TO.P,U4,2,VCC*%
%TO.N,V5.0*%
X128910000Y-103890000D03*
%TO.P,U4,3,SER_IN*%
%TO.N,/Sin4*%
X128910000Y-106430000D03*
%TO.P,U4,4,DRAIN0*%
%TO.N,/B4-0*%
X128910000Y-108970000D03*
%TO.P,U4,5,DRAIN1*%
%TO.N,/B4-1*%
X128910000Y-111510000D03*
%TO.P,U4,6,DRAIN2*%
%TO.N,/B4-2*%
X128910000Y-114050000D03*
%TO.P,U4,7,DRAIN3*%
%TO.N,/B4-3*%
X128910000Y-116590000D03*
%TO.P,U4,8,~{SRCLR}*%
%TO.N,/~{SRCLR}*%
X128910000Y-119130000D03*
%TO.P,U4,9,~{G}*%
%TO.N,POR*%
X128910000Y-121670000D03*
%TO.P,U4,10,PGND*%
%TO.N,GND*%
X128910000Y-124210000D03*
%TO.P,U4,11,PGND*%
X136530000Y-124210000D03*
%TO.P,U4,12,RCLK*%
%TO.N,/RCLK*%
X136530000Y-121670000D03*
%TO.P,U4,13,SRCK*%
%TO.N,/SRCK*%
X136530000Y-119130000D03*
%TO.P,U4,14,DRAIN4*%
%TO.N,/B4-4*%
X136530000Y-116590000D03*
%TO.P,U4,15,DRAIN5*%
%TO.N,/B4-5*%
X136530000Y-114050000D03*
%TO.P,U4,16,DRAIN6*%
%TO.N,/B4-6*%
X136530000Y-111510000D03*
%TO.P,U4,17,DRAIN7*%
%TO.N,/B4-7*%
X136530000Y-108970000D03*
%TO.P,U4,18,SER_OUT*%
%TO.N,/Sin3*%
X136530000Y-106430000D03*
%TO.P,U4,19,LGND*%
%TO.N,GND*%
X136530000Y-103890000D03*
%TO.P,U4,20,PGND*%
X136530000Y-101350000D03*
%TD*%
D10*
%TO.P,R3,1*%
%TO.N,V3.3*%
X99580000Y-78920000D03*
D18*
%TO.P,R3,2*%
%TO.N,Net-(A1-RESET)*%
X99580000Y-89080000D03*
%TD*%
D10*
%TO.P,R2,1*%
%TO.N,V5.0*%
X197810000Y-124310000D03*
D18*
%TO.P,R2,2*%
%TO.N,Net-(C4-Pad1)*%
X187650000Y-124310000D03*
%TD*%
D10*
%TO.P,C13,1*%
%TO.N,V5.0*%
X154970000Y-103820000D03*
%TO.P,C13,2*%
%TO.N,GND*%
X154970000Y-101320000D03*
%TD*%
D11*
%TO.P,U14,1*%
%TO.N,Net-(C4-Pad1)*%
X188850000Y-105225000D03*
D12*
%TO.P,U14,2*%
%TO.N,Net-(U14-Pad13)*%
X188850000Y-107765000D03*
%TO.P,U14,3*%
%TO.N,Net-(U14-Pad12)*%
X188850000Y-110305000D03*
%TO.P,U14,4*%
%TO.N,POR*%
X188850000Y-112845000D03*
%TO.P,U14,5*%
%TO.N,GND*%
X188850000Y-115385000D03*
%TO.P,U14,6*%
%TO.N,unconnected-(U14-Pad6)*%
X188850000Y-117925000D03*
%TO.P,U14,7,GND*%
%TO.N,GND*%
X188850000Y-120465000D03*
%TO.P,U14,8*%
%TO.N,unconnected-(U14-Pad8)*%
X196470000Y-120465000D03*
%TO.P,U14,9*%
%TO.N,GND*%
X196470000Y-117925000D03*
%TO.P,U14,10*%
%TO.N,unconnected-(U14-Pad10)*%
X196470000Y-115385000D03*
%TO.P,U14,11*%
%TO.N,GND*%
X196470000Y-112845000D03*
%TO.P,U14,12*%
%TO.N,Net-(U14-Pad12)*%
X196470000Y-110305000D03*
%TO.P,U14,13*%
%TO.N,Net-(U14-Pad13)*%
X196470000Y-107765000D03*
%TO.P,U14,14,VCC*%
%TO.N,V5.0*%
X196470000Y-105225000D03*
%TD*%
D10*
%TO.P,C5,1*%
%TO.N,V5.0*%
X100850000Y-93660000D03*
%TO.P,C5,2*%
%TO.N,GND*%
X98350000Y-93660000D03*
%TD*%
D11*
%TO.P,S1,1,HV_OUT*%
%TO.N,V170*%
X207709948Y-107380000D03*
D12*
%TO.P,S1,2,LV_IN*%
%TO.N,V5.0*%
X207709948Y-122620000D03*
%TO.P,S1,3,LGND*%
%TO.N,GND*%
X215329948Y-122620000D03*
%TO.P,S1,4,PGND*%
X215329948Y-107380000D03*
%TD*%
D10*
%TO.P,C6,1*%
%TO.N,V5.0*%
X112960000Y-101290000D03*
%TO.P,C6,2*%
%TO.N,GND*%
X112960000Y-103790000D03*
%TD*%
D11*
%TO.P,U1,1,PGND*%
%TO.N,GND*%
X172040000Y-101315000D03*
D12*
%TO.P,U1,2,VCC*%
%TO.N,V5.0*%
X172040000Y-103855000D03*
%TO.P,U1,3,SER_IN*%
%TO.N,/Sin1*%
X172040000Y-106395000D03*
%TO.P,U1,4,DRAIN0*%
%TO.N,/B1-0*%
X172040000Y-108935000D03*
%TO.P,U1,5,DRAIN1*%
%TO.N,/B1-1*%
X172040000Y-111475000D03*
%TO.P,U1,6,DRAIN2*%
%TO.N,/B1-2*%
X172040000Y-114015000D03*
%TO.P,U1,7,DRAIN3*%
%TO.N,/B1-3*%
X172040000Y-116555000D03*
%TO.P,U1,8,~{SRCLR}*%
%TO.N,/~{SRCLR}*%
X172040000Y-119095000D03*
%TO.P,U1,9,~{G}*%
%TO.N,POR*%
X172040000Y-121635000D03*
%TO.P,U1,10,PGND*%
%TO.N,GND*%
X172040000Y-124175000D03*
%TO.P,U1,11,PGND*%
X179660000Y-124175000D03*
%TO.P,U1,12,RCLK*%
%TO.N,/RCLK*%
X179660000Y-121635000D03*
%TO.P,U1,13,SRCK*%
%TO.N,/SRCK*%
X179660000Y-119095000D03*
%TO.P,U1,14,DRAIN4*%
%TO.N,/B1-4*%
X179660000Y-116555000D03*
%TO.P,U1,15,DRAIN5*%
%TO.N,/B1-5*%
X179660000Y-114015000D03*
%TO.P,U1,16,DRAIN6*%
%TO.N,/B1-6*%
X179660000Y-111475000D03*
%TO.P,U1,17,DRAIN7*%
%TO.N,/B1-7*%
X179660000Y-108935000D03*
%TO.P,U1,18,SER_OUT*%
%TO.N,/Sin8*%
X179660000Y-106395000D03*
%TO.P,U1,19,LGND*%
%TO.N,GND*%
X179660000Y-103855000D03*
%TO.P,U1,20,PGND*%
X179660000Y-101315000D03*
%TD*%
D19*
%TO.P,J1,a1,Pin_a1*%
%TO.N,/B4-0*%
X111740000Y-93000000D03*
D20*
%TO.P,J1,a2,Pin_a2*%
%TO.N,/B4-1*%
X114280000Y-93000000D03*
%TO.P,J1,a3,Pin_a3*%
%TO.N,/B4-2*%
X116820000Y-93000000D03*
%TO.P,J1,a4,Pin_a4*%
%TO.N,/B4-3*%
X119360000Y-93000000D03*
%TO.P,J1,a5,Pin_a5*%
%TO.N,/B4-4*%
X121900000Y-93000000D03*
%TO.P,J1,a6,Pin_a6*%
%TO.N,/B4-5*%
X124440000Y-93000000D03*
%TO.P,J1,a7,Pin_a7*%
%TO.N,/B4-6*%
X126980000Y-93000000D03*
%TO.P,J1,a8,Pin_a8*%
%TO.N,/B4-7*%
X129520000Y-93000000D03*
%TO.P,J1,a9,Pin_a9*%
%TO.N,/B3-0*%
X132060000Y-93000000D03*
%TO.P,J1,a10,Pin_a10*%
%TO.N,/B3-1*%
X134600000Y-93000000D03*
%TO.P,J1,a11,Pin_a11*%
%TO.N,/B3-2*%
X137140000Y-93000000D03*
%TO.P,J1,a12,Pin_a12*%
%TO.N,/B3-3*%
X139680000Y-93000000D03*
%TO.P,J1,a13,Pin_a13*%
%TO.N,/B3-4*%
X142220000Y-93000000D03*
%TO.P,J1,a14,Pin_a14*%
%TO.N,/B3-5*%
X144760000Y-93000000D03*
%TO.P,J1,a15,Pin_a15*%
%TO.N,/B3-6*%
X147300000Y-93000000D03*
%TO.P,J1,a16,Pin_a16*%
%TO.N,/B3-7*%
X149840000Y-93000000D03*
%TO.P,J1,a17,Pin_a17*%
%TO.N,/B2-0*%
X152380000Y-93000000D03*
%TO.P,J1,a18,Pin_a18*%
%TO.N,/B2-1*%
X154920000Y-93000000D03*
%TO.P,J1,a19,Pin_a19*%
%TO.N,/B2-2*%
X157460000Y-93000000D03*
%TO.P,J1,a20,Pin_a20*%
%TO.N,/B2-3*%
X160000000Y-93000000D03*
%TO.P,J1,a21,Pin_a21*%
%TO.N,/B2-4*%
X162540000Y-93000000D03*
%TO.P,J1,a22,Pin_a22*%
%TO.N,/B2-5*%
X165080000Y-93000000D03*
%TO.P,J1,a23,Pin_a23*%
%TO.N,/B2-6*%
X167620000Y-93000000D03*
%TO.P,J1,a24,Pin_a24*%
%TO.N,/B2-7*%
X170160000Y-93000000D03*
%TO.P,J1,a25,Pin_a25*%
%TO.N,/B1-0*%
X172700000Y-93000000D03*
%TO.P,J1,a26,Pin_a26*%
%TO.N,/B1-1*%
X175240000Y-93000000D03*
%TO.P,J1,a27,Pin_a27*%
%TO.N,/B1-2*%
X177780000Y-93000000D03*
%TO.P,J1,a28,Pin_a28*%
%TO.N,/B1-3*%
X180320000Y-93000000D03*
%TO.P,J1,a29,Pin_a29*%
%TO.N,/B1-4*%
X182860000Y-93000000D03*
%TO.P,J1,a30,Pin_a30*%
%TO.N,/B1-5*%
X185400000Y-93000000D03*
%TO.P,J1,a31,Pin_a31*%
%TO.N,/B1-6*%
X187940000Y-93000000D03*
%TO.P,J1,a32,Pin_a32*%
%TO.N,/B1-7*%
X190480000Y-93000000D03*
%TO.P,J1,b1,Pin_b1*%
%TO.N,V170*%
X111740000Y-90460000D03*
%TO.P,J1,b2,Pin_b2*%
X114280000Y-90460000D03*
%TO.P,J1,b3,Pin_b3*%
X116820000Y-90460000D03*
%TO.P,J1,b4,Pin_b4*%
X119360000Y-90460000D03*
%TO.P,J1,b5,Pin_b5*%
X121900000Y-90460000D03*
%TO.P,J1,b6,Pin_b6*%
X124440000Y-90460000D03*
%TO.P,J1,b7,Pin_b7*%
X126980000Y-90460000D03*
%TO.P,J1,b8,Pin_b8*%
X129520000Y-90460000D03*
%TO.P,J1,b9,Pin_b9*%
X132060000Y-90460000D03*
%TO.P,J1,b10,Pin_b10*%
X134600000Y-90460000D03*
%TO.P,J1,b11,Pin_b11*%
X137140000Y-90460000D03*
%TO.P,J1,b12,Pin_b12*%
X139680000Y-90460000D03*
%TO.P,J1,b13,Pin_b13*%
X142220000Y-90460000D03*
%TO.P,J1,b14,Pin_b14*%
X144760000Y-90460000D03*
%TO.P,J1,b15,Pin_b15*%
X147300000Y-90460000D03*
%TO.P,J1,b16,Pin_b16*%
X149840000Y-90460000D03*
%TO.P,J1,b17,Pin_b17*%
%TO.N,GND*%
X152380000Y-90460000D03*
%TO.P,J1,b18,Pin_b18*%
X154920000Y-90460000D03*
%TO.P,J1,b19,Pin_b19*%
X157460000Y-90460000D03*
%TO.P,J1,b20,Pin_b20*%
X160000000Y-90460000D03*
%TO.P,J1,b21,Pin_b21*%
X162540000Y-90460000D03*
%TO.P,J1,b22,Pin_b22*%
X165080000Y-90460000D03*
%TO.P,J1,b23,Pin_b23*%
X167620000Y-90460000D03*
%TO.P,J1,b24,Pin_b24*%
X170160000Y-90460000D03*
%TO.P,J1,b25,Pin_b25*%
X172700000Y-90460000D03*
%TO.P,J1,b26,Pin_b26*%
X175240000Y-90460000D03*
%TO.P,J1,b27,Pin_b27*%
X177780000Y-90460000D03*
%TO.P,J1,b28,Pin_b28*%
X180320000Y-90460000D03*
%TO.P,J1,b29,Pin_b29*%
X182860000Y-90460000D03*
%TO.P,J1,b30,Pin_b30*%
X185400000Y-90460000D03*
%TO.P,J1,b31,Pin_b31*%
X187940000Y-90460000D03*
%TO.P,J1,b32,Pin_b32*%
X190480000Y-90460000D03*
%TO.P,J1,c1,Pin_c1*%
%TO.N,/B5-0*%
X111740000Y-87920000D03*
%TO.P,J1,c2,Pin_c2*%
%TO.N,/B5-1*%
X114280000Y-87920000D03*
%TO.P,J1,c3,Pin_c3*%
%TO.N,/B5-2*%
X116820000Y-87920000D03*
%TO.P,J1,c4,Pin_c4*%
%TO.N,/B5-3*%
X119360000Y-87920000D03*
%TO.P,J1,c5,Pin_c5*%
%TO.N,/B5-4*%
X121900000Y-87920000D03*
%TO.P,J1,c6,Pin_c6*%
%TO.N,/B5-5*%
X124440000Y-87920000D03*
%TO.P,J1,c7,Pin_c7*%
%TO.N,/B5-6*%
X126980000Y-87920000D03*
%TO.P,J1,c8,Pin_c8*%
%TO.N,/B5-7*%
X129520000Y-87920000D03*
%TO.P,J1,c9,Pin_c9*%
%TO.N,/B6-0*%
X132060000Y-87920000D03*
%TO.P,J1,c10,Pin_c10*%
%TO.N,/B6-1*%
X134600000Y-87920000D03*
%TO.P,J1,c11,Pin_c11*%
%TO.N,/B6-2*%
X137140000Y-87920000D03*
%TO.P,J1,c12,Pin_c12*%
%TO.N,/B6-3*%
X139680000Y-87920000D03*
%TO.P,J1,c13,Pin_c13*%
%TO.N,/B6-4*%
X142220000Y-87920000D03*
%TO.P,J1,c14,Pin_c14*%
%TO.N,/B6-5*%
X144760000Y-87920000D03*
%TO.P,J1,c15,Pin_c15*%
%TO.N,/B6-6*%
X147300000Y-87920000D03*
%TO.P,J1,c16,Pin_c16*%
%TO.N,/B6-7*%
X149840000Y-87920000D03*
%TO.P,J1,c17,Pin_c17*%
%TO.N,/B7-0*%
X152380000Y-87920000D03*
%TO.P,J1,c18,Pin_c18*%
%TO.N,/B7-1*%
X154920000Y-87920000D03*
%TO.P,J1,c19,Pin_c19*%
%TO.N,/B7-2*%
X157460000Y-87920000D03*
%TO.P,J1,c20,Pin_c20*%
%TO.N,/B7-3*%
X160000000Y-87920000D03*
%TO.P,J1,c21,Pin_c21*%
%TO.N,/B7-4*%
X162540000Y-87920000D03*
%TO.P,J1,c22,Pin_c22*%
%TO.N,/B7-5*%
X165080000Y-87920000D03*
%TO.P,J1,c23,Pin_c23*%
%TO.N,/B7-6*%
X167620000Y-87920000D03*
%TO.P,J1,c24,Pin_c24*%
%TO.N,/B7-7*%
X170160000Y-87920000D03*
%TO.P,J1,c25,Pin_c25*%
%TO.N,/B8-0*%
X172700000Y-87920000D03*
%TO.P,J1,c26,Pin_c26*%
%TO.N,/B8-1*%
X175240000Y-87920000D03*
%TO.P,J1,c27,Pin_c27*%
%TO.N,/B8-2*%
X177780000Y-87920000D03*
%TO.P,J1,c28,Pin_c28*%
%TO.N,/B8-3*%
X180320000Y-87920000D03*
%TO.P,J1,c29,Pin_c29*%
%TO.N,/B8-4*%
X182860000Y-87920000D03*
%TO.P,J1,c30,Pin_c30*%
%TO.N,/B8-5*%
X185400000Y-87920000D03*
%TO.P,J1,c31,Pin_c31*%
%TO.N,/B8-6*%
X187940000Y-87920000D03*
%TO.P,J1,c32,Pin_c32*%
%TO.N,/B8-7*%
X190480000Y-87920000D03*
%TD*%
D11*
%TO.P,U9,1,OEa*%
%TO.N,GND*%
X102410000Y-101290000D03*
D12*
%TO.P,U9,2,I0a*%
%TO.N,/~{SRCLR3.3}*%
X102410000Y-103830000D03*
%TO.P,U9,3,O3b*%
%TO.N,unconnected-(U9-O3b-Pad3)*%
X102410000Y-106370000D03*
%TO.P,U9,4,I1a*%
%TO.N,Net-(A1-D8_MOSI)*%
X102410000Y-108910000D03*
%TO.P,U9,5,O2b*%
%TO.N,unconnected-(U9-O2b-Pad5)*%
X102410000Y-111450000D03*
%TO.P,U9,6,I2a*%
%TO.N,Net-(A1-D9_SCK)*%
X102410000Y-113990000D03*
%TO.P,U9,7,O1b*%
%TO.N,unconnected-(U9-O1b-Pad7)*%
X102410000Y-116530000D03*
%TO.P,U9,8,I3a*%
%TO.N,Net-(U9-I3a)*%
X102410000Y-119070000D03*
%TO.P,U9,9,O0b*%
%TO.N,unconnected-(U9-O0b-Pad9)*%
X102410000Y-121610000D03*
%TO.P,U9,10,GND*%
%TO.N,GND*%
X102410000Y-124150000D03*
%TO.P,U9,11,I0b*%
X110030000Y-124150000D03*
%TO.P,U9,12,O3a*%
%TO.N,/~{SRCLR}*%
X110030000Y-121610000D03*
%TO.P,U9,13,I1b*%
%TO.N,GND*%
X110030000Y-119070000D03*
%TO.P,U9,14,O2a*%
%TO.N,/SRCK*%
X110030000Y-116530000D03*
%TO.P,U9,15,I2b*%
%TO.N,GND*%
X110030000Y-113990000D03*
%TO.P,U9,16,O1a*%
%TO.N,/Sin4*%
X110030000Y-111450000D03*
%TO.P,U9,17,I3b*%
%TO.N,GND*%
X110030000Y-108910000D03*
%TO.P,U9,18,O0a*%
%TO.N,/RCLK*%
X110030000Y-106370000D03*
%TO.P,U9,19,OEb*%
%TO.N,GND*%
X110030000Y-103830000D03*
%TO.P,U9,20,VCC*%
%TO.N,V5.0*%
X110030000Y-101290000D03*
%TD*%
D11*
%TO.P,U6,1,PGND*%
%TO.N,GND*%
X146168889Y-56090000D03*
D12*
%TO.P,U6,2,VCC*%
%TO.N,V5.0*%
X146168889Y-58630000D03*
%TO.P,U6,3,SER_IN*%
%TO.N,/Sin6*%
X146168889Y-61170000D03*
%TO.P,U6,4,DRAIN0*%
%TO.N,/B6-3*%
X146168889Y-63710000D03*
%TO.P,U6,5,DRAIN1*%
%TO.N,/B6-2*%
X146168889Y-66250000D03*
%TO.P,U6,6,DRAIN2*%
%TO.N,/B6-1*%
X146168889Y-68790000D03*
%TO.P,U6,7,DRAIN3*%
%TO.N,/B6-0*%
X146168889Y-71330000D03*
%TO.P,U6,8,~{SRCLR}*%
%TO.N,/~{SRCLR}*%
X146168889Y-73870000D03*
%TO.P,U6,9,~{G}*%
%TO.N,POR*%
X146168889Y-76410000D03*
%TO.P,U6,10,PGND*%
%TO.N,GND*%
X146168889Y-78950000D03*
%TO.P,U6,11,PGND*%
X153788889Y-78950000D03*
%TO.P,U6,12,RCLK*%
%TO.N,/RCLK*%
X153788889Y-76410000D03*
%TO.P,U6,13,SRCK*%
%TO.N,/SRCK*%
X153788889Y-73870000D03*
%TO.P,U6,14,DRAIN4*%
%TO.N,/B6-7*%
X153788889Y-71330000D03*
%TO.P,U6,15,DRAIN5*%
%TO.N,/B6-6*%
X153788889Y-68790000D03*
%TO.P,U6,16,DRAIN6*%
%TO.N,/B6-5*%
X153788889Y-66250000D03*
%TO.P,U6,17,DRAIN7*%
%TO.N,/B6-4*%
X153788889Y-63710000D03*
%TO.P,U6,18,SER_OUT*%
%TO.N,/Sin5*%
X153788889Y-61170000D03*
%TO.P,U6,19,LGND*%
%TO.N,GND*%
X153788889Y-58630000D03*
%TO.P,U6,20,PGND*%
X153788889Y-56090000D03*
%TD*%
D13*
%TO.P,J4,1,Pin_1*%
%TO.N,GND*%
X211550000Y-57450000D03*
D14*
%TO.P,J4,2,Pin_2*%
%TO.N,Net-(J4-Pin_10)*%
X211550000Y-54910000D03*
%TO.P,J4,3,Pin_3*%
%TO.N,GND*%
X214090000Y-57450000D03*
%TO.P,J4,4,Pin_4*%
%TO.N,Net-(J4-Pin_10)*%
X214090000Y-54910000D03*
%TO.P,J4,5,Pin_5*%
%TO.N,GND*%
X216630000Y-57450000D03*
%TO.P,J4,6,Pin_6*%
%TO.N,Net-(J4-Pin_10)*%
X216630000Y-54910000D03*
%TO.P,J4,7,Pin_7*%
%TO.N,GND*%
X219170000Y-57450000D03*
%TO.P,J4,8,Pin_8*%
%TO.N,Net-(J4-Pin_10)*%
X219170000Y-54910000D03*
%TO.P,J4,9,Pin_9*%
%TO.N,GND*%
X221710000Y-57450000D03*
%TO.P,J4,10,Pin_10*%
%TO.N,Net-(J4-Pin_10)*%
X221710000Y-54910000D03*
%TD*%
D11*
%TO.P,U5,1,PGND*%
%TO.N,GND*%
X128785000Y-56145000D03*
D12*
%TO.P,U5,2,VCC*%
%TO.N,V5.0*%
X128785000Y-58685000D03*
%TO.P,U5,3,SER_IN*%
%TO.N,/Sin5*%
X128785000Y-61225000D03*
%TO.P,U5,4,DRAIN0*%
%TO.N,/B5-3*%
X128785000Y-63765000D03*
%TO.P,U5,5,DRAIN1*%
%TO.N,/B5-2*%
X128785000Y-66305000D03*
%TO.P,U5,6,DRAIN2*%
%TO.N,/B5-1*%
X128785000Y-68845000D03*
%TO.P,U5,7,DRAIN3*%
%TO.N,/B5-0*%
X128785000Y-71385000D03*
%TO.P,U5,8,~{SRCLR}*%
%TO.N,/~{SRCLR}*%
X128785000Y-73925000D03*
%TO.P,U5,9,~{G}*%
%TO.N,POR*%
X128785000Y-76465000D03*
%TO.P,U5,10,PGND*%
%TO.N,GND*%
X128785000Y-79005000D03*
%TO.P,U5,11,PGND*%
X136405000Y-79005000D03*
%TO.P,U5,12,RCLK*%
%TO.N,/RCLK*%
X136405000Y-76465000D03*
%TO.P,U5,13,SRCK*%
%TO.N,/SRCK*%
X136405000Y-73925000D03*
%TO.P,U5,14,DRAIN4*%
%TO.N,/B5-7*%
X136405000Y-71385000D03*
%TO.P,U5,15,DRAIN5*%
%TO.N,/B5-6*%
X136405000Y-68845000D03*
%TO.P,U5,16,DRAIN6*%
%TO.N,/B5-5*%
X136405000Y-66305000D03*
%TO.P,U5,17,DRAIN7*%
%TO.N,/B5-4*%
X136405000Y-63765000D03*
%TO.P,U5,18,SER_OUT*%
%TO.N,unconnected-(U5-SER_OUT-Pad18)*%
X136405000Y-61225000D03*
%TO.P,U5,19,LGND*%
%TO.N,GND*%
X136405000Y-58685000D03*
%TO.P,U5,20,PGND*%
X136405000Y-56145000D03*
%TD*%
D10*
%TO.P,R1,1*%
%TO.N,V5.0*%
X199370000Y-102010000D03*
D18*
%TO.P,R1,2*%
%TO.N,POR*%
X189210000Y-102010000D03*
%TD*%
D11*
%TO.P,U8,1,PGND*%
%TO.N,GND*%
X181050000Y-56077500D03*
D12*
%TO.P,U8,2,VCC*%
%TO.N,V5.0*%
X181050000Y-58617500D03*
%TO.P,U8,3,SER_IN*%
%TO.N,/Sin8*%
X181050000Y-61157500D03*
%TO.P,U8,4,DRAIN0*%
%TO.N,/B8-3*%
X181050000Y-63697500D03*
%TO.P,U8,5,DRAIN1*%
%TO.N,/B8-2*%
X181050000Y-66237500D03*
%TO.P,U8,6,DRAIN2*%
%TO.N,/B8-1*%
X181050000Y-68777500D03*
%TO.P,U8,7,DRAIN3*%
%TO.N,/B8-0*%
X181050000Y-71317500D03*
%TO.P,U8,8,~{SRCLR}*%
%TO.N,/~{SRCLR}*%
X181050000Y-73857500D03*
%TO.P,U8,9,~{G}*%
%TO.N,POR*%
X181050000Y-76397500D03*
%TO.P,U8,10,PGND*%
%TO.N,GND*%
X181050000Y-78937500D03*
%TO.P,U8,11,PGND*%
X188670000Y-78937500D03*
%TO.P,U8,12,RCLK*%
%TO.N,/RCLK*%
X188670000Y-76397500D03*
%TO.P,U8,13,SRCK*%
%TO.N,/SRCK*%
X188670000Y-73857500D03*
%TO.P,U8,14,DRAIN4*%
%TO.N,/B8-7*%
X188670000Y-71317500D03*
%TO.P,U8,15,DRAIN5*%
%TO.N,/B8-6*%
X188670000Y-68777500D03*
%TO.P,U8,16,DRAIN6*%
%TO.N,/B8-5*%
X188670000Y-66237500D03*
%TO.P,U8,17,DRAIN7*%
%TO.N,/B8-4*%
X188670000Y-63697500D03*
%TO.P,U8,18,SER_OUT*%
%TO.N,/Sin7*%
X188670000Y-61157500D03*
%TO.P,U8,19,LGND*%
%TO.N,GND*%
X188670000Y-58617500D03*
%TO.P,U8,20,PGND*%
X188670000Y-56077500D03*
%TD*%
D10*
%TO.P,C11,1*%
%TO.N,V5.0*%
X125980000Y-103850000D03*
%TO.P,C11,2*%
%TO.N,GND*%
X125980000Y-101350000D03*
%TD*%
%TO.P,C9,1*%
%TO.N,V5.0*%
X160631825Y-58565000D03*
%TO.P,C9,2*%
%TO.N,GND*%
X160631825Y-56065000D03*
%TD*%
D21*
%TO.P,C1,1*%
%TO.N,Net-(J4-Pin_10)*%
X227747349Y-69510000D03*
D10*
%TO.P,C1,2*%
%TO.N,GND*%
X225247349Y-69510000D03*
%TD*%
D21*
%TO.P,C4,1*%
%TO.N,Net-(C4-Pad1)*%
X209397349Y-69510000D03*
D10*
%TO.P,C4,2*%
%TO.N,GND*%
X211897349Y-69510000D03*
%TD*%
%TO.P,C12,1*%
%TO.N,V5.0*%
X140530000Y-103850000D03*
%TO.P,C12,2*%
%TO.N,GND*%
X140530000Y-101350000D03*
%TD*%
D21*
%TO.P,RN1,1,R1.1*%
%TO.N,unconnected-(RN1-R1.1-Pad1)*%
X74390000Y-124720000D03*
D18*
%TO.P,RN1,2,R2.1*%
%TO.N,unconnected-(RN1-R2.1-Pad2)*%
X76930000Y-124720000D03*
%TO.P,RN1,3,R3.1*%
%TO.N,Net-(RN1-R3.1)*%
X79470000Y-124720000D03*
%TO.P,RN1,4,R4.1*%
%TO.N,Net-(RN1-R4.1)*%
X82010000Y-124720000D03*
%TO.P,RN1,5,R5.1*%
%TO.N,Net-(RN1-R5.1)*%
X84550000Y-124720000D03*
%TO.P,RN1,6,R6.1*%
%TO.N,Net-(RN1-R6.1)*%
X87090000Y-124720000D03*
%TO.P,RN1,7,R7.1*%
%TO.N,Net-(RN1-R7.1)*%
X89630000Y-124720000D03*
%TO.P,RN1,8,R8.1*%
%TO.N,Net-(RN1-R8.1)*%
X92170000Y-124720000D03*
%TO.P,RN1,9,R8.2*%
%TO.N,Net-(J3-Pin_6)*%
X92170000Y-117100000D03*
%TO.P,RN1,10,R7.2*%
%TO.N,Net-(J3-Pin_5)*%
X89630000Y-117100000D03*
%TO.P,RN1,11,R6.2*%
%TO.N,Net-(J3-Pin_4)*%
X87090000Y-117100000D03*
%TO.P,RN1,12,R5.2*%
%TO.N,Net-(J3-Pin_3)*%
X84550000Y-117100000D03*
%TO.P,RN1,13,R4.2*%
%TO.N,Net-(J3-Pin_2)*%
X82010000Y-117100000D03*
%TO.P,RN1,14,R3.2*%
%TO.N,Net-(J3-Pin_1)*%
X79470000Y-117100000D03*
%TO.P,RN1,15,R2.2*%
%TO.N,unconnected-(RN1-R2.2-Pad15)*%
X76930000Y-117100000D03*
%TO.P,RN1,16,R1.2*%
%TO.N,unconnected-(RN1-R1.2-Pad16)*%
X74390000Y-117100000D03*
%TD*%
D10*
%TO.P,C3,1*%
%TO.N,V5.0*%
X220990000Y-101920000D03*
%TO.P,C3,2*%
%TO.N,GND*%
X223490000Y-101920000D03*
%TD*%
%TO.P,C10,1*%
%TO.N,V5.0*%
X178120000Y-58577500D03*
%TO.P,C10,2*%
%TO.N,GND*%
X178120000Y-56077500D03*
%TD*%
D11*
%TO.P,U2,1,PGND*%
%TO.N,GND*%
X157880000Y-101320000D03*
D12*
%TO.P,U2,2,VCC*%
%TO.N,V5.0*%
X157880000Y-103860000D03*
%TO.P,U2,3,SER_IN*%
%TO.N,/Sin2*%
X157880000Y-106400000D03*
%TO.P,U2,4,DRAIN0*%
%TO.N,/B2-0*%
X157880000Y-108940000D03*
%TO.P,U2,5,DRAIN1*%
%TO.N,/B2-1*%
X157880000Y-111480000D03*
%TO.P,U2,6,DRAIN2*%
%TO.N,/B2-2*%
X157880000Y-114020000D03*
%TO.P,U2,7,DRAIN3*%
%TO.N,/B2-3*%
X157880000Y-116560000D03*
%TO.P,U2,8,~{SRCLR}*%
%TO.N,/~{SRCLR}*%
X157880000Y-119100000D03*
%TO.P,U2,9,~{G}*%
%TO.N,POR*%
X157880000Y-121640000D03*
%TO.P,U2,10,PGND*%
%TO.N,GND*%
X157880000Y-124180000D03*
%TO.P,U2,11,PGND*%
X165500000Y-124180000D03*
%TO.P,U2,12,RCLK*%
%TO.N,/RCLK*%
X165500000Y-121640000D03*
%TO.P,U2,13,SRCK*%
%TO.N,/SRCK*%
X165500000Y-119100000D03*
%TO.P,U2,14,DRAIN4*%
%TO.N,/B2-4*%
X165500000Y-116560000D03*
%TO.P,U2,15,DRAIN5*%
%TO.N,/B2-5*%
X165500000Y-114020000D03*
%TO.P,U2,16,DRAIN6*%
%TO.N,/B2-6*%
X165500000Y-111480000D03*
%TO.P,U2,17,DRAIN7*%
%TO.N,/B2-7*%
X165500000Y-108940000D03*
%TO.P,U2,18,SER_OUT*%
%TO.N,/Sin1*%
X165500000Y-106400000D03*
%TO.P,U2,19,LGND*%
%TO.N,GND*%
X165500000Y-103860000D03*
%TO.P,U2,20,PGND*%
X165500000Y-101320000D03*
%TD*%
D11*
%TO.P,U7,1,PGND*%
%TO.N,GND*%
X163561825Y-56065000D03*
D12*
%TO.P,U7,2,VCC*%
%TO.N,V5.0*%
X163561825Y-58605000D03*
%TO.P,U7,3,SER_IN*%
%TO.N,/Sin7*%
X163561825Y-61145000D03*
%TO.P,U7,4,DRAIN0*%
%TO.N,/B7-3*%
X163561825Y-63685000D03*
%TO.P,U7,5,DRAIN1*%
%TO.N,/B7-2*%
X163561825Y-66225000D03*
%TO.P,U7,6,DRAIN2*%
%TO.N,/B7-1*%
X163561825Y-68765000D03*
%TO.P,U7,7,DRAIN3*%
%TO.N,/B7-0*%
X163561825Y-71305000D03*
%TO.P,U7,8,~{SRCLR}*%
%TO.N,/~{SRCLR}*%
X163561825Y-73845000D03*
%TO.P,U7,9,~{G}*%
%TO.N,POR*%
X163561825Y-76385000D03*
%TO.P,U7,10,PGND*%
%TO.N,GND*%
X163561825Y-78925000D03*
%TO.P,U7,11,PGND*%
X171181825Y-78925000D03*
%TO.P,U7,12,RCLK*%
%TO.N,/RCLK*%
X171181825Y-76385000D03*
%TO.P,U7,13,SRCK*%
%TO.N,/SRCK*%
X171181825Y-73845000D03*
%TO.P,U7,14,DRAIN4*%
%TO.N,/B7-7*%
X171181825Y-71305000D03*
%TO.P,U7,15,DRAIN5*%
%TO.N,/B7-6*%
X171181825Y-68765000D03*
%TO.P,U7,16,DRAIN6*%
%TO.N,/B7-5*%
X171181825Y-66225000D03*
%TO.P,U7,17,DRAIN7*%
%TO.N,/B7-4*%
X171181825Y-63685000D03*
%TO.P,U7,18,SER_OUT*%
%TO.N,/Sin6*%
X171181825Y-61145000D03*
%TO.P,U7,19,LGND*%
%TO.N,GND*%
X171181825Y-58605000D03*
%TO.P,U7,20,PGND*%
X171181825Y-56065000D03*
%TD*%
D22*
%TO.N,GND*%
X219277349Y-61010000D03*
D23*
X221232856Y-120160000D03*
X218200000Y-109710000D03*
D22*
X222230000Y-61870000D03*
X215690000Y-63520000D03*
X211897349Y-62660000D03*
D23*
X225797140Y-120160000D03*
X205690000Y-84260000D03*
X224275712Y-113370000D03*
D22*
X223770000Y-61000000D03*
X223770000Y-61870000D03*
D23*
X218190000Y-120160000D03*
X218190000Y-118450000D03*
X228850000Y-109710000D03*
X228840000Y-118450000D03*
X222754284Y-120160000D03*
D22*
X225247349Y-64310000D03*
X222230000Y-63520000D03*
X222230000Y-61000000D03*
D23*
X211390000Y-91540000D03*
X205690000Y-87580000D03*
X227318568Y-118450000D03*
D22*
X219277349Y-64310000D03*
D23*
X225797140Y-115130000D03*
X205690000Y-82550000D03*
X222754284Y-113370000D03*
X225797140Y-118450000D03*
X218190000Y-111490000D03*
X227318568Y-116840000D03*
X224285712Y-109710000D03*
D22*
X213750000Y-61900000D03*
D23*
X218190000Y-115130000D03*
X212920000Y-93290000D03*
X205690000Y-78910000D03*
D22*
X213750000Y-61030000D03*
D23*
X222754284Y-115130000D03*
D22*
X223770000Y-64350000D03*
D23*
X205690000Y-85870000D03*
X207320000Y-82720000D03*
X225797140Y-111490000D03*
D22*
X219277349Y-62660000D03*
X222230000Y-62650000D03*
D23*
X207320000Y-84480000D03*
D22*
X220750000Y-64350000D03*
X217580000Y-62630000D03*
X215690000Y-62650000D03*
D23*
X219711428Y-118450000D03*
X212930000Y-84550000D03*
X95790000Y-81440000D03*
X219711428Y-115130000D03*
X224275712Y-120160000D03*
D22*
X220750000Y-61000000D03*
D23*
X98220000Y-81440000D03*
X181830000Y-101315000D03*
X222754284Y-116840000D03*
X228840000Y-120160000D03*
D22*
X217580000Y-64330000D03*
X217580000Y-63500000D03*
X211897349Y-61880000D03*
D23*
X207320000Y-86190000D03*
X221232856Y-111490000D03*
D22*
X223770000Y-62650000D03*
D23*
X227318568Y-113370000D03*
X219711428Y-120160000D03*
X221232856Y-115130000D03*
D22*
X217580000Y-61850000D03*
D23*
X207330000Y-79060000D03*
X211390000Y-84580000D03*
X224275712Y-115130000D03*
D22*
X215690000Y-61870000D03*
D23*
X225797140Y-113370000D03*
X218190000Y-113370000D03*
X228840000Y-111490000D03*
X222764284Y-109710000D03*
X212920000Y-86330000D03*
X221242856Y-109710000D03*
D22*
X215690000Y-61000000D03*
D23*
X212920000Y-88210000D03*
X99410000Y-81440000D03*
D22*
X215690000Y-64350000D03*
X219277349Y-61830000D03*
D23*
X114880000Y-103790000D03*
D22*
X225247349Y-60980000D03*
D23*
X227328568Y-109710000D03*
X211390000Y-93250000D03*
X221232856Y-116840000D03*
X225797140Y-116840000D03*
X227318568Y-120160000D03*
X212920000Y-91680000D03*
X225807140Y-109710000D03*
D22*
X217580000Y-60980000D03*
D23*
X192670000Y-78920000D03*
X224275712Y-111490000D03*
D22*
X211897349Y-64360000D03*
D23*
X115770000Y-103790000D03*
X219721428Y-109710000D03*
D22*
X225247349Y-62650000D03*
D23*
X222754284Y-111490000D03*
D22*
X211897349Y-61010000D03*
X222230000Y-64350000D03*
D23*
X219711428Y-113370000D03*
D22*
X213750000Y-62680000D03*
D23*
X211400000Y-82800000D03*
X207320000Y-89510000D03*
X211390000Y-86460000D03*
X228840000Y-115130000D03*
X218190000Y-116840000D03*
X182970000Y-101315000D03*
D22*
X225247349Y-61810000D03*
D23*
X221232856Y-113370000D03*
X221232856Y-118450000D03*
X97010000Y-81440000D03*
X222754284Y-118450000D03*
X228840000Y-116840000D03*
X227318568Y-115130000D03*
D22*
X219277349Y-63530000D03*
D23*
X227318568Y-111490000D03*
X191680000Y-78937500D03*
X207320000Y-87800000D03*
D22*
X220750000Y-63520000D03*
D23*
X219711428Y-116840000D03*
D22*
X213750000Y-64380000D03*
X223770000Y-63520000D03*
D23*
X224275712Y-118450000D03*
D22*
X211897349Y-63530000D03*
D23*
X228840000Y-113370000D03*
X205700000Y-77130000D03*
D22*
X213750000Y-63550000D03*
D23*
X207320000Y-80840000D03*
D22*
X220750000Y-61870000D03*
D23*
X190740000Y-78937500D03*
X211390000Y-88220000D03*
X224275712Y-116840000D03*
D22*
X225247349Y-63520000D03*
D23*
X219711428Y-111490000D03*
X205690000Y-80790000D03*
X211390000Y-89930000D03*
X212920000Y-95000000D03*
D22*
X220750000Y-62650000D03*
D23*
X212920000Y-89970000D03*
%TO.N,/Sin8*%
X199620000Y-77200000D03*
X199620000Y-90120000D03*
%TO.N,V5.0*%
X156520000Y-98810000D03*
X170620000Y-98810000D03*
X125960000Y-98810000D03*
X100140000Y-76340000D03*
X128900000Y-98810000D03*
X140500000Y-98810000D03*
X157890000Y-98810000D03*
X141980000Y-98810000D03*
X97660000Y-76340000D03*
X172030000Y-98810000D03*
X143460000Y-98810000D03*
X127370000Y-98810000D03*
X98850000Y-76340000D03*
X95230000Y-76340000D03*
X169120000Y-98810000D03*
X154940000Y-98810000D03*
X96450000Y-76340000D03*
%TO.N,Net-(C4-Pad1)*%
X204600000Y-100680000D03*
%TD*%
D24*
%TO.N,GND*%
X151090000Y-101350000D02*
X151090000Y-103890000D01*
D25*
X179660000Y-101315000D02*
X179660000Y-103855000D01*
X219277349Y-57557349D02*
X219277349Y-61010000D01*
X121720000Y-101350000D02*
X119280000Y-103790000D01*
X225247349Y-61810000D02*
X225247349Y-62650000D01*
D24*
X136530000Y-101350000D02*
X136530000Y-103890000D01*
X226745500Y-99380000D02*
X226745500Y-102564500D01*
D25*
X182920000Y-101350000D02*
X182930000Y-101360000D01*
X219277349Y-63530000D02*
X219277349Y-64310000D01*
X128785000Y-79005000D02*
X128852500Y-78937500D01*
X221850000Y-57450000D02*
X225247349Y-60847349D01*
X230040000Y-99930000D02*
X230000000Y-99970000D01*
X182930000Y-101360000D02*
X179705000Y-101360000D01*
D24*
X165500000Y-101320000D02*
X165500000Y-103860000D01*
D25*
X226745500Y-102564500D02*
X221930000Y-107380000D01*
X219277349Y-61830000D02*
X219277349Y-62660000D01*
X221710000Y-57450000D02*
X221850000Y-57450000D01*
X211897349Y-61880000D02*
X211897349Y-61010000D01*
D26*
X119680000Y-66300000D02*
X119680000Y-56140000D01*
D25*
X226790000Y-74320000D02*
X226790000Y-79354503D01*
X225247349Y-60980000D02*
X225247349Y-61810000D01*
X125980000Y-101350000D02*
X182920000Y-101350000D01*
X179705000Y-101360000D02*
X179660000Y-101315000D01*
X219277349Y-64310000D02*
X219277349Y-69510000D01*
D27*
X219170000Y-58340000D02*
X219170000Y-57450000D01*
D25*
X225247349Y-62650000D02*
X225247349Y-63520000D01*
X119280000Y-103790000D02*
X115770000Y-103790000D01*
X115770000Y-103790000D02*
X112960000Y-103790000D01*
X128852500Y-78937500D02*
X190740000Y-78937500D01*
X192652500Y-78937500D02*
X192670000Y-78920000D01*
X211897349Y-64360000D02*
X211897349Y-63530000D01*
X190740000Y-78937500D02*
X191680000Y-78937500D01*
X211897349Y-62660000D02*
X211897349Y-61880000D01*
X211897349Y-57797349D02*
X211550000Y-57450000D01*
D26*
X117230000Y-81420000D02*
X119680000Y-78970000D01*
D25*
X227335497Y-78860000D02*
X229940000Y-78860000D01*
X225462750Y-103892750D02*
X226745500Y-102610000D01*
X227335500Y-99970000D02*
X226745500Y-99380000D01*
X225247349Y-64310000D02*
X225247349Y-69510000D01*
X225247349Y-72777349D02*
X226790000Y-74320000D01*
D26*
X93380000Y-81420000D02*
X117230000Y-81420000D01*
D25*
X226790000Y-79354503D02*
X226815497Y-79380000D01*
D26*
X119680000Y-78970000D02*
X119680000Y-66300000D01*
D25*
X226815497Y-79380000D02*
X227335497Y-78860000D01*
X225247349Y-63520000D02*
X225247349Y-64310000D01*
X211897349Y-61010000D02*
X211897349Y-57797349D01*
X219277349Y-62660000D02*
X219277349Y-63530000D01*
X225247349Y-60847349D02*
X225247349Y-60980000D01*
X225247349Y-69510000D02*
X225247349Y-72777349D01*
X191680000Y-78937500D02*
X192652500Y-78937500D01*
X219277349Y-61010000D02*
X219277349Y-61830000D01*
X112960000Y-103790000D02*
X112930000Y-103820000D01*
X230040000Y-78960000D02*
X230040000Y-99930000D01*
X219170000Y-57450000D02*
X219277349Y-57557349D01*
X229940000Y-78860000D02*
X230040000Y-78960000D01*
X211897349Y-69510000D02*
X211897349Y-64360000D01*
X125980000Y-101350000D02*
X121720000Y-101350000D01*
X211897349Y-63530000D02*
X211897349Y-62660000D01*
X230000000Y-99970000D02*
X227335500Y-99970000D01*
X223490000Y-101920000D02*
X225462750Y-103892750D01*
D27*
%TO.N,/RCLK*%
X139520000Y-121670000D02*
X136530000Y-121670000D01*
X140925000Y-76465000D02*
X142280000Y-75110000D01*
X109230000Y-115290000D02*
X180700000Y-115290000D01*
X102300000Y-96490000D02*
X107780000Y-101970000D01*
X108310000Y-114370000D02*
X109230000Y-115290000D01*
X149360000Y-75110000D02*
X150660000Y-76410000D01*
X167885000Y-76385000D02*
X171181825Y-76385000D01*
X179660000Y-121635000D02*
X177115000Y-121635000D01*
X102300000Y-84960000D02*
X102300000Y-96490000D01*
X181260000Y-120035000D02*
X179660000Y-121635000D01*
X171181825Y-76385000D02*
X176175000Y-76385000D01*
X126830000Y-75260000D02*
X118680000Y-83410000D01*
X150660000Y-76410000D02*
X153788889Y-76410000D01*
X160970000Y-120380000D02*
X154800000Y-120380000D01*
X177440000Y-75120000D02*
X183780000Y-75120000D01*
X166610000Y-75110000D02*
X167885000Y-76385000D01*
X151090000Y-121670000D02*
X150640000Y-121220000D01*
X136405000Y-76465000D02*
X140925000Y-76465000D01*
X165480000Y-121620000D02*
X162210000Y-121620000D01*
X177115000Y-121635000D02*
X175860000Y-120380000D01*
X133075000Y-76465000D02*
X131870000Y-75260000D01*
X167960000Y-121640000D02*
X165500000Y-121640000D01*
X146730000Y-120400000D02*
X140790000Y-120400000D01*
X181260000Y-115850000D02*
X181260000Y-120035000D01*
X154800000Y-120380000D02*
X153510000Y-121670000D01*
X140790000Y-120400000D02*
X139520000Y-121670000D01*
X107780000Y-104120000D02*
X110030000Y-106370000D01*
X180700000Y-115290000D02*
X181260000Y-115850000D01*
X131870000Y-75260000D02*
X126830000Y-75260000D01*
X176175000Y-76385000D02*
X177440000Y-75120000D01*
X118680000Y-83410000D02*
X103850000Y-83410000D01*
X153510000Y-121670000D02*
X151090000Y-121670000D01*
X108310000Y-108090000D02*
X108310000Y-114370000D01*
X157900000Y-76410000D02*
X159200000Y-75110000D01*
X110030000Y-106370000D02*
X108310000Y-108090000D01*
X159200000Y-75110000D02*
X166610000Y-75110000D01*
X183780000Y-75120000D02*
X185057500Y-76397500D01*
X185057500Y-76397500D02*
X188670000Y-76397500D01*
X136405000Y-76465000D02*
X133075000Y-76465000D01*
X151090000Y-121670000D02*
X148000000Y-121670000D01*
X169220000Y-120380000D02*
X167960000Y-121640000D01*
X165500000Y-121640000D02*
X165510000Y-121630000D01*
X148000000Y-121670000D02*
X146730000Y-120400000D01*
X165500000Y-121640000D02*
X165480000Y-121620000D01*
X103850000Y-83410000D02*
X102300000Y-84960000D01*
X162210000Y-121620000D02*
X160970000Y-120380000D01*
X153788889Y-76410000D02*
X157900000Y-76410000D01*
X107780000Y-101970000D02*
X107780000Y-104120000D01*
X142280000Y-75110000D02*
X149360000Y-75110000D01*
X175860000Y-120380000D02*
X169220000Y-120380000D01*
%TO.N,/Sin8*%
X199620000Y-77200000D02*
X199620000Y-77320000D01*
X199620000Y-77200000D02*
X199620000Y-90120000D01*
%TO.N,/SRCK*%
X137720000Y-72610000D02*
X152528889Y-72610000D01*
X172386825Y-72640000D02*
X187452500Y-72640000D01*
X149840000Y-117880000D02*
X137780000Y-117880000D01*
X175660000Y-117840000D02*
X166760000Y-117840000D01*
X135280000Y-117880000D02*
X136530000Y-119130000D01*
X155078889Y-72580000D02*
X169916825Y-72580000D01*
X187452500Y-72640000D02*
X188670000Y-73857500D01*
X152400000Y-117820000D02*
X151090000Y-119130000D01*
X165500000Y-119100000D02*
X164220000Y-117820000D01*
X153788889Y-73870000D02*
X155078889Y-72580000D01*
X171181825Y-73845000D02*
X172386825Y-72640000D01*
X152528889Y-72610000D02*
X153788889Y-73870000D01*
X179660000Y-119095000D02*
X176915000Y-119095000D01*
X151090000Y-119130000D02*
X149840000Y-117880000D01*
X110030000Y-116530000D02*
X111380000Y-117880000D01*
X136405000Y-73925000D02*
X137720000Y-72610000D01*
X176915000Y-119095000D02*
X175660000Y-117840000D01*
X164220000Y-117820000D02*
X152400000Y-117820000D01*
X166760000Y-117840000D02*
X165500000Y-119100000D01*
X169916825Y-72580000D02*
X171181825Y-73845000D01*
X137780000Y-117880000D02*
X136530000Y-119130000D01*
X111380000Y-117880000D02*
X135280000Y-117880000D01*
%TO.N,/~{SRCLR3.3}*%
X95840000Y-97920000D02*
X101750000Y-103830000D01*
X101750000Y-103830000D02*
X102410000Y-103830000D01*
X73060000Y-78880000D02*
X92100000Y-97920000D01*
X92100000Y-97920000D02*
X95840000Y-97920000D01*
%TO.N,Net-(A1-D9_SCK)*%
X104180000Y-112220000D02*
X102410000Y-113990000D01*
X94010000Y-99200000D02*
X99960000Y-105150000D01*
X103240000Y-105150000D02*
X104180000Y-106090000D01*
X93380000Y-99200000D02*
X94010000Y-99200000D01*
X104180000Y-106090000D02*
X104180000Y-112220000D01*
X99960000Y-105150000D02*
X103240000Y-105150000D01*
D25*
%TO.N,V5.0*%
X154240000Y-51970000D02*
X142970000Y-51970000D01*
D28*
X140570000Y-103890000D02*
X140530000Y-103850000D01*
D29*
X143228889Y-58600000D02*
X142863889Y-58600000D01*
X158502778Y-56435953D02*
X158502778Y-52302778D01*
X143228889Y-58600000D02*
X146138889Y-58600000D01*
D25*
X143470000Y-103890000D02*
X140570000Y-103890000D01*
D29*
X140500000Y-98810000D02*
X141980000Y-98810000D01*
D25*
X200035000Y-105225000D02*
X196470000Y-105225000D01*
X157880000Y-103860000D02*
X155010000Y-103860000D01*
X102110000Y-55510000D02*
X102110000Y-74500000D01*
X123710000Y-51970000D02*
X105650000Y-51970000D01*
X201740000Y-78480000D02*
X201740000Y-54130000D01*
X214570000Y-102470000D02*
X214570000Y-102464500D01*
D29*
X141118889Y-52318889D02*
X140770000Y-51970000D01*
D25*
X215950000Y-101090000D02*
X214570000Y-102470000D01*
X97660000Y-76340000D02*
X96450000Y-76340000D01*
X142970000Y-51970000D02*
X141720000Y-51970000D01*
D29*
X169120000Y-98810000D02*
X170620000Y-98810000D01*
D28*
X146138889Y-58600000D02*
X146168889Y-58630000D01*
D25*
X214570000Y-102464500D02*
X217654500Y-99380000D01*
X220990000Y-101920000D02*
X215114500Y-101920000D01*
X112960000Y-101290000D02*
X110030000Y-101290000D01*
D28*
X211510000Y-114540000D02*
X211510000Y-118819948D01*
D25*
X197810000Y-124310000D02*
X206019948Y-124310000D01*
X211510000Y-118819948D02*
X211510000Y-105530000D01*
X184260000Y-51970000D02*
X175720000Y-51970000D01*
X100140000Y-76340000D02*
X98850000Y-76340000D01*
X201740000Y-88545500D02*
X201740000Y-78480000D01*
D29*
X142863889Y-58600000D02*
X141118889Y-56855000D01*
D25*
X169110000Y-51970000D02*
X158170000Y-51970000D01*
D28*
X155010000Y-103860000D02*
X154970000Y-103820000D01*
D29*
X128900000Y-98810000D02*
X140500000Y-98810000D01*
D25*
X105650000Y-51970000D02*
X102110000Y-55510000D01*
X95230000Y-76340000D02*
X93380000Y-76340000D01*
D29*
X160631825Y-58565000D02*
X158502778Y-56435953D01*
D25*
X206019948Y-124310000D02*
X207709948Y-122620000D01*
X102110000Y-74500000D02*
X100270000Y-76340000D01*
X98850000Y-76340000D02*
X97660000Y-76340000D01*
D29*
X123707857Y-56505000D02*
X123707857Y-51972143D01*
X175895714Y-52145714D02*
X175720000Y-51970000D01*
X156520000Y-98810000D02*
X157890000Y-98810000D01*
X158502778Y-52302778D02*
X158170000Y-51970000D01*
D25*
X199380000Y-105225000D02*
X196470000Y-105225000D01*
D28*
X181010000Y-58577500D02*
X181050000Y-58617500D01*
D29*
X157890000Y-98810000D02*
X169120000Y-98810000D01*
X141980000Y-98810000D02*
X143460000Y-98810000D01*
D25*
X172040000Y-103855000D02*
X169140000Y-103855000D01*
D29*
X141118889Y-56855000D02*
X141118889Y-52318889D01*
D25*
X199380000Y-104100000D02*
X199370000Y-104090000D01*
D28*
X126020000Y-103890000D02*
X125980000Y-103850000D01*
D25*
X215114500Y-101920000D02*
X201740000Y-88545500D01*
D29*
X175895714Y-56353214D02*
X175895714Y-52145714D01*
D25*
X201740000Y-54130000D02*
X199580000Y-51970000D01*
X199380000Y-105225000D02*
X199380000Y-104100000D01*
D29*
X125855000Y-58645000D02*
X128745000Y-58645000D01*
X154940000Y-98810000D02*
X156520000Y-98810000D01*
X127370000Y-98810000D02*
X128900000Y-98810000D01*
D28*
X169140000Y-103855000D02*
X169100000Y-103815000D01*
D25*
X128910000Y-103890000D02*
X126020000Y-103890000D01*
X141720000Y-51970000D02*
X140770000Y-51970000D01*
D29*
X125960000Y-98810000D02*
X127370000Y-98810000D01*
D28*
X215114500Y-101920000D02*
X214570000Y-102464500D01*
D29*
X178120000Y-58577500D02*
X181010000Y-58577500D01*
X123707857Y-51972143D02*
X123710000Y-51970000D01*
D25*
X158170000Y-51970000D02*
X154240000Y-51970000D01*
X211510000Y-105530000D02*
X214570000Y-102470000D01*
X211510000Y-114540000D02*
X209350000Y-114540000D01*
X199370000Y-102400000D02*
X199370000Y-104090000D01*
D29*
X112960000Y-101290000D02*
X115440000Y-98810000D01*
D25*
X96450000Y-76340000D02*
X95230000Y-76340000D01*
D28*
X163521825Y-58565000D02*
X163561825Y-58605000D01*
D29*
X125847857Y-58645000D02*
X123707857Y-56505000D01*
D25*
X175720000Y-51970000D02*
X169110000Y-51970000D01*
X100270000Y-76340000D02*
X100140000Y-76340000D01*
D28*
X199370000Y-102010000D02*
X199370000Y-102400000D01*
X141210000Y-51970000D02*
X141720000Y-51970000D01*
D29*
X170620000Y-98810000D02*
X172030000Y-98810000D01*
D25*
X140770000Y-51970000D02*
X139140000Y-51970000D01*
D29*
X178120000Y-58577500D02*
X175895714Y-56353214D01*
D25*
X139140000Y-51970000D02*
X123710000Y-51970000D01*
D29*
X115440000Y-98810000D02*
X125960000Y-98810000D01*
D28*
X128745000Y-58645000D02*
X128785000Y-58685000D01*
D29*
X125855000Y-58645000D02*
X125847857Y-58645000D01*
D25*
X209350000Y-114540000D02*
X200035000Y-105225000D01*
D29*
X143460000Y-98810000D02*
X154940000Y-98810000D01*
X160631825Y-58565000D02*
X163521825Y-58565000D01*
D25*
X207709948Y-122620000D02*
X211510000Y-118819948D01*
X199580000Y-51970000D02*
X184260000Y-51970000D01*
D27*
%TO.N,Net-(U9-I3a)*%
X100570000Y-111470000D02*
X100570000Y-117230000D01*
X93380000Y-104280000D02*
X100570000Y-111470000D01*
X100570000Y-117230000D02*
X102410000Y-119070000D01*
%TO.N,/Sin1*%
X172035000Y-106400000D02*
X172040000Y-106395000D01*
X165500000Y-106400000D02*
X172035000Y-106400000D01*
D25*
%TO.N,V3.3*%
X107440000Y-76310000D02*
X104900000Y-76310000D01*
X107440000Y-78850000D02*
X107440000Y-76310000D01*
X93380000Y-78880000D02*
X107410000Y-78880000D01*
D27*
X107410000Y-78880000D02*
X107440000Y-78850000D01*
D25*
X104900000Y-76310000D02*
X104900000Y-78850000D01*
D27*
%TO.N,Net-(A1-RESET)*%
X98240000Y-83960000D02*
X93380000Y-83960000D01*
X99580000Y-89080000D02*
X99580000Y-85300000D01*
X99580000Y-85300000D02*
X98240000Y-83960000D01*
%TO.N,Net-(RN1-R3.1)*%
X78190000Y-123440000D02*
X78190000Y-111950000D01*
X79470000Y-124720000D02*
X78190000Y-123440000D01*
X78190000Y-111950000D02*
X73060000Y-106820000D01*
%TO.N,Net-(RN1-R4.1)*%
X80730000Y-123440000D02*
X80730000Y-111950000D01*
X80730000Y-111950000D02*
X73060000Y-104280000D01*
X82010000Y-124720000D02*
X80730000Y-123440000D01*
%TO.N,Net-(RN1-R7.1)*%
X89630000Y-124720000D02*
X88370000Y-123460000D01*
X88370000Y-123460000D02*
X88370000Y-111970000D01*
X88370000Y-111970000D02*
X73060000Y-96660000D01*
%TO.N,Net-(RN1-R5.1)*%
X83300000Y-123470000D02*
X83300000Y-111980000D01*
X83300000Y-111980000D02*
X73060000Y-101740000D01*
X84550000Y-124720000D02*
X83300000Y-123470000D01*
%TO.N,Net-(RN1-R6.1)*%
X85840000Y-111980000D02*
X73060000Y-99200000D01*
X87090000Y-124720000D02*
X85840000Y-123470000D01*
X85840000Y-123470000D02*
X85840000Y-111980000D01*
D25*
%TO.N,Net-(J4-Pin_10)*%
X204950000Y-59050000D02*
X204950000Y-72230000D01*
X223820000Y-54910000D02*
X221710000Y-54910000D01*
X211550000Y-54910000D02*
X209090000Y-54910000D01*
X227747349Y-58837349D02*
X223820000Y-54910000D01*
X216777349Y-75707349D02*
X217620001Y-76550001D01*
X211350000Y-78630000D02*
X216870001Y-78630000D01*
X216777349Y-69510000D02*
X216777349Y-75707349D01*
X209090000Y-54910000D02*
X204950000Y-59050000D01*
X204950000Y-72230000D02*
X211350000Y-78630000D01*
X217620001Y-76550001D02*
X217620001Y-79380000D01*
X221710000Y-54910000D02*
X211550000Y-54910000D01*
X216870001Y-78630000D02*
X217620001Y-79380000D01*
X227747349Y-69510000D02*
X227747349Y-58837349D01*
D27*
%TO.N,Net-(A1-D8_MOSI)*%
X94180000Y-101740000D02*
X101350000Y-108910000D01*
X93380000Y-101740000D02*
X94180000Y-101740000D01*
X101350000Y-108910000D02*
X102410000Y-108910000D01*
%TO.N,Net-(RN1-R8.1)*%
X92170000Y-124720000D02*
X90930000Y-123480000D01*
X90930000Y-123480000D02*
X90930000Y-111990000D01*
X90930000Y-111990000D02*
X73060000Y-94120000D01*
%TO.N,/Sin2*%
X157850000Y-106430000D02*
X157880000Y-106400000D01*
X151090000Y-106430000D02*
X157850000Y-106430000D01*
%TO.N,/Sin3*%
X136530000Y-106430000D02*
X143470000Y-106430000D01*
%TO.N,/Sin4*%
X122230000Y-106430000D02*
X128910000Y-106430000D01*
X110030000Y-111450000D02*
X117210000Y-111450000D01*
X117210000Y-111450000D02*
X122230000Y-106430000D01*
%TO.N,/Sin5*%
X152558889Y-62400000D02*
X129960000Y-62400000D01*
X153788889Y-61170000D02*
X152558889Y-62400000D01*
X129960000Y-62400000D02*
X128785000Y-61225000D01*
%TO.N,/Sin6*%
X147468889Y-59870000D02*
X146168889Y-61170000D01*
X171181825Y-61145000D02*
X169906825Y-59870000D01*
X169906825Y-59870000D02*
X147468889Y-59870000D01*
%TO.N,/Sin7*%
X164846825Y-62430000D02*
X163561825Y-61145000D01*
X187397500Y-62430000D02*
X164846825Y-62430000D01*
X188670000Y-61157500D02*
X187397500Y-62430000D01*
D25*
%TO.N,V170*%
X110680000Y-90460000D02*
X111740000Y-90460000D01*
X109460000Y-95070000D02*
X109460000Y-91680000D01*
X109460000Y-91680000D02*
X110680000Y-90460000D01*
X111740000Y-90460000D02*
X149840000Y-90460000D01*
X110760000Y-96370000D02*
X109460000Y-95070000D01*
X207709948Y-107380000D02*
X207709948Y-100139948D01*
X207709948Y-100139948D02*
X203940000Y-96370000D01*
X203940000Y-96370000D02*
X110760000Y-96370000D01*
D27*
%TO.N,/~{SRCLR}*%
X158545000Y-73845000D02*
X163561825Y-73845000D01*
X128785000Y-73925000D02*
X128790000Y-73920000D01*
X157250000Y-75140000D02*
X158545000Y-73845000D01*
X148420000Y-120470000D02*
X152890000Y-120470000D01*
X163561825Y-73845000D02*
X167005000Y-73845000D01*
X152890000Y-120470000D02*
X154260000Y-119100000D01*
X143470000Y-119130000D02*
X147080000Y-119130000D01*
X175820000Y-75220000D02*
X177182500Y-73857500D01*
X147080000Y-119130000D02*
X148420000Y-120470000D01*
X140850000Y-119150000D02*
X143450000Y-119150000D01*
X143450000Y-119150000D02*
X143470000Y-119130000D01*
X134300000Y-120370000D02*
X139630000Y-120370000D01*
X157880000Y-119100000D02*
X161050000Y-119100000D01*
X167005000Y-73845000D02*
X168380000Y-75220000D01*
X133060000Y-119130000D02*
X134300000Y-120370000D01*
X139630000Y-120370000D02*
X140850000Y-119150000D01*
X177182500Y-73857500D02*
X181050000Y-73857500D01*
X121350000Y-119130000D02*
X128910000Y-119130000D01*
X131890000Y-73920000D02*
X133200000Y-75230000D01*
X168030000Y-120350000D02*
X169285000Y-119095000D01*
X150160000Y-73870000D02*
X151430000Y-75140000D01*
X151430000Y-75140000D02*
X157250000Y-75140000D01*
X110030000Y-121610000D02*
X118870000Y-121610000D01*
X161050000Y-119100000D02*
X162300000Y-120350000D01*
X142210000Y-73870000D02*
X146168889Y-73870000D01*
X118870000Y-121610000D02*
X121350000Y-119130000D01*
X133200000Y-75230000D02*
X140850000Y-75230000D01*
X146168889Y-73870000D02*
X150160000Y-73870000D01*
X128790000Y-73920000D02*
X131890000Y-73920000D01*
X169285000Y-119095000D02*
X172040000Y-119095000D01*
X162300000Y-120350000D02*
X168030000Y-120350000D01*
X154260000Y-119100000D02*
X157880000Y-119100000D01*
X168380000Y-75220000D02*
X175820000Y-75220000D01*
X140850000Y-75230000D02*
X142210000Y-73870000D01*
X128910000Y-119130000D02*
X133060000Y-119130000D01*
D28*
%TO.N,POR*%
X160900000Y-121640000D02*
X157880000Y-121640000D01*
X186990000Y-119920000D02*
X183930000Y-122980000D01*
X154990000Y-121640000D02*
X153690000Y-122940000D01*
X176830000Y-122980000D02*
X175485000Y-121635000D01*
X139530000Y-122910000D02*
X133080000Y-122910000D01*
D27*
X164856825Y-77680000D02*
X163561825Y-76385000D01*
D28*
X188850000Y-112845000D02*
X187090000Y-111085000D01*
X157880000Y-121640000D02*
X154990000Y-121640000D01*
X133080000Y-122910000D02*
X131840000Y-121670000D01*
D27*
X133085000Y-77740000D02*
X131810000Y-76465000D01*
D28*
X162200000Y-122940000D02*
X160900000Y-121640000D01*
X153690000Y-122940000D02*
X147920000Y-122940000D01*
X187090000Y-104050000D02*
X189110000Y-102030000D01*
D27*
X162236825Y-77710000D02*
X147468889Y-77710000D01*
D28*
X172040000Y-121635000D02*
X169395000Y-121635000D01*
X146650000Y-121670000D02*
X143470000Y-121670000D01*
X186990000Y-114705000D02*
X186990000Y-119920000D01*
D27*
X144900000Y-77690000D02*
X144850000Y-77740000D01*
X179767500Y-77680000D02*
X164856825Y-77680000D01*
D28*
X147920000Y-122940000D02*
X146650000Y-121670000D01*
X168090000Y-122940000D02*
X162200000Y-122940000D01*
X169395000Y-121635000D02*
X168090000Y-122940000D01*
D27*
X181050000Y-76397500D02*
X179767500Y-77680000D01*
X147468889Y-77710000D02*
X146168889Y-76410000D01*
D28*
X143470000Y-121670000D02*
X140770000Y-121670000D01*
X183930000Y-122980000D02*
X176830000Y-122980000D01*
D27*
X163561825Y-76385000D02*
X162236825Y-77710000D01*
D28*
X188850000Y-112845000D02*
X186990000Y-114705000D01*
D27*
X144900000Y-77678889D02*
X144900000Y-77690000D01*
X144850000Y-77740000D02*
X133085000Y-77740000D01*
X146168889Y-76410000D02*
X144900000Y-77678889D01*
D28*
X175485000Y-121635000D02*
X172040000Y-121635000D01*
X187090000Y-111085000D02*
X187090000Y-104050000D01*
X131840000Y-121670000D02*
X128910000Y-121670000D01*
X140770000Y-121670000D02*
X139530000Y-122910000D01*
D27*
X131810000Y-76465000D02*
X128785000Y-76465000D01*
%TO.N,Net-(C4-Pad1)*%
X191700000Y-107720000D02*
X189205000Y-105225000D01*
X196750000Y-100020000D02*
X196090000Y-100680000D01*
X203940000Y-100020000D02*
X196750000Y-100020000D01*
X189205000Y-105225000D02*
X188850000Y-105225000D01*
X188210000Y-124310000D02*
X191700000Y-120820000D01*
X196080000Y-100690000D02*
X191545000Y-105225000D01*
X196090000Y-100680000D02*
X196080000Y-100690000D01*
X187650000Y-124310000D02*
X188210000Y-124310000D01*
X204600000Y-100680000D02*
X203940000Y-100020000D01*
X191700000Y-120820000D02*
X191700000Y-107720000D01*
X191545000Y-105225000D02*
X188850000Y-105225000D01*
%TD*%
%TA.AperFunction,Conductor*%
%TO.N,GND*%
G36*
X220850000Y-106460000D02*
G01*
X230779537Y-106460000D01*
X230760119Y-126625973D01*
X230740370Y-126692994D01*
X230687522Y-126738698D01*
X230635973Y-126749854D01*
X213883854Y-126730145D01*
X213816838Y-126710381D01*
X213771145Y-126657524D01*
X213760000Y-126606145D01*
X213760000Y-106113927D01*
X213779685Y-106046888D01*
X213832489Y-106001133D01*
X213883926Y-105989927D01*
X221324444Y-105985555D01*
X220850000Y-106460000D01*
G37*
%TD.AperFunction*%
%TD*%
%TA.AperFunction,Conductor*%
%TO.N,GND*%
G36*
X224640000Y-68030000D02*
G01*
X224640000Y-72930000D01*
X226313936Y-74613725D01*
X226347243Y-74675145D01*
X226350000Y-74701150D01*
X226350000Y-79496367D01*
X226330315Y-79563406D01*
X226277511Y-79609161D01*
X226226367Y-79620366D01*
X219724367Y-79639631D01*
X219657270Y-79620146D01*
X219611359Y-79567477D01*
X219600000Y-79515632D01*
X219600000Y-75950000D01*
X219599999Y-75949999D01*
X218307169Y-74686331D01*
X218272986Y-74625393D01*
X218269846Y-74598030D01*
X218260166Y-71331082D01*
X218250386Y-68030000D01*
X218250385Y-68030000D01*
X218250000Y-67900000D01*
X224640000Y-67900000D01*
X224640000Y-68030000D01*
G37*
%TD.AperFunction*%
%TD*%
%TA.AperFunction,Conductor*%
%TO.N,GND*%
G36*
X223235963Y-56449652D02*
G01*
X223256334Y-56465945D01*
X225983208Y-59163602D01*
X226017022Y-59224744D01*
X226020000Y-59251754D01*
X226020000Y-67906000D01*
X226000315Y-67973039D01*
X225947511Y-68018794D01*
X225896000Y-68030000D01*
X224640000Y-68030000D01*
X224640000Y-67900000D01*
X218250000Y-67900000D01*
X218250385Y-68030000D01*
X210663680Y-68030000D01*
X210596641Y-68010315D01*
X210550886Y-67957511D01*
X210539680Y-67906321D01*
X210510323Y-56564803D01*
X210529834Y-56497713D01*
X210582520Y-56451821D01*
X210634800Y-56440483D01*
X213090000Y-56450000D01*
X223168888Y-56430100D01*
X223235963Y-56449652D01*
G37*
%TD.AperFunction*%
%TD*%
%TA.AperFunction,Conductor*%
%TO.N,GND*%
G36*
X204745203Y-74415678D02*
G01*
X204755516Y-74425720D01*
X205176911Y-74886621D01*
X205176912Y-74886623D01*
X205176917Y-74886628D01*
X205176920Y-74886631D01*
X214001794Y-83343388D01*
X214036577Y-83403983D01*
X214040000Y-83432916D01*
X214040000Y-97868853D01*
X214020315Y-97935892D01*
X213967511Y-97981647D01*
X213898353Y-97991591D01*
X213834797Y-97962566D01*
X213827952Y-97956166D01*
X204575952Y-88626254D01*
X204542724Y-88564791D01*
X204540000Y-88538941D01*
X204540000Y-74509391D01*
X204559685Y-74442352D01*
X204612489Y-74396597D01*
X204681647Y-74386653D01*
X204745203Y-74415678D01*
G37*
%TD.AperFunction*%
%TD*%
%TA.AperFunction,Conductor*%
%TO.N,GND*%
G36*
X230781827Y-99829685D02*
G01*
X230827582Y-99882489D01*
X230838782Y-99935206D01*
X230780000Y-105979985D01*
X230780000Y-106408141D01*
X230779587Y-106409546D01*
X230779538Y-106460000D01*
X220850000Y-106460000D01*
X227463681Y-99846319D01*
X227525004Y-99812834D01*
X227551362Y-99810000D01*
X230714788Y-99810000D01*
X230781827Y-99829685D01*
G37*
%TD.AperFunction*%
%TD*%
M02*
