%TF.GenerationSoftware,KiCad,Pcbnew,8.0.8*%
%TF.CreationDate,2025-04-22T20:57:00-07:00*%
%TF.ProjectId,logic,6c6f6769-632e-46b6-9963-61645f706362,rev?*%
%TF.SameCoordinates,Original*%
%TF.FileFunction,Legend,Bot*%
%TF.FilePolarity,Positive*%
%FSLAX46Y46*%
G04 Gerber Fmt 4.6, Leading zero omitted, Abs format (unit mm)*
G04 Created by KiCad (PCBNEW 8.0.8) date 2025-04-22 20:57:00*
%MOMM*%
%LPD*%
G01*
G04 APERTURE LIST*
%ADD10C,0.150000*%
G04 APERTURE END LIST*
D10*
X74510180Y-94858094D02*
X75510180Y-94858094D01*
X75510180Y-94858094D02*
X75510180Y-94619999D01*
X75510180Y-94619999D02*
X75462561Y-94477142D01*
X75462561Y-94477142D02*
X75367323Y-94381904D01*
X75367323Y-94381904D02*
X75272085Y-94334285D01*
X75272085Y-94334285D02*
X75081609Y-94286666D01*
X75081609Y-94286666D02*
X74938752Y-94286666D01*
X74938752Y-94286666D02*
X74748276Y-94334285D01*
X74748276Y-94334285D02*
X74653038Y-94381904D01*
X74653038Y-94381904D02*
X74557800Y-94477142D01*
X74557800Y-94477142D02*
X74510180Y-94619999D01*
X74510180Y-94619999D02*
X74510180Y-94858094D01*
X75510180Y-93667618D02*
X75510180Y-93572380D01*
X75510180Y-93572380D02*
X75462561Y-93477142D01*
X75462561Y-93477142D02*
X75414942Y-93429523D01*
X75414942Y-93429523D02*
X75319704Y-93381904D01*
X75319704Y-93381904D02*
X75129228Y-93334285D01*
X75129228Y-93334285D02*
X74891133Y-93334285D01*
X74891133Y-93334285D02*
X74700657Y-93381904D01*
X74700657Y-93381904D02*
X74605419Y-93429523D01*
X74605419Y-93429523D02*
X74557800Y-93477142D01*
X74557800Y-93477142D02*
X74510180Y-93572380D01*
X74510180Y-93572380D02*
X74510180Y-93667618D01*
X74510180Y-93667618D02*
X74557800Y-93762856D01*
X74557800Y-93762856D02*
X74605419Y-93810475D01*
X74605419Y-93810475D02*
X74700657Y-93858094D01*
X74700657Y-93858094D02*
X74891133Y-93905713D01*
X74891133Y-93905713D02*
X75129228Y-93905713D01*
X75129228Y-93905713D02*
X75319704Y-93858094D01*
X75319704Y-93858094D02*
X75414942Y-93810475D01*
X75414942Y-93810475D02*
X75462561Y-93762856D01*
X75462561Y-93762856D02*
X75510180Y-93667618D01*
M02*
